<svg xmlns="http://www.w3.org/2000/svg" viewBox="0 0 52 52">
<path d="M26 51.9961C40.3579 51.9961 52 40.3579 52 25.9961C52 11.6344 40.3579 0 26 0C11.6421 0 0 11.6383 0 26C0 40.3617 11.6383 52 26 52V51.9961Z" fill="#E10F1B"/>
<path d="M34.5561 24.7656C36.832 23.616 38.2825 21.5175 38.2825 18.9175C38.2825 12.7416 32.932 11.4416 28.0561 11.5959H14.732V40.8439H28.3801C34.5561 40.8439 39.4282 38.7416 39.4282 31.7439C39.4282 28.3416 37.4801 25.7416 34.5522 24.7695L34.5561 24.7656ZM22.208 17.4439H27.8825C29.5065 17.4439 30.9608 18.092 30.9608 20.2175C30.9608 22.3431 29.1825 23.1416 27.8825 23.1416H22.208V17.4439ZM28.0561 34.8416H22.0344V28.0175H28.0561C30.332 28.0175 32.1296 28.8392 32.1296 31.5935C32.1296 34.0199 30.332 34.8416 28.0561 34.8416Z" fill="white"/>
</svg>
