<svg version="1.1" id="Calque_1" xmlns="http://www.w3.org/2000/svg" x="0" y="0" viewBox="0 0 1000 132.7" xml:space="preserve"><path d="M619.6 15.3h-22.4v10.1h22.4v10.1h-22.4v10.1h22.4v10.1h-32.5V5.2h32.5v10.1zm24.3 3.4c6.6 0 11.2 2.1 14.3 5.3l-5.3 6.9c-2-2.2-5.9-3.7-9.7-3.7-3.1 0-4.6.9-4.6 2.5 0 1.8 1.9 2.2 8.3 3.6 6.3 1.3 11.5 3.7 11.5 11.3 0 8.3-6 11.7-15.5 11.7-6.9 0-12.8-1.9-15.9-6l5.5-7.2c2.4 2.9 6.3 4.7 11.4 4.7 2.7 0 4.8-.7 4.8-2.7s-1.9-2.3-8-3.7c-5.4-1.1-11.9-3.5-11.9-11.3-.1-7.2 5.6-11.4 15.1-11.4zm38.8 0c5.7 0 10.4 2 13.6 5.2l-5.4 7.6c-2.1-2.3-5.1-3.6-8.3-3.6-5.4 0-9.4 3.8-9.4 9.6s4 9.6 9.4 9.6c3.2 0 6.3-1.4 8.5-3.7l5.2 7.6c-3.1 3.1-7.8 5.3-13.9 5.3-11 0-19-7.4-19-18.8s8.2-18.8 19.3-18.8zm36.9 0c11.1 0 19.3 7.6 19.3 18.8s-8.3 18.8-19.3 18.8-19.3-7.6-19.3-18.8 8.2-18.8 19.3-18.8zm0 9.3c-5.5 0-9.6 3.8-9.6 9.6s4.1 9.6 9.6 9.6 9.6-3.8 9.6-9.6-4.2-9.6-9.6-9.6zm36.5 27.5h-9.6V5.2h9.6v50.3zm24.6-36.7c10.6 0 15.7 4.5 15.7 14.6v22.2H787v-4.9c-1.9 2.9-5.4 5.6-11.1 5.6-7.1 0-12.1-4.6-12.1-11.2 0-6.5 4.9-10.7 11.5-11.3l9.8-.9c1.2-.1 1.9-.6 1.9-1.4V31c0-2.1-1.9-3.6-6.3-3.6-3.7 0-7.7 1.2-9 4.6l-7-5c2.4-5.5 8.2-8.2 16-8.2zm-2.6 21.9c-3 .5-4.5 1.9-4.5 4 0 2.3 1.7 3.8 5.1 3.8 5 0 8.3-3.4 8.3-7.4v-1.4l-8.9 1zm86.7 14.8h-9.5v-5c-2.7 3.9-7.2 6.1-12 6-8.9 0-16.4-6.8-16.4-18.9s7.4-18.9 16.2-18.9c4.8-.1 9.3 2.2 12.1 6.1V5.3h9.5l.1 50.2zm-28-17.9c0 5.8 4 9.6 9.4 9.6s9.4-3.7 9.4-9.6-4-9.6-9.4-9.6c-5.5 0-9.4 3.7-9.4 9.6zm43.5-20.3c-3.4-1.4-5-5.4-3.6-8.8 1.4-3.4 5.4-5 8.8-3.6 2.5 1.1 4.1 3.5 4.1 6.2 0 1.3-.4 2.7-1.2 3.7L880 28.5l-4.9-2.7 5.2-8.5zm15.8 30.3l-3.7 7.9h-11.1l23.3-50.3h9.3l23.3 50.3h-11.1l-3.7-7.9h-26.3zm21.8-10L909.3 19l-8.6 18.5 17.2.1zm44.9-18.9c1.2 0 2.4.2 3.5.5v10.2c-1.4-.4-2.8-.6-4.3-.6-6.3 0-9.1 3.5-9.1 10.4v16.2h-9.5V19.6h9.2v5.9c1.9-4.3 5.1-6.8 10.2-6.8zm24.9 37.2c-6.7 0-10.6-3.1-10.6-11.3v-17h-6.5v-8h6.5V10h9.5v9.6h9.1v8h-9.1v15.6c0 2.3 1.1 3.2 3.6 3.2 1.8 0 3.5-.2 5.2-.6v9c-2.5.6-5.1 1-7.7 1.1zM591.9 66.1c3.4-.1 6.2 2.5 6.3 5.9.1 3.4-2.5 6.2-5.9 6.3h-.4c-3.4-.1-6-2.9-5.9-6.3.2-3.3 2.7-5.8 5.9-5.9zm4.7 52.3h-9.5V82.5h9.5v35.9zm73.7-25.2c0 14.5-10.5 25.1-24.6 25.1h-18.2V68.1h18.3c14.1 0 24.5 10.6 24.5 25.1zm-24.6-15h-8.2v30.2h8.2c8.6 0 14.6-6.5 14.6-15.1s-6-15.1-14.6-15.1zm36.7-12.1c3.4-.1 6.2 2.5 6.3 5.9s-2.5 6.2-5.9 6.3h-.4c-3.4-.1-6-2.9-5.9-6.3.1-3.3 2.7-5.8 5.9-5.9zm4.7 52.3h-9.5V82.5h9.5v35.9zm24.1-36.8c6.6 0 11.2 2.1 14.3 5.3l-5.3 6.9c-2-2.2-5.9-3.7-9.7-3.7-3.1 0-4.6.9-4.6 2.5 0 1.8 1.9 2.2 8.3 3.6 6.2 1.3 11.5 3.7 11.5 11.3 0 8.3-6 11.7-15.5 11.7-6.9 0-12.8-1.9-15.9-6l5.5-7.2c2.4 2.9 6.3 4.7 11.3 4.7 2.7 0 4.8-.7 4.8-2.7s-1.9-2.3-8-3.7c-5.4-1.1-12-3.5-12-11.3.2-7.2 5.8-11.4 15.3-11.4zm34.6 0c6.6 0 11.2 2.1 14.3 5.3l-5.3 6.9c-2-2.2-5.9-3.7-9.7-3.7-3.1 0-4.6.9-4.6 2.5 0 1.8 1.9 2.2 8.3 3.6 6.3 1.3 11.5 3.7 11.5 11.3 0 8.3-6 11.7-15.5 11.7-6.9 0-12.8-1.9-15.9-6l5.5-7.2c2.4 2.9 6.3 4.7 11.4 4.7 2.7 0 4.8-.7 4.8-2.7s-1.9-2.3-8-3.7c-5.4-1.1-11.9-3.5-11.9-11.3-.1-7.2 5.6-11.4 15.1-11.4zm38 0c11 0 17.7 7.5 17.7 19.1v2.6h-26.4l.1.1c1.1 4.8 5.4 6.9 9.6 6.9 3.7.1 7.4-1.2 10.2-3.7l4 7.8c-3 2.5-7.4 4.7-14.3 4.7-12.1 0-19.3-8.1-19.3-18.8s7.1-18.7 18.4-18.7zm-.3 8.1c-4.6 0-7.5 2.4-8.5 6.8h16.2c-.5-4-3.1-6.9-7.7-6.8zm46.3-8.1c8.4 0 12.8 5.4 12.8 14.5v22.3h-9.7V98.5c0-5.5-2.5-7.8-6.5-7.8-5.5 0-7.8 4.1-7.8 10.5v17.2H809V82.5h9.2v5.2c2.6-3.9 7-6.2 11.6-6.1zm31.5 31.6l-15.2-30.7h11.1l9.2 19.7 8.9-19.7h10.1l-22.7 50.3h-10.1l8.7-19.6zM118.3 5.3H96.6v113.4h73.9V98.6h-52.2V5.3zm254.1 0h-89.6v20.1h34v93.3h21.5V25.4h34l.1-20.1zm128.6 0h-27.3l-39.5 113.4H457l7.7-22.7H510l7.7 22.7h22.8L501 5.3zm-29.5 70.5l15.8-46.6 15.8 46.6h-31.6zM225.8 2.3c-32.7 0-59.2 26.5-59.2 59.2s26.5 59.2 59.2 59.2S285 94.1 285 61.4 258.5 2.3 225.8 2.3zm40.7 77.1c-1.3 2-3.1 3.5-5.2 4.4-17.9 7.9-41.4 14.6-53.4 16.1-1.5.2-3 0-4.4-.6-4.1-1.8-5.2-7.3-5.7-9.5-1.7-8-.8-44 2.9-60.9 1.8-8.2 9.1-8.3 13.9-7.3 35.7 7 52 38.8 53.3 49.2.4 2.9-.1 5.9-1.4 8.6zM60.6 86.5c-5 2.7-16.9 10.9-20.6 12.9-6 3.1-12.6 5-16.1-1.2C13 79 37.9 51.3 53.8 36.9c26.7-24.1-9.1-52.5-28.2-18.6C14 39 3.1 75.2 4.4 96.5c.8 13.9 8.2 22.2 20.2 22.2h43.6c12.3 0 18.3-9.6 17.7-18.6-.8-11.2-12.7-20.5-25.3-13.6zM417.3 2.9c-1.3-.3-2.6-.4-3.9-.4-.5 0-.9 0-1.4.1-9.2.7-16.4 8.4-16.4 17.6 0 1.2.2 2.4.3 3.6.4 2.2.9 4.4 1.6 6.5 1.2 4 2.9 7.8 5 11.4l6.8 11c12.5 22.5 7.7 38-8.9 41.6l-19 3.5c-.5.1-.9.1-1.4.1-4 0-7.3-3.3-7.3-7.4 0-2.5 1.3-4.7 3.3-6.1l13.4-9.1c5.7-3.8 7.2-11.4 3.4-17.1-2.3-3.4-6.1-5.5-10.2-5.5-5.3 0-10.5 2.2-14.2 6-6.6 6.9-11.1 16.3-10.7 26.6 1.2 31.3 23.8 35 36.4 35.2 27.3.4 37-16.5 37-36.5l.2-47.7v-16c0-8.4-5.8-15.6-14-17.4z"/></svg>