<svg xmlns="http://www.w3.org/2000/svg" data-name="Capa 2" viewBox="0 0 361.36 361.35"><ellipse cx="1088.75" cy="450.39" fill="none" stroke="#fff" stroke-miterlimit="10" stroke-width=".085" rx="95.75" ry="29.5" transform="rotate(-84 496.915 720.611)"/><ellipse cx="1088.26" cy="453.44" fill="none" stroke="#fff" stroke-miterlimit="10" stroke-width=".085" rx="95.75" ry="29.5" transform="rotate(-78 474.89 773.294)"/><ellipse cx="1087.46" cy="456.42" fill="none" stroke="#fff" stroke-miterlimit="10" stroke-width=".085" rx="95.75" ry="29.5" transform="rotate(-72 449.572 832.786)"/><ellipse cx="1086.36" cy="459.31" fill="none" stroke="#fff" stroke-miterlimit="10" stroke-width=".085" rx="95.75" ry="29.5" transform="rotate(-66 420.127 900.958)"/><ellipse cx="1084.95" cy="462.06" fill="none" stroke="#fff" stroke-miterlimit="10" stroke-width=".085" rx="95.75" ry="29.5" transform="rotate(-60 385.414 980.464)"/><ellipse cx="1083.27" cy="464.65" fill="none" stroke="#fff" stroke-miterlimit="10" stroke-width=".085" rx="95.75" ry="29.5" transform="rotate(-54 343.78 1075.134)"/><ellipse cx="1081.33" cy="467.05" fill="none" stroke="#fff" stroke-miterlimit="10" stroke-width=".085" rx="95.75" ry="29.5" transform="rotate(-48 292.71 1190.722)"/><ellipse cx="1079.14" cy="469.24" fill="none" stroke="#fff" stroke-miterlimit="10" stroke-width=".085" rx="95.75" ry="29.5" transform="rotate(-42 228.302 1336.302)"/><ellipse cx="1076.74" cy="471.18" fill="none" stroke="#fff" stroke-miterlimit="10" stroke-width=".085" rx="95.75" ry="29.5" transform="rotate(-36 144.005 1526.974)"/><ellipse cx="1074.15" cy="472.87" fill="none" stroke="#fff" stroke-miterlimit="10" stroke-width=".085" rx="95.75" ry="29.5" transform="rotate(-30 27.996 1789.981)"/><ellipse cx="1071.39" cy="474.27" fill="none" stroke="#fff" stroke-miterlimit="10" stroke-width=".085" rx="95.75" ry="29.5" transform="rotate(-24 -143.318 2179.788)"/><ellipse cx="1068.51" cy="475.38" fill="none" stroke="#fff" stroke-miterlimit="10" stroke-width=".085" rx="95.75" ry="29.5" transform="rotate(-18 -425.067 2823.52)"/><ellipse cx="1065.52" cy="476.18" fill="none" stroke="#fff" stroke-miterlimit="10" stroke-width=".085" rx="95.75" ry="29.5" transform="rotate(-12 -982.721 4102.488)"/><ellipse cx="1062.47" cy="476.66" fill="none" stroke="#fff" stroke-miterlimit="10" stroke-width=".085" rx="95.75" ry="29.5" transform="matrix(.99 -.1 .1 .99 -842.72 -232.94)"/><ellipse cx="260.67" cy="130.21" fill="none" stroke="#fff" stroke-miterlimit="10" stroke-width=".085" rx="95.75" ry="29.5"/><ellipse cx="1056.3" cy="476.66" fill="none" stroke="#fff" stroke-miterlimit="10" stroke-width=".085" rx="29.5" ry="95.75" transform="matrix(.1 -.99 .99 .1 -326.88 1130.74)"/><ellipse cx="1053.25" cy="476.18" fill="none" stroke="#fff" stroke-miterlimit="10" stroke-width=".085" rx="29.5" ry="95.75" transform="rotate(-78 439.873 796.034)"/><ellipse cx="1050.26" cy="475.38" fill="none" stroke="#fff" stroke-miterlimit="10" stroke-width=".085" rx="29.5" ry="95.75" transform="rotate(-72 412.368 851.736)"/><ellipse cx="1047.38" cy="474.27" fill="none" stroke="#fff" stroke-miterlimit="10" stroke-width=".085" rx="29.5" ry="95.75" transform="rotate(-66 381.151 915.918)"/><ellipse cx="1044.63" cy="472.87" fill="none" stroke="#fff" stroke-miterlimit="10" stroke-width=".085" rx="29.5" ry="95.75" transform="rotate(-60 345.089 991.27)"/><ellipse cx="1042.03" cy="471.18" fill="none" stroke="#fff" stroke-miterlimit="10" stroke-width=".085" rx="29.5" ry="95.75" transform="rotate(-54 302.544 1081.662)"/><ellipse cx="1039.63" cy="469.24" fill="none" stroke="#fff" stroke-miterlimit="10" stroke-width=".085" rx="29.5" ry="95.75" transform="rotate(-48 251.018 1192.91)"/><ellipse cx="1037.45" cy="467.05" fill="none" stroke="#fff" stroke-miterlimit="10" stroke-width=".085" rx="29.5" ry="95.75" transform="rotate(-42 186.612 1334.108)"/><ellipse cx="1035.5" cy="464.65" fill="none" stroke="#fff" stroke-miterlimit="10" stroke-width=".085" rx="29.5" ry="95.75" transform="rotate(-36 102.76 1520.445)"/><ellipse cx="1033.82" cy="462.06" fill="none" stroke="#fff" stroke-miterlimit="10" stroke-width=".085" rx="29.5" ry="95.75" transform="rotate(-30 -12.329 1779.176)"/><ellipse cx="1032.42" cy="459.31" fill="none" stroke="#fff" stroke-miterlimit="10" stroke-width=".085" rx="29.5" ry="95.75" transform="rotate(-24 -182.281 2164.843)"/><ellipse cx="1031.31" cy="456.42" fill="none" stroke="#fff" stroke-miterlimit="10" stroke-width=".085" rx="29.5" ry="95.75" transform="rotate(-18 -462.255 2804.556)"/><ellipse cx="1030.51" cy="453.44" fill="none" stroke="#fff" stroke-miterlimit="10" stroke-width=".085" rx="29.5" ry="95.75" transform="rotate(-12 -1017.752 4079.76)"/><ellipse cx="1030.03" cy="450.39" fill="none" stroke="#fff" stroke-miterlimit="10" stroke-width=".085" rx="29.5" ry="95.75" transform="rotate(-6 -2676.229 7897.268)"/><ellipse cx="231.15" cy="100.69" fill="none" stroke="#fff" stroke-miterlimit="10" stroke-width=".085" rx="29.5" ry="95.75"/><ellipse cx="1030.03" cy="444.21" fill="none" stroke="#fff" stroke-miterlimit="10" stroke-width=".085" rx="95.75" ry="29.5" transform="matrix(.1 -.99 .99 .1 -318.14 1075.55)"/><ellipse cx="1030.51" cy="441.16" fill="none" stroke="#fff" stroke-miterlimit="10" stroke-width=".085" rx="95.75" ry="29.5" transform="rotate(-78 417.14 761.021)"/><ellipse cx="1031.31" cy="438.18" fill="none" stroke="#fff" stroke-miterlimit="10" stroke-width=".085" rx="95.75" ry="29.5" transform="rotate(-72 393.413 814.538)"/><ellipse cx="1032.42" cy="435.29" fill="none" stroke="#fff" stroke-miterlimit="10" stroke-width=".085" rx="95.75" ry="29.5" transform="rotate(-66 366.19 876.943)"/><ellipse cx="1033.82" cy="432.54" fill="none" stroke="#fff" stroke-miterlimit="10" stroke-width=".085" rx="95.75" ry="29.5" transform="rotate(-60 334.283 950.944)"/><ellipse cx="1035.5" cy="429.95" fill="none" stroke="#fff" stroke-miterlimit="10" stroke-width=".085" rx="95.75" ry="29.5" transform="rotate(-54 296.015 1040.425)"/><ellipse cx="1037.45" cy="427.55" fill="none" stroke="#fff" stroke-miterlimit="10" stroke-width=".085" rx="95.75" ry="29.5" transform="rotate(-48 248.836 1151.205)"/><ellipse cx="1039.63" cy="425.36" fill="none" stroke="#fff" stroke-miterlimit="10" stroke-width=".085" rx="95.75" ry="29.5" transform="rotate(-42 188.793 1292.412)"/><ellipse cx="1042.03" cy="423.42" fill="none" stroke="#fff" stroke-miterlimit="10" stroke-width=".085" rx="95.75" ry="29.5" transform="rotate(-36 109.288 1479.2)"/><ellipse cx="1044.63" cy="421.73" fill="none" stroke="#fff" stroke-miterlimit="10" stroke-width=".085" rx="95.75" ry="29.5" transform="rotate(-30 -1.524 1738.852)"/><ellipse cx="1047.38" cy="420.33" fill="none" stroke="#fff" stroke-miterlimit="10" stroke-width=".085" rx="95.75" ry="29.5" transform="rotate(-24 -167.332 2125.856)"/><ellipse cx="1050.26" cy="419.22" fill="none" stroke="#fff" stroke-miterlimit="10" stroke-width=".085" rx="95.75" ry="29.5" transform="rotate(-18 -443.323 2767.363)"/><ellipse cx="1053.25" cy="418.42" fill="none" stroke="#fff" stroke-miterlimit="10" stroke-width=".085" rx="95.75" ry="29.5" transform="rotate(-12 -995.024 4044.729)"/><ellipse cx="1056.3" cy="417.94" fill="none" stroke="#fff" stroke-miterlimit="10" stroke-width=".085" rx="95.75" ry="29.5" transform="rotate(-6 -2649.944 7864.875)"/><ellipse cx="260.67" cy="71.16" fill="none" stroke="#fff" stroke-miterlimit="10" stroke-width=".085" rx="95.75" ry="29.5"/><ellipse cx="1062.47" cy="417.94" fill="none" stroke="#fff" stroke-miterlimit="10" stroke-width=".085" rx="29.5" ry="95.75" transform="rotate(-84 470.638 688.163)"/><ellipse cx="1065.52" cy="418.42" fill="none" stroke="#fff" stroke-miterlimit="10" stroke-width=".085" rx="29.5" ry="95.75" transform="rotate(-78 452.152 738.287)"/><ellipse cx="1068.51" cy="419.22" fill="none" stroke="#fff" stroke-miterlimit="10" stroke-width=".085" rx="29.5" ry="95.75" transform="rotate(-72 430.618 795.588)"/><ellipse cx="1071.39" cy="420.33" fill="none" stroke="#fff" stroke-miterlimit="10" stroke-width=".085" rx="29.5" ry="95.75" transform="rotate(-66 405.166 861.982)"/><ellipse cx="1074.15" cy="421.73" fill="none" stroke="#fff" stroke-miterlimit="10" stroke-width=".085" rx="29.5" ry="95.75" transform="rotate(-60 374.614 940.13)"/><ellipse cx="1076.74" cy="423.42" fill="none" stroke="#fff" stroke-miterlimit="10" stroke-width=".085" rx="29.5" ry="95.75" transform="rotate(-54 337.252 1033.897)"/><ellipse cx="1079.14" cy="425.36" fill="none" stroke="#fff" stroke-miterlimit="10" stroke-width=".085" rx="29.5" ry="95.75" transform="rotate(-48 290.524 1149.03)"/><ellipse cx="1081.33" cy="427.55" fill="none" stroke="#fff" stroke-miterlimit="10" stroke-width=".085" rx="29.5" ry="95.75" transform="rotate(-42 230.484 1294.607)"/><ellipse cx="1083.27" cy="429.95" fill="none" stroke="#fff" stroke-miterlimit="10" stroke-width=".085" rx="29.5" ry="95.75" transform="rotate(-36 150.528 1485.744)"/><ellipse cx="1084.95" cy="432.54" fill="none" stroke="#fff" stroke-miterlimit="10" stroke-width=".085" rx="29.5" ry="95.75" transform="matrix(.87 -.5 .5 .87 -869.63 253.81)"/><ellipse cx="1086.36" cy="435.29" fill="none" stroke="#fff" stroke-miterlimit="10" stroke-width=".085" rx="29.5" ry="95.75" transform="rotate(-24 -128.344 2140.806)"/><ellipse cx="1087.46" cy="438.18" fill="none" stroke="#fff" stroke-miterlimit="10" stroke-width=".085" rx="29.5" ry="95.75" transform="rotate(-18 -406.103 2786.332)"/><ellipse cx="1088.26" cy="441.16" fill="none" stroke="#fff" stroke-miterlimit="10" stroke-width=".085" rx="29.5" ry="95.75" transform="rotate(-12 -959.998 4067.505)"/><ellipse cx="1088.75" cy="444.21" fill="none" stroke="#fff" stroke-miterlimit="10" stroke-width=".085" rx="29.5" ry="95.75" transform="rotate(-6 -2617.546 7891.064)"/><ellipse cx="290.19" cy="100.69" fill="none" stroke="#fff" stroke-miterlimit="10" stroke-width=".085" rx="29.5" ry="95.75"/><ellipse cx="928.76" cy="450.39" fill="none" stroke="#fff" stroke-miterlimit="10" stroke-width=".085" rx="95.75" ry="29.5" transform="rotate(-84 336.93 720.61)"/><ellipse cx="928.28" cy="453.44" fill="none" stroke="#fff" stroke-miterlimit="10" stroke-width=".085" rx="95.75" ry="29.5" transform="rotate(-78 314.901 773.298)"/><ellipse cx="927.48" cy="456.42" fill="none" stroke="#fff" stroke-miterlimit="10" stroke-width=".085" rx="95.75" ry="29.5" transform="rotate(-72 289.582 832.786)"/><ellipse cx="926.37" cy="459.31" fill="none" stroke="#fff" stroke-miterlimit="10" stroke-width=".085" rx="95.75" ry="29.5" transform="rotate(-66 260.146 900.957)"/><ellipse cx="924.97" cy="462.06" fill="none" stroke="#fff" stroke-miterlimit="10" stroke-width=".085" rx="95.75" ry="29.5" transform="rotate(-60 225.43 980.462)"/><ellipse cx="923.29" cy="464.65" fill="none" stroke="#fff" stroke-miterlimit="10" stroke-width=".085" rx="95.75" ry="29.5" transform="rotate(-54 183.795 1075.136)"/><ellipse cx="921.34" cy="467.05" fill="none" stroke="#fff" stroke-miterlimit="10" stroke-width=".085" rx="95.75" ry="29.5" transform="rotate(-48 132.73 1190.719)"/><ellipse cx="919.16" cy="469.24" fill="none" stroke="#fff" stroke-miterlimit="10" stroke-width=".085" rx="95.75" ry="29.5" transform="rotate(-42 68.32 1336.299)"/><ellipse cx="916.75" cy="471.18" fill="none" stroke="#fff" stroke-miterlimit="10" stroke-width=".085" rx="95.75" ry="29.5" transform="rotate(-36 -15.988 1526.98)"/><ellipse cx="914.16" cy="472.87" fill="none" stroke="#fff" stroke-miterlimit="10" stroke-width=".085" rx="95.75" ry="29.5" transform="rotate(-30 -131.982 1789.975)"/><ellipse cx="911.41" cy="474.27" fill="none" stroke="#fff" stroke-miterlimit="10" stroke-width=".085" rx="95.75" ry="29.5" transform="rotate(-24 -303.298 2179.785)"/><ellipse cx="908.52" cy="475.38" fill="none" stroke="#fff" stroke-miterlimit="10" stroke-width=".085" rx="95.75" ry="29.5" transform="rotate(-18 -585.058 2823.519)"/><ellipse cx="905.54" cy="476.18" fill="none" stroke="#fff" stroke-miterlimit="10" stroke-width=".085" rx="95.75" ry="29.5" transform="rotate(-12 -1142.743 4102.503)"/><ellipse cx="902.49" cy="476.66" fill="none" stroke="#fff" stroke-miterlimit="10" stroke-width=".085" rx="95.75" ry="29.5" transform="rotate(-6 -2803.794 7923.588)"/><ellipse cx="100.69" cy="130.21" fill="none" stroke="#fff" stroke-miterlimit="10" stroke-width=".085" rx="95.75" ry="29.5"/><ellipse cx="896.32" cy="476.66" fill="none" stroke="#fff" stroke-miterlimit="10" stroke-width=".085" rx="29.5" ry="95.75" transform="rotate(-84 304.482 746.887)"/><ellipse cx="893.26" cy="476.18" fill="none" stroke="#fff" stroke-miterlimit="10" stroke-width=".085" rx="29.5" ry="95.75" transform="rotate(-78 279.889 796.032)"/><ellipse cx="890.28" cy="475.38" fill="none" stroke="#fff" stroke-miterlimit="10" stroke-width=".085" rx="29.5" ry="95.75" transform="rotate(-72 252.384 851.74)"/><ellipse cx="887.39" cy="474.27" fill="none" stroke="#fff" stroke-miterlimit="10" stroke-width=".085" rx="29.5" ry="95.75" transform="rotate(-66 221.17 915.918)"/><ellipse cx="884.64" cy="472.87" fill="none" stroke="#fff" stroke-miterlimit="10" stroke-width=".085" rx="29.5" ry="95.75" transform="rotate(-60 185.106 991.268)"/><ellipse cx="882.05" cy="471.18" fill="none" stroke="#fff" stroke-miterlimit="10" stroke-width=".085" rx="29.5" ry="95.75" transform="rotate(-54 142.558 1081.664)"/><ellipse cx="879.65" cy="469.24" fill="none" stroke="#fff" stroke-miterlimit="10" stroke-width=".085" rx="29.5" ry="95.75" transform="rotate(-48 91.038 1192.905)"/><ellipse cx="877.46" cy="467.05" fill="none" stroke="#fff" stroke-miterlimit="10" stroke-width=".085" rx="29.5" ry="95.75" transform="rotate(-42 26.63 1334.104)"/><ellipse cx="875.52" cy="464.65" fill="none" stroke="#fff" stroke-miterlimit="10" stroke-width=".085" rx="29.5" ry="95.75" transform="rotate(-36 -57.228 1520.437)"/><ellipse cx="873.84" cy="462.06" fill="none" stroke="#fff" stroke-miterlimit="10" stroke-width=".085" rx="29.5" ry="95.75" transform="matrix(.87 -.5 .5 .87 -912.67 152.21)"/><ellipse cx="872.43" cy="459.31" fill="none" stroke="#fff" stroke-miterlimit="10" stroke-width=".085" rx="29.5" ry="95.75" transform="rotate(-24 -342.261 2164.84)"/><ellipse cx="871.33" cy="456.42" fill="none" stroke="#fff" stroke-miterlimit="10" stroke-width=".085" rx="29.5" ry="95.75" transform="rotate(-18 -622.246 2804.555)"/><ellipse cx="870.53" cy="453.44" fill="none" stroke="#fff" stroke-miterlimit="10" stroke-width=".085" rx="29.5" ry="95.75" transform="rotate(-12 -1177.726 4079.78)"/><ellipse cx="870.04" cy="450.39" fill="none" stroke="#fff" stroke-miterlimit="10" stroke-width=".085" rx="29.5" ry="95.75" transform="rotate(-6 -2836.187 7897.304)"/><ellipse cx="71.16" cy="100.69" fill="none" stroke="#fff" stroke-miterlimit="10" stroke-width=".085" rx="29.5" ry="95.75"/><ellipse cx="870.04" cy="444.21" fill="none" stroke="#fff" stroke-miterlimit="10" stroke-width=".085" rx="95.75" ry="29.5" transform="rotate(-84 278.205 714.438)"/><ellipse cx="870.53" cy="441.16" fill="none" stroke="#fff" stroke-miterlimit="10" stroke-width=".085" rx="95.75" ry="29.5" transform="rotate(-78 257.155 761.02)"/><ellipse cx="871.33" cy="438.18" fill="none" stroke="#fff" stroke-miterlimit="10" stroke-width=".085" rx="95.75" ry="29.5" transform="rotate(-72 233.43 814.543)"/><ellipse cx="872.43" cy="435.29" fill="none" stroke="#fff" stroke-miterlimit="10" stroke-width=".085" rx="95.75" ry="29.5" transform="rotate(-66 206.21 876.942)"/><ellipse cx="873.84" cy="432.54" fill="none" stroke="#fff" stroke-miterlimit="10" stroke-width=".085" rx="95.75" ry="29.5" transform="rotate(-60 174.3 950.942)"/><ellipse cx="875.52" cy="429.95" fill="none" stroke="#fff" stroke-miterlimit="10" stroke-width=".085" rx="95.75" ry="29.5" transform="rotate(-54 136.03 1040.427)"/><ellipse cx="877.46" cy="427.55" fill="none" stroke="#fff" stroke-miterlimit="10" stroke-width=".085" rx="95.75" ry="29.5" transform="rotate(-48 88.85 1151.213)"/><ellipse cx="879.65" cy="425.36" fill="none" stroke="#fff" stroke-miterlimit="10" stroke-width=".085" rx="95.75" ry="29.5" transform="rotate(-42 28.806 1292.422)"/><ellipse cx="882.05" cy="423.42" fill="none" stroke="#fff" stroke-miterlimit="10" stroke-width=".085" rx="95.75" ry="29.5" transform="rotate(-36 -50.69 1479.212)"/><ellipse cx="884.64" cy="421.73" fill="none" stroke="#fff" stroke-miterlimit="10" stroke-width=".085" rx="95.75" ry="29.5" transform="rotate(-30 -161.502 1738.846)"/><ellipse cx="887.39" cy="420.33" fill="none" stroke="#fff" stroke-miterlimit="10" stroke-width=".085" rx="95.75" ry="29.5" transform="rotate(-24 -327.312 2125.853)"/><ellipse cx="890.28" cy="419.22" fill="none" stroke="#fff" stroke-miterlimit="10" stroke-width=".085" rx="95.75" ry="29.5" transform="rotate(-18 -603.283 2767.366)"/><ellipse cx="893.26" cy="418.42" fill="none" stroke="#fff" stroke-miterlimit="10" stroke-width=".085" rx="95.75" ry="29.5" transform="rotate(-12 -1154.997 4044.749)"/><ellipse cx="896.32" cy="417.94" fill="none" stroke="#fff" stroke-miterlimit="10" stroke-width=".085" rx="95.75" ry="29.5" transform="rotate(-6 -2809.898 7864.816)"/><ellipse cx="100.69" cy="71.16" fill="none" stroke="#fff" stroke-miterlimit="10" stroke-width=".085" rx="95.75" ry="29.5"/><ellipse cx="902.49" cy="417.94" fill="none" stroke="#fff" stroke-miterlimit="10" stroke-width=".085" rx="29.5" ry="95.75" transform="rotate(-84 310.653 688.161)"/><ellipse cx="905.54" cy="418.42" fill="none" stroke="#fff" stroke-miterlimit="10" stroke-width=".085" rx="29.5" ry="95.75" transform="rotate(-78 292.167 738.286)"/><ellipse cx="908.52" cy="419.22" fill="none" stroke="#fff" stroke-miterlimit="10" stroke-width=".085" rx="29.5" ry="95.75" transform="rotate(-72 270.628 795.588)"/><ellipse cx="911.41" cy="420.33" fill="none" stroke="#fff" stroke-miterlimit="10" stroke-width=".085" rx="29.5" ry="95.75" transform="rotate(-66 245.185 861.982)"/><ellipse cx="914.16" cy="421.73" fill="none" stroke="#fff" stroke-miterlimit="10" stroke-width=".085" rx="29.5" ry="95.75" transform="rotate(-60 214.626 940.137)"/><ellipse cx="916.75" cy="423.42" fill="none" stroke="#fff" stroke-miterlimit="10" stroke-width=".085" rx="29.5" ry="95.75" transform="rotate(-54 177.257 1033.894)"/><ellipse cx="919.16" cy="425.36" fill="none" stroke="#fff" stroke-miterlimit="10" stroke-width=".085" rx="29.5" ry="95.75" transform="rotate(-48 130.543 1149.026)"/><ellipse cx="921.34" cy="427.55" fill="none" stroke="#fff" stroke-miterlimit="10" stroke-width=".085" rx="29.5" ry="95.75" transform="rotate(-42 70.501 1294.603)"/><ellipse cx="923.29" cy="429.95" fill="none" stroke="#fff" stroke-miterlimit="10" stroke-width=".085" rx="29.5" ry="95.75" transform="rotate(-36 -9.46 1485.735)"/><ellipse cx="924.97" cy="432.54" fill="none" stroke="#fff" stroke-miterlimit="10" stroke-width=".085" rx="29.5" ry="95.75" transform="rotate(-30 -121.177 1749.65)"/><ellipse cx="926.37" cy="435.29" fill="none" stroke="#fff" stroke-miterlimit="10" stroke-width=".085" rx="29.5" ry="95.75" transform="rotate(-24 -288.33 2140.827)"/><ellipse cx="927.48" cy="438.18" fill="none" stroke="#fff" stroke-miterlimit="10" stroke-width=".085" rx="29.5" ry="95.75" transform="rotate(-18 -566.094 2786.33)"/><ellipse cx="928.28" cy="441.16" fill="none" stroke="#fff" stroke-miterlimit="10" stroke-width=".085" rx="29.5" ry="95.75" transform="rotate(-12 -1119.967 4067.477)"/><ellipse cx="928.76" cy="444.21" fill="none" stroke="#fff" stroke-miterlimit="10" stroke-width=".085" rx="29.5" ry="95.75" transform="rotate(-6 -2777.504 7891.1)"/><ellipse cx="130.21" cy="100.69" fill="none" stroke="#fff" stroke-miterlimit="10" stroke-width=".085" rx="29.5" ry="95.75"/><ellipse cx="928.76" cy="610.37" fill="none" stroke="#fff" stroke-miterlimit="10" stroke-width=".085" rx="95.75" ry="29.5" transform="rotate(-84 336.929 880.594)"/><ellipse cx="928.28" cy="613.42" fill="none" stroke="#fff" stroke-miterlimit="10" stroke-width=".085" rx="95.75" ry="29.5" transform="rotate(-78 314.904 933.276)"/><ellipse cx="927.48" cy="616.4" fill="none" stroke="#fff" stroke-miterlimit="10" stroke-width=".085" rx="95.75" ry="29.5" transform="rotate(-72 289.58 992.764)"/><ellipse cx="926.37" cy="619.29" fill="none" stroke="#fff" stroke-miterlimit="10" stroke-width=".085" rx="95.75" ry="29.5" transform="rotate(-66 260.145 1060.938)"/><ellipse cx="924.97" cy="622.04" fill="none" stroke="#fff" stroke-miterlimit="10" stroke-width=".085" rx="95.75" ry="29.5" transform="rotate(-60 225.434 1140.437)"/><ellipse cx="923.29" cy="624.63" fill="none" stroke="#fff" stroke-miterlimit="10" stroke-width=".085" rx="95.75" ry="29.5" transform="rotate(-54 183.792 1235.106)"/><ellipse cx="921.34" cy="627.03" fill="none" stroke="#fff" stroke-miterlimit="10" stroke-width=".085" rx="95.75" ry="29.5" transform="rotate(-48 132.726 1350.7)"/><ellipse cx="919.16" cy="629.22" fill="none" stroke="#fff" stroke-miterlimit="10" stroke-width=".085" rx="95.75" ry="29.5" transform="rotate(-42 68.316 1496.281)"/><ellipse cx="916.75" cy="631.16" fill="none" stroke="#fff" stroke-miterlimit="10" stroke-width=".085" rx="95.75" ry="29.5" transform="rotate(-36 -15.991 1686.953)"/><ellipse cx="914.16" cy="632.85" fill="none" stroke="#fff" stroke-miterlimit="10" stroke-width=".085" rx="95.75" ry="29.5" transform="rotate(-30 -131.989 1949.954)"/><ellipse cx="911.41" cy="634.25" fill="none" stroke="#fff" stroke-miterlimit="10" stroke-width=".085" rx="95.75" ry="29.5" transform="rotate(-24 -303.3 2339.765)"/><ellipse cx="908.52" cy="635.36" fill="none" stroke="#fff" stroke-miterlimit="10" stroke-width=".085" rx="95.75" ry="29.5" transform="rotate(-18 -585.06 2983.51)"/><ellipse cx="905.54" cy="636.16" fill="none" stroke="#fff" stroke-miterlimit="10" stroke-width=".085" rx="95.75" ry="29.5" transform="rotate(-12 -1142.722 4262.477)"/><ellipse cx="902.49" cy="636.64" fill="none" stroke="#fff" stroke-miterlimit="10" stroke-width=".085" rx="95.75" ry="29.5" transform="rotate(-6 -2803.758 8083.547)"/><ellipse cx="100.69" cy="290.19" fill="none" stroke="#fff" stroke-miterlimit="10" stroke-width=".085" rx="95.75" ry="29.5"/><ellipse cx="896.32" cy="636.64" fill="none" stroke="#fff" stroke-miterlimit="10" stroke-width=".085" rx="29.5" ry="95.75" transform="rotate(-84 304.485 906.866)"/><ellipse cx="893.26" cy="636.16" fill="none" stroke="#fff" stroke-miterlimit="10" stroke-width=".085" rx="29.5" ry="95.75" transform="rotate(-78 279.887 956.016)"/><ellipse cx="890.28" cy="635.36" fill="none" stroke="#fff" stroke-miterlimit="10" stroke-width=".085" rx="29.5" ry="95.75" transform="rotate(-72 252.382 1011.719)"/><ellipse cx="887.39" cy="634.25" fill="none" stroke="#fff" stroke-miterlimit="10" stroke-width=".085" rx="29.5" ry="95.75" transform="rotate(-66 221.17 1075.898)"/><ellipse cx="884.64" cy="632.85" fill="none" stroke="#fff" stroke-miterlimit="10" stroke-width=".085" rx="29.5" ry="95.75" transform="rotate(-60 185.104 1151.25)"/><ellipse cx="882.05" cy="631.16" fill="none" stroke="#fff" stroke-miterlimit="10" stroke-width=".085" rx="29.5" ry="95.75" transform="rotate(-54 142.556 1241.635)"/><ellipse cx="879.65" cy="629.22" fill="none" stroke="#fff" stroke-miterlimit="10" stroke-width=".085" rx="29.5" ry="95.75" transform="rotate(-48 91.034 1352.886)"/><ellipse cx="877.46" cy="627.03" fill="none" stroke="#fff" stroke-miterlimit="10" stroke-width=".085" rx="29.5" ry="95.75" transform="rotate(-42 26.626 1494.086)"/><ellipse cx="875.52" cy="624.63" fill="none" stroke="#fff" stroke-miterlimit="10" stroke-width=".085" rx="29.5" ry="95.75" transform="rotate(-35.9 -52.677 1675.68)"/><ellipse cx="873.84" cy="622.04" fill="none" stroke="#fff" stroke-miterlimit="10" stroke-width=".085" rx="29.5" ry="95.75" transform="rotate(-30 -172.313 1939.149)"/><ellipse cx="872.43" cy="619.29" fill="none" stroke="#fff" stroke-miterlimit="10" stroke-width=".085" rx="29.5" ry="95.75" transform="rotate(-24 -342.264 2324.82)"/><ellipse cx="871.33" cy="616.4" fill="none" stroke="#fff" stroke-miterlimit="10" stroke-width=".085" rx="29.5" ry="95.75" transform="rotate(-18 -622.248 2964.546)"/><ellipse cx="870.53" cy="613.42" fill="none" stroke="#fff" stroke-miterlimit="10" stroke-width=".085" rx="29.5" ry="95.75" transform="rotate(-12 -1177.753 4239.748)"/><ellipse cx="870.04" cy="610.37" fill="none" stroke="#fff" stroke-miterlimit="10" stroke-width=".085" rx="29.5" ry="95.75" transform="rotate(-6 -2836.247 8057.257)"/><ellipse cx="71.16" cy="260.67" fill="none" stroke="#fff" stroke-miterlimit="10" stroke-width=".085" rx="29.5" ry="95.75"/><ellipse cx="870.04" cy="604.19" fill="none" stroke="#fff" stroke-miterlimit="10" stroke-width=".085" rx="95.75" ry="29.5" transform="rotate(-84 278.208 874.418)"/><ellipse cx="870.53" cy="601.14" fill="none" stroke="#fff" stroke-miterlimit="10" stroke-width=".085" rx="95.75" ry="29.5" transform="rotate(-78 257.153 921.004)"/><ellipse cx="871.33" cy="598.16" fill="none" stroke="#fff" stroke-miterlimit="10" stroke-width=".085" rx="95.75" ry="29.5" transform="rotate(-72 233.427 974.52)"/><ellipse cx="872.43" cy="595.27" fill="none" stroke="#fff" stroke-miterlimit="10" stroke-width=".085" rx="95.75" ry="29.5" transform="rotate(-66 206.21 1036.923)"/><ellipse cx="873.84" cy="592.52" fill="none" stroke="#fff" stroke-miterlimit="10" stroke-width=".085" rx="95.75" ry="29.5" transform="rotate(-60 174.304 1110.917)"/><ellipse cx="875.52" cy="589.93" fill="none" stroke="#fff" stroke-miterlimit="10" stroke-width=".085" rx="95.75" ry="29.5" transform="rotate(-54 136.022 1200.408)"/><ellipse cx="877.46" cy="587.53" fill="none" stroke="#fff" stroke-miterlimit="10" stroke-width=".085" rx="95.75" ry="29.5" transform="rotate(-48 88.847 1311.194)"/><ellipse cx="879.65" cy="585.34" fill="none" stroke="#fff" stroke-miterlimit="10" stroke-width=".085" rx="95.75" ry="29.5" transform="rotate(-42 28.807 1452.391)"/><ellipse cx="882.05" cy="583.4" fill="none" stroke="#fff" stroke-miterlimit="10" stroke-width=".085" rx="95.75" ry="29.5" transform="rotate(-36 -50.693 1639.185)"/><ellipse cx="884.64" cy="581.71" fill="none" stroke="#fff" stroke-miterlimit="10" stroke-width=".085" rx="95.75" ry="29.5" transform="rotate(-30 -161.508 1898.824)"/><ellipse cx="887.39" cy="580.31" fill="none" stroke="#fff" stroke-miterlimit="10" stroke-width=".085" rx="95.75" ry="29.5" transform="rotate(-24 -327.314 2285.833)"/><ellipse cx="890.28" cy="579.2" fill="none" stroke="#fff" stroke-miterlimit="10" stroke-width=".085" rx="95.75" ry="29.5" transform="rotate(-18 -603.284 2927.357)"/><ellipse cx="893.26" cy="578.4" fill="none" stroke="#fff" stroke-miterlimit="10" stroke-width=".085" rx="95.75" ry="29.5" transform="rotate(-12 -1154.977 4204.723)"/><ellipse cx="896.32" cy="577.92" fill="none" stroke="#fff" stroke-miterlimit="10" stroke-width=".085" rx="95.75" ry="29.5" transform="rotate(-6 -2809.957 8024.769)"/><ellipse cx="100.69" cy="231.14" fill="none" stroke="#fff" stroke-miterlimit="10" stroke-width=".085" rx="95.75" ry="29.5"/><ellipse cx="902.49" cy="577.92" fill="none" stroke="#fff" stroke-miterlimit="10" stroke-width=".085" rx="29.5" ry="95.75" transform="rotate(-84 310.651 848.146)"/><ellipse cx="905.54" cy="578.4" fill="none" stroke="#fff" stroke-miterlimit="10" stroke-width=".085" rx="29.5" ry="95.75" transform="rotate(-78 292.164 898.259)"/><ellipse cx="908.52" cy="579.2" fill="none" stroke="#fff" stroke-miterlimit="10" stroke-width=".085" rx="29.5" ry="95.75" transform="rotate(-72 270.625 955.566)"/><ellipse cx="911.41" cy="580.31" fill="none" stroke="#fff" stroke-miterlimit="10" stroke-width=".085" rx="29.5" ry="95.75" transform="rotate(-66 245.185 1021.962)"/><ellipse cx="914.16" cy="581.71" fill="none" stroke="#fff" stroke-miterlimit="10" stroke-width=".085" rx="29.5" ry="95.75" transform="rotate(-60 214.63 1100.112)"/><ellipse cx="916.75" cy="583.4" fill="none" stroke="#fff" stroke-miterlimit="10" stroke-width=".085" rx="29.5" ry="95.75" transform="rotate(-54 177.264 1193.87)"/><ellipse cx="919.16" cy="585.34" fill="none" stroke="#fff" stroke-miterlimit="10" stroke-width=".085" rx="29.5" ry="95.75" transform="rotate(-48 130.54 1309.007)"/><ellipse cx="921.34" cy="587.53" fill="none" stroke="#fff" stroke-miterlimit="10" stroke-width=".085" rx="29.5" ry="95.75" transform="rotate(-42 70.498 1454.586)"/><ellipse cx="923.29" cy="589.93" fill="none" stroke="#fff" stroke-miterlimit="10" stroke-width=".085" rx="29.5" ry="95.75" transform="rotate(-36 -9.448 1645.713)"/><ellipse cx="924.97" cy="592.52" fill="none" stroke="#fff" stroke-miterlimit="10" stroke-width=".085" rx="29.5" ry="95.75" transform="rotate(-30 -121.184 1909.629)"/><ellipse cx="926.37" cy="595.27" fill="none" stroke="#fff" stroke-miterlimit="10" stroke-width=".085" rx="29.5" ry="95.75" transform="rotate(-24 -288.332 2300.807)"/><ellipse cx="927.48" cy="598.16" fill="none" stroke="#fff" stroke-miterlimit="10" stroke-width=".085" rx="29.5" ry="95.75" transform="rotate(-18.2 -572.356 2934.007)"/><ellipse cx="928.28" cy="601.14" fill="none" stroke="#fff" stroke-miterlimit="10" stroke-width=".085" rx="29.5" ry="95.75" transform="rotate(-12 -1119.999 4227.494)"/><ellipse cx="928.76" cy="604.19" fill="none" stroke="#fff" stroke-miterlimit="10" stroke-width=".085" rx="29.5" ry="95.75" transform="rotate(-6 -2777.469 8051.058)"/><ellipse cx="130.21" cy="260.67" fill="none" stroke="#fff" stroke-miterlimit="10" stroke-width=".085" rx="29.5" ry="95.75"/><ellipse cx="1088.75" cy="610.37" fill="none" stroke="#fff" stroke-miterlimit="10" stroke-width=".085" rx="95.75" ry="29.5" transform="rotate(-84 496.908 880.59)"/><ellipse cx="1088.26" cy="613.42" fill="none" stroke="#fff" stroke-miterlimit="10" stroke-width=".085" rx="95.75" ry="29.5" transform="rotate(-78 474.889 933.278)"/><ellipse cx="1087.46" cy="616.4" fill="none" stroke="#fff" stroke-miterlimit="10" stroke-width=".085" rx="95.75" ry="29.5" transform="rotate(-72 449.57 992.765)"/><ellipse cx="1086.36" cy="619.29" fill="none" stroke="#fff" stroke-miterlimit="10" stroke-width=".085" rx="95.75" ry="29.5" transform="rotate(-66 420.126 1060.938)"/><ellipse cx="1084.95" cy="622.04" fill="none" stroke="#fff" stroke-miterlimit="10" stroke-width=".085" rx="95.75" ry="29.5" transform="rotate(-60 385.417 1140.438)"/><ellipse cx="1083.27" cy="624.63" fill="none" stroke="#fff" stroke-miterlimit="10" stroke-width=".085" rx="95.75" ry="29.5" transform="rotate(-54 343.778 1235.104)"/><ellipse cx="1081.33" cy="627.03" fill="none" stroke="#fff" stroke-miterlimit="10" stroke-width=".085" rx="95.75" ry="29.5" transform="rotate(-48 292.707 1350.703)"/><ellipse cx="1079.14" cy="629.22" fill="none" stroke="#fff" stroke-miterlimit="10" stroke-width=".085" rx="95.75" ry="29.5" transform="rotate(-42 228.304 1496.271)"/><ellipse cx="1076.74" cy="631.16" fill="none" stroke="#fff" stroke-miterlimit="10" stroke-width=".085" rx="95.75" ry="29.5" transform="rotate(-36 143.997 1686.961)"/><ellipse cx="1074.15" cy="632.85" fill="none" stroke="#fff" stroke-miterlimit="10" stroke-width=".085" rx="95.75" ry="29.5" transform="rotate(-30 28.008 1949.965)"/><ellipse cx="1071.39" cy="634.25" fill="none" stroke="#fff" stroke-miterlimit="10" stroke-width=".085" rx="95.75" ry="29.5" transform="rotate(-24 -143.297 2339.773)"/><ellipse cx="1068.51" cy="635.36" fill="none" stroke="#fff" stroke-miterlimit="10" stroke-width=".085" rx="95.75" ry="29.5" transform="rotate(-18 -425.069 2983.511)"/><ellipse cx="1065.52" cy="636.16" fill="none" stroke="#fff" stroke-miterlimit="10" stroke-width=".085" rx="95.75" ry="29.5" transform="rotate(-12 -982.754 4262.504)"/><ellipse cx="1062.47" cy="636.64" fill="none" stroke="#fff" stroke-miterlimit="10" stroke-width=".085" rx="95.75" ry="29.5" transform="rotate(-6 -2643.8 8083.511)"/><ellipse cx="260.67" cy="290.19" fill="none" stroke="#fff" stroke-miterlimit="10" stroke-width=".085" rx="95.75" ry="29.5"/><ellipse cx="1056.3" cy="636.64" fill="none" stroke="#fff" stroke-miterlimit="10" stroke-width=".085" rx="29.5" ry="95.75" transform="rotate(-84 464.465 906.863)"/><ellipse cx="1053.25" cy="636.16" fill="none" stroke="#fff" stroke-miterlimit="10" stroke-width=".085" rx="29.5" ry="95.75" transform="rotate(-78 439.876 956.012)"/><ellipse cx="1050.26" cy="635.36" fill="none" stroke="#fff" stroke-miterlimit="10" stroke-width=".085" rx="29.5" ry="95.75" transform="rotate(-72 412.372 1011.72)"/><ellipse cx="1047.38" cy="634.25" fill="none" stroke="#fff" stroke-miterlimit="10" stroke-width=".085" rx="29.5" ry="95.75" transform="rotate(-66 381.15 1075.9)"/><ellipse cx="1044.63" cy="632.85" fill="none" stroke="#fff" stroke-miterlimit="10" stroke-width=".085" rx="29.5" ry="95.75" transform="rotate(-60 345.092 1151.243)"/><ellipse cx="1042.03" cy="631.16" fill="none" stroke="#fff" stroke-miterlimit="10" stroke-width=".085" rx="29.5" ry="95.75" transform="rotate(-54 302.536 1241.642)"/><ellipse cx="1039.63" cy="629.22" fill="none" stroke="#fff" stroke-miterlimit="10" stroke-width=".085" rx="29.5" ry="95.75" transform="rotate(-48 251.02 1352.879)"/><ellipse cx="1037.45" cy="627.03" fill="none" stroke="#fff" stroke-miterlimit="10" stroke-width=".085" rx="29.5" ry="95.75" transform="rotate(-42 186.608 1494.09)"/><ellipse cx="1035.5" cy="624.63" fill="none" stroke="#fff" stroke-miterlimit="10" stroke-width=".085" rx="29.5" ry="95.75" transform="rotate(-36 102.757 1680.418)"/><ellipse cx="1033.82" cy="622.04" fill="none" stroke="#fff" stroke-miterlimit="10" stroke-width=".085" rx="29.5" ry="95.75" transform="rotate(-30 -12.335 1939.155)"/><ellipse cx="1032.42" cy="619.29" fill="none" stroke="#fff" stroke-miterlimit="10" stroke-width=".085" rx="29.5" ry="95.75" transform="rotate(-24 -182.284 2324.823)"/><ellipse cx="1031.31" cy="616.4" fill="none" stroke="#fff" stroke-miterlimit="10" stroke-width=".085" rx="29.5" ry="95.75" transform="rotate(-18 -462.257 2964.547)"/><ellipse cx="1030.51" cy="613.42" fill="none" stroke="#fff" stroke-miterlimit="10" stroke-width=".085" rx="29.5" ry="95.75" transform="rotate(-12 -1017.732 4239.733)"/><ellipse cx="1030.03" cy="610.37" fill="none" stroke="#fff" stroke-miterlimit="10" stroke-width=".085" rx="29.5" ry="95.75" transform="rotate(-6 -2676.193 8057.227)"/><ellipse cx="231.15" cy="260.67" fill="none" stroke="#fff" stroke-miterlimit="10" stroke-width=".085" rx="29.5" ry="95.75"/><ellipse cx="1030.03" cy="604.19" fill="none" stroke="#fff" stroke-miterlimit="10" stroke-width=".085" rx="95.75" ry="29.5" transform="rotate(-84 438.193 874.42)"/><ellipse cx="1030.51" cy="601.14" fill="none" stroke="#fff" stroke-miterlimit="10" stroke-width=".085" rx="95.75" ry="29.5" transform="rotate(-78 417.137 921.006)"/><ellipse cx="1031.31" cy="598.16" fill="none" stroke="#fff" stroke-miterlimit="10" stroke-width=".085" rx="95.75" ry="29.5" transform="rotate(-72 393.418 974.521)"/><ellipse cx="1032.42" cy="595.27" fill="none" stroke="#fff" stroke-miterlimit="10" stroke-width=".085" rx="95.75" ry="29.5" transform="rotate(-66 366.19 1036.924)"/><ellipse cx="1033.82" cy="592.52" fill="none" stroke="#fff" stroke-miterlimit="10" stroke-width=".085" rx="95.75" ry="29.5" transform="rotate(-60 334.287 1110.918)"/><ellipse cx="1035.5" cy="589.93" fill="none" stroke="#fff" stroke-miterlimit="10" stroke-width=".085" rx="95.75" ry="29.5" transform="rotate(-54 296.007 1200.406)"/><ellipse cx="1037.45" cy="587.53" fill="none" stroke="#fff" stroke-miterlimit="10" stroke-width=".085" rx="95.75" ry="29.5" transform="rotate(-48 248.833 1311.186)"/><ellipse cx="1039.63" cy="585.34" fill="none" stroke="#fff" stroke-miterlimit="10" stroke-width=".085" rx="95.75" ry="29.5" transform="rotate(-42 188.79 1452.394)"/><ellipse cx="1042.03" cy="583.4" fill="none" stroke="#fff" stroke-miterlimit="10" stroke-width=".085" rx="95.75" ry="29.5" transform="rotate(-36 109.295 1639.193)"/><ellipse cx="1044.63" cy="581.71" fill="none" stroke="#fff" stroke-miterlimit="10" stroke-width=".085" rx="95.75" ry="29.5" transform="rotate(-30 -1.53 1898.83)"/><ellipse cx="1047.38" cy="580.31" fill="none" stroke="#fff" stroke-miterlimit="10" stroke-width=".085" rx="95.75" ry="29.5" transform="rotate(-24 -167.334 2285.836)"/><ellipse cx="1050.26" cy="579.2" fill="none" stroke="#fff" stroke-miterlimit="10" stroke-width=".085" rx="95.75" ry="29.5" transform="rotate(-18 -443.325 2927.354)"/><ellipse cx="1053.25" cy="578.4" fill="none" stroke="#fff" stroke-miterlimit="10" stroke-width=".085" rx="95.75" ry="29.5" transform="rotate(-12 -995.008 4204.75)"/><ellipse cx="1056.3" cy="577.92" fill="none" stroke="#fff" stroke-miterlimit="10" stroke-width=".085" rx="95.75" ry="29.5" transform="rotate(-6 -2649.909 8024.834)"/><ellipse cx="260.67" cy="231.14" fill="none" stroke="#fff" stroke-miterlimit="10" stroke-width=".085" rx="95.75" ry="29.5"/><ellipse cx="1062.47" cy="577.92" fill="none" stroke="#fff" stroke-miterlimit="10" stroke-width=".085" rx="29.5" ry="95.75" transform="rotate(-84 470.636 848.148)"/><ellipse cx="1065.52" cy="578.4" fill="none" stroke="#fff" stroke-miterlimit="10" stroke-width=".085" rx="29.5" ry="95.75" transform="rotate(-78 452.149 898.26)"/><ellipse cx="1068.51" cy="579.2" fill="none" stroke="#fff" stroke-miterlimit="10" stroke-width=".085" rx="29.5" ry="95.75" transform="rotate(-72 430.615 955.567)"/><ellipse cx="1071.39" cy="580.31" fill="none" stroke="#fff" stroke-miterlimit="10" stroke-width=".085" rx="29.5" ry="95.75" transform="rotate(-66 405.165 1021.963)"/><ellipse cx="1074.15" cy="581.71" fill="none" stroke="#fff" stroke-miterlimit="10" stroke-width=".085" rx="29.5" ry="95.75" transform="rotate(-60 374.612 1100.113)"/><ellipse cx="1076.74" cy="583.4" fill="none" stroke="#fff" stroke-miterlimit="10" stroke-width=".085" rx="29.5" ry="95.75" transform="rotate(-54 337.244 1193.877)"/><ellipse cx="1079.14" cy="585.34" fill="none" stroke="#fff" stroke-miterlimit="10" stroke-width=".085" rx="29.5" ry="95.75" transform="rotate(-48 290.536 1309.004)"/><ellipse cx="1081.33" cy="587.53" fill="none" stroke="#fff" stroke-miterlimit="10" stroke-width=".085" rx="29.5" ry="95.75" transform="rotate(-42 230.485 1454.576)"/><ellipse cx="1083.27" cy="589.93" fill="none" stroke="#fff" stroke-miterlimit="10" stroke-width=".085" rx="29.5" ry="95.75" transform="rotate(-36 150.525 1645.716)"/><ellipse cx="1084.95" cy="592.52" fill="none" stroke="#fff" stroke-miterlimit="10" stroke-width=".085" rx="29.5" ry="95.75" transform="rotate(-30 38.813 1909.64)"/><ellipse cx="1086.36" cy="595.27" fill="none" stroke="#fff" stroke-miterlimit="10" stroke-width=".085" rx="29.5" ry="95.75" transform="rotate(-24 -128.347 2300.786)"/><ellipse cx="1087.46" cy="598.16" fill="none" stroke="#fff" stroke-miterlimit="10" stroke-width=".085" rx="29.5" ry="95.75" transform="rotate(-18 -406.1 2946.291)"/><ellipse cx="1088.26" cy="601.14" fill="none" stroke="#fff" stroke-miterlimit="10" stroke-width=".085" rx="29.5" ry="95.75" transform="rotate(-12 -959.978 4227.478)"/><ellipse cx="1088.75" cy="604.19" fill="none" stroke="#fff" stroke-miterlimit="10" stroke-width=".085" rx="29.5" ry="95.75" transform="rotate(-6 -2617.515 8051.118)"/><ellipse cx="290.19" cy="260.67" fill="none" stroke="#fff" stroke-miterlimit="10" stroke-width=".085" rx="29.5" ry="95.75"/><ellipse cx="1008.75" cy="530.38" fill="none" stroke="#fff" stroke-miterlimit="10" stroke-width=".085" rx="95.75" ry="29.5" transform="rotate(-84 416.917 800.603)"/><ellipse cx="1008.27" cy="533.43" fill="none" stroke="#fff" stroke-miterlimit="10" stroke-width=".085" rx="95.75" ry="29.5" transform="rotate(-78 394.898 853.29)"/><ellipse cx="1007.47" cy="536.41" fill="none" stroke="#fff" stroke-miterlimit="10" stroke-width=".085" rx="95.75" ry="29.5" transform="rotate(-72 369.576 912.775)"/><ellipse cx="1006.36" cy="539.3" fill="none" stroke="#fff" stroke-miterlimit="10" stroke-width=".085" rx="95.75" ry="29.5" transform="rotate(-66 340.136 980.948)"/><ellipse cx="1004.96" cy="542.05" fill="none" stroke="#fff" stroke-miterlimit="10" stroke-width=".085" rx="95.75" ry="29.5" transform="rotate(-60 305.421 1060.455)"/><ellipse cx="1003.28" cy="544.64" fill="none" stroke="#fff" stroke-miterlimit="10" stroke-width=".085" rx="95.75" ry="29.5" transform="rotate(-54 263.784 1155.112)"/><ellipse cx="1001.33" cy="547.04" fill="none" stroke="#fff" stroke-miterlimit="10" stroke-width=".085" rx="95.75" ry="29.5" transform="rotate(-48 212.719 1270.71)"/><ellipse cx="999.15" cy="549.23" fill="none" stroke="#fff" stroke-miterlimit="10" stroke-width=".085" rx="95.75" ry="29.5" transform="rotate(-42 148.31 1416.291)"/><ellipse cx="996.75" cy="551.17" fill="none" stroke="#fff" stroke-miterlimit="10" stroke-width=".085" rx="95.75" ry="29.5" transform="rotate(-36 63.997 1606.968)"/><ellipse cx="994.16" cy="552.86" fill="none" stroke="#fff" stroke-miterlimit="10" stroke-width=".085" rx="95.75" ry="29.5" transform="rotate(-30 -51.996 1869.968)"/><ellipse cx="991.4" cy="554.26" fill="none" stroke="#fff" stroke-miterlimit="10" stroke-width=".085" rx="95.75" ry="29.5" transform="rotate(-24 -223.309 2259.777)"/><ellipse cx="988.52" cy="555.37" fill="none" stroke="#fff" stroke-miterlimit="10" stroke-width=".085" rx="95.75" ry="29.5" transform="rotate(-18.2 -511.41 2891.547)"/><ellipse cx="985.53" cy="556.17" fill="none" stroke="#fff" stroke-miterlimit="10" stroke-width=".085" rx="95.75" ry="29.5" transform="rotate(-12 -1062.746 4182.48)"/><ellipse cx="982.48" cy="556.65" fill="none" stroke="#fff" stroke-miterlimit="10" stroke-width=".085" rx="95.75" ry="29.5" transform="matrix(.99 -.1 .1 .99 -851.52 -240.87)"/><ellipse cx="180.68" cy="210.2" fill="none" stroke="#fff" stroke-miterlimit="10" stroke-width=".085" rx="95.75" ry="29.5"/><ellipse cx="976.31" cy="556.65" fill="none" stroke="#fff" stroke-miterlimit="10" stroke-width=".085" rx="29.5" ry="95.75" transform="rotate(-84 384.473 826.875)"/><ellipse cx="973.26" cy="556.17" fill="none" stroke="#fff" stroke-miterlimit="10" stroke-width=".085" rx="29.5" ry="95.75" transform="rotate(-78 359.886 876.024)"/><ellipse cx="970.27" cy="555.37" fill="none" stroke="#fff" stroke-miterlimit="10" stroke-width=".085" rx="29.5" ry="95.75" transform="rotate(-72 332.378 931.73)"/><ellipse cx="967.39" cy="554.26" fill="none" stroke="#fff" stroke-miterlimit="10" stroke-width=".085" rx="29.5" ry="95.75" transform="rotate(-66 301.16 995.908)"/><ellipse cx="964.63" cy="552.86" fill="none" stroke="#fff" stroke-miterlimit="10" stroke-width=".085" rx="29.5" ry="95.75" transform="rotate(-60 265.096 1071.26)"/><ellipse cx="962.04" cy="551.17" fill="none" stroke="#fff" stroke-miterlimit="10" stroke-width=".085" rx="29.5" ry="95.75" transform="rotate(-53.8 225.679 1161.22)"/><ellipse cx="959.64" cy="549.23" fill="none" stroke="#fff" stroke-miterlimit="10" stroke-width=".085" rx="29.5" ry="95.75" transform="rotate(-48 171.026 1272.898)"/><ellipse cx="957.46" cy="547.04" fill="none" stroke="#fff" stroke-miterlimit="10" stroke-width=".085" rx="29.5" ry="95.75" transform="rotate(-42 106.619 1414.097)"/><ellipse cx="955.51" cy="544.64" fill="none" stroke="#fff" stroke-miterlimit="10" stroke-width=".085" rx="29.5" ry="95.75" transform="rotate(-35.9 26.875 1595.705)"/><ellipse cx="953.83" cy="542.05" fill="none" stroke="#fff" stroke-miterlimit="10" stroke-width=".085" rx="29.5" ry="95.75" transform="rotate(-30 -92.321 1859.163)"/><ellipse cx="952.43" cy="539.3" fill="none" stroke="#fff" stroke-miterlimit="10" stroke-width=".085" rx="29.5" ry="95.75" transform="rotate(-24 -262.273 2244.832)"/><ellipse cx="951.32" cy="536.41" fill="none" stroke="#fff" stroke-miterlimit="10" stroke-width=".085" rx="29.5" ry="95.75" transform="rotate(-18 -542.27 2884.564)"/><ellipse cx="950.52" cy="533.43" fill="none" stroke="#fff" stroke-miterlimit="10" stroke-width=".085" rx="29.5" ry="95.75" transform="rotate(-12 -1097.729 4159.756)"/><ellipse cx="950.03" cy="530.38" fill="none" stroke="#fff" stroke-miterlimit="10" stroke-width=".085" rx="29.5" ry="95.75" transform="matrix(.99 -.1 .1 .99 -848.95 -244.4)"/><ellipse cx="151.16" cy="180.68" fill="none" stroke="#fff" stroke-miterlimit="10" stroke-width=".085" rx="29.5" ry="95.75"/><ellipse cx="950.03" cy="524.2" fill="none" stroke="#fff" stroke-miterlimit="10" stroke-width=".085" rx="95.75" ry="29.5" transform="rotate(-84 358.202 794.431)"/><ellipse cx="950.52" cy="521.15" fill="none" stroke="#fff" stroke-miterlimit="10" stroke-width=".085" rx="95.75" ry="29.5" transform="rotate(-78 337.14 841.013)"/><ellipse cx="951.32" cy="518.17" fill="none" stroke="#fff" stroke-miterlimit="10" stroke-width=".085" rx="95.75" ry="29.5" transform="rotate(-72 313.424 894.532)"/><ellipse cx="952.43" cy="515.28" fill="none" stroke="#fff" stroke-miterlimit="10" stroke-width=".085" rx="95.75" ry="29.5" transform="rotate(-66 286.2 956.933)"/><ellipse cx="953.83" cy="512.53" fill="none" stroke="#fff" stroke-miterlimit="10" stroke-width=".085" rx="95.75" ry="29.5" transform="rotate(-60 254.291 1030.935)"/><ellipse cx="955.51" cy="509.94" fill="none" stroke="#fff" stroke-miterlimit="10" stroke-width=".085" rx="95.75" ry="29.5" transform="rotate(-54 216.014 1120.414)"/><ellipse cx="957.46" cy="507.54" fill="none" stroke="#fff" stroke-miterlimit="10" stroke-width=".085" rx="95.75" ry="29.5" transform="rotate(-48 168.84 1231.205)"/><ellipse cx="959.64" cy="505.35" fill="none" stroke="#fff" stroke-miterlimit="10" stroke-width=".085" rx="95.75" ry="29.5" transform="rotate(-42 108.8 1372.402)"/><ellipse cx="962.04" cy="503.41" fill="none" stroke="#fff" stroke-miterlimit="10" stroke-width=".085" rx="95.75" ry="29.5" transform="rotate(-36 29.295 1559.2)"/><ellipse cx="964.63" cy="501.72" fill="none" stroke="#fff" stroke-miterlimit="10" stroke-width=".085" rx="95.75" ry="29.5" transform="rotate(-30 -81.516 1818.838)"/><ellipse cx="967.39" cy="500.32" fill="none" stroke="#fff" stroke-miterlimit="10" stroke-width=".085" rx="95.75" ry="29.5" transform="rotate(-24 -247.323 2205.845)"/><ellipse cx="970.27" cy="499.21" fill="none" stroke="#fff" stroke-miterlimit="10" stroke-width=".085" rx="95.75" ry="29.5" transform="rotate(-18 -523.301 2847.344)"/><ellipse cx="973.26" cy="498.41" fill="none" stroke="#fff" stroke-miterlimit="10" stroke-width=".085" rx="95.75" ry="29.5" transform="rotate(-12 -1075 4124.726)"/><ellipse cx="976.31" cy="497.93" fill="none" stroke="#fff" stroke-miterlimit="10" stroke-width=".085" rx="95.75" ry="29.5" transform="rotate(-6 -2729.906 7944.872)"/><ellipse cx="180.68" cy="151.15" fill="none" stroke="#fff" stroke-miterlimit="10" stroke-width=".085" rx="95.75" ry="29.5"/><ellipse cx="982.48" cy="497.93" fill="none" stroke="#fff" stroke-miterlimit="10" stroke-width=".085" rx="29.5" ry="95.75" transform="rotate(-84 390.645 768.16)"/><ellipse cx="985.53" cy="498.41" fill="none" stroke="#fff" stroke-miterlimit="10" stroke-width=".085" rx="29.5" ry="95.75" transform="rotate(-78 372.158 818.273)"/><ellipse cx="988.52" cy="499.21" fill="none" stroke="#fff" stroke-miterlimit="10" stroke-width=".085" rx="29.5" ry="95.75" transform="rotate(-72 350.622 875.577)"/><ellipse cx="991.4" cy="500.32" fill="none" stroke="#fff" stroke-miterlimit="10" stroke-width=".085" rx="29.5" ry="95.75" transform="rotate(-66 325.175 941.972)"/><ellipse cx="994.16" cy="501.72" fill="none" stroke="#fff" stroke-miterlimit="10" stroke-width=".085" rx="29.5" ry="95.75" transform="rotate(-60 294.621 1020.12)"/><ellipse cx="996.75" cy="503.41" fill="none" stroke="#fff" stroke-miterlimit="10" stroke-width=".085" rx="29.5" ry="95.75" transform="rotate(-54 257.25 1113.886)"/><ellipse cx="999.15" cy="505.35" fill="none" stroke="#fff" stroke-miterlimit="10" stroke-width=".085" rx="29.5" ry="95.75" transform="rotate(-48 210.532 1229.018)"/><ellipse cx="1001.33" cy="507.54" fill="none" stroke="#fff" stroke-miterlimit="10" stroke-width=".085" rx="29.5" ry="95.75" transform="rotate(-42 150.49 1374.596)"/><ellipse cx="1003.28" cy="509.94" fill="none" stroke="#fff" stroke-miterlimit="10" stroke-width=".085" rx="29.5" ry="95.75" transform="rotate(-35.9 74.413 1560.98)"/><ellipse cx="1004.96" cy="512.53" fill="none" stroke="#fff" stroke-miterlimit="10" stroke-width=".085" rx="29.5" ry="95.75" transform="rotate(-30 -41.191 1829.643)"/><ellipse cx="1006.36" cy="515.28" fill="none" stroke="#fff" stroke-miterlimit="10" stroke-width=".085" rx="29.5" ry="95.75" transform="rotate(-24 -208.34 2220.818)"/><ellipse cx="1007.47" cy="518.17" fill="none" stroke="#fff" stroke-miterlimit="10" stroke-width=".085" rx="29.5" ry="95.75" transform="rotate(-18 -486.113 2866.308)"/><ellipse cx="1008.27" cy="521.15" fill="none" stroke="#fff" stroke-miterlimit="10" stroke-width=".085" rx="29.5" ry="95.75" transform="rotate(-12 -1039.975 4147.502)"/><ellipse cx="1008.75" cy="524.2" fill="none" stroke="#fff" stroke-miterlimit="10" stroke-width=".085" rx="29.5" ry="95.75" transform="rotate(-6 -2697.507 7971.061)"/><ellipse cx="210.2" cy="180.68" fill="none" stroke="#fff" stroke-miterlimit="10" stroke-width=".085" rx="29.5" ry="95.75"/></svg>