<svg id="ab783182-ebbd-4f94-8846-11fa2584721b" data-name="Capa 1" xmlns="http://www.w3.org/2000/svg" width="16" height="16" viewBox="0 0 16 16"><path d="M4.34,15.57h0ZM4.33.43h0Zm.07,0h0Zm.54,9.73,0-.05Zm0,0,0,0Zm0,.07,0,0Zm2.4,4.09h0l0,0Zm0-12.29L7.3,2Zm-.65-.41v0Zm4.91,13.91h0ZM11.6.42h0Zm-.07,0h0Zm2.92,13.93h0l0,0Zm0-7.2v0l0,0Zm0-5.09,0-.06Zm-.64-.41,0,0,0,0v0Zm.64.41,0-.06Zm-.64-.41,0,0,0,0v0Zm.63,5.5v0l0,0Zm0,7.2h0l0,0ZM11.6.42h0Zm-.07,0h0Zm0,15.14h0ZM7.27,2.07,7.3,2Zm-.65-.41v0Zm.64,12.7h0l0,0ZM4.94,10.15l0-.05Zm0,0,0,0Zm0,.07,0,0ZM4.33.43h0Zm.07,0h0ZM4.34,15.57h0Zm0,0h0ZM4.33.43h0Zm.07,0h0Zm.54,9.73,0-.05Zm0,0,0,0Zm0,.07,0,0Zm2.4,4.09h0l0,0Zm0-12.29L7.3,2Zm-.65-.41v0Zm4.91,13.91h0ZM11.6.42h0Zm-.07,0h0Zm2.92,13.93h0l0,0Zm0-7.2v0l0,0Zm0-5.09,0-.06Zm-.64-.41,0,0,0,0v0Zm.64.41,0-.06Zm-.64-.41,0,0,0,0v0Zm.63,5.5v0l0,0Zm0,7.2h0l0,0ZM11.6.42h0Zm-.07,0h0Zm0,15.14h0ZM7.27,2.07,7.3,2Zm-.65-.41v0Zm.64,12.7h0l0,0ZM4.94,10.15l0-.05Zm0,0,0,0Zm0,.07,0,0ZM4.33.43h0Zm.07,0h0ZM4.34,15.57h0ZM14.46,2.07l0-.06Zm-.64-.41,0,0,0,0v0Zm.63,5.5v0l0,0Zm0,7.2h0l0,0ZM11.6.42h0Zm-.07,0h0Zm0,15.14h0ZM7.27,2.07,7.3,2Zm-.65-.41v0Zm.64,12.7h0l0,0ZM4.94,10.15l0-.05Zm0,0,0,0Zm0,.07,0,0ZM4.33.43h0Zm.07,0h0ZM4.34,15.57h0Zm0,0h0ZM4.33.43h0Zm.07,0h0Zm.54,9.73,0-.05Zm0,0,0,0Zm0,.07,0,0Zm2.4,4.09h0l0,0Zm0-12.29L7.3,2Zm-.65-.41v0Zm4.91,13.91h0ZM11.6.42h0Zm-.07,0h0Zm2.92,13.93h0l0,0Zm0-7.2v0l0,0Zm0-5.09,0-.06Zm-.64-.41,0,0,0,0v0Zm.64.41,0-.06Zm-.64-.41,0,0,0,0v0Zm.63,5.5v0l0,0Zm0,7.2h0l0,0ZM11.6.42h0Zm-.07,0h0Zm0,15.14h0ZM7.27,2.07,7.3,2Zm-.65-.41v0Zm.64,12.7h0l0,0ZM4.94,10.15l0-.05Zm0,0,0,0Zm0,.07,0,0ZM4.33.43h0Zm.07,0h0ZM4.34,15.57h0Z" style="fill:#00684F"/><path d="M7.26,1.64l0,0-.06,0a.38.38,0,0,0-.45,0l0,0,0,0,0,0v0h0s0,0,0,.05v0a.39.39,0,0,0,0,.33l0,0,0,0a.1.1,0,0,0,.05,0A.34.34,0,0,0,7,2.24a.36.36,0,0,0,.2-.06l.07-.05v0l0,0,0,0L7.3,2A.38.38,0,0,0,7.26,1.64Zm0,.38,0,0h0l0,0-.07,0a.35.35,0,0,1-.37,0l0,0,0-.05a.34.34,0,0,1,0-.35h0l0-.06,0,0A.38.38,0,0,1,7,1.52a.35.35,0,0,1,.19.06l.05,0,0,0a.16.16,0,0,1,0,.07.06.06,0,0,1,0,0A.33.33,0,0,1,7.24,2Z" style="fill:#00684F"/><path d="M15.71,4.44v0a.51.51,0,0,1-.49.46h0v0a3.62,3.62,0,0,1-.68,1.63h0v0a.52.52,0,0,1,0,.67h0l.12.12v0a4.21,4.21,0,0,0,1.21-2.91v0ZM14.65,7.33l-.06,0a.56.56,0,0,0,0-.7A3.73,3.73,0,0,0,15.24,5a.55.55,0,0,0,.51-.47h.08A4.25,4.25,0,0,1,14.65,7.33Z" style="fill:#00684F"/><path d="M4.34,15.57h0Zm.48-5.32h0a.26.26,0,0,0,.07-.11A.26.26,0,0,1,4.82,10.25ZM7.21,2.07l0,0Zm-.59-.41v0Zm.64,12.7h0l0,0Zm1-10.49a.28.28,0,0,1,0,.13h0A.28.28,0,0,0,8.29,3.87ZM7.67,12h0a.28.28,0,0,0,0,.13A.28.28,0,0,1,7.67,12Zm3.86,3.57h0Zm2.92-1.21h0l0,0Zm0-12.29,0,0Zm-.59-.41,0,0,0,0v0Zm.63,12.7h0l0,0Zm-2.92,1.21h0ZM7.67,12h0a.28.28,0,0,0,0,.13A.28.28,0,0,1,7.67,12Zm.62-8.13a.28.28,0,0,1,0,.13h0A.28.28,0,0,0,8.29,3.87ZM7.21,2.07l0,0Zm-.59-.41v0Zm.64,12.7h0l0,0ZM4.82,10.25h0a.26.26,0,0,0,.07-.11A.26.26,0,0,1,4.82,10.25Zm-.48,5.32h0Zm0,0h0Zm.48-5.32h0a.26.26,0,0,0,.07-.11A.26.26,0,0,1,4.82,10.25Zm2.44,4.11h0l0,0Zm0-12.29,0,0Zm-.59-.41v0ZM8.29,3.87a.28.28,0,0,1,0,.13h0A.28.28,0,0,0,8.29,3.87ZM7.67,12h0a.28.28,0,0,0,0,.13A.28.28,0,0,1,7.67,12Zm3.86,3.57h0Zm2.92-1.21h0l0,0Zm0-12.29,0,0Zm-.59-.41,0,0,0,0v0Zm.59.41,0,0Zm-.59-.41,0,0,0,0v0Zm.63,12.7h0l0,0Zm-2.92,1.21h0ZM7.67,12h0a.28.28,0,0,0,0,.13A.28.28,0,0,1,7.67,12Zm.62-8.13a.28.28,0,0,1,0,.13h0A.28.28,0,0,0,8.29,3.87ZM7.21,2.07l0,0Zm-.59-.41v0Zm.64,12.7h0l0,0ZM4.82,10.25h0a.26.26,0,0,0,.07-.11A.26.26,0,0,1,4.82,10.25Zm-.48,5.32h0Zm0,0h0Zm.48-5.32h0a.26.26,0,0,0,.07-.11A.26.26,0,0,1,4.82,10.25Zm2.44,4.11h0l0,0Zm0-12.29,0,0Zm-.59-.41v0ZM8.29,3.87a.28.28,0,0,1,0,.13h0A.28.28,0,0,0,8.29,3.87ZM7.67,12h0a.28.28,0,0,0,0,.13A.28.28,0,0,1,7.67,12Zm3.86,3.57h0Zm2.92-1.21h0l0,0Zm0-12.29,0,0Zm-.59-.41,0,0,0,0v0Zm.59.41,0,0Zm-.59-.41,0,0,0,0v0Zm.63,12.7h0l0,0Zm-2.92,1.21h0ZM7.67,12h0a.28.28,0,0,0,0,.13A.28.28,0,0,1,7.67,12Zm.62-8.13a.28.28,0,0,1,0,.13h0A.28.28,0,0,0,8.29,3.87ZM7.21,2.07l0,0Zm-.59-.41v0Zm.64,12.7h0l0,0ZM4.82,10.25h0a.26.26,0,0,0,.07-.11A.26.26,0,0,1,4.82,10.25Zm-.48,5.32h0ZM14.41,2.07l0,0Zm-.59-.41,0,0,0,0v0Zm.63,12.7h0l0,0Zm-2.92,1.21h0ZM7.67,12h0a.28.28,0,0,0,0,.13A.28.28,0,0,1,7.67,12Zm.62-8.13a.28.28,0,0,1,0,.13h0A.28.28,0,0,0,8.29,3.87ZM7.21,2.07l0,0Zm-.59-.41v0Zm.64,12.7h0l0,0ZM4.82,10.25h0a.26.26,0,0,0,.07-.11A.26.26,0,0,1,4.82,10.25Zm-.48,5.32h0Zm0,0h0Zm.48-5.32h0a.26.26,0,0,0,.07-.11A.26.26,0,0,1,4.82,10.25Zm2.44,4.11h0l0,0Zm0-12.29,0,0Zm-.59-.41v0ZM8.29,3.87a.28.28,0,0,1,0,.13h0A.28.28,0,0,0,8.29,3.87ZM7.67,12h0a.28.28,0,0,0,0,.13A.28.28,0,0,1,7.67,12Zm3.86,3.57h0Zm2.92-1.21h0l0,0Zm0-12.29,0,0Zm-.59-.41,0,0,0,0v0Zm.59.41,0,0Zm-.59-.41,0,0,0,0v0Zm.63,12.7h0l0,0Zm-2.92,1.21h0ZM7.67,12h0a.28.28,0,0,0,0,.13A.28.28,0,0,1,7.67,12Zm.62-8.13a.28.28,0,0,1,0,.13h0A.28.28,0,0,0,8.29,3.87ZM7.21,2.07l0,0Zm-.59-.41v0Zm.64,12.7h0l0,0ZM4.82,10.25h0a.26.26,0,0,0,.07-.11A.26.26,0,0,1,4.82,10.25Zm-.48,5.32h0Zm0,0h0Zm.48-5.32h0a.26.26,0,0,0,.07-.11A.26.26,0,0,1,4.82,10.25Zm2.44,4.11h0l0,0Zm0-12.29,0,0Zm-.59-.41v0ZM8.29,3.87a.28.28,0,0,1,0,.13h0A.28.28,0,0,0,8.29,3.87ZM7.67,12h0a.28.28,0,0,0,0,.13A.28.28,0,0,1,7.67,12Zm3.86,3.57h0Zm2.92-1.21h0l0,0Zm0-12.29,0,0Zm-.59-.41,0,0,0,0v0Zm.59.41,0,0Zm-.59-.41,0,0,0,0v0Zm.63,12.7h0l0,0Zm-2.92,1.21h0ZM7.67,12h0a.28.28,0,0,0,0,.13A.28.28,0,0,1,7.67,12Zm.62-8.13a.28.28,0,0,1,0,.13h0A.28.28,0,0,0,8.29,3.87ZM7.21,2.07l0,0Zm-.59-.41v0Zm.64,12.7h0l0,0ZM4.82,10.25h0a.26.26,0,0,0,.07-.11A.26.26,0,0,1,4.82,10.25Zm-.48,5.32h0Zm0,0h0Zm.48-5.32h0a.26.26,0,0,0,.07-.11A.26.26,0,0,1,4.82,10.25ZM7.21,2.07l0,0Zm-.59-.41v0Zm.64,12.7h0l0,0Zm1-10.49a.28.28,0,0,1,0,.13h0A.28.28,0,0,0,8.29,3.87ZM7.67,12h0a.28.28,0,0,0,0,.13A.28.28,0,0,1,7.67,12Zm3.86,3.57h0Zm2.88-13.5,0,0Zm-.59-.41,0,0,0,0v0Zm.63,12.7h0l0,0Zm-2.92,1.21h0Zm-7.19,0h0Zm10.11-1.21h0l0,0Zm-7.19,0h0l0,0ZM7.67,12h0a.28.28,0,0,0,0,.13A.28.28,0,0,1,7.67,12ZM4.82,10.25h0a.26.26,0,0,0,.07-.11A.26.26,0,0,1,4.82,10.25ZM8.29,3.87a.28.28,0,0,1,0,.13h0A.28.28,0,0,0,8.29,3.87Zm6.12-1.8,0,0Zm-.59-.41,0,0,0,0v0Zm-6.61.41,0,0Zm-.59-.41v0Z" style="fill:#010101"/><path d="M7.85,3.53s0-.1,0-.14,0-.05,0-.07,0,0,0-.06a3.65,3.65,0,0,0-.14-.35.59.59,0,0,0,0-.08.25.25,0,0,0,0-.07,3.31,3.31,0,0,0-.29-.47h0a.53.53,0,0,1-.6,0l0,0-.11.12h0a3,3,0,0,1,.61,1l0,.06v0h-.1A4.84,4.84,0,0,0,5.69,4h0l.09.14h0a.52.52,0,0,1,.65.18v0h0a4,4,0,0,1,.74-.23h.28V4a.54.54,0,0,1,.35-.47h0ZM7.44,4H7.19a4.4,4.4,0,0,0-.73.22A.58.58,0,0,0,6,4a.62.62,0,0,0-.23,0l0-.06a4.34,4.34,0,0,1,1.34-.5l0,0h.1v0s0,0,0-.06a.14.14,0,0,1,0-.06,3,3,0,0,0-.61-1l.05-.06a.56.56,0,0,0,.63,0,3.23,3.23,0,0,1,.27.44.25.25,0,0,1,0,.07.3.3,0,0,1,0,.08c0,.11.1.23.14.34a.19.19,0,0,0,0,.07.14.14,0,0,0,0,.06l0,.12A.56.56,0,0,0,7.44,4Z" style="fill:#00684F"/><path d="M13.82,1.66l0,0,0,0v0Zm.59.41,0,0Z" style="fill:#010101"/><path d="M13.73,2.18a.54.54,0,0,1,0-.61v0h0A3.55,3.55,0,0,0,12.13.89h0v0a.51.51,0,0,1-.44.41h0v.16h0a3,3,0,0,1,2,.81v0l.12-.12Zm-.1.07a3,3,0,0,0-2-.81V1.36a.54.54,0,0,0,.46-.42,3.5,3.5,0,0,1,1.52.62.56.56,0,0,0,0,.63Z" style="fill:#00684F"/><path d="M15.09,4.91a.51.51,0,0,1-.41-.45v0h-.16v0a3,3,0,0,1-.81,2l0,0,.12.11h0a.51.51,0,0,1,.61,0h0v0a3.51,3.51,0,0,0,.65-1.57v0Zm-.65,1.56a.58.58,0,0,0-.63,0l-.06,0a3,3,0,0,0,.81-1.95h.08a.54.54,0,0,0,.42.46A3.5,3.5,0,0,1,14.44,6.47Z" style="fill:#00684F"/><path d="M14.13,8A4.4,4.4,0,1,0,8,1.87,4.4,4.4,0,1,0,1.87,8,4.4,4.4,0,1,0,8,14.13,4.4,4.4,0,1,0,14.13,8ZM11.6,16A4.36,4.36,0,0,1,8,14.08l0,0,0,0A4.36,4.36,0,1,1,1.92,8l0,0,0,0A4.36,4.36,0,1,1,8,1.92l0,0,0,0A4.36,4.36,0,1,1,14.08,8l0,0,0,0A4.36,4.36,0,0,1,11.6,16Z" style="fill:#00684F"/><path d="M15.06,5a3.5,3.5,0,0,1-.62,1.52.58.58,0,0,0-.63,0l-.06,0a3,3,0,0,0,.81-1.95h.08A.54.54,0,0,0,15.06,5Z" style="fill:#00684F"/><path d="M15.83,4.49a4.25,4.25,0,0,1-1.18,2.84l-.06,0a.56.56,0,0,0,0-.7A3.73,3.73,0,0,0,15.24,5a.55.55,0,0,0,.51-.47Z" style="fill:#00684F"/><path d="M13.69,2.19l-.06.06a3,3,0,0,0-2-.81V1.36a.54.54,0,0,0,.46-.42,3.5,3.5,0,0,1,1.52.62A.56.56,0,0,0,13.69,2.19Z" style="fill:#00684F"/><path d="M7.8,3.52A.56.56,0,0,0,7.44,4H7.19a4.4,4.4,0,0,0-.73.22A.58.58,0,0,0,6,4a.62.62,0,0,0-.23,0l0-.06a4.34,4.34,0,0,1,1.34-.5l0,0h.1v0s0,0,0-.06a.14.14,0,0,1,0-.06,3,3,0,0,0-.61-1l.05-.06a.56.56,0,0,0,.63,0,3.23,3.23,0,0,1,.27.44.25.25,0,0,1,0,.07.3.3,0,0,1,0,.08c0,.11.1.23.14.34a.19.19,0,0,0,0,.07.14.14,0,0,0,0,.06Z" style="fill:#00684F"/><path d="M6.54,2.18a.51.51,0,0,1,0-.61v0h0A3.51,3.51,0,0,0,4.94.89h0v0a.51.51,0,0,1-.45.41h0v.16h0a3,3,0,0,1,2,.81l0,0,.11-.12Zm-.1.07a3,3,0,0,0-1.95-.81V1.36A.54.54,0,0,0,5,.94a3.5,3.5,0,0,1,1.52.62.58.58,0,0,0,0,.63Z" style="fill:#00684F"/><path d="M6.49,2.19l0,.06a3,3,0,0,0-1.95-.81V1.36A.54.54,0,0,0,5,.94a3.5,3.5,0,0,1,1.52.62A.58.58,0,0,0,6.49,2.19Z" style="fill:#00684F"/><path d="M7.38,1.34A4.21,4.21,0,0,0,4.47.13h0V.29h0a.51.51,0,0,1,.46.49v0h0a3.62,3.62,0,0,1,1.63.68h0a.52.52,0,0,1,.67,0v0l.12-.12Zm-.1.07a.56.56,0,0,0-.7,0A3.73,3.73,0,0,0,5,.76.55.55,0,0,0,4.49.25V.17A4.21,4.21,0,0,1,7.33,1.35Z" style="fill:#00684F"/><path d="M7.33,1.35l0,.06a.56.56,0,0,0-.7,0A3.73,3.73,0,0,0,5,.76.55.55,0,0,0,4.49.25V.17A4.21,4.21,0,0,1,7.33,1.35Z" style="fill:#00684F"/><path d="M4.34,1.32A.51.51,0,0,1,3.9.91v0h0a3.55,3.55,0,0,0-1.58.65h0v0a.54.54,0,0,1,0,.61h0l.12.12v0a3,3,0,0,1,2-.81h0V1.32Zm0,.12a3,3,0,0,0-1.95.81l-.06-.06a.56.56,0,0,0,0-.63A3.5,3.5,0,0,1,3.86.94a.54.54,0,0,0,.46.42Z" style="fill:#00684F"/><path d="M4.32,1.36v.08a3,3,0,0,0-1.95.81l-.06-.06a.56.56,0,0,0,0-.63A3.5,3.5,0,0,1,3.86.94.54.54,0,0,0,4.32,1.36Z" style="fill:#00684F"/><path d="M4.34.13A4.19,4.19,0,0,0,1.43,1.34h0l.11.12,0,0a.52.52,0,0,1,.67,0h0A3.62,3.62,0,0,1,3.87.8h0v0A.51.51,0,0,1,4.34.29h0V.13Zm0,.12a.56.56,0,0,0-.48.51,3.64,3.64,0,0,0-1.61.67.58.58,0,0,0-.37-.13.51.51,0,0,0-.33.11l-.06-.06A4.23,4.23,0,0,1,4.32.17Z" style="fill:#00684F"/><path d="M4.32.17V.25a.56.56,0,0,0-.48.51,3.64,3.64,0,0,0-1.61.67.58.58,0,0,0-.37-.13.51.51,0,0,0-.33.11l-.06-.06A4.23,4.23,0,0,1,4.32.17Z" style="fill:#00684F"/><path d="M2.19,2.25v0a.54.54,0,0,1-.61,0h0A3.55,3.55,0,0,0,.89,3.87v0h0a.51.51,0,0,1,.41.44v0h.16v0a3,3,0,0,1,.81-2h0ZM1.44,4.32H1.36a.54.54,0,0,0-.42-.46,3.4,3.4,0,0,1,.63-1.52.54.54,0,0,0,.62,0l.06.06A3,3,0,0,0,1.44,4.32Z" style="fill:#00684F"/><path d="M2.25,2.37a3,3,0,0,0-.81,2H1.36a.54.54,0,0,0-.42-.46,3.4,3.4,0,0,1,.63-1.52.54.54,0,0,0,.62,0Z" style="fill:#00684F"/><path d="M1.48,2.21a.52.52,0,0,1,0-.67l0,0-.12-.11v0A4.19,4.19,0,0,0,.13,4.34v0H.29v0a.51.51,0,0,1,.49-.45h0v0a3.62,3.62,0,0,1,.68-1.63v0ZM.76,3.84a.56.56,0,0,0-.51.48H.17A4.23,4.23,0,0,1,1.35,1.47l.06.06a.56.56,0,0,0,0,.7A3.64,3.64,0,0,0,.76,3.84Z" style="fill:#00684F"/><path d="M1.43,2.23A3.64,3.64,0,0,0,.76,3.84a.56.56,0,0,0-.51.48H.17A4.23,4.23,0,0,1,1.35,1.47l.06.06A.56.56,0,0,0,1.43,2.23Z" style="fill:#00684F"/><path d="M2.29,6.42a3,3,0,0,1-.81-1.95v0H1.32v0a.51.51,0,0,1-.41.45h0v0a3.51,3.51,0,0,0,.65,1.57v0h0a.51.51,0,0,1,.61,0h0l.12-.11Zm-.1.07a.57.57,0,0,0-.33-.11.52.52,0,0,0-.29.09A3.4,3.4,0,0,1,.94,5a.54.54,0,0,0,.42-.46h.08a3,3,0,0,0,.81,2Z" style="fill:#00684F"/><path d="M2.25,6.44l-.06,0a.57.57,0,0,0-.33-.11.52.52,0,0,0-.29.09A3.4,3.4,0,0,1,.94,5a.54.54,0,0,0,.42-.46h.08A3,3,0,0,0,2.25,6.44Z" style="fill:#00684F"/><path d="M1.49,6.58h0A3.62,3.62,0,0,1,.8,4.94v0h0a.51.51,0,0,1-.49-.46v0H.13v0A4.21,4.21,0,0,0,1.34,7.38v0l.12-.12h0a.52.52,0,0,1,0-.67Zm-.08.7-.06,0A4.21,4.21,0,0,1,.17,4.49H.25A.55.55,0,0,0,.76,5a3.73,3.73,0,0,0,.67,1.62A.56.56,0,0,0,1.41,7.28Z" style="fill:#00684F"/><path d="M1.41,7.28l-.06,0A4.21,4.21,0,0,1,.17,4.49H.25A.55.55,0,0,0,.76,5a3.73,3.73,0,0,0,.67,1.62A.56.56,0,0,0,1.41,7.28Z" style="fill:#00684F"/><path d="M1.48,9.4a.52.52,0,0,1,0-.67h0L1.35,8.6v0A4.21,4.21,0,0,0,.13,11.53v0H.29v0a.51.51,0,0,1,.49-.46h0v0a3.62,3.62,0,0,1,.68-1.63h0ZM.76,11a.55.55,0,0,0-.51.47H.17A4.21,4.21,0,0,1,1.35,8.67l.06.05a.56.56,0,0,0,0,.7A3.73,3.73,0,0,0,.76,11Z" style="fill:#00684F"/><path d="M1.43,9.42A3.73,3.73,0,0,0,.76,11a.55.55,0,0,0-.51.47H.17A4.21,4.21,0,0,1,1.35,8.67l.06.05A.56.56,0,0,0,1.43,9.42Z" style="fill:#00684F"/><path d="M2.19,9.45h0a.51.51,0,0,1-.61,0h0v0a3.51,3.51,0,0,0-.65,1.57v0h0a.51.51,0,0,1,.41.45v0h.16v0a3,3,0,0,1,.81-1.95l0,0Zm-.75,2.06H1.36a.54.54,0,0,0-.42-.46,3.4,3.4,0,0,1,.63-1.52.56.56,0,0,0,.62,0l.06.05A3,3,0,0,0,1.44,11.51Z" style="fill:#00684F"/><path d="M2.25,9.56a3,3,0,0,0-.81,1.95H1.36a.54.54,0,0,0-.42-.46,3.4,3.4,0,0,1,.63-1.52.56.56,0,0,0,.62,0Z" style="fill:#00684F"/><path d="M2.29,13.62a3,3,0,0,1-.81-2v0H1.32v0a.51.51,0,0,1-.41.44h0v0a3.55,3.55,0,0,0,.65,1.58h0a.54.54,0,0,1,.61,0v0l.12-.12Zm-.1.07a.51.51,0,0,0-.33-.11.6.6,0,0,0-.29.08,3.4,3.4,0,0,1-.63-1.52.54.54,0,0,0,.42-.46h.08a3,3,0,0,0,.81,2Z" style="fill:#00684F"/><path d="M2.25,13.63l-.06.06a.51.51,0,0,0-.33-.11.6.6,0,0,0-.29.08,3.4,3.4,0,0,1-.63-1.52.54.54,0,0,0,.42-.46h.08A3,3,0,0,0,2.25,13.63Z" style="fill:#00684F"/><path d="M1.49,13.78v0A3.62,3.62,0,0,1,.8,12.13v0h0a.51.51,0,0,1-.49-.45v0H.13v0a4.19,4.19,0,0,0,1.21,2.91v0l.12-.11,0,0a.52.52,0,0,1,0-.67Zm-.08.69-.06.06A4.23,4.23,0,0,1,.17,11.68H.25a.56.56,0,0,0,.51.48,3.64,3.64,0,0,0,.67,1.61A.56.56,0,0,0,1.41,14.47Z" style="fill:#00684F"/><path d="M1.41,14.47l-.06.06A4.23,4.23,0,0,1,.17,11.68H.25a.56.56,0,0,0,.51.48,3.64,3.64,0,0,0,.67,1.61A.56.56,0,0,0,1.41,14.47Z" style="fill:#00684F"/><path d="M4.34,14.52a3,3,0,0,1-2-.81v0l-.12.12h0a.54.54,0,0,1,0,.61v0h0a3.55,3.55,0,0,0,1.58.65h0v0a.51.51,0,0,1,.44-.41h0v-.16Zm0,.12a.54.54,0,0,0-.46.42,3.5,3.5,0,0,1-1.52-.62.56.56,0,0,0,0-.63l.06-.06a3,3,0,0,0,2,.81Z" style="fill:#00684F"/><path d="M4.32,14.56v.08a.54.54,0,0,0-.46.42,3.5,3.5,0,0,1-1.52-.62.56.56,0,0,0,0-.63l.06-.06A3,3,0,0,0,4.32,14.56Z" style="fill:#00684F"/><path d="M4.34,15.71a.51.51,0,0,1-.45-.49v0h0a3.62,3.62,0,0,1-1.63-.68h0a.52.52,0,0,1-.67,0l0,0-.11.12h0a4.19,4.19,0,0,0,2.91,1.21h0v-.16Zm0,.12a4.28,4.28,0,0,1-2.85-1.18l.06-.06a.56.56,0,0,0,.7,0,3.64,3.64,0,0,0,1.61.67.56.56,0,0,0,.48.51Z" style="fill:#00684F"/><path d="M4.32,15.75v.08a4.28,4.28,0,0,1-2.85-1.18l.06-.06a.56.56,0,0,0,.7,0,3.64,3.64,0,0,0,1.61.67A.56.56,0,0,0,4.32,15.75Z" style="fill:#00684F"/><path d="M6.55,13.81l-.11-.12,0,0a3,3,0,0,1-1.95.81h0v.16h0a.51.51,0,0,1,.45.41v0h0a3.51,3.51,0,0,0,1.57-.65h0v0a.51.51,0,0,1,0-.61Zm-.08.63A3.5,3.5,0,0,1,5,15.06a.54.54,0,0,0-.46-.42v-.08a3,3,0,0,0,2-.81l0,.06A.58.58,0,0,0,6.47,14.44Z" style="fill:#00684F"/><path d="M6.47,14.44A3.5,3.5,0,0,1,5,15.06a.54.54,0,0,0-.46-.42v-.08a3,3,0,0,0,2-.81l0,.06A.58.58,0,0,0,6.47,14.44Z" style="fill:#00684F"/><path d="M7.28,14.53v0a.52.52,0,0,1-.67,0h0a3.62,3.62,0,0,1-1.63.68h0v0a.51.51,0,0,1-.46.49h0v.16h0a4.21,4.21,0,0,0,2.91-1.21h0Zm-2.79,1.3v-.08A.55.55,0,0,0,5,15.24a3.73,3.73,0,0,0,1.62-.67.56.56,0,0,0,.7,0l0,.06A4.25,4.25,0,0,1,4.49,15.83Z" style="fill:#00684F"/><path d="M7.33,14.65a4.25,4.25,0,0,1-2.84,1.18v-.08A.55.55,0,0,0,5,15.24a3.73,3.73,0,0,0,1.62-.67.56.56,0,0,0,.7,0Z" style="fill:#00684F"/><path d="M11.54,15.71a.51.51,0,0,1-.46-.49v0h0a3.62,3.62,0,0,1-1.63-.68h0a.52.52,0,0,1-.67,0v0l-.12.12h0a4.21,4.21,0,0,0,2.91,1.21h0v-.16Zm0,.12a4.25,4.25,0,0,1-2.84-1.18l.05-.06a.56.56,0,0,0,.7,0,3.73,3.73,0,0,0,1.62.67.55.55,0,0,0,.47.51Z" style="fill:#00684F"/><path d="M11.51,15.75v.08a4.25,4.25,0,0,1-2.84-1.18l.05-.06a.56.56,0,0,0,.7,0,3.73,3.73,0,0,0,1.62.67A.55.55,0,0,0,11.51,15.75Z" style="fill:#00684F"/><path d="M11.53,14.52a3,3,0,0,1-1.95-.81l0,0-.11.12h0a.51.51,0,0,1,0,.61v0h0a3.51,3.51,0,0,0,1.57.65h0v0a.51.51,0,0,1,.45-.41h0v-.16Zm0,.12a.54.54,0,0,0-.46.42,3.5,3.5,0,0,1-1.52-.62.58.58,0,0,0,0-.63l.05-.06a3,3,0,0,0,1.95.81Z" style="fill:#00684F"/><path d="M11.51,14.56v.08a.54.54,0,0,0-.46.42,3.5,3.5,0,0,1-1.52-.62.58.58,0,0,0,0-.63l.05-.06A3,3,0,0,0,11.51,14.56Z" style="fill:#00684F"/><path d="M14.48,14.53l0,0a.52.52,0,0,1-.67,0h0a3.62,3.62,0,0,1-1.63.68h0v0a.51.51,0,0,1-.45.49h0v.16h0a4.19,4.19,0,0,0,2.91-1.21h0Zm-2.8,1.3v-.08a.56.56,0,0,0,.48-.51,3.64,3.64,0,0,0,1.61-.67.56.56,0,0,0,.7,0l.06.06A4.28,4.28,0,0,1,11.68,15.83Z" style="fill:#00684F"/><path d="M14.53,14.65a4.28,4.28,0,0,1-2.85,1.18v-.08a.56.56,0,0,0,.48-.51,3.64,3.64,0,0,0,1.61-.67.56.56,0,0,0,.7,0Z" style="fill:#00684F"/><path d="M13.75,13.81l-.12-.12v0a3,3,0,0,1-2,.81h0v.16h0a.51.51,0,0,1,.44.41v0h0a3.55,3.55,0,0,0,1.58-.65h0v0a.54.54,0,0,1,0-.61Zm-.09.63a3.5,3.5,0,0,1-1.52.62.54.54,0,0,0-.46-.42v-.08a3,3,0,0,0,2-.81l.06.06A.56.56,0,0,0,13.66,14.44Z" style="fill:#00684F"/><path d="M13.66,14.44a3.5,3.5,0,0,1-1.52.62.54.54,0,0,0-.46-.42v-.08a3,3,0,0,0,2-.81l.06.06A.56.56,0,0,0,13.66,14.44Z" style="fill:#00684F"/><path d="M15.09,12.1a.51.51,0,0,1-.41-.44v0h-.16v0a3,3,0,0,1-.81,2h0l.12.12v0a.54.54,0,0,1,.61,0h0a3.55,3.55,0,0,0,.65-1.58v0Zm-.65,1.56a.56.56,0,0,0-.63,0l-.06-.06a3,3,0,0,0,.81-2h.08a.54.54,0,0,0,.42.46A3.5,3.5,0,0,1,14.44,13.66Z" style="fill:#00684F"/><path d="M15.06,12.14a3.5,3.5,0,0,1-.62,1.52.56.56,0,0,0-.63,0l-.06-.06a3,3,0,0,0,.81-2h.08A.54.54,0,0,0,15.06,12.14Z" style="fill:#00684F"/><path d="M15.71,11.64v0a.51.51,0,0,1-.49.45h0v0a3.62,3.62,0,0,1-.68,1.63v0h0a.52.52,0,0,1,0,.67l0,0,.12.11v0a4.19,4.19,0,0,0,1.21-2.91v0Zm-1.06,2.89-.06-.06a.56.56,0,0,0,0-.7,3.64,3.64,0,0,0,.67-1.61.56.56,0,0,0,.51-.48h.08A4.28,4.28,0,0,1,14.65,14.53Z" style="fill:#00684F"/><path d="M15.83,11.68a4.28,4.28,0,0,1-1.18,2.85l-.06-.06a.56.56,0,0,0,0-.7,3.64,3.64,0,0,0,.67-1.61.56.56,0,0,0,.51-.48Z" style="fill:#00684F"/><path d="M15.11,11.06a3.51,3.51,0,0,0-.65-1.57v0h0a.51.51,0,0,1-.61,0h0l-.12.11,0,0a3,3,0,0,1,.81,1.95v0h.16v0a.51.51,0,0,1,.41-.45h0Zm-.47.45h-.08a3,3,0,0,0-.81-1.95l.06-.05a.58.58,0,0,0,.63,0,3.5,3.5,0,0,1,.62,1.52A.54.54,0,0,0,14.64,11.51Z" style="fill:#00684F"/><path d="M15.06,11.05a.54.54,0,0,0-.42.46h-.08a3,3,0,0,0-.81-1.95l.06-.05a.58.58,0,0,0,.63,0A3.5,3.5,0,0,1,15.06,11.05Z" style="fill:#00684F"/><path d="M15.87,11.53a4.21,4.21,0,0,0-1.21-2.91v0l-.12.12h0a.52.52,0,0,1,0,.67v0h0a3.62,3.62,0,0,1,.68,1.63v0h0a.51.51,0,0,1,.49.46v0h.16Zm-.12,0a.55.55,0,0,0-.51-.47,3.73,3.73,0,0,0-.67-1.62.56.56,0,0,0,0-.7l.06-.05a4.25,4.25,0,0,1,1.18,2.84Z" style="fill:#00684F"/><path d="M15.83,11.51h-.08a.55.55,0,0,0-.51-.47,3.73,3.73,0,0,0-.67-1.62.56.56,0,0,0,0-.7l.06-.05A4.25,4.25,0,0,1,15.83,11.51Z" style="fill:#00684F"/><path d="M11.88,7.47s0-.08,0-.12V7.2a3.35,3.35,0,0,0-.22-.7v0h0A.51.51,0,0,1,11,6.32h0l-.14.09h0a3.26,3.26,0,0,1,.31.78v.17l0,.21a1.94,1.94,0,0,1,0,.24.37.37,0,0,1,0,.11V8h.16v0h0a.57.57,0,0,1,.11-.25l0,0a.41.41,0,0,1,.1-.09l.11-.06h0l.08,0h0Zm-.11,0h0a.34.34,0,0,0-.12.06.52.52,0,0,0-.11.1s0,0,0,0a.68.68,0,0,0-.12.26h-.08V7.8c0-.08,0-.15,0-.23a1.55,1.55,0,0,0,0-.21s0,0,0,0v-.1a.08.08,0,0,0,0,0,3.83,3.83,0,0,0-.3-.77l.07,0a.55.55,0,0,0,.59.16,4.11,4.11,0,0,1,.21.68v0l0,.06v.07s0,.06,0,.09Z" style="fill:#00684F"/><path d="M11.83,7.45l-.06,0h0a.34.34,0,0,0-.12.06.52.52,0,0,0-.11.1s0,0,0,0a.68.68,0,0,0-.12.26h-.08V7.8c0-.08,0-.15,0-.23a1.55,1.55,0,0,0,0-.21s0,0,0,0v-.1a.08.08,0,0,0,0,0,3.83,3.83,0,0,0-.3-.77l.07,0a.55.55,0,0,0,.59.16,4.11,4.11,0,0,1,.21.68v0l0,.06v.07S11.83,7.42,11.83,7.45Z" style="fill:#00684F"/><path d="M11.86,8.51l-.08,0h0l-.11-.06a.41.41,0,0,1-.1-.09l0,0a.56.56,0,0,1-.11-.26V8h-.16v0a.37.37,0,0,1,0,.11,1.94,1.94,0,0,1,0,.24l0,.21v.17a3.26,3.26,0,0,1-.31.78h0l.14.09h0a.52.52,0,0,1,.57-.16h0v0a3.64,3.64,0,0,0,.22-.71V8.65s0-.07,0-.12v0Zm0,.14h0v.05l0,.06v0a4.11,4.11,0,0,1-.21.68.57.57,0,0,0-.59.16l-.07,0a3.42,3.42,0,0,0,.3-.77.08.08,0,0,0,0,0v0h0V8.68s0,0,0,0a1.77,1.77,0,0,0,0-.2c0-.09,0-.16,0-.24V8.09h.08a.68.68,0,0,0,.12.26l0,0a.52.52,0,0,0,.11.1l.12.06h0l.06,0S11.82,8.61,11.82,8.65Z" style="fill:#00684F"/><path d="M11.83,8.55s0,.06,0,.1h0v.05l0,.06v0a4.11,4.11,0,0,1-.21.68.57.57,0,0,0-.59.16l-.07,0a3.42,3.42,0,0,0,.3-.77.08.08,0,0,0,0,0v0h0V8.68s0,0,0,0a1.77,1.77,0,0,0,0-.2c0-.09,0-.16,0-.24V8.09h.08a.68.68,0,0,0,.12.26l0,0a.52.52,0,0,0,.11.1l.12.06h0Z" style="fill:#00684F"/><path d="M11.07,10.39A.49.49,0,0,1,11,9.78v0l-.13-.08,0,0a3.33,3.33,0,0,1-1.12,1.12h0l.09.13h0a.51.51,0,0,1,.63.11l0,0v0a3.94,3.94,0,0,0,.65-.64v0Zm-.66.64a.55.55,0,0,0-.41-.18.53.53,0,0,0-.24.06l0-.07a3.34,3.34,0,0,0,1.11-1.1l.07,0a.55.55,0,0,0,.12.63A3.58,3.58,0,0,1,10.41,11Z" style="fill:#00684F"/><path d="M11,10.41a3.58,3.58,0,0,1-.61.62.55.55,0,0,0-.41-.18.53.53,0,0,0-.24.06l0-.07a3.34,3.34,0,0,0,1.11-1.1l.07,0A.55.55,0,0,0,11,10.41Z" style="fill:#00684F"/><path d="M11.82,10.32h0a.51.51,0,0,1-.64.13h0a3.86,3.86,0,0,1-.67.67l0,0h0a.51.51,0,0,1-.14.65h0l.08.14h0A4.69,4.69,0,0,0,12,10.43v0Zm-1.41,1.59,0-.07a.56.56,0,0,0,.14-.67,4.57,4.57,0,0,0,.66-.66.55.55,0,0,0,.66-.13l.07,0A4.82,4.82,0,0,1,10.41,11.91Z" style="fill:#00684F"/><path d="M11.9,10.42a4.82,4.82,0,0,1-1.49,1.49l0-.07a.56.56,0,0,0,.14-.67,4.57,4.57,0,0,0,.66-.66.55.55,0,0,0,.66-.13Z" style="fill:#00684F"/><path d="M9.58,10.87h0a3.54,3.54,0,0,1-.76.3H8.64l-.21,0-.24,0H8v.16h0a.57.57,0,0,1,.25.11l0,0a.41.41,0,0,1,.09.1l.06.11h0l0,.08v0h0l.12,0H8.8a3.35,3.35,0,0,0,.7-.22h0v0A.51.51,0,0,1,9.66,11h0Zm-.11.71a4.11,4.11,0,0,1-.68.21h0l-.06,0H8.55s0,0,0-.06h0a.34.34,0,0,0-.06-.12.52.52,0,0,0-.1-.11l0,0a.56.56,0,0,0-.26-.12v-.08H8.2l.23,0,.21,0h.18a3,3,0,0,0,.75-.29l0,.07A.55.55,0,0,0,9.47,11.58Z" style="fill:#00684F"/><path d="M9.47,11.58a4.11,4.11,0,0,1-.68.21h0l-.06,0H8.55s0,0,0-.06h0a.34.34,0,0,0-.06-.12.52.52,0,0,0-.1-.11l0,0a.56.56,0,0,0-.26-.12v-.08H8.2l.23,0,.21,0h.18a3,3,0,0,0,.75-.29l0,.07A.55.55,0,0,0,9.47,11.58Z" style="fill:#00684F"/><path d="M7.92,11.28H7.81l-.24,0-.21,0H7.19a3.54,3.54,0,0,1-.76-.3h0L6.32,11h0a.52.52,0,0,1,.15.56v0h0a3.64,3.64,0,0,0,.71.22h.15l.12,0h0v0l0-.08h0l.06-.11a.41.41,0,0,1,.09-.1l0,0a.56.56,0,0,1,.26-.11H8v-.16Zm0,.12a.68.68,0,0,0-.26.12l0,0a.52.52,0,0,0-.1.11.67.67,0,0,0-.06.12h0s0,0,0,.06H7.29l-.06,0h0a4.11,4.11,0,0,1-.68-.21A.59.59,0,0,0,6.38,11l0-.07a3.05,3.05,0,0,0,.76.29h.18l.2,0,.24,0h.11Z" style="fill:#00684F"/><path d="M7.91,11.32v.08a.68.68,0,0,0-.26.12l0,0a.52.52,0,0,0-.1.11.67.67,0,0,0-.06.12h0s0,0,0,.06H7.29l-.06,0h0a4.11,4.11,0,0,1-.68-.21A.59.59,0,0,0,6.38,11l0-.07a3.05,3.05,0,0,0,.76.29h.18l.2,0,.24,0Z" style="fill:#00684F"/><path d="M6.32,10.81A3.25,3.25,0,0,1,5.16,9.64v0L5,9.71v0H5a.51.51,0,0,1-.1.65l0,0h0a3.94,3.94,0,0,0,.64.65h0A.5.5,0,0,1,6.23,11h0l.09-.13Zm-.09.09a.56.56,0,0,0-.64.12A3.58,3.58,0,0,1,5,10.41a.56.56,0,0,0,.11-.68l0-.05a3.42,3.42,0,0,0,1.14,1.16Z" style="fill:#00684F"/><path d="M6.27,10.84l0,.06a.56.56,0,0,0-.64.12A3.58,3.58,0,0,1,5,10.41a.56.56,0,0,0,.11-.68l0-.05A3.42,3.42,0,0,0,6.27,10.84Z" style="fill:#00684F"/><path d="M5.66,11.8a.49.49,0,0,1-.12-.63v0h0a3.86,3.86,0,0,1-.67-.67l0,0h0a.53.53,0,0,1-.63-.11v0l-.14.1,0,0a4.61,4.61,0,0,0,1.49,1.49h0l.09-.14Zm-.09.09a4.56,4.56,0,0,1-1.45-1.45l.06,0a.55.55,0,0,0,.65.12,4.57,4.57,0,0,0,.66.66.55.55,0,0,0,.12.65Z" style="fill:#00684F"/><path d="M5.61,11.82l0,.07a4.56,4.56,0,0,1-1.45-1.45l.06,0a.55.55,0,0,0,.65.12,4.57,4.57,0,0,0,.66.66A.55.55,0,0,0,5.61,11.82Z" style="fill:#00684F"/><path d="M5.1,9.53a3.16,3.16,0,0,1-.28-.72V8.64l0-.21a1.94,1.94,0,0,1,0-.24.37.37,0,0,1,0-.11V8H4.56v0h0a.57.57,0,0,1-.11.25l0,0a.41.41,0,0,1-.1.09l-.11.06h0l-.08,0h0v0s0,.08,0,.12V8.8a3.35,3.35,0,0,0,.22.7v0h0A.51.51,0,0,1,5,9.64H5l.14-.11ZM5,9.59a.55.55,0,0,0-.38-.15.47.47,0,0,0-.17,0,4.11,4.11,0,0,1-.21-.68v0l0-.06V8.64s0-.06,0-.09l.06,0h0l.12-.06a.52.52,0,0,0,.11-.1l0,0a.68.68,0,0,0,.12-.26h.08V8.2c0,.08,0,.15,0,.23a1.55,1.55,0,0,0,0,.21s0,0,0,0v.14a3.24,3.24,0,0,0,.27.71Z" style="fill:#00684F"/><path d="M5.05,9.53,5,9.59a.55.55,0,0,0-.38-.15.47.47,0,0,0-.17,0,4.11,4.11,0,0,1-.21-.68v0l0-.06V8.64s0-.06,0-.09l.06,0h0l.12-.06a.52.52,0,0,0,.11-.1l0,0a.68.68,0,0,0,.12-.26h.08V8.2c0,.08,0,.15,0,.23a1.55,1.55,0,0,0,0,.21s0,0,0,0v.14A3.24,3.24,0,0,0,5.05,9.53Z" style="fill:#00684F"/><path d="M5,6.31H5a.52.52,0,0,1-.57.16h0v0a3.64,3.64,0,0,0-.22.71v.15s0,.08,0,.12v0h0l.08,0h0l.11.06a.41.41,0,0,1,.1.09l0,0a.56.56,0,0,1,.11.26V8h.16v0a.37.37,0,0,1,0-.11,1.94,1.94,0,0,1,0-.24l0-.21V7.19a3.26,3.26,0,0,1,.31-.78h0Zm-.22.87v.07h0v.11a1.77,1.77,0,0,0,0,.2c0,.09,0,.16,0,.24v.11H4.6a.68.68,0,0,0-.12-.26s0,0,0,0a.52.52,0,0,0-.11-.1l-.12-.06h0l-.06,0s0-.06,0-.1h0v0l0-.06v0a4.11,4.11,0,0,1,.21-.68A.57.57,0,0,0,5,6.37l.07,0A3.42,3.42,0,0,0,4.78,7.18Z" style="fill:#00684F"/><path d="M5.08,6.41a3.42,3.42,0,0,0-.3.77v.07h0v.11a1.77,1.77,0,0,0,0,.2c0,.09,0,.16,0,.24v.11H4.6a.68.68,0,0,0-.12-.26s0,0,0,0a.52.52,0,0,0-.11-.1l-.12-.06h0l-.06,0s0-.06,0-.1h0v0l0-.06v0a4.11,4.11,0,0,1,.21-.68A.57.57,0,0,0,5,6.37Z" style="fill:#00684F"/><path d="M5.6,4h0A4.73,4.73,0,0,0,4.05,5.57v0l.14.09h0a.51.51,0,0,1,.64-.13h0a3.86,3.86,0,0,1,.67-.67l0,0h0a.52.52,0,0,1,.13-.64l0,0Zm-.11.79a4.57,4.57,0,0,0-.66.66.55.55,0,0,0-.66.13l-.07,0A4.68,4.68,0,0,1,5.59,4.1l0,.06A.57.57,0,0,0,5.49,4.83Z" style="fill:#00684F"/><path d="M5.49,4.83a4.57,4.57,0,0,0-.66.66.55.55,0,0,0-.66.13l-.07,0A4.68,4.68,0,0,1,5.59,4.1l0,.06A.57.57,0,0,0,5.49,4.83Z" style="fill:#00684F"/><path d="M6.24,5.05h0a.52.52,0,0,1-.61-.12l0,0v0a3.94,3.94,0,0,0-.65.64v0a.49.49,0,0,1,.12.61v0l.13.08,0,0A3.34,3.34,0,0,1,6.3,5.19h0ZM5.17,6.26l-.07,0A.55.55,0,0,0,5,5.59,3.58,3.58,0,0,1,5.59,5a.54.54,0,0,0,.63.13l0,.07A3.34,3.34,0,0,0,5.17,6.26Z" style="fill:#00684F"/><path d="M6.26,5.17A3.34,3.34,0,0,0,5.17,6.26l-.07,0A.55.55,0,0,0,5,5.59,3.58,3.58,0,0,1,5.59,5a.54.54,0,0,0,.63.13Z" style="fill:#00684F"/><path d="M8,4.56h0a.57.57,0,0,1-.25-.11l0,0a.41.41,0,0,1-.09-.1l-.06-.11h0s0,0,0-.08v0h0l-.12,0H7.2a3.35,3.35,0,0,0-.7.22h0v0A.51.51,0,0,1,6.32,5h0l.09.14h0a3.26,3.26,0,0,1,.78-.31h.17l.21,0,.24,0H8V4.56Zm0,.12H7.8l-.23,0-.21,0H7.18a3.83,3.83,0,0,0-.77.3l0-.07a.55.55,0,0,0,.16-.59,4.11,4.11,0,0,1,.68-.21h0l.06,0h.16l0,.06h0a.67.67,0,0,0,.06.12.52.52,0,0,0,.1.11s0,0,0,0a.56.56,0,0,0,.26.12Z" style="fill:#00684F"/><path d="M7.91,4.6v.08H7.8l-.23,0-.21,0H7.18a3.83,3.83,0,0,0-.77.3l0-.07a.55.55,0,0,0,.16-.59,4.11,4.11,0,0,1,.68-.21h0l.06,0h.16l0,.06h0a.67.67,0,0,0,.06.12.52.52,0,0,0,.1.11s0,0,0,0A.56.56,0,0,0,7.91,4.6Z" style="fill:#00684F"/><path d="M12,5.58a4.73,4.73,0,0,0-1.52-1.53h0l-.09.14h0a.51.51,0,0,1,.13.64v0h0a3.86,3.86,0,0,1,.67.67l0,0h0a.51.51,0,0,1,.64.13l0,0L12,5.6Zm-.11,0a.56.56,0,0,0-.43-.19.52.52,0,0,0-.24,0,4.57,4.57,0,0,0-.66-.66.55.55,0,0,0-.13-.66l0-.07A4.58,4.58,0,0,1,11.9,5.59Z" style="fill:#00684F"/><path d="M11.9,5.59l-.06,0a.56.56,0,0,0-.43-.19.52.52,0,0,0-.24,0,4.57,4.57,0,0,0-.66-.66.55.55,0,0,0-.13-.66l0-.07A4.58,4.58,0,0,1,11.9,5.59Z" style="fill:#00684F"/><path d="M11.07,5.58a3.94,3.94,0,0,0-.64-.65h0a.49.49,0,0,1-.61.12h0l-.08.13,0,0a3.34,3.34,0,0,1,1.11,1.1v0L11,6.24v0a.52.52,0,0,1,.12-.61l0,0Zm-.17.64-.07,0A3.34,3.34,0,0,0,9.74,5.17l0-.07A.55.55,0,0,0,10.41,5a3.58,3.58,0,0,1,.62.61A.54.54,0,0,0,10.9,6.22Z" style="fill:#00684F"/><path d="M10.9,6.22l-.07,0A3.34,3.34,0,0,0,9.74,5.17l0-.07A.55.55,0,0,0,10.41,5a3.58,3.58,0,0,1,.62.61A.54.54,0,0,0,10.9,6.22Z" style="fill:#00684F"/><path d="M9.68,5a.52.52,0,0,1-.16-.57v0h0a3.64,3.64,0,0,0-.71-.22H8.65l-.12,0h0v0s0,.05,0,.08h0l-.06.11a.41.41,0,0,1-.09.1l0,0a.56.56,0,0,1-.26.11H8v.16h.15l.24,0,.21,0h.17a3.26,3.26,0,0,1,.78.31h0L9.69,5Zm-.09.09a3.42,3.42,0,0,0-.77-.3H8.64l-.2,0-.24,0H8.09V4.6a.68.68,0,0,0,.26-.12l0,0a.52.52,0,0,0,.1-.11.34.34,0,0,0,.06-.12h0s0,0,0-.06h.16l.06,0h0a4.11,4.11,0,0,1,.68.21A.57.57,0,0,0,9.63,5Z" style="fill:#00684F"/><path d="M9.63,5l0,.07a3.42,3.42,0,0,0-.77-.3H8.64l-.2,0-.24,0H8.09V4.6a.68.68,0,0,0,.26-.12l0,0a.52.52,0,0,0,.1-.11.34.34,0,0,0,.06-.12h0s0,0,0-.06h.16l.06,0h0a4.11,4.11,0,0,1,.68.21A.57.57,0,0,0,9.63,5Z" style="fill:#00684F"/><path d="M9.38,1.66l-.06-.07,0,0a.39.39,0,0,0-.45,0l-.06.05h0l0,0a.37.37,0,0,0,0,.45l0,0,.07.05a.36.36,0,0,0,.2.06.34.34,0,0,0,.22-.07.1.1,0,0,0,.05,0l0,0,0,0A.4.4,0,0,0,9.38,1.66Zm-.05.39h0l0,.05,0,0a.35.35,0,0,1-.37,0l-.07,0,0,0a.33.33,0,0,1,0-.4l0,0,0,0a.35.35,0,0,1,.19-.06.38.38,0,0,1,.21.07l0,0,.05.06A.33.33,0,0,1,9.33,2.05Z" style="fill:#00684F"/><path d="M14,8.06l-.05,0,0,0,0,0,.05,0a4.41,4.41,0,0,0,.58-.47l0,0-.11-.11h0a.52.52,0,0,1-.67,0v0l0,0a3.73,3.73,0,0,1-.39.25l-.07,0-.07,0a4.4,4.4,0,0,1-.5.21l-.06,0-.06,0h-.06l-.06,0h0v.14h0l.06,0h.06l.06,0,.06,0a4.4,4.4,0,0,1,.5.21l.07,0,.07,0a3.73,3.73,0,0,1,.39.25l0,0v0a.52.52,0,0,1,.67,0h0l.11-.11,0,0A4.41,4.41,0,0,0,14,8.06Zm.48.54a.56.56,0,0,0-.7,0c-.12-.09-.25-.17-.38-.25l-.07,0-.07,0a2.41,2.41,0,0,0-.5-.21l-.07,0-.06,0-.06,0h0V8h.05l0,0,.06,0,.07,0a2.41,2.41,0,0,0,.5-.21l.07,0,.07,0c.13-.08.26-.16.38-.25a.56.56,0,0,0,.7,0l.06,0A3.94,3.94,0,0,1,14,7.9l-.06,0-.06,0,0,0,0,0,.06,0,.06,0a4.89,4.89,0,0,1,.56.46Z" style="fill:#00684F"/><path d="M14,8.09a4.89,4.89,0,0,1,.56.46l-.06,0a.56.56,0,0,0-.7,0c-.12-.09-.25-.17-.38-.25l-.07,0-.07,0a2.41,2.41,0,0,0-.5-.21l-.07,0-.06,0-.06,0h0V8h.05l0,0,.06,0,.07,0a2.41,2.41,0,0,0,.5-.21l.07,0,.07,0c.13-.08.26-.16.38-.25a.56.56,0,0,0,.7,0l.06,0A3.94,3.94,0,0,1,14,7.9l-.06,0-.06,0,0,0,0,0,.06,0Z" style="fill:#00684F"/><path d="M13.73,9.37a.53.53,0,0,1,0-.6v0h0a3.31,3.31,0,0,0-.47-.29l-.07,0-.08,0-.35-.14-.06,0h0l-.07,0-.14,0h0v0a.54.54,0,0,1-.47.35h0v0s0,.06,0,.09V8.8a4.05,4.05,0,0,1-.23.75v0h0a.51.51,0,0,1,.19.65v0l.13.09v0a4.54,4.54,0,0,0,.53-1.38v-.1h0l.06,0a3,3,0,0,1,1,.61h0l.12-.11Zm-.1.07a3,3,0,0,0-1-.61l-.06,0-.06,0h0v.1s0,0,0,0a4.34,4.34,0,0,1-.5,1.34l-.07,0a.55.55,0,0,0-.19-.68A4,4,0,0,0,12,8.81V8.64a.19.19,0,0,0,0-.08.56.56,0,0,0,.48-.36l.12,0,.06,0h0l.06,0,.34.14.08,0,.07,0a3.23,3.23,0,0,1,.44.27.54.54,0,0,0,0,.62Z" style="fill:#00684F"/><path d="M13.69,9.38l-.06.06a3,3,0,0,0-1-.61l-.06,0-.06,0h0v.1s0,0,0,0a4.34,4.34,0,0,1-.5,1.34l-.07,0a.55.55,0,0,0-.19-.68A4,4,0,0,0,12,8.81V8.64a.19.19,0,0,0,0-.08.56.56,0,0,0,.48-.36l.12,0,.06,0h0l.06,0,.34.14.08,0,.07,0a3.23,3.23,0,0,1,.44.27A.54.54,0,0,0,13.69,9.38Z" style="fill:#00684F"/><path d="M12.65,9h0V9A4.75,4.75,0,0,1,9,12.62H9v0A2.84,2.84,0,1,0,12.65,9ZM11.6,14.39A2.79,2.79,0,0,1,9,12.65,4.75,4.75,0,0,0,12.65,9a2.79,2.79,0,0,1-1.05,5.38Z" style="fill:#00684F"/><path d="M8.94,12.54A4.4,4.4,0,0,0,10.3,12h0l-.08-.14h0a.52.52,0,0,1-.65-.18v0h0a4,4,0,0,1-.74.23H8.52v0a.54.54,0,0,1-.35.47h0v0s0,.1,0,.14,0,.05,0,.07,0,0,0,.06a3.65,3.65,0,0,0,.14.35l0,.08a.25.25,0,0,0,0,.07,3.31,3.31,0,0,0,.29.47h0a.53.53,0,0,1,.6,0l0,0,.11-.12h0a3,3,0,0,1-.61-1l0-.06v0h.1Zm-.16,0v0s0,0,0,.06a.14.14,0,0,1,0,.06,3,3,0,0,0,.61,1l0,.06a.53.53,0,0,0-.34-.11.6.6,0,0,0-.29.08,3.23,3.23,0,0,1-.27-.44.25.25,0,0,1,0-.07l0-.08c-.05-.11-.1-.23-.14-.34a.25.25,0,0,0,0-.07.14.14,0,0,0,0-.06l0-.12A.56.56,0,0,0,8.56,12h.25a4.4,4.4,0,0,0,.73-.22.58.58,0,0,0,.68.19l0,.06a4.29,4.29,0,0,1-1.33.5l-.06,0Z" style="fill:#00684F"/><path d="M8.83,12.67a3,3,0,0,0,.61,1l0,.06a.53.53,0,0,0-.34-.11.6.6,0,0,0-.29.08,3.23,3.23,0,0,1-.27-.44.25.25,0,0,1,0-.07l0-.08c-.05-.11-.1-.23-.14-.34a.25.25,0,0,0,0-.07.14.14,0,0,0,0-.06l0-.12A.56.56,0,0,0,8.56,12h.25a4.4,4.4,0,0,0,.73-.22.58.58,0,0,0,.68.19l0,.06a4.29,4.29,0,0,1-1.33.5l-.06,0H8.78v0s0,0,0,.06A.14.14,0,0,1,8.83,12.67Z" style="fill:#00684F"/><path d="M8.69,13.78l0,0a3.73,3.73,0,0,1-.25-.39l0-.07,0-.07a4.4,4.4,0,0,1-.21-.5s0,0,0-.06l0-.06v-.06a.14.14,0,0,1,0-.06v0H7.93v0a.14.14,0,0,1,0,.06v.06l0,.06s0,0,0,.06a4.4,4.4,0,0,1-.21.5l0,.07,0,.07a3.73,3.73,0,0,1-.25.39l0,0h0a.52.52,0,0,1,0,.67v0l.11.11,0,0A4.41,4.41,0,0,0,7.94,14l0-.05,0,0,0,0,0,.05a4.41,4.41,0,0,0,.47.58l0,0,.11-.11v0a.52.52,0,0,1,0-.67Zm-.09.69,0,.06A3.94,3.94,0,0,1,8.1,14l0-.06a.21.21,0,0,1,0-.06l0,0,0,0,0,.06,0,.06a4.89,4.89,0,0,1-.46.56l0-.06a.56.56,0,0,0,0-.7c.09-.12.17-.25.25-.38l0-.07,0-.07a2.41,2.41,0,0,0,.21-.5.25.25,0,0,0,0-.07.14.14,0,0,0,0-.06l0-.06v0H8v0s0,0,0,.06a.14.14,0,0,0,0,.06.25.25,0,0,0,0,.07,2.41,2.41,0,0,0,.21.5l0,.07,0,.07c.08.13.16.26.25.38A.56.56,0,0,0,8.6,14.47Z" style="fill:#00684F"/><path d="M8.6,14.47l0,.06A3.94,3.94,0,0,1,8.1,14l0-.06a.21.21,0,0,1,0-.06l0,0,0,0,0,.06,0,.06a4.89,4.89,0,0,1-.46.56l0-.06a.56.56,0,0,0,0-.7c.09-.12.17-.25.25-.38l0-.07,0-.07a2.41,2.41,0,0,0,.21-.5.25.25,0,0,0,0-.07.14.14,0,0,0,0-.06l0-.06v0H8v0s0,0,0,.06a.14.14,0,0,0,0,.06.25.25,0,0,0,0,.07,2.41,2.41,0,0,0,.21.5l0,.07,0,.07c.08.13.16.26.25.38A.56.56,0,0,0,8.6,14.47Z" style="fill:#00684F"/><path d="M7,12.62A4.75,4.75,0,0,1,3.38,9V9h0A2.84,2.84,0,1,0,7,12.65v0ZM4.4,14.39A2.79,2.79,0,0,1,3.35,9,4.75,4.75,0,0,0,7,12.65,2.79,2.79,0,0,1,4.4,14.39Z" style="fill:#00684F"/><path d="M7.83,12.45A.54.54,0,0,1,7.48,12v0H7.2a4.05,4.05,0,0,1-.75-.23h0a.5.5,0,0,1-.66.18h0L5.65,12h0a4.37,4.37,0,0,0,1.39.54h.1v0l0,.06a3,3,0,0,1-.61,1h0l.11.12,0,0a.53.53,0,0,1,.6,0h0a3.31,3.31,0,0,0,.29-.47.25.25,0,0,0,0-.07.59.59,0,0,0,0-.08,3.65,3.65,0,0,0,.14-.35s0,0,0-.06,0,0,0-.07,0-.09,0-.14v0Zm-.06.15a.14.14,0,0,0,0,.07l0,.06c0,.11-.09.23-.14.34l0,.08a.25.25,0,0,1,0,.07,3.23,3.23,0,0,1-.27.44.56.56,0,0,0-.63,0l-.05-.06a3,3,0,0,0,.61-1,.14.14,0,0,1,0-.06l0-.06v0H7.13l-.06,0A4.48,4.48,0,0,1,5.71,12l0-.06a.55.55,0,0,0,.7-.19,4,4,0,0,0,.74.23h.25a.56.56,0,0,0,.36.48Z" style="fill:#00684F"/><path d="M7.8,12.48l0,.12a.14.14,0,0,0,0,.07l0,.06c0,.11-.09.23-.14.34l0,.08a.25.25,0,0,1,0,.07,3.23,3.23,0,0,1-.27.44.56.56,0,0,0-.63,0l-.05-.06a3,3,0,0,0,.61-1,.14.14,0,0,1,0-.06l0-.06v0H7.13l-.06,0A4.48,4.48,0,0,1,5.71,12l0-.06a.55.55,0,0,0,.7-.19,4,4,0,0,0,.74.23h.25A.56.56,0,0,0,7.8,12.48Z" style="fill:#00684F"/><path d="M4.31,9.54a4,4,0,0,1-.23-.74v0s0,0,0,0,0,0,0,0v0h0s0-.07,0-.1v0H4a.54.54,0,0,1-.47-.35v0h0l-.14,0-.07,0h0l-.06,0-.35.14-.08,0-.07,0a3.31,3.31,0,0,0-.47.29h0v0a.53.53,0,0,1,0,.6l0,0,.12.11h0a3,3,0,0,1,1-.61l.06,0h0v.1A4.52,4.52,0,0,0,4,10.34v0l.13-.1h0a.53.53,0,0,1,.17-.68h0Zm-.23.71,0,0a4.17,4.17,0,0,1-.52-1.36l0,0v-.1h0l-.06,0-.06,0a3,3,0,0,0-1,.61l-.06-.06a.54.54,0,0,0,0-.62,3.23,3.23,0,0,1,.44-.27l.07,0,.08,0,.34-.14.06,0h0l.06,0,.12,0A.56.56,0,0,0,4,8.56a.19.19,0,0,0,0,.08v.07a0,0,0,0,0,0,0v.07a4.4,4.4,0,0,0,.22.73A.57.57,0,0,0,4.08,10.25Z" style="fill:#00684F"/><path d="M4.08,10.25l0,0a4.17,4.17,0,0,1-.52-1.36l0,0v-.1h0l-.06,0-.06,0a3,3,0,0,0-1,.61l-.06-.06a.54.54,0,0,0,0-.62,3.23,3.23,0,0,1,.44-.27l.07,0,.08,0,.34-.14.06,0h0l.06,0,.12,0A.56.56,0,0,0,4,8.56a.19.19,0,0,0,0,.08v.07a0,0,0,0,0,0,0v.07a4.4,4.4,0,0,0,.22.73A.57.57,0,0,0,4.08,10.25Z" style="fill:#00684F"/><path d="M3.53,8V7.93h0l-.06,0H3.39l-.06,0-.06,0a4.4,4.4,0,0,1-.5-.21l-.07,0-.07,0a3.73,3.73,0,0,1-.39-.25l0,0v0a.52.52,0,0,1-.67,0h0l-.11.11,0,0A4.41,4.41,0,0,0,2,7.94l.05,0,0,0,0,0L2,8.06a4.41,4.41,0,0,0-.58.47l0,0,.11.11h0a.52.52,0,0,1,.67,0v0l0,0a3.73,3.73,0,0,1,.39-.25l.07,0,.07,0a4.4,4.4,0,0,1,.5-.21l.06,0,.06,0h.06l.06,0h0V8Zm0,0h0l-.05,0-.06,0-.07,0a2.41,2.41,0,0,0-.5.21l-.07,0-.07,0c-.13.08-.26.16-.38.25a.59.59,0,0,0-.37-.14.57.57,0,0,0-.33.11l-.06,0A3.94,3.94,0,0,1,2,8.1l.06,0,.06,0,0,0,0,0-.06,0L2,7.91a4.89,4.89,0,0,1-.56-.46l.06,0a.56.56,0,0,0,.7,0c.12.09.25.17.38.25l.07,0,.07,0a2.41,2.41,0,0,0,.5.21l.07,0,.06,0,.05,0h0V8Z" style="fill:#00684F"/><path d="M3.48,8V8h0l-.05,0-.06,0-.07,0a2.41,2.41,0,0,0-.5.21l-.07,0-.07,0c-.13.08-.26.16-.38.25a.59.59,0,0,0-.37-.14.57.57,0,0,0-.33.11l-.06,0A3.94,3.94,0,0,1,2,8.1l.06,0,.06,0,0,0,0,0-.06,0L2,7.91a4.89,4.89,0,0,1-.56-.46l.06,0a.56.56,0,0,0,.7,0c.12.09.25.17.38.25l.07,0,.07,0a2.41,2.41,0,0,0,.5.21l.07,0,.06,0,.05,0h0Z" style="fill:#00684F"/><path d="M4.31,6.42a.51.51,0,0,1-.19-.65v0L4,5.66v0a4.54,4.54,0,0,0-.53,1.38v.1h0l-.06,0a3,3,0,0,1-1-.61h0l-.12.11,0,0a.53.53,0,0,1,0,.6v0h0a3.31,3.31,0,0,0,.47.29l.07,0,.08,0,.35.14.06,0h0l.07,0,.14,0h0v0A.54.54,0,0,1,4,7.48H4v0s0-.06,0-.1h0V7.2a4.05,4.05,0,0,1,.23-.75v0ZM4,7.19v.17a.19.19,0,0,0,0,.08.56.56,0,0,0-.48.36l-.12,0-.06,0h0l-.06,0-.34-.14-.08,0-.07,0a3.23,3.23,0,0,1-.44-.27.54.54,0,0,0,0-.62l.06-.06a3,3,0,0,0,1,.61l.06,0,.06,0h0v-.1l0,0A4.34,4.34,0,0,1,4,5.73l.07,0a.55.55,0,0,0,.19.68A4,4,0,0,0,4,7.19Z" style="fill:#00684F"/><path d="M4.27,6.45A4,4,0,0,0,4,7.19v.17a.19.19,0,0,0,0,.08.56.56,0,0,0-.48.36l-.12,0-.06,0h0l-.06,0-.34-.14-.08,0-.07,0a3.23,3.23,0,0,1-.44-.27.54.54,0,0,0,0-.62l.06-.06a3,3,0,0,0,1,.61l.06,0,.06,0h0v-.1l0,0A4.34,4.34,0,0,1,4,5.73l.07,0A.55.55,0,0,0,4.27,6.45Z" style="fill:#00684F"/><path d="M7,3.35A2.84,2.84,0,1,0,3.35,7h0V7A4.75,4.75,0,0,1,7,3.38h0ZM3.35,7A2.79,2.79,0,1,1,7,3.35,4.75,4.75,0,0,0,3.35,7Z" style="fill:#00684F"/><path d="M11.2,8v0a1.85,1.85,0,0,0,0-.23c0-.1,0-.21,0-.31s0,0,0-.06h0s0,0,0-.06h0a.19.19,0,0,0,0-.07A3.17,3.17,0,0,0,8.84,4.92l-.07,0H8.63l-.31,0H7.68l-.31,0H7.3l-.06,0h0l-.07,0A3.17,3.17,0,0,0,4.92,7.16a.19.19,0,0,0,0,.07h0s0,0,0,0h0s0,0,0,.07,0,.21,0,.31a1.85,1.85,0,0,0,0,.23v.18a1.85,1.85,0,0,0,0,.23c0,.1,0,.21,0,.31s0,0,0,.06h0s0,0,0,.06h0a.19.19,0,0,0,0,.07,3.17,3.17,0,0,0,2.24,2.24l.07,0h.14l.31,0h.64l.31,0H8.7l.06,0h0l.07,0a3.17,3.17,0,0,0,2.24-2.24.19.19,0,0,0,0-.07h0a.07.07,0,0,1,0,0h0s0,0,0-.07,0-.21,0-.31a1.85,1.85,0,0,0,0-.23V8Zm0,.08v.05c0,.07,0,.15,0,.22a2.87,2.87,0,0,1-.05.31.15.15,0,0,0,0,.07h0a.13.13,0,0,1,0,.06h0s0,.05,0,.07A3.16,3.16,0,0,1,8.83,11l-.07,0H8.62l-.31.05H7.69l-.31-.05H7.24l-.07,0A3.16,3.16,0,0,1,5,8.83s0-.05,0-.07h0a.13.13,0,0,1,0-.06h0a.15.15,0,0,0,0-.07,2.87,2.87,0,0,1,0-.31c0-.07,0-.15,0-.22V7.91c0-.07,0-.15,0-.22a2.87,2.87,0,0,1,0-.31.15.15,0,0,0,0-.07h0a.13.13,0,0,1,0-.06h0s0,0,0-.07A3.16,3.16,0,0,1,7.17,5l.07,0h.14l.31,0h.62l.31,0h.14l.07,0A3.16,3.16,0,0,1,11,7.17s0,0,0,.07h0a.13.13,0,0,1,0,.06h0a.15.15,0,0,0,0,.07,2.87,2.87,0,0,1,.05.31c0,.07,0,.15,0,.22V8Z" style="fill:#00684F"/><path d="M10.32,4a4.54,4.54,0,0,0-1.38-.53h-.1v0a.33.33,0,0,1,0-.06,3,3,0,0,1,.61-1h0l-.11-.12,0,0a.53.53,0,0,1-.6,0h0a3.31,3.31,0,0,0-.29.47.25.25,0,0,0,0,.07l0,.08a3.65,3.65,0,0,0-.14.35s0,0,0,.06,0,.05,0,.07,0,.09,0,.14v0h0A.54.54,0,0,1,8.52,4V4H8.8a4.05,4.05,0,0,1,.75.23h0a.51.51,0,0,1,.65-.19h0L10.34,4Zm-.09.09a.55.55,0,0,0-.68.19A4,4,0,0,0,8.81,4H8.56a.56.56,0,0,0-.36-.48l0-.12a.14.14,0,0,0,0-.07l0-.06c0-.11.09-.23.14-.34a.3.3,0,0,1,0-.08.25.25,0,0,1,0-.07,3.23,3.23,0,0,1,.27-.44.56.56,0,0,0,.63,0l0,.06a3,3,0,0,0-.61,1,.14.14,0,0,1,0,.06l0,.06v0h.1l0,0a4.34,4.34,0,0,1,1.34.5Z" style="fill:#00684F"/><path d="M10.27,4l0,.07a.55.55,0,0,0-.68.19A4,4,0,0,0,8.81,4H8.56a.56.56,0,0,0-.36-.48l0-.12a.14.14,0,0,0,0-.07l0-.06c0-.11.09-.23.14-.34a.3.3,0,0,1,0-.08.25.25,0,0,1,0-.07,3.23,3.23,0,0,1,.27-.44.56.56,0,0,0,.63,0l0,.06a3,3,0,0,0-.61,1,.14.14,0,0,1,0,.06l0,.06v0h.1l0,0A4.34,4.34,0,0,1,10.27,4Z" style="fill:#00684F"/><path d="M8.67,2.21a.52.52,0,0,1,0-.67v0l-.11-.11,0,0A4.41,4.41,0,0,0,8.06,2l0,.05,0,0,0,0,0-.05a4.41,4.41,0,0,0-.47-.58l0,0-.11.11v0a.52.52,0,0,1,0,.67h0l0,0a3.73,3.73,0,0,1,.25.39l0,.07,0,.07a4.4,4.4,0,0,1,.21.5s0,0,0,.06l0,.06v.06a.14.14,0,0,1,0,.06v0h.14v0a.14.14,0,0,1,0-.06V3.39l0-.06s0,0,0-.06a4.4,4.4,0,0,1,.21-.5l0-.07,0-.07a3.73,3.73,0,0,1,.25-.39l0,0Zm-.29.4,0,.07,0,.07a2.41,2.41,0,0,0-.21.5.25.25,0,0,0,0,.07.14.14,0,0,0,0,.06s0,0,0,.06v0H8v0l0-.06a.14.14,0,0,0,0-.06.25.25,0,0,0,0-.07,2.41,2.41,0,0,0-.21-.5l0-.07,0-.07c-.08-.13-.16-.26-.25-.38a.56.56,0,0,0,0-.7l0-.06A3.94,3.94,0,0,1,7.9,2l0,.06,0,.06,0,0,0,0a.21.21,0,0,1,0-.06l0-.06a4.89,4.89,0,0,1,.46-.56l0,.06a.56.56,0,0,0,0,.7C8.54,2.35,8.46,2.48,8.38,2.61Z" style="fill:#00684F"/><path d="M8.63,2.23c-.09.12-.17.25-.25.38l0,.07,0,.07a2.41,2.41,0,0,0-.21.5.25.25,0,0,0,0,.07.14.14,0,0,0,0,.06s0,0,0,.06v0H8v0l0-.06a.14.14,0,0,0,0-.06.25.25,0,0,0,0-.07,2.41,2.41,0,0,0-.21-.5l0-.07,0-.07c-.08-.13-.16-.26-.25-.38a.56.56,0,0,0,0-.7l0-.06A3.94,3.94,0,0,1,7.9,2l0,.06,0,.06,0,0,0,0a.21.21,0,0,1,0-.06l0-.06a4.89,4.89,0,0,1,.46-.56l0,.06A.56.56,0,0,0,8.63,2.23Z" style="fill:#00684F"/><path d="M11.53.13A4.21,4.21,0,0,0,8.62,1.34h0l.12.12v0a.52.52,0,0,1,.67,0h0A3.62,3.62,0,0,1,11.06.8h0v0a.51.51,0,0,1,.46-.49h0V.13Zm0,.12A.55.55,0,0,0,11,.76a3.73,3.73,0,0,0-1.62.67.58.58,0,0,0-.37-.13.52.52,0,0,0-.33.11l-.05-.06A4.21,4.21,0,0,1,11.51.17Z" style="fill:#00684F"/><path d="M11.51.17V.25A.55.55,0,0,0,11,.76a3.73,3.73,0,0,0-1.62.67.58.58,0,0,0-.37-.13.52.52,0,0,0-.33.11l-.05-.06A4.21,4.21,0,0,1,11.51.17Z" style="fill:#00684F"/><path d="M14.57,1.34A4.19,4.19,0,0,0,11.66.13h0V.29h0a.51.51,0,0,1,.45.49v0h0a3.62,3.62,0,0,1,1.63.68h0a.52.52,0,0,1,.67,0l0,0,.11-.12Zm-.1.07a.56.56,0,0,0-.7,0A3.64,3.64,0,0,0,12.16.76a.56.56,0,0,0-.48-.51V.17a4.23,4.23,0,0,1,2.85,1.18Z" style="fill:#00684F"/><path d="M14.53,1.35l-.06.06a.56.56,0,0,0-.7,0A3.64,3.64,0,0,0,12.16.76a.56.56,0,0,0-.48-.51V.17A4.23,4.23,0,0,1,14.53,1.35Z" style="fill:#00684F"/><path d="M11.54,1.32a.51.51,0,0,1-.45-.41v0h0a3.51,3.51,0,0,0-1.57.65h0v0a.51.51,0,0,1,0,.61h0l.11.12,0,0a3,3,0,0,1,1.95-.81h0V1.32Zm0,.12a3,3,0,0,0-1.95.81l-.05-.06a.58.58,0,0,0,0-.63A3.5,3.5,0,0,1,11.05.94a.54.54,0,0,0,.46.42Z" style="fill:#00684F"/><path d="M11.51,1.36v.08a3,3,0,0,0-1.95.81l-.05-.06a.58.58,0,0,0,0-.63A3.5,3.5,0,0,1,11.05.94.54.54,0,0,0,11.51,1.36Z" style="fill:#00684F"/><path d="M15.87,4.34a4.19,4.19,0,0,0-1.21-2.91v0l-.12.11,0,0a.52.52,0,0,1,0,.67h0v0a3.62,3.62,0,0,1,.68,1.63v0h0a.51.51,0,0,1,.49.45v0h.16Zm-.12,0a.56.56,0,0,0-.51-.48,3.64,3.64,0,0,0-.67-1.61.56.56,0,0,0,0-.7l.06-.06a4.28,4.28,0,0,1,1.18,2.85Z" style="fill:#00684F"/><path d="M15.83,4.32h-.08a.56.56,0,0,0-.51-.48,3.64,3.64,0,0,0-.67-1.61.56.56,0,0,0,0-.7l.06-.06A4.28,4.28,0,0,1,15.83,4.32Z" style="fill:#00684F"/><path d="M13.75,6.61l-.12-.11h0a3,3,0,0,1-1,.61l-.06,0h0v-.1A4.84,4.84,0,0,0,12,5.69v0l-.14.09v0a.52.52,0,0,1-.18.65h0v0a4,4,0,0,1,.23.74v.06s0,0,0,0v0h0s0,.07,0,.1v0h0a.54.54,0,0,1,.47.35v0h0l.14,0,.07,0h0l.06,0,.35-.14.08,0,.07,0a3.31,3.31,0,0,0,.47-.29h0v0a.53.53,0,0,1,0-.6Zm-.09.63a3.23,3.23,0,0,1-.44.27l-.07,0-.08,0-.34.14-.06,0h0l-.06,0-.12,0A.56.56,0,0,0,12,7.44a.19.19,0,0,0,0-.08V7.19a4.4,4.4,0,0,0-.22-.73.59.59,0,0,0,.19-.69l.06,0a4.34,4.34,0,0,1,.5,1.34s0,0,0,0v.1h0l.06,0,.06,0a3,3,0,0,0,1-.61l.06.06A.54.54,0,0,0,13.66,7.24Z" style="fill:#00684F"/><path d="M13.66,7.24a3.23,3.23,0,0,1-.44.27l-.07,0-.08,0-.34.14-.06,0h0l-.06,0-.12,0A.56.56,0,0,0,12,7.44a.19.19,0,0,0,0-.08V7.19a4.4,4.4,0,0,0-.22-.73.59.59,0,0,0,.19-.69l.06,0a4.34,4.34,0,0,1,.5,1.34s0,0,0,0v.1h0l.06,0,.06,0a3,3,0,0,0,1-.61l.06.06A.54.54,0,0,0,13.66,7.24Z" style="fill:#00684F"/><path d="M11.6,1.57A2.83,2.83,0,0,0,9,3.35v0H9A4.75,4.75,0,0,1,12.62,7v0h0A2.84,2.84,0,0,0,11.6,1.57ZM12.65,7A4.75,4.75,0,0,0,9,3.35,2.79,2.79,0,1,1,12.65,7Z" style="fill:#00684F"/><path d="M15.11,3.87a3.55,3.55,0,0,0-.65-1.58h0a.54.54,0,0,1-.61,0v0l-.12.12h0a3,3,0,0,1,.81,2v0h.16v0a.51.51,0,0,1,.41-.44h0Zm-.47.45h-.08a3,3,0,0,0-.81-1.95l.06-.06a.56.56,0,0,0,.63,0,3.5,3.5,0,0,1,.62,1.52A.54.54,0,0,0,14.64,4.32Z" style="fill:#00684F"/><path d="M15.06,3.86a.54.54,0,0,0-.42.46h-.08a3,3,0,0,0-.81-1.95l.06-.06a.56.56,0,0,0,.63,0A3.5,3.5,0,0,1,15.06,3.86Z" style="fill:#00684F"/><path d="M7.25,13.91l0,0-.07,0a.38.38,0,0,0-.42,0,.1.1,0,0,0-.05,0h0v0l0,0a.4.4,0,0,0,0,.42.2.2,0,0,0,.06.07l0,0a.35.35,0,0,0,.24.08.33.33,0,0,0,.21-.07l.06,0,0,0h0l0,0A.4.4,0,0,0,7.25,13.91Zm0,.42h0l0,.05-.05,0a.35.35,0,0,1-.4,0l0,0,0-.06a.33.33,0,0,1,0-.37l0,0,0,0A.36.36,0,0,1,7,13.8a.34.34,0,0,1,.17,0l.07.05,0,0A.33.33,0,0,1,7.22,14.33Z" style="fill:#00684F"/><path d="M4.78,15.11a.38.38,0,0,0-.31-.29H4.33a.36.36,0,0,0-.3.29.22.22,0,0,0,0,.08v.05a.38.38,0,0,0,.31.33h.14a.38.38,0,0,0,.31-.33.43.43,0,0,0,0-.05S4.78,15.14,4.78,15.11Zm0,.13a.35.35,0,0,1-.28.29H4.34a.35.35,0,0,1-.27-.29v-.12a.36.36,0,0,1,.27-.26h.12a.34.34,0,0,1,.27.26.17.17,0,0,1,0,.07Z" style="fill:#00684F"/><path d="M2.17,13.92l0-.05,0,0a.38.38,0,0,0-.42,0,.18.18,0,0,0-.07,0l0,0a.37.37,0,0,0,0,.45l0,.05,0,0a.36.36,0,0,0,.22.07.32.32,0,0,0,.23-.08l0,0a.18.18,0,0,0,.05-.07A.38.38,0,0,0,2.17,13.92Zm0,.4h0l0,.06,0,0a.35.35,0,0,1-.4,0l0,0,0-.05a.35.35,0,0,1,0-.4l0,0,.06-.05a.41.41,0,0,1,.18,0,.33.33,0,0,1,.19.06l.05,0,0,0A.35.35,0,0,1,2.15,14.32Z" style="fill:#00684F"/><path d="M1.18,11.53a.38.38,0,0,0-.29-.31H.76a.38.38,0,0,0-.33.31s0,0,0,.07,0,0,0,.07A.38.38,0,0,0,.76,12H.89a.36.36,0,0,0,.29-.3.2.2,0,0,0,0-.07A.15.15,0,0,0,1.18,11.53Zm0,.13a.36.36,0,0,1-.26.27H.76a.35.35,0,0,1-.29-.27v-.12a.35.35,0,0,1,.29-.28H.88a.34.34,0,0,1,.26.27v.12Z" style="fill:#00684F"/><path d="M2.18,8.85l-.05-.07,0,0a.37.37,0,0,0-.45,0l0,0v0h0l0,0a.38.38,0,0,0,0,.45l0,0,.07.06a.36.36,0,0,0,.2.06.44.44,0,0,0,.22-.07l0,0,0,0,0,0A.38.38,0,0,0,2.18,8.85Zm0,.4h0l0,0-.05,0a.33.33,0,0,1-.37,0l-.06-.05,0,0a.35.35,0,0,1,0-.4l0,0,0,0a.31.31,0,0,1,.19-.06.33.33,0,0,1,.21.07l0,0,0,.07A.35.35,0,0,1,2.14,9.25Z" style="fill:#00684F"/><path d="M2.17,6.73a.1.1,0,0,0,0-.05l0,0a.4.4,0,0,0-.42,0,.2.2,0,0,0-.07.06l0,0a.38.38,0,0,0,0,.45.21.21,0,0,0,0,.06l0,0a.36.36,0,0,0,.22.07.38.38,0,0,0,.23-.08l0,0,.05-.07A.38.38,0,0,0,2.17,6.73Zm0,.39h0l0,.07,0,0a.33.33,0,0,1-.4,0l0,0,0-.05a.35.35,0,0,1,0-.4l0,0,.06,0a.41.41,0,0,1,.18,0,.33.33,0,0,1,.19.06l.05,0,0,0A.35.35,0,0,1,2.15,7.12Z" style="fill:#00684F"/><path d="M1.18,4.33A.36.36,0,0,0,.89,4H.76a.38.38,0,0,0-.33.31s0,0,0,.07,0,0,0,.07a.38.38,0,0,0,.33.31H.89a.38.38,0,0,0,.29-.31.15.15,0,0,0,0-.07A.2.2,0,0,0,1.18,4.33Zm0,.13a.34.34,0,0,1-.26.27H.76a.35.35,0,0,1-.29-.28V4.34a.35.35,0,0,1,.29-.27H.88a.36.36,0,0,1,.26.27v.12Z" style="fill:#00684F"/><path d="M2.18,1.66a.18.18,0,0,0-.05-.07l0,0a.39.39,0,0,0-.45,0l0,.05h0s0,0,0,0a.37.37,0,0,0,0,.45l0,0a.18.18,0,0,0,.07.05.37.37,0,0,0,.42,0l0,0,0,0a0,0,0,0,0,0,0A.38.38,0,0,0,2.18,1.66Zm0,.39h0l0,.05-.05,0a.35.35,0,0,1-.37,0l-.06,0,0,0a.35.35,0,0,1,0-.4l0,0,0,0a.31.31,0,0,1,.19-.06.4.4,0,0,1,.21.07l0,0,0,.06A.35.35,0,0,1,2.14,2.05Z" style="fill:#00684F"/><path d="M4.4.42h0Zm-.07,0h0Z" style="fill:#00684F"/><path d="M4.78.76A.38.38,0,0,0,4.47.43H4.33A.38.38,0,0,0,4,.76V.81A.22.22,0,0,0,4,.89a.36.36,0,0,0,.3.29h.14A.38.38,0,0,0,4.78.89s0-.05,0-.08A.43.43,0,0,0,4.78.76Zm0,.12a.34.34,0,0,1-.27.26H4.34A.36.36,0,0,1,4.07.88V.76A.35.35,0,0,1,4.34.47h.12a.35.35,0,0,1,.28.29V.81A.17.17,0,0,1,4.73.88Z" style="fill:#00684F"/><path d="M7.27,2.07,7.3,2Zm-.61-.39h0Z" style="fill:#00684F"/><path d="M11.6.42h0Zm-.07,0h0Z" style="fill:#00684F"/><path d="M12,.76a.38.38,0,0,0-.31-.33h-.14a.38.38,0,0,0-.31.33.43.43,0,0,0,0,.05s0,0,0,.08a.38.38,0,0,0,.31.29h.14A.36.36,0,0,0,12,.89a.22.22,0,0,0,0-.08Zm-.05.12a.36.36,0,0,1-.27.26h-.12a.34.34,0,0,1-.27-.26.17.17,0,0,1,0-.07V.76a.35.35,0,0,1,.28-.29h.12a.35.35,0,0,1,.27.29V.88Z" style="fill:#00684F"/><path d="M14.41,2.07l0,0Z" style="fill:#00684F"/><path d="M13.85,1.68h0Zm.61.39,0-.06Z" style="fill:#00684F"/><path d="M14.45,1.64l0,0-.05,0a.37.37,0,0,0-.45,0l0,0,0,0v0l0,0h0l0,.05v0a.36.36,0,0,0,.05.33l0,0,0,0,.05,0a.37.37,0,0,0,.42,0,.18.18,0,0,0,.07-.05l0,0v0l0,0,0-.06A.38.38,0,0,0,14.45,1.64Zm0,.38,0,0h0l0,0-.06,0a.35.35,0,0,1-.37,0l0,0,0-.05a.34.34,0,0,1,0-.35h0l.05-.06,0,0a.4.4,0,0,1,.21-.07.31.31,0,0,1,.19.06l.05,0,0,0,0,.07a.08.08,0,0,1,0,0A.33.33,0,0,1,14.44,2Z" style="fill:#00684F"/><path d="M15.57,4.33A.38.38,0,0,0,15.24,4h-.13a.36.36,0,0,0-.29.3.2.2,0,0,0,0,.07.15.15,0,0,0,0,.07.38.38,0,0,0,.29.31h.13a.38.38,0,0,0,.33-.31s0,0,0-.07S15.57,4.36,15.57,4.33Zm0,.13a.35.35,0,0,1-.29.28h-.12a.34.34,0,0,1-.26-.27V4.34a.36.36,0,0,1,.26-.27h.12a.35.35,0,0,1,.29.27v.12Z" style="fill:#00684F"/><path d="M14.45,7.16v0l0,0Z" style="fill:#00684F"/><path d="M14.44,6.71l0,0a.2.2,0,0,0-.07-.06.4.4,0,0,0-.42,0l-.05,0h0s0,0,0,0a.38.38,0,0,0,0,.42l0,.07,0,0a.38.38,0,0,0,.23.08.36.36,0,0,0,.22-.07l.05,0,0,0v0l0,0A.38.38,0,0,0,14.44,6.71Zm0,.43h0l0,.05-.05,0a.33.33,0,0,1-.4,0l0,0-.05-.07a.35.35,0,0,1,0-.37l0,0,0,0a.33.33,0,0,1,.19-.06.41.41,0,0,1,.18,0l.06,0,0,0A.35.35,0,0,1,14.42,7.14Z" style="fill:#00684F"/><path d="M14.45,8.84l0-.06-.05,0a.37.37,0,0,0-.45,0l0,0,0,.07a.38.38,0,0,0,0,.42l0,0,0,0,.05,0a.44.44,0,0,0,.22.07.36.36,0,0,0,.2-.06l.07-.06,0,0A.38.38,0,0,0,14.45,8.84Zm0,.42h0l0,0-.06.05a.33.33,0,0,1-.37,0l0,0,0,0a.35.35,0,0,1,0-.37l.05-.07,0,0a.33.33,0,0,1,.21-.07.31.31,0,0,1,.19.06l.05,0,0,0A.35.35,0,0,1,14.41,9.26Z" style="fill:#00684F"/><path d="M15.57,11.53a.38.38,0,0,0-.33-.31h-.13a.38.38,0,0,0-.29.31.15.15,0,0,0,0,.07.2.2,0,0,0,0,.07.36.36,0,0,0,.29.3h.13a.38.38,0,0,0,.33-.31s0-.05,0-.07S15.57,11.55,15.57,11.53Zm0,.13a.35.35,0,0,1-.29.27h-.12a.36.36,0,0,1-.26-.27v-.12a.34.34,0,0,1,.26-.27h.12a.35.35,0,0,1,.29.28v.12Z" style="fill:#00684F"/><path d="M14.44,13.91l0,0a.18.18,0,0,0-.07,0,.38.38,0,0,0-.42,0l-.05,0h0v0l0,0a.38.38,0,0,0,0,.42.18.18,0,0,0,0,.07l0,0a.32.32,0,0,0,.23.08.36.36,0,0,0,.22-.07l.05,0,0,0h0l0,0A.36.36,0,0,0,14.44,13.91Zm0,.42h0l0,.05-.05,0a.35.35,0,0,1-.4,0l0,0-.05-.06a.35.35,0,0,1,0-.37l0,0,0,0a.33.33,0,0,1,.19-.06.41.41,0,0,1,.18,0l.06.05,0,0A.35.35,0,0,1,14.42,14.33Z" style="fill:#00684F"/><path d="M12,15.11a.36.36,0,0,0-.3-.29h-.14a.38.38,0,0,0-.31.29s0,.05,0,.08a.43.43,0,0,0,0,.05.38.38,0,0,0,.31.33h.14a.38.38,0,0,0,.31-.33v-.05A.22.22,0,0,0,12,15.11Zm0,.13a.35.35,0,0,1-.27.29h-.12a.35.35,0,0,1-.28-.29v-.05a.17.17,0,0,1,0-.07.34.34,0,0,1,.27-.26h.12a.36.36,0,0,1,.27.26v.12Z" style="fill:#00684F"/><path d="M9.37,13.92l0-.05a.1.1,0,0,0-.05,0,.38.38,0,0,0-.42,0l-.07,0,0,0a.37.37,0,0,0,0,.45l0,.05.06,0a.33.33,0,0,0,.21.07.35.35,0,0,0,.24-.08l0,0,.06-.07A.4.4,0,0,0,9.37,13.92Zm0,.4h0l-.05.06,0,0a.35.35,0,0,1-.4,0l0,0,0-.05a.33.33,0,0,1,0-.4l0,0,.07-.05a.34.34,0,0,1,.17,0,.36.36,0,0,1,.2.06l0,0,0,0A.33.33,0,0,1,9.34,14.32Z" style="fill:#00684F"/><path d="M8.37,11.87a.3.3,0,0,0,0-.1.34.34,0,0,0-.26-.19H7.93a.34.34,0,0,0-.26.19.3.3,0,0,0,0,.1.28.28,0,0,0,0,.09v0h0a.4.4,0,0,0,.22.3h0l.07,0h.14l.07,0h0A.4.4,0,0,0,8.38,12v0A.28.28,0,0,0,8.37,11.87Zm0,.13a.31.31,0,0,1-.21.27h0l-.06,0H7.88a.33.33,0,0,1-.15-.11l0,0h0a.28.28,0,0,1,0-.13h0a.06.06,0,0,1,0,0s0-.05,0-.08a.36.36,0,0,1,0-.09.27.27,0,0,1,.1-.11.21.21,0,0,1,.13,0h.12a.21.21,0,0,1,.13,0,.27.27,0,0,1,.1.11.36.36,0,0,1,0,.09s0,0,0,.08A.06.06,0,0,1,8.33,12Z" style="fill:#00684F"/><path d="M4.85,5.72l-.07-.06,0,0a.4.4,0,0,0-.43.09l0,.07s0,0,0,0a.37.37,0,0,0,.11.44l.05,0,.07,0,.12,0a.39.39,0,0,0,.28-.13l0-.06a.17.17,0,0,0,0-.05A.36.36,0,0,0,4.85,5.72Zm.05.4a.05.05,0,0,1,0,0,.15.15,0,0,1,0,.06.33.33,0,0,1-.35.09.09.09,0,0,1-.07,0l0,0a.34.34,0,0,1-.1-.4s0,0,0,0l0-.06a.35.35,0,0,1,.25-.1.3.3,0,0,1,.13,0l0,0,.06,0A.32.32,0,0,1,4.93,6,.28.28,0,0,1,4.9,6.12Z" style="fill:#00684F"/><path d="M4.42,8h0v0a.34.34,0,0,0-.19-.26l-.1,0H4a.4.4,0,0,0-.3.22v0a.19.19,0,0,0,0,.07.13.13,0,0,0,0,.06V8a.13.13,0,0,0,0,.06.19.19,0,0,0,0,.07v0h0A.4.4,0,0,0,4,8.38h.13l.1,0a.34.34,0,0,0,.19-.26V8h0V8Zm0,.06h0v0a.21.21,0,0,1,0,.13.27.27,0,0,1-.11.1l-.09,0H4a.31.31,0,0,1-.27-.21h0a.14.14,0,0,1,0-.06V7.94s0,0,0-.05h0A.31.31,0,0,1,4,7.67h.12l.09,0a.27.27,0,0,1,.11.1.21.21,0,0,1,0,.13V8h0V8Z" style="fill:#00684F"/><path d="M4.94,10.15l0-.05Zm0,0,0,0Zm0,.07,0,0Z" style="fill:#00684F"/><path d="M5,9.93v0l0-.07v0h0a.39.39,0,0,0-.08-.1.41.41,0,0,0-.37-.07l-.08,0,0,0a.39.39,0,0,0-.11.46l0,0,0,.07a.43.43,0,0,0,.28.11l.15,0,0,0a.18.18,0,0,0,.07-.05h0l0,0v0l0,0,0-.05s0,0,0,0v0A.28.28,0,0,0,5,9.93Zm0,.06a.22.22,0,0,1,0,.08l0,.07a.26.26,0,0,1-.07.11h0l-.06,0,0,0a.32.32,0,0,1-.37-.07.18.18,0,0,1,0-.07l0,0a.34.34,0,0,1,.1-.4l0,0,.07,0h.1a.3.3,0,0,1,.22.08l.07.08h0l0,0a.05.05,0,0,1,0,0v0h0V10Z" style="fill:#00684F"/><path d="M6.26,11.14l-.07-.06,0,0a.38.38,0,0,0-.43.09l-.06.07a.08.08,0,0,1,0,0,.37.37,0,0,0,.09.42.2.2,0,0,0,.07.06l0,0,.15,0a.37.37,0,0,0,.3-.14l0-.05a.25.25,0,0,0,0-.07A.4.4,0,0,0,6.26,11.14Zm0,.37a.09.09,0,0,1,0,.07l0,0a.34.34,0,0,1-.4.1l0,0-.06,0a.34.34,0,0,1-.08-.37.08.08,0,0,0,0,0l0-.06a.32.32,0,0,1,.38-.08l0,0a.18.18,0,0,1,.07.05.35.35,0,0,1,.1.24A.18.18,0,0,1,6.31,11.51Z" style="fill:#00684F"/><path d="M10.13,11.1a.09.09,0,0,1,.06,0A.09.09,0,0,0,10.13,11.1Z" style="fill:#00684F"/><path d="M10.35,11.26l0,0a.18.18,0,0,0-.05-.07.38.38,0,0,0-.44-.08h0l-.08.06a.4.4,0,0,0-.09.39l0,.08,0,0a.41.41,0,0,0,.3.14.27.27,0,0,0,.13,0l.07,0,.05,0A.37.37,0,0,0,10.35,11.26Zm-.13.41-.05,0-.05,0a.33.33,0,0,1-.38-.11l0,0,0-.07a.31.31,0,0,1,.08-.33s.05,0,.07-.06h0l.14,0a.27.27,0,0,1,.13,0,.09.09,0,0,1,.06,0l.06,0,0,.06a.08.08,0,0,1,0,0,.31.31,0,0,1,0,.13A.34.34,0,0,1,10.22,11.67Z" style="fill:#00684F"/><path d="M11.65,9.71l-.05,0-.07,0a.4.4,0,0,0-.4.11l-.05.06,0,0a.36.36,0,0,0,.09.42l.07.06,0,0a.4.4,0,0,0,.15,0,.38.38,0,0,0,.28-.12l.05-.07s0,0,0,0A.37.37,0,0,0,11.65,9.71Zm.07.43,0,0,0,.06a.36.36,0,0,1-.38.08l0,0-.06-.05a.34.34,0,0,1-.08-.37.05.05,0,0,1,0,0,.15.15,0,0,1,0-.06.36.36,0,0,1,.25-.11.18.18,0,0,1,.1,0,.09.09,0,0,1,.07,0l0,0a.37.37,0,0,1,.13.27A.35.35,0,0,1,11.72,10.14Z" style="fill:#00684F"/><path d="M12.33,7.93a.19.19,0,0,0,0-.07v0h0A.4.4,0,0,0,12,7.62h-.13l-.1,0a.34.34,0,0,0-.19.26V8h0V8h0v0a.34.34,0,0,0,.19.26l.1,0H12a.4.4,0,0,0,.3-.22v0a.19.19,0,0,0,0-.07.13.13,0,0,0,0-.06V8A.13.13,0,0,0,12.33,7.93Zm0,.08v.05s0,0,0,0h0a.31.31,0,0,1-.27.21h-.12l-.09,0a.27.27,0,0,1-.11-.1.31.31,0,0,1-.06-.13V8h0V8h0v0a.31.31,0,0,1,.06-.13.27.27,0,0,1,.11-.1l.09,0H12a.31.31,0,0,1,.27.21h0a.14.14,0,0,1,0,.06V8Z" style="fill:#00684F"/><path d="M11.77,5.85l0,0-.05-.06a.36.36,0,0,0-.43-.09l0,0a.18.18,0,0,0-.07,0,.39.39,0,0,0-.09.42s0,0,0,.05l.05.07a.38.38,0,0,0,.28.12l.12,0,.08,0,0,0A.4.4,0,0,0,11.77,5.85Zm-.15.41,0,0-.07,0a.34.34,0,0,1-.35-.1l0,0,0,0a.34.34,0,0,1,.08-.37l.06,0,0,0a.31.31,0,0,1,.13,0,.33.33,0,0,1,.25.11l0,.06,0,0a.51.51,0,0,1,0,.13A.33.33,0,0,1,11.62,6.26Z" style="fill:#00684F"/><path d="M10.27,4.31l-.07,0,0,0,0,0h0a.39.39,0,0,0-.37.14l0,.05a.25.25,0,0,0,0,.07.4.4,0,0,0,.11.4l.06,0,0,0L10,5a.36.36,0,0,0,.27-.12l.06-.07a.08.08,0,0,1,0,0h0A.4.4,0,0,0,10.27,4.31Zm.05.41,0,0-.05.06a.34.34,0,0,1-.37.08.05.05,0,0,1,0,0l-.06,0a.33.33,0,0,1-.09-.35.09.09,0,0,1,0-.07.08.08,0,0,1,0,0A.37.37,0,0,1,10,4.25l.13,0,0,0,.06,0A.36.36,0,0,1,10.32,4.72Z" style="fill:#00684F"/><path d="M8.38,4h0a.4.4,0,0,0-.22-.3h0l-.07,0H7.93l-.07,0h0A.4.4,0,0,0,7.62,4V4a.28.28,0,0,0,0,.09.3.3,0,0,0,0,.1.47.47,0,0,0,.11.13l.15.06h.14l.15-.06a.47.47,0,0,0,.11-.13.3.3,0,0,0,0-.1.28.28,0,0,0,0-.09Zm-.05.12a.36.36,0,0,1,0,.09.27.27,0,0,1-.1.11.21.21,0,0,1-.13,0H7.94a.21.21,0,0,1-.13,0,.27.27,0,0,1-.1-.11.36.36,0,0,1,0-.09s0,0,0-.08a.06.06,0,0,1,0,0,.31.31,0,0,1,.21-.27h0l.06,0h.18a.33.33,0,0,1,.15.11l0,0h0a.28.28,0,0,1,0,.13h0a.06.06,0,0,1,0,0S8.33,4.09,8.33,4.12Z" style="fill:#00684F"/><path d="M6.36,4.47l0-.08,0,0a.4.4,0,0,0-.45-.12l0,0-.06,0a.36.36,0,0,0-.09.43l0,0a.18.18,0,0,0,0,.07A.38.38,0,0,0,6,5a.35.35,0,0,0,.14,0l.05,0,.07,0h0v0h0a.05.05,0,0,1,0,0h0l0,0h0s0,0,0,0A.36.36,0,0,0,6.36,4.47Zm-.14.37,0,0,0,0a.34.34,0,0,1-.37-.08l0-.06a.08.08,0,0,1,0,0,.32.32,0,0,1,.08-.38l.06,0,0,0,.13,0a.33.33,0,0,1,.26.13l0,0,0,.07a.31.31,0,0,1,0,.1A.32.32,0,0,1,6.22,4.84Z" style="fill:#00684F"/></svg>