<svg width="16" height="18" viewBox="0 0 16 18" fill="none" xmlns="http://www.w3.org/2000/svg">
<path d="M8.62 17.18C7.31333 17.1133 6.16 16.86 5.16 16.42C4.17333 15.9933 3.34667 15.4133 2.68 14.68C2.01333 13.9467 1.50667 13.12 1.16 12.2C0.826667 11.2667 0.66 10.28 0.66 9.24C0.66 8.37333 0.786667 7.52667 1.04 6.7C1.29333 5.86 1.66667 5.08 2.16 4.36C2.65333 3.64 3.24667 3.01333 3.94 2.48C4.63333 1.93333 5.42 1.50667 6.3 1.2C7.19333 0.893333 8.16 0.739999 9.2 0.739999C10.5467 0.739999 11.7267 1.01333 12.74 1.56C13.7533 2.10667 14.5467 2.84667 15.12 3.78C15.6933 4.71333 15.98 5.76 15.98 6.92C15.98 7.73333 15.84 8.52 15.56 9.28C15.2933 10.0267 14.8867 10.7 14.34 11.3C13.8067 11.9 13.14 12.3733 12.34 12.72C11.54 13.0667 10.6067 13.24 9.54 13.24C9.3 13.24 9.12 13.1867 9 13.08C8.88 12.9867 8.82 12.8467 8.82 12.66C8.82 12.58 8.84667 12.3933 8.9 12.1C8.96667 11.7933 9.04 11.44 9.12 11.04C9.21333 10.64 9.3 10.2467 9.38 9.86C9.46 9.47333 9.52667 9.15333 9.58 8.9C9.64667 8.63333 9.68 8.5 9.68 8.5L9.56 8.46C8.90667 9.71333 8.27333 10.72 7.66 11.48C7.04667 12.2267 6.43333 12.8133 5.82 13.24C5.28667 13.24 4.88667 12.9867 4.62 12.48C4.35333 11.9733 4.22 11.32 4.22 10.52C4.22 9.66667 4.35333 8.84 4.62 8.04C4.9 7.24 5.26 6.52 5.7 5.88C6.15333 5.24 6.64667 4.73333 7.18 4.36C7.72667 3.98667 8.26667 3.8 8.8 3.8L10.8 4.12L10.98 3.62L11.08 3.6L11.7 3.9L11.86 4.14C11.86 4.14 11.82 4.28667 11.74 4.58C11.66 4.87333 11.5533 5.27333 11.42 5.78C11.2867 6.28667 11.14 6.87333 10.98 7.54C10.8333 8.19333 10.6867 8.88667 10.54 9.62C10.4067 10.3533 10.2867 11.0933 10.18 11.84L10.26 11.92C11.2333 11.92 12.04 11.7333 12.68 11.36C13.32 10.9733 13.8 10.44 14.12 9.76C14.44 9.08 14.6 8.29333 14.6 7.4C14.6 6.22667 14.3533 5.22667 13.86 4.4C13.3667 3.57333 12.68 2.94667 11.8 2.52C10.92 2.08 9.88667 1.86 8.7 1.86C7.68667 1.86 6.77333 2.04667 5.96 2.42C5.14667 2.79333 4.44667 3.30667 3.86 3.96C3.28667 4.61333 2.84667 5.36 2.54 6.2C2.23333 7.04 2.08 7.93333 2.08 8.88C2.08 10.1733 2.32667 11.3667 2.82 12.46C3.31333 13.5533 4.08 14.4467 5.12 15.14C6.16 15.8333 7.5 16.2267 9.14 16.32C9.14 16.3333 9.14 16.3533 9.14 16.38C9.14 16.4067 9.14 16.4333 9.14 16.46L8.62 17.18ZM6.2 11.62C6.44 11.62 6.77333 11.36 7.2 10.84C7.64 10.32 8.12 9.60667 8.64 8.7C9.17333 7.78 9.69333 6.72667 10.2 5.54C10.12 5.48667 9.96667 5.40667 9.74 5.3C9.52667 5.19333 9.28 5.1 9 5.02C8.73333 4.92667 8.46 4.88 8.18 4.88C7.76667 4.88 7.36 5.1 6.96 5.54C6.57333 5.96667 6.25333 6.53333 6 7.24C5.74667 7.94667 5.62 8.71333 5.62 9.54C5.62 10.0867 5.67333 10.5733 5.78 11C5.88667 11.4133 6.02667 11.62 6.2 11.62Z" fill="#171717"/>
</svg>
