<svg width="24" height="25" viewBox="0 0 24 25" fill="currentColor" xmlns="http://www.w3.org/2000/svg">
<path fill-rule="evenodd" clip-rule="evenodd" d="M12 22.1004C17.302 22.1004 21.6 17.8023 21.6 12.5004C21.6 7.19846 17.302 2.90039 12 2.90039C6.69809 2.90039 2.40002 7.19846 2.40002 12.5004C2.40002 17.8023 6.69809 22.1004 12 22.1004ZM16.4486 11.6519L12.8486 8.05186C12.3799 7.58323 11.6201 7.58323 11.1515 8.05186C10.6829 8.52049 10.6829 9.28029 11.1515 9.74892L12.703 11.3004L8.40002 11.3004C7.73728 11.3004 7.20002 11.8376 7.20002 12.5004C7.20002 13.1631 7.73728 13.7004 8.40002 13.7004H12.703L11.1515 15.2519C10.6829 15.7205 10.6829 16.4803 11.1515 16.9489C11.6201 17.4175 12.3799 17.4175 12.8486 16.9489L16.4486 13.3489C16.9172 12.8803 16.9172 12.1205 16.4486 11.6519Z" />
</svg>
