<svg width="258" height="20" viewBox="0 0 258 20" fill="none" xmlns="http://www.w3.org/2000/svg">
<path d="M5 15.24C4.09333 15.24 3.30667 15.0533 2.64 14.68C1.98667 14.3067 1.48 13.78 1.12 13.1C0.76 12.42 0.58 11.6133 0.58 10.68C0.58 9.97333 0.693333 9.31333 0.92 8.7C1.16 8.07333 1.49333 7.53333 1.92 7.08C2.34667 6.61333 2.84 6.24667 3.4 5.98C3.96 5.71333 4.56667 5.58 5.22 5.58C7.38 5.58 8.46 6.66667 8.46 8.84C8.46 9.04 8.44667 9.24667 8.42 9.46C8.39333 9.66 8.36667 9.82 8.34 9.94L8.08 10.16H2.82C2.83333 11.16 3.04667 11.9467 3.46 12.52C3.88667 13.08 4.47333 13.3933 5.22 13.46C5.98 13.5267 6.86667 13.3267 7.88 12.86L8.02 12.92L8.32 13.8C8.04 14 7.70667 14.2133 7.32 14.44C6.93333 14.6667 6.53333 14.8533 6.12 15C5.72 15.16 5.34667 15.24 5 15.24ZM2.84 9.18L5.82 9.02C5.99333 8.99333 6.10667 8.95333 6.16 8.9C6.21333 8.83333 6.24 8.71333 6.24 8.54C6.24 8.03333 6.12 7.65333 5.88 7.4C5.64 7.13333 5.3 7 4.86 7C4.31333 7 3.86 7.18667 3.5 7.56C3.14 7.93333 2.92 8.47333 2.84 9.18ZM12.5602 15.24C12.0402 15.24 11.5868 15.1933 11.2002 15.1C10.8135 15.02 10.5135 14.94 10.3002 14.86C10.0868 14.78 9.98016 14.74 9.98016 14.74L9.88016 14.54C9.90682 14.3667 9.93349 14.12 9.96016 13.8C10.0002 13.48 10.0335 13.1467 10.0602 12.8C10.1002 12.44 10.1268 12.14 10.1402 11.9L11.1202 11.8C11.1335 12.5333 11.2868 13.0733 11.5802 13.42C11.8735 13.7533 12.3268 13.92 12.9402 13.92C13.3535 13.92 13.7002 13.8333 13.9802 13.66C14.2735 13.4733 14.4202 13.24 14.4202 12.96C14.4202 12.76 14.3602 12.58 14.2402 12.42C14.1202 12.26 13.9068 12.0867 13.6002 11.9C13.3068 11.7133 12.8802 11.48 12.3202 11.2C11.5335 10.8267 10.9602 10.4333 10.6002 10.02C10.2535 9.60667 10.0802 9.12667 10.0802 8.58C10.0802 7.99333 10.2468 7.48 10.5802 7.04C10.9268 6.58667 11.4002 6.23333 12.0002 5.98C12.6135 5.71333 13.3068 5.58 14.0802 5.58C14.7068 5.58 15.2202 5.64 15.6202 5.76C16.0335 5.88 16.2402 5.94 16.2402 5.94L16.3202 6.12C16.3202 6.12 16.3002 6.24 16.2602 6.48C16.2202 6.72 16.1668 7.03333 16.1002 7.42C16.0468 7.80667 16.0002 8.22 15.9602 8.66L14.9402 8.72C14.9402 8.72 14.9402 8.67333 14.9402 8.58C14.9535 8.47333 14.9602 8.38 14.9602 8.3C14.9602 7.83333 14.8402 7.49333 14.6002 7.28C14.3735 7.05333 14.0068 6.94 13.5002 6.94C13.1135 6.94 12.7935 7.03333 12.5402 7.22C12.2868 7.39333 12.1602 7.61333 12.1602 7.88C12.1602 8.14667 12.2735 8.4 12.5002 8.64C12.7268 8.86667 13.1068 9.11333 13.6402 9.38C14.3868 9.74 14.9668 10.0733 15.3802 10.38C15.8068 10.6733 16.1068 10.9733 16.2802 11.28C16.4535 11.5733 16.5402 11.9067 16.5402 12.28C16.5402 12.8267 16.3602 13.3267 16.0002 13.78C15.6402 14.2333 15.1602 14.5933 14.5602 14.86C13.9602 15.1133 13.2935 15.24 12.5602 15.24ZM22.2247 15.24C21.3314 15.24 20.558 15.0533 19.9047 14.68C19.2647 14.3067 18.7647 13.78 18.4047 13.1C18.058 12.42 17.8847 11.6133 17.8847 10.68C17.8847 9.69333 18.0914 8.82 18.5047 8.06C18.918 7.3 19.4847 6.7 20.2047 6.26C20.9247 5.80667 21.7514 5.58 22.6847 5.58C23.1647 5.58 23.5847 5.61333 23.9447 5.68C24.318 5.74667 24.6114 5.81333 24.8247 5.88C25.0514 5.94667 25.1647 5.98 25.1647 5.98L25.2247 6.16C25.2247 6.16 25.1914 6.29333 25.1247 6.56C25.0714 6.82667 25.0114 7.19333 24.9447 7.66C24.878 8.11333 24.8314 8.61333 24.8047 9.16L23.6447 9.22V8.58C23.6447 8.1 23.5247 7.73333 23.2847 7.48C23.0447 7.21333 22.7114 7.08 22.2847 7.08C21.6047 7.08 21.0847 7.32667 20.7247 7.82C20.378 8.31333 20.2047 9.02 20.2047 9.94C20.2047 11.06 20.4047 11.9267 20.8047 12.54C21.218 13.14 21.8047 13.44 22.5647 13.44C22.9247 13.44 23.2714 13.3867 23.6047 13.28C23.938 13.1733 24.2047 13.0733 24.4047 12.98C24.618 12.8733 24.7247 12.82 24.7247 12.82L24.8647 12.88L25.1647 13.8C25.1647 13.8 25.0647 13.8733 24.8647 14.02C24.678 14.1533 24.4314 14.32 24.1247 14.52C23.818 14.7067 23.4914 14.8733 23.1447 15.02C22.8114 15.1667 22.5047 15.24 22.2247 15.24ZM30.3659 15.24C29.5526 15.24 28.8326 15.0533 28.2059 14.68C27.5926 14.3067 27.1126 13.78 26.7659 13.1C26.4193 12.4067 26.2459 11.6067 26.2459 10.7C26.2459 9.7 26.4459 8.82 26.8459 8.06C27.2593 7.28667 27.8259 6.68 28.5459 6.24C29.2659 5.8 30.0926 5.58 31.0259 5.58C31.8659 5.58 32.5926 5.76667 33.2059 6.14C33.8193 6.51333 34.2926 7.04 34.6259 7.72C34.9593 8.4 35.1259 9.2 35.1259 10.12C35.1259 11.1067 34.9259 11.9933 34.5259 12.78C34.1259 13.5533 33.5659 14.16 32.8459 14.6C32.1259 15.0267 31.2993 15.24 30.3659 15.24ZM30.8259 13.88C31.4393 13.88 31.9126 13.6333 32.2459 13.14C32.5926 12.6333 32.7659 11.9133 32.7659 10.98C32.7659 10.1533 32.6726 9.45333 32.4859 8.88C32.3126 8.29333 32.0526 7.85333 31.7059 7.56C31.3726 7.25333 30.9793 7.1 30.5259 7.1C29.8993 7.1 29.4126 7.35333 29.0659 7.86C28.7326 8.35333 28.5659 9.06667 28.5659 10C28.5659 10.84 28.6593 11.5533 28.8459 12.14C29.0326 12.7133 29.2926 13.1467 29.6259 13.44C29.9593 13.7333 30.3593 13.88 30.8259 13.88ZM36.1808 15.2L36.3008 14.08C36.6341 14 36.8741 13.8933 37.0208 13.76C37.1674 13.6133 37.2541 13.4267 37.2808 13.2C37.3208 12.96 37.3408 12.6667 37.3408 12.32V2.88C37.3408 2.53333 37.3074 2.28667 37.2408 2.14C37.1874 1.98 37.0674 1.88 36.8808 1.84C36.7074 1.78667 36.4341 1.77333 36.0608 1.8L36.0008 1.74L36.1008 0.779999C36.7274 0.7 37.3474 0.613333 37.9608 0.519999C38.5874 0.413332 39.2141 0.293332 39.8408 0.159999L39.9808 0.5C39.9141 0.659999 39.8474 0.993332 39.7808 1.5C39.7274 1.99333 39.6741 2.63333 39.6208 3.42C39.5808 4.19333 39.5408 5.08 39.5008 6.08C39.4608 7.06667 39.4274 8.14667 39.4008 9.32C39.3874 10.48 39.3808 11.6867 39.3808 12.94C39.3808 13.2867 39.4274 13.5333 39.5208 13.68C39.6141 13.8267 39.7741 13.9 40.0008 13.9L40.6808 13.86L40.7208 13.96L40.5408 15.06C40.2208 15.0467 39.8541 15.0333 39.4408 15.02C39.0408 15.0067 38.6941 15 38.4008 15C38.1341 15 37.8008 15.02 37.4008 15.06C37.0008 15.1 36.5941 15.1467 36.1808 15.2ZM48.537 15.24C47.9637 15.24 47.5104 15.1067 47.177 14.84C46.857 14.5733 46.6637 14.1867 46.597 13.68L46.477 13.62C46.197 13.9133 45.917 14.1733 45.637 14.4C45.357 14.6267 45.097 14.8133 44.857 14.96C44.617 15.0933 44.417 15.16 44.257 15.16C43.7504 15.16 43.2904 15.04 42.877 14.8C42.477 14.56 42.157 14.2333 41.917 13.82C41.6904 13.3933 41.577 12.9133 41.577 12.38C41.577 11.98 41.677 11.6267 41.877 11.32C42.0904 11.0133 42.3704 10.82 42.717 10.74L46.557 9.8V9.2C46.557 8.6 46.4037 8.13333 46.097 7.8C45.8037 7.46667 45.3837 7.3 44.837 7.3C44.4637 7.3 44.0637 7.39333 43.637 7.58C43.2237 7.75333 42.837 7.98 42.477 8.26L42.337 8.18L41.997 7.08C42.3837 6.86667 42.8104 6.64667 43.277 6.42C43.7437 6.18 44.1837 5.98 44.597 5.82C45.0237 5.66 45.3437 5.58 45.557 5.58C46.2904 5.58 46.8904 5.7 47.357 5.94C47.8237 6.16667 48.1704 6.48 48.397 6.88C48.6237 7.28 48.737 7.74667 48.737 8.28C48.737 8.44 48.717 8.70667 48.677 9.08C48.637 9.45333 48.5904 9.86 48.537 10.3C48.4837 10.74 48.437 11.16 48.397 11.56C48.3704 11.96 48.357 12.28 48.357 12.52C48.357 12.7867 48.4237 12.9933 48.557 13.14C48.6904 13.2867 48.8704 13.36 49.097 13.36C49.2837 13.36 49.4704 13.32 49.657 13.24C49.857 13.1467 50.0104 13.06 50.117 12.98L50.417 13.38C50.2837 13.5933 50.117 13.8333 49.917 14.1C49.717 14.3667 49.497 14.6067 49.257 14.82C49.0304 15.0333 48.7904 15.1733 48.537 15.24ZM44.897 13.4C45.1104 13.4 45.3637 13.34 45.657 13.22C45.9504 13.0867 46.2104 12.92 46.437 12.72L46.517 10.78L44.217 11.44C43.8704 11.5333 43.697 11.7733 43.697 12.16C43.697 12.5067 43.8037 12.8 44.017 13.04C44.2437 13.28 44.537 13.4 44.897 13.4ZM59.5278 19.38C58.1678 19.34 56.9545 19.1133 55.8878 18.7C54.8345 18.2867 53.9478 17.7133 53.2278 16.98C52.5078 16.26 51.9611 15.4267 51.5878 14.48C51.2278 13.52 51.0478 12.48 51.0478 11.36C51.0478 10.4267 51.1878 9.52 51.4678 8.64C51.7478 7.74667 52.1545 6.92 52.6878 6.16C53.2211 5.4 53.8545 4.74 54.5878 4.18C55.3345 3.60667 56.1611 3.16 57.0678 2.84C57.9745 2.50667 58.9478 2.34 59.9878 2.34C61.4145 2.34 62.6545 2.61333 63.7078 3.16C64.7611 3.69333 65.5811 4.43333 66.1678 5.38C66.7545 6.32667 67.0478 7.40667 67.0478 8.62C67.0478 9.52667 66.8945 10.38 66.5878 11.18C66.2945 11.98 65.8611 12.6867 65.2878 13.3C64.7145 13.9 64.0078 14.3733 63.1678 14.72C62.3278 15.0667 61.3611 15.24 60.2678 15.24C60.0011 15.24 59.7945 15.1733 59.6478 15.04C59.5011 14.9067 59.4278 14.7267 59.4278 14.5C59.4278 14.42 59.4478 14.2733 59.4878 14.06C59.5411 13.8333 59.5945 13.5733 59.6478 13.28C59.7145 12.9733 59.7811 12.6667 59.8478 12.36C59.9145 12.04 59.9745 11.7533 60.0278 11.5C60.0945 11.2467 60.1411 11.06 60.1678 10.94L60.0278 10.92C59.4011 12.0667 58.8145 12.98 58.2678 13.66C57.7345 14.34 57.1878 14.8667 56.6278 15.24C55.9611 15.24 55.4478 14.98 55.0878 14.46C54.7411 13.94 54.5678 13.2467 54.5678 12.38C54.5678 11.5533 54.7078 10.7467 54.9878 9.96C55.2678 9.16 55.6345 8.44 56.0878 7.8C56.5545 7.16 57.0678 6.65333 57.6278 6.28C58.1878 5.90667 58.7478 5.72 59.3078 5.72L61.1278 6.06L61.2878 5.6L61.4678 5.5L62.7678 5.78L62.9278 6.1C62.9278 6.1 62.8878 6.24667 62.8078 6.54C62.7411 6.83333 62.6411 7.23333 62.5078 7.74C62.3878 8.24667 62.2545 8.82 62.1078 9.46C61.9745 10.0867 61.8411 10.7467 61.7078 11.44C61.5745 12.1333 61.4545 12.8133 61.3478 13.48L61.4478 13.6C62.3011 13.6 63.0211 13.4133 63.6078 13.04C64.1945 12.6667 64.6411 12.1533 64.9478 11.5C65.2545 10.8333 65.4078 10.0667 65.4078 9.2C65.4078 8.06667 65.1611 7.09333 64.6678 6.28C64.1745 5.46667 63.4811 4.84667 62.5878 4.42C61.7078 3.99333 60.6611 3.78 59.4478 3.78C58.4478 3.78 57.5345 3.96667 56.7078 4.34C55.8811 4.71333 55.1678 5.22667 54.5678 5.88C53.9678 6.53333 53.5078 7.29333 53.1878 8.16C52.8678 9.01333 52.7078 9.92667 52.7078 10.9C52.7078 12.2733 52.9745 13.5 53.5078 14.58C54.0545 15.6467 54.8745 16.5 55.9678 17.14C57.0611 17.7933 58.4478 18.1467 60.1278 18.2C60.1278 18.24 60.1278 18.28 60.1278 18.32C60.1278 18.3733 60.1278 18.4267 60.1278 18.48L59.5278 19.38ZM57.1878 13.14C57.4011 13.14 57.6945 12.9 58.0678 12.42C58.4411 11.94 58.8478 11.2933 59.2878 10.48C59.7278 9.66667 60.1478 8.76 60.5478 7.76C60.4945 7.72 60.3678 7.65333 60.1678 7.56C59.9678 7.45333 59.7411 7.36 59.4878 7.28C59.2345 7.18667 58.9745 7.14 58.7078 7.14C58.3878 7.14 58.0745 7.34 57.7678 7.74C57.4611 8.14 57.2078 8.66 57.0078 9.3C56.8078 9.92667 56.7078 10.6 56.7078 11.32C56.7078 11.8133 56.7545 12.24 56.8478 12.6C56.9411 12.96 57.0545 13.14 57.1878 13.14ZM72.5586 15.24C71.6519 15.24 70.8653 15.0533 70.1986 14.68C69.5453 14.3067 69.0386 13.78 68.6786 13.1C68.3186 12.42 68.1386 11.6133 68.1386 10.68C68.1386 9.97333 68.2519 9.31333 68.4786 8.7C68.7186 8.07333 69.0519 7.53333 69.4786 7.08C69.9053 6.61333 70.3986 6.24667 70.9586 5.98C71.5186 5.71333 72.1253 5.58 72.7786 5.58C74.9386 5.58 76.0186 6.66667 76.0186 8.84C76.0186 9.04 76.0053 9.24667 75.9786 9.46C75.9519 9.66 75.9253 9.82 75.8986 9.94L75.6386 10.16H70.3786C70.3919 11.16 70.6053 11.9467 71.0186 12.52C71.4453 13.08 72.0319 13.3933 72.7786 13.46C73.5386 13.5267 74.4253 13.3267 75.4386 12.86L75.5786 12.92L75.8786 13.8C75.5986 14 75.2653 14.2133 74.8786 14.44C74.4919 14.6667 74.0919 14.8533 73.6786 15C73.2786 15.16 72.9053 15.24 72.5586 15.24ZM70.3986 9.18L73.3786 9.02C73.5519 8.99333 73.6653 8.95333 73.7186 8.9C73.7719 8.83333 73.7986 8.71333 73.7986 8.54C73.7986 8.03333 73.6786 7.65333 73.4386 7.4C73.1986 7.13333 72.8586 7 72.4186 7C71.8719 7 71.4186 7.18667 71.0586 7.56C70.6986 7.93333 70.4786 8.47333 70.3986 9.18ZM80.1188 15.24C79.5988 15.24 79.1454 15.1933 78.7588 15.1C78.3721 15.02 78.0721 14.94 77.8588 14.86C77.6454 14.78 77.5388 14.74 77.5388 14.74L77.4388 14.54C77.4654 14.3667 77.4921 14.12 77.5188 13.8C77.5588 13.48 77.5921 13.1467 77.6188 12.8C77.6588 12.44 77.6854 12.14 77.6988 11.9L78.6788 11.8C78.6921 12.5333 78.8454 13.0733 79.1388 13.42C79.4321 13.7533 79.8854 13.92 80.4988 13.92C80.9121 13.92 81.2588 13.8333 81.5388 13.66C81.8321 13.4733 81.9788 13.24 81.9788 12.96C81.9788 12.76 81.9188 12.58 81.7988 12.42C81.6788 12.26 81.4654 12.0867 81.1588 11.9C80.8654 11.7133 80.4388 11.48 79.8788 11.2C79.0921 10.8267 78.5188 10.4333 78.1588 10.02C77.8121 9.60667 77.6388 9.12667 77.6388 8.58C77.6388 7.99333 77.8054 7.48 78.1388 7.04C78.4854 6.58667 78.9588 6.23333 79.5588 5.98C80.1721 5.71333 80.8654 5.58 81.6388 5.58C82.2654 5.58 82.7788 5.64 83.1788 5.76C83.5921 5.88 83.7988 5.94 83.7988 5.94L83.8788 6.12C83.8788 6.12 83.8588 6.24 83.8188 6.48C83.7788 6.72 83.7254 7.03333 83.6588 7.42C83.6054 7.80667 83.5588 8.22 83.5188 8.66L82.4988 8.72C82.4988 8.72 82.4988 8.67333 82.4988 8.58C82.5121 8.47333 82.5188 8.38 82.5188 8.3C82.5188 7.83333 82.3988 7.49333 82.1588 7.28C81.9321 7.05333 81.5654 6.94 81.0588 6.94C80.6721 6.94 80.3521 7.03333 80.0988 7.22C79.8454 7.39333 79.7188 7.61333 79.7188 7.88C79.7188 8.14667 79.8321 8.4 80.0588 8.64C80.2854 8.86667 80.6654 9.11333 81.1988 9.38C81.9454 9.74 82.5254 10.0733 82.9388 10.38C83.3654 10.6733 83.6654 10.9733 83.8388 11.28C84.0121 11.5733 84.0988 11.9067 84.0988 12.28C84.0988 12.8267 83.9188 13.3267 83.5588 13.78C83.1988 14.2333 82.7188 14.5933 82.1188 14.86C81.5188 15.1133 80.8521 15.24 80.1188 15.24ZM89.7833 15.24C88.8899 15.24 88.1166 15.0533 87.4633 14.68C86.8233 14.3067 86.3233 13.78 85.9633 13.1C85.6166 12.42 85.4433 11.6133 85.4433 10.68C85.4433 9.69333 85.6499 8.82 86.0633 8.06C86.4766 7.3 87.0433 6.7 87.7633 6.26C88.4833 5.80667 89.3099 5.58 90.2433 5.58C90.7233 5.58 91.1433 5.61333 91.5033 5.68C91.8766 5.74667 92.1699 5.81333 92.3833 5.88C92.6099 5.94667 92.7233 5.98 92.7233 5.98L92.7833 6.16C92.7833 6.16 92.7499 6.29333 92.6833 6.56C92.6299 6.82667 92.5699 7.19333 92.5033 7.66C92.4366 8.11333 92.3899 8.61333 92.3633 9.16L91.2033 9.22V8.58C91.2033 8.1 91.0833 7.73333 90.8433 7.48C90.6033 7.21333 90.2699 7.08 89.8433 7.08C89.1633 7.08 88.6433 7.32667 88.2833 7.82C87.9366 8.31333 87.7633 9.02 87.7633 9.94C87.7633 11.06 87.9633 11.9267 88.3633 12.54C88.7766 13.14 89.3633 13.44 90.1233 13.44C90.4833 13.44 90.8299 13.3867 91.1633 13.28C91.4966 13.1733 91.7633 13.0733 91.9633 12.98C92.1766 12.8733 92.2833 12.82 92.2833 12.82L92.4233 12.88L92.7233 13.8C92.7233 13.8 92.6233 13.8733 92.4233 14.02C92.2366 14.1533 91.9899 14.32 91.6833 14.52C91.3766 14.7067 91.0499 14.8733 90.7033 15.02C90.3699 15.1667 90.0633 15.24 89.7833 15.24ZM97.9245 15.24C97.1112 15.24 96.3912 15.0533 95.7645 14.68C95.1512 14.3067 94.6712 13.78 94.3245 13.1C93.9779 12.4067 93.8045 11.6067 93.8045 10.7C93.8045 9.7 94.0045 8.82 94.4045 8.06C94.8179 7.28667 95.3845 6.68 96.1045 6.24C96.8245 5.8 97.6512 5.58 98.5845 5.58C99.4245 5.58 100.151 5.76667 100.765 6.14C101.378 6.51333 101.851 7.04 102.185 7.72C102.518 8.4 102.685 9.2 102.685 10.12C102.685 11.1067 102.485 11.9933 102.085 12.78C101.685 13.5533 101.125 14.16 100.405 14.6C99.6845 15.0267 98.8579 15.24 97.9245 15.24ZM98.3845 13.88C98.9979 13.88 99.4712 13.6333 99.8045 13.14C100.151 12.6333 100.325 11.9133 100.325 10.98C100.325 10.1533 100.231 9.45333 100.045 8.88C99.8712 8.29333 99.6112 7.85333 99.2645 7.56C98.9312 7.25333 98.5379 7.1 98.0845 7.1C97.4579 7.1 96.9712 7.35333 96.6245 7.86C96.2912 8.35333 96.1245 9.06667 96.1245 10C96.1245 10.84 96.2179 11.5533 96.4045 12.14C96.5912 12.7133 96.8512 13.1467 97.1845 13.44C97.5179 13.7333 97.9179 13.88 98.3845 13.88ZM103.739 15.2L103.859 14.08C104.193 14 104.433 13.8933 104.579 13.76C104.726 13.6133 104.813 13.4267 104.839 13.2C104.879 12.96 104.899 12.6667 104.899 12.32V2.88C104.899 2.53333 104.866 2.28667 104.799 2.14C104.746 1.98 104.626 1.88 104.439 1.84C104.266 1.78667 103.993 1.77333 103.619 1.8L103.559 1.74L103.659 0.779999C104.286 0.7 104.906 0.613333 105.519 0.519999C106.146 0.413332 106.773 0.293332 107.399 0.159999L107.539 0.5C107.473 0.659999 107.406 0.993332 107.339 1.5C107.286 1.99333 107.233 2.63333 107.179 3.42C107.139 4.19333 107.099 5.08 107.059 6.08C107.019 7.06667 106.986 8.14667 106.959 9.32C106.946 10.48 106.939 11.6867 106.939 12.94C106.939 13.2867 106.986 13.5333 107.079 13.68C107.173 13.8267 107.333 13.9 107.559 13.9L108.239 13.86L108.279 13.96L108.099 15.06C107.779 15.0467 107.413 15.0333 106.999 15.02C106.599 15.0067 106.253 15 105.959 15C105.693 15 105.359 15.02 104.959 15.06C104.559 15.1 104.153 15.1467 103.739 15.2ZM116.096 15.24C115.522 15.24 115.069 15.1067 114.736 14.84C114.416 14.5733 114.222 14.1867 114.156 13.68L114.036 13.62C113.756 13.9133 113.476 14.1733 113.196 14.4C112.916 14.6267 112.656 14.8133 112.416 14.96C112.176 15.0933 111.976 15.16 111.816 15.16C111.309 15.16 110.849 15.04 110.436 14.8C110.036 14.56 109.716 14.2333 109.476 13.82C109.249 13.3933 109.136 12.9133 109.136 12.38C109.136 11.98 109.236 11.6267 109.436 11.32C109.649 11.0133 109.929 10.82 110.276 10.74L114.116 9.8V9.2C114.116 8.6 113.962 8.13333 113.656 7.8C113.362 7.46667 112.942 7.3 112.396 7.3C112.022 7.3 111.622 7.39333 111.196 7.58C110.782 7.75333 110.396 7.98 110.036 8.26L109.896 8.18L109.556 7.08C109.942 6.86667 110.369 6.64667 110.836 6.42C111.302 6.18 111.742 5.98 112.156 5.82C112.582 5.66 112.902 5.58 113.116 5.58C113.849 5.58 114.449 5.7 114.916 5.94C115.382 6.16667 115.729 6.48 115.956 6.88C116.182 7.28 116.296 7.74667 116.296 8.28C116.296 8.44 116.276 8.70667 116.236 9.08C116.196 9.45333 116.149 9.86 116.096 10.3C116.042 10.74 115.996 11.16 115.956 11.56C115.929 11.96 115.916 12.28 115.916 12.52C115.916 12.7867 115.982 12.9933 116.116 13.14C116.249 13.2867 116.429 13.36 116.656 13.36C116.842 13.36 117.029 13.32 117.216 13.24C117.416 13.1467 117.569 13.06 117.676 12.98L117.976 13.38C117.842 13.5933 117.676 13.8333 117.476 14.1C117.276 14.3667 117.056 14.6067 116.816 14.82C116.589 15.0333 116.349 15.1733 116.096 15.24ZM112.456 13.4C112.669 13.4 112.922 13.34 113.216 13.22C113.509 13.0867 113.769 12.92 113.996 12.72L114.076 10.78L111.776 11.44C111.429 11.5333 111.256 11.7733 111.256 12.16C111.256 12.5067 111.362 12.8 111.576 13.04C111.802 13.28 112.096 13.4 112.456 13.4ZM118.746 19.72L118.886 18.64C119.286 18.5867 119.54 18.4733 119.646 18.3C119.766 18.14 119.833 17.8133 119.846 17.32C119.86 17.08 119.866 16.7667 119.866 16.38C119.88 16.0067 119.886 15.62 119.886 15.22C119.9 14.82 119.906 14.4733 119.906 14.18V8.44C119.906 7.98667 119.833 7.67333 119.686 7.5C119.553 7.32667 119.306 7.24 118.946 7.24H118.686L118.626 7.14L118.706 6.2C119.28 6.12 119.826 6.03333 120.346 5.94C120.866 5.83333 121.293 5.74667 121.626 5.68C121.96 5.61333 122.126 5.58 122.126 5.58L122.286 5.76C122.286 5.76 122.253 5.89333 122.186 6.16C122.133 6.41333 122.093 6.68 122.066 6.96L122.146 7.08C122.693 6.61333 123.146 6.26 123.506 6.02C123.866 5.78 124.113 5.66 124.246 5.66C125.033 5.66 125.72 5.84 126.306 6.2C126.893 6.56 127.353 7.06667 127.686 7.72C128.02 8.37333 128.186 9.13333 128.186 10C128.186 10.76 128.053 11.46 127.786 12.1C127.533 12.74 127.166 13.2933 126.686 13.76C126.22 14.2133 125.666 14.5667 125.026 14.82C124.4 15.0733 123.713 15.2 122.966 15.2C122.86 15.2 122.72 15.1933 122.546 15.18C122.386 15.18 122.246 15.1733 122.126 15.16C122.006 15.1467 121.946 15.14 121.946 15.14C121.946 15.4467 121.946 15.76 121.946 16.08C121.946 16.4133 121.946 16.74 121.946 17.06C121.946 17.6067 121.993 17.98 122.086 18.18C122.18 18.3933 122.393 18.5 122.726 18.5C122.86 18.5 123.006 18.4933 123.166 18.48C123.326 18.4667 123.44 18.46 123.506 18.46L123.546 18.54L123.346 19.62C123.24 19.62 123.093 19.62 122.906 19.62C122.733 19.62 122.54 19.6133 122.326 19.6C122.113 19.6 121.893 19.6 121.666 19.6C121.453 19.6 121.26 19.6 121.086 19.6C120.713 19.6 120.346 19.6067 119.986 19.62C119.626 19.6467 119.326 19.6667 119.086 19.68C118.86 19.7067 118.746 19.72 118.746 19.72ZM123.646 13.72C124.353 13.72 124.906 13.46 125.306 12.94C125.706 12.42 125.906 11.6933 125.906 10.76C125.906 10.0933 125.813 9.51333 125.626 9.02C125.453 8.52667 125.2 8.14 124.866 7.86C124.546 7.58 124.173 7.44 123.746 7.44C123.533 7.44 123.273 7.50667 122.966 7.64C122.673 7.77333 122.393 7.94667 122.126 8.16C122.1 8.69333 122.073 9.26667 122.046 9.88C122.033 10.4933 122.02 11.1067 122.006 11.72C121.993 12.3333 121.986 12.9 121.986 13.42C122.173 13.4867 122.42 13.5533 122.726 13.62C123.033 13.6867 123.34 13.72 123.646 13.72ZM130.35 8.2C130.35 7.86667 130.296 7.62 130.19 7.46C130.083 7.28667 129.903 7.2 129.65 7.2C129.543 7.2 129.43 7.21333 129.31 7.24C129.203 7.25333 129.15 7.26 129.15 7.26L129.25 6.22C129.636 6.16667 130.03 6.10667 130.43 6.04C130.83 5.96 131.196 5.88667 131.53 5.82C131.876 5.75333 132.15 5.7 132.35 5.66C132.563 5.60667 132.67 5.58 132.67 5.58L132.83 5.9C132.763 6.06 132.696 6.34 132.63 6.74C132.576 7.12667 132.523 7.59333 132.47 8.14C132.416 8.67333 132.376 9.24 132.35 9.84C132.323 10.44 132.31 11.04 132.31 11.64C132.31 12.7867 132.763 13.36 133.67 13.36C134.016 13.36 134.35 13.2667 134.67 13.08C135.003 12.88 135.31 12.68 135.59 12.48V8.24C135.59 7.84 135.523 7.57333 135.39 7.44C135.27 7.29333 135.03 7.22 134.67 7.22C134.63 7.22 134.556 7.22667 134.45 7.24C134.356 7.24 134.303 7.24 134.29 7.24L134.43 6.22C134.843 6.15333 135.256 6.08667 135.67 6.02C136.083 5.95333 136.463 5.89333 136.81 5.84C137.156 5.77333 137.436 5.72 137.65 5.68C137.863 5.64 137.97 5.62 137.97 5.62L138.15 5.92C138.056 6.12 137.97 6.54667 137.89 7.2C137.81 7.85333 137.743 8.64667 137.69 9.58C137.65 10.5133 137.63 11.4933 137.63 12.52C137.63 12.7867 137.696 12.9933 137.83 13.14C137.963 13.2867 138.143 13.36 138.37 13.36C138.543 13.36 138.71 13.3267 138.87 13.26C139.03 13.1933 139.156 13.1333 139.25 13.08C139.343 13.0133 139.39 12.98 139.39 12.98L139.69 13.36C139.69 13.36 139.63 13.4467 139.51 13.62C139.39 13.7933 139.23 14 139.03 14.24C138.843 14.48 138.63 14.7 138.39 14.9C138.163 15.0867 137.936 15.2 137.71 15.24C136.536 15.24 135.883 14.72 135.75 13.68L135.61 13.6C135.063 14.0933 134.57 14.4867 134.13 14.78C133.69 15.0733 133.383 15.22 133.21 15.22C132.25 15.22 131.51 15.0133 130.99 14.6C130.483 14.1733 130.23 13.5667 130.23 12.78L130.35 8.2ZM146.088 14.06C146.435 13.98 146.681 13.8467 146.828 13.66C146.988 13.4733 147.075 13.2133 147.088 12.88L147.148 9.3C147.148 8.68667 147.028 8.22667 146.788 7.92C146.561 7.61333 146.215 7.46 145.748 7.46C145.508 7.46 145.255 7.51333 144.988 7.62C144.735 7.71333 144.501 7.82667 144.288 7.96C144.088 8.09333 143.928 8.20667 143.808 8.3C143.781 8.64667 143.755 9.05333 143.728 9.52C143.715 9.97333 143.695 10.4333 143.668 10.9C143.655 11.3533 143.641 11.76 143.628 12.12C143.615 12.48 143.608 12.74 143.608 12.9C143.608 13.26 143.655 13.5133 143.748 13.66C143.841 13.8067 144.008 13.88 144.248 13.88C144.341 13.88 144.455 13.8733 144.588 13.86C144.735 13.8467 144.808 13.84 144.808 13.84L144.868 13.92L144.668 15.06C144.668 15.06 144.548 15.0533 144.308 15.04C144.081 15.0267 143.808 15.0133 143.488 15C143.181 15 142.901 15 142.648 15C142.315 15 141.975 15.0067 141.628 15.02C141.281 15.0467 140.981 15.0667 140.728 15.08C140.488 15.1067 140.368 15.12 140.368 15.12L140.528 14C140.915 13.9467 141.181 13.84 141.328 13.68C141.488 13.5067 141.568 13.2333 141.568 12.86V8.44C141.568 7.98667 141.495 7.67333 141.348 7.5C141.215 7.32667 140.961 7.24 140.588 7.24H140.348L140.268 7.14L140.368 6.2C140.928 6.12 141.468 6.03333 141.988 5.94C142.521 5.83333 142.955 5.74667 143.288 5.68C143.621 5.61333 143.788 5.58 143.788 5.58L143.948 5.76C143.948 5.76 143.915 5.9 143.848 6.18C143.795 6.46 143.755 6.77333 143.728 7.12L143.808 7.2C143.955 7.08 144.148 6.92667 144.388 6.74C144.628 6.55333 144.881 6.37333 145.148 6.2C145.415 6.02667 145.668 5.88 145.908 5.76C146.148 5.64 146.341 5.58 146.488 5.58C147.408 5.58 148.121 5.81333 148.628 6.28C149.148 6.73333 149.408 7.36667 149.408 8.18C149.408 8.36667 149.388 8.66667 149.348 9.08C149.321 9.48 149.288 9.93333 149.248 10.44C149.208 10.9333 149.168 11.4 149.128 11.84C149.101 12.28 149.088 12.6333 149.088 12.9C149.088 13.2467 149.135 13.5 149.228 13.66C149.321 13.82 149.488 13.9 149.728 13.9C149.848 13.9 149.981 13.8933 150.128 13.88C150.288 13.8667 150.368 13.86 150.368 13.86L150.408 13.94L150.228 15.06C150.228 15.06 150.155 15.0533 150.008 15.04C149.875 15.04 149.701 15.0333 149.488 15.02C149.275 15.02 149.048 15.0133 148.808 15C148.581 15 148.368 15 148.168 15C147.968 15 147.741 15.0067 147.488 15.02C147.248 15.0467 147.008 15.0667 146.768 15.08C146.541 15.1067 146.355 15.1267 146.208 15.14C146.061 15.1667 145.988 15.18 145.988 15.18L146.088 14.06ZM154.94 15.24C154.007 15.24 153.327 15.0467 152.9 14.66C152.474 14.2733 152.26 13.6467 152.26 12.78V8.2C152.26 7.8 152.187 7.52667 152.04 7.38C151.894 7.23333 151.6 7.15333 151.16 7.14L151.02 7L151.12 6.14C151.52 5.95333 151.907 5.74 152.28 5.5C152.667 5.26 153 5.04 153.28 4.84C153.574 4.62667 153.807 4.45333 153.98 4.32C154.154 4.17333 154.24 4.1 154.24 4.1L154.76 4.34C154.76 4.34 154.734 4.48667 154.68 4.78C154.64 5.06 154.6 5.46667 154.56 6L157.08 5.94L157.16 6.04L156.96 7.3L154.44 7.24C154.414 7.82667 154.387 8.5 154.36 9.26C154.334 10.0067 154.32 10.8467 154.32 11.78C154.32 12.38 154.42 12.8133 154.62 13.08C154.834 13.3333 155.187 13.46 155.68 13.46C155.974 13.46 156.254 13.4133 156.52 13.32C156.787 13.2133 156.92 13.16 156.92 13.16L157.16 13.76C157.16 13.76 157.074 13.8333 156.9 13.98C156.727 14.1267 156.514 14.3 156.26 14.5C156.007 14.7 155.76 14.8733 155.52 15.02C155.28 15.1667 155.087 15.24 154.94 15.24ZM165.021 15.24C164.448 15.24 163.995 15.1067 163.661 14.84C163.341 14.5733 163.148 14.1867 163.081 13.68L162.961 13.62C162.681 13.9133 162.401 14.1733 162.121 14.4C161.841 14.6267 161.581 14.8133 161.341 14.96C161.101 15.0933 160.901 15.16 160.741 15.16C160.235 15.16 159.775 15.04 159.361 14.8C158.961 14.56 158.641 14.2333 158.401 13.82C158.175 13.3933 158.061 12.9133 158.061 12.38C158.061 11.98 158.161 11.6267 158.361 11.32C158.575 11.0133 158.855 10.82 159.201 10.74L163.041 9.8V9.2C163.041 8.6 162.888 8.13333 162.581 7.8C162.288 7.46667 161.868 7.3 161.321 7.3C160.948 7.3 160.548 7.39333 160.121 7.58C159.708 7.75333 159.321 7.98 158.961 8.26L158.821 8.18L158.481 7.08C158.868 6.86667 159.295 6.64667 159.761 6.42C160.228 6.18 160.668 5.98 161.081 5.82C161.508 5.66 161.828 5.58 162.041 5.58C162.775 5.58 163.375 5.7 163.841 5.94C164.308 6.16667 164.655 6.48 164.881 6.88C165.108 7.28 165.221 7.74667 165.221 8.28C165.221 8.44 165.201 8.70667 165.161 9.08C165.121 9.45333 165.075 9.86 165.021 10.3C164.968 10.74 164.921 11.16 164.881 11.56C164.855 11.96 164.841 12.28 164.841 12.52C164.841 12.7867 164.908 12.9933 165.041 13.14C165.175 13.2867 165.355 13.36 165.581 13.36C165.768 13.36 165.955 13.32 166.141 13.24C166.341 13.1467 166.495 13.06 166.601 12.98L166.901 13.38C166.768 13.5933 166.601 13.8333 166.401 14.1C166.201 14.3667 165.981 14.6067 165.741 14.82C165.515 15.0333 165.275 15.1733 165.021 15.24ZM161.381 13.4C161.595 13.4 161.848 13.34 162.141 13.22C162.435 13.0867 162.695 12.92 162.921 12.72L163.001 10.78L160.701 11.44C160.355 11.5333 160.181 11.7733 160.181 12.16C160.181 12.5067 160.288 12.8 160.501 13.04C160.728 13.28 161.021 13.4 161.381 13.4ZM167.632 15.22L167.752 14.1C168.152 14.02 168.439 13.88 168.612 13.68C168.799 13.4667 168.892 13.1867 168.892 12.84V8.3C168.892 7.9 168.826 7.61333 168.692 7.44C168.572 7.26667 168.366 7.18 168.072 7.18C167.992 7.18 167.892 7.19333 167.772 7.22C167.652 7.24667 167.592 7.26 167.592 7.26L167.692 6.22C168.119 6.16667 168.539 6.10667 168.952 6.04C169.379 5.96 169.759 5.88667 170.092 5.82C170.439 5.75333 170.719 5.7 170.932 5.66C171.146 5.60667 171.252 5.58 171.252 5.58L171.392 5.9C171.339 6.03333 171.279 6.31333 171.212 6.74C171.159 7.16667 171.112 7.7 171.072 8.34C171.032 8.98 170.999 9.69333 170.972 10.48C170.946 11.2533 170.932 12.0733 170.932 12.94C170.932 13.2733 170.979 13.5133 171.072 13.66C171.166 13.8067 171.332 13.88 171.572 13.88C171.679 13.88 171.806 13.8733 171.952 13.86C172.112 13.8467 172.192 13.84 172.192 13.84L172.232 13.94L172.052 15.06C172.052 15.06 171.979 15.0533 171.832 15.04C171.699 15.04 171.526 15.0333 171.312 15.02C171.099 15.02 170.872 15.0133 170.632 15C170.392 15 170.172 15 169.972 15C169.652 15 169.306 15.02 168.932 15.06C168.572 15.1 168.266 15.1333 168.012 15.16C167.759 15.2 167.632 15.22 167.632 15.22ZM169.752 3.7C169.326 3.7 169.006 3.57333 168.792 3.32C168.592 3.06667 168.492 2.76 168.492 2.4C168.492 1.97333 168.626 1.62 168.892 1.34C169.159 1.06 169.512 0.919999 169.952 0.919999C170.352 0.919999 170.659 1.04667 170.872 1.3C171.099 1.54 171.212 1.84667 171.212 2.22C171.212 2.64667 171.079 3 170.812 3.28C170.546 3.56 170.192 3.7 169.752 3.7ZM173.753 13.98C174.153 13.94 174.42 13.8267 174.553 13.64C174.686 13.44 174.753 13.0667 174.753 12.52V8.44C174.753 7.98667 174.693 7.67333 174.573 7.5C174.453 7.31333 174.24 7.22 173.933 7.22C173.853 7.22 173.766 7.23333 173.673 7.26C173.593 7.27333 173.553 7.28 173.553 7.28L173.453 7.14L173.533 6.22C174.066 6.12667 174.586 6.03333 175.093 5.94C175.613 5.83333 176.046 5.74667 176.393 5.68C176.74 5.61333 176.913 5.58 176.913 5.58L177.073 5.74C177.073 5.74 177.053 5.84 177.013 6.04C176.986 6.22667 176.96 6.46667 176.933 6.76C176.906 7.05333 176.886 7.35333 176.873 7.66L176.993 7.72C177.406 7.10667 177.866 6.62 178.373 6.26C178.88 5.88667 179.353 5.7 179.793 5.7C180.006 5.7 180.173 5.71333 180.293 5.74C180.413 5.76667 180.473 5.78 180.473 5.78L180.553 5.92C180.553 5.92 180.533 6.02667 180.493 6.24C180.466 6.44 180.426 6.71333 180.373 7.06C180.333 7.39333 180.293 7.76 180.253 8.16C180.213 8.56 180.186 8.95333 180.173 9.34L179.033 9.4C179.033 8.78667 178.993 8.38 178.913 8.18C178.846 7.98 178.7 7.88 178.473 7.88C178.233 7.88 177.98 7.97333 177.713 8.16C177.446 8.33333 177.2 8.58 176.973 8.9C176.973 8.9 176.966 9.02 176.953 9.26C176.94 9.5 176.926 9.80667 176.913 10.18C176.9 10.54 176.88 10.9067 176.853 11.28C176.84 11.6533 176.826 11.9867 176.813 12.28C176.8 12.56 176.793 12.74 176.793 12.82C176.793 13.2067 176.853 13.4733 176.973 13.62C177.093 13.7533 177.313 13.82 177.633 13.82C177.806 13.82 178.006 13.8133 178.233 13.8C178.473 13.7733 178.593 13.76 178.593 13.76L178.653 13.86L178.433 15.06C178.433 15.06 178.346 15.0533 178.173 15.04C178.013 15.04 177.806 15.0333 177.553 15.02C177.3 15.02 177.033 15.0133 176.753 15C176.473 15 176.22 15 175.993 15C175.606 15 175.226 15.0067 174.853 15.02C174.48 15.0333 174.18 15.0467 173.953 15.06C173.726 15.0733 173.613 15.08 173.613 15.08L173.753 13.98ZM185.664 15.24C184.757 15.24 183.971 15.0533 183.304 14.68C182.651 14.3067 182.144 13.78 181.784 13.1C181.424 12.42 181.244 11.6133 181.244 10.68C181.244 9.97333 181.357 9.31333 181.584 8.7C181.824 8.07333 182.157 7.53333 182.584 7.08C183.011 6.61333 183.504 6.24667 184.064 5.98C184.624 5.71333 185.231 5.58 185.884 5.58C188.044 5.58 189.124 6.66667 189.124 8.84C189.124 9.04 189.111 9.24667 189.084 9.46C189.057 9.66 189.031 9.82 189.004 9.94L188.744 10.16H183.484C183.497 11.16 183.711 11.9467 184.124 12.52C184.551 13.08 185.137 13.3933 185.884 13.46C186.644 13.5267 187.531 13.3267 188.544 12.86L188.684 12.92L188.984 13.8C188.704 14 188.371 14.2133 187.984 14.44C187.597 14.6667 187.197 14.8533 186.784 15C186.384 15.16 186.011 15.24 185.664 15.24ZM183.504 9.18L186.484 9.02C186.657 8.99333 186.771 8.95333 186.824 8.9C186.877 8.83333 186.904 8.71333 186.904 8.54C186.904 8.03333 186.784 7.65333 186.544 7.4C186.304 7.13333 185.964 7 185.524 7C184.977 7 184.524 7.18667 184.164 7.56C183.804 7.93333 183.584 8.47333 183.504 9.18ZM193.224 15.24C192.704 15.24 192.251 15.1933 191.864 15.1C191.478 15.02 191.178 14.94 190.964 14.86C190.751 14.78 190.644 14.74 190.644 14.74L190.544 14.54C190.571 14.3667 190.598 14.12 190.624 13.8C190.664 13.48 190.698 13.1467 190.724 12.8C190.764 12.44 190.791 12.14 190.804 11.9L191.784 11.8C191.798 12.5333 191.951 13.0733 192.244 13.42C192.538 13.7533 192.991 13.92 193.604 13.92C194.018 13.92 194.364 13.8333 194.644 13.66C194.938 13.4733 195.084 13.24 195.084 12.96C195.084 12.76 195.024 12.58 194.904 12.42C194.784 12.26 194.571 12.0867 194.264 11.9C193.971 11.7133 193.544 11.48 192.984 11.2C192.198 10.8267 191.624 10.4333 191.264 10.02C190.918 9.60667 190.744 9.12667 190.744 8.58C190.744 7.99333 190.911 7.48 191.244 7.04C191.591 6.58667 192.064 6.23333 192.664 5.98C193.278 5.71333 193.971 5.58 194.744 5.58C195.371 5.58 195.884 5.64 196.284 5.76C196.698 5.88 196.904 5.94 196.904 5.94L196.984 6.12C196.984 6.12 196.964 6.24 196.924 6.48C196.884 6.72 196.831 7.03333 196.764 7.42C196.711 7.80667 196.664 8.22 196.624 8.66L195.604 8.72C195.604 8.72 195.604 8.67333 195.604 8.58C195.618 8.47333 195.624 8.38 195.624 8.3C195.624 7.83333 195.504 7.49333 195.264 7.28C195.038 7.05333 194.671 6.94 194.164 6.94C193.778 6.94 193.458 7.03333 193.204 7.22C192.951 7.39333 192.824 7.61333 192.824 7.88C192.824 8.14667 192.938 8.4 193.164 8.64C193.391 8.86667 193.771 9.11333 194.304 9.38C195.051 9.74 195.631 10.0733 196.044 10.38C196.471 10.6733 196.771 10.9733 196.944 11.28C197.118 11.5733 197.204 11.9067 197.204 12.28C197.204 12.8267 197.024 13.3267 196.664 13.78C196.304 14.2333 195.824 14.5933 195.224 14.86C194.624 15.1133 193.958 15.24 193.224 15.24ZM202.609 15.2C202.102 15.2 201.622 15.1733 201.169 15.12C200.715 15.08 200.342 15.04 200.049 15C199.755 14.9467 199.609 14.92 199.609 14.92L199.429 14.72V2.88C199.429 2.46667 199.369 2.18 199.249 2.02C199.129 1.84667 198.915 1.76 198.609 1.76C198.515 1.76 198.422 1.76667 198.329 1.78C198.235 1.79333 198.175 1.8 198.149 1.8L198.089 1.72L198.189 0.779999C198.615 0.726666 199.049 0.666666 199.489 0.599999C199.929 0.533333 200.329 0.466666 200.689 0.4C201.062 0.319999 201.362 0.259999 201.589 0.22C201.815 0.179999 201.929 0.159999 201.929 0.159999L202.069 0.5C202.002 0.593332 201.935 0.919999 201.869 1.48C201.802 2.02667 201.742 2.76667 201.689 3.7C201.649 4.63333 201.609 5.71333 201.569 6.94C202.129 6.54 202.609 6.22 203.009 5.98C203.422 5.74 203.689 5.62 203.809 5.62C204.582 5.62 205.255 5.8 205.829 6.16C206.402 6.52 206.842 7.02667 207.149 7.68C207.469 8.33333 207.629 9.10667 207.629 10C207.629 11 207.409 11.8933 206.969 12.68C206.542 13.4667 205.949 14.0867 205.189 14.54C204.429 14.98 203.569 15.2 202.609 15.2ZM203.089 13.72C203.795 13.72 204.349 13.46 204.749 12.94C205.162 12.42 205.369 11.6933 205.369 10.76C205.369 10.0933 205.275 9.50667 205.089 9C204.902 8.48 204.642 8.08 204.309 7.8C203.989 7.50667 203.615 7.36 203.189 7.36C202.949 7.36 202.669 7.44 202.349 7.6C202.042 7.74667 201.769 7.92667 201.529 8.14L201.469 13.38C201.629 13.46 201.862 13.54 202.169 13.62C202.489 13.6867 202.795 13.72 203.089 13.72ZM213.123 15.24C212.23 15.24 211.456 15.0533 210.803 14.68C210.163 14.3067 209.663 13.78 209.303 13.1C208.956 12.42 208.783 11.6133 208.783 10.68C208.783 9.69333 208.99 8.82 209.403 8.06C209.816 7.3 210.383 6.7 211.103 6.26C211.823 5.80667 212.65 5.58 213.583 5.58C214.063 5.58 214.483 5.61333 214.843 5.68C215.216 5.74667 215.51 5.81333 215.723 5.88C215.95 5.94667 216.063 5.98 216.063 5.98L216.123 6.16C216.123 6.16 216.09 6.29333 216.023 6.56C215.97 6.82667 215.91 7.19333 215.843 7.66C215.776 8.11333 215.73 8.61333 215.703 9.16L214.543 9.22V8.58C214.543 8.1 214.423 7.73333 214.183 7.48C213.943 7.21333 213.61 7.08 213.183 7.08C212.503 7.08 211.983 7.32667 211.623 7.82C211.276 8.31333 211.103 9.02 211.103 9.94C211.103 11.06 211.303 11.9267 211.703 12.54C212.116 13.14 212.703 13.44 213.463 13.44C213.823 13.44 214.17 13.3867 214.503 13.28C214.836 13.1733 215.103 13.0733 215.303 12.98C215.516 12.8733 215.623 12.82 215.623 12.82L215.763 12.88L216.063 13.8C216.063 13.8 215.963 13.8733 215.763 14.02C215.576 14.1533 215.33 14.32 215.023 14.52C214.716 14.7067 214.39 14.8733 214.043 15.02C213.71 15.1667 213.403 15.24 213.123 15.24ZM223.197 14.06C223.544 13.98 223.791 13.8467 223.937 13.66C224.097 13.4733 224.184 13.2133 224.197 12.88L224.257 9.3C224.257 8.68667 224.137 8.22667 223.897 7.92C223.671 7.61333 223.324 7.46 222.857 7.46C222.617 7.46 222.364 7.51333 222.097 7.62C221.844 7.71333 221.611 7.82667 221.397 7.96C221.197 8.09333 221.037 8.20667 220.917 8.3C220.891 8.64667 220.864 9.05333 220.837 9.52C220.824 9.97333 220.804 10.4333 220.777 10.9C220.764 11.3533 220.751 11.76 220.737 12.12C220.724 12.48 220.717 12.74 220.717 12.9C220.717 13.26 220.764 13.5133 220.857 13.66C220.951 13.8067 221.117 13.88 221.357 13.88C221.451 13.88 221.564 13.8733 221.697 13.86C221.844 13.8467 221.917 13.84 221.917 13.84L221.977 13.92L221.777 15.06C221.777 15.06 221.657 15.0533 221.417 15.04C221.191 15.0267 220.917 15.0133 220.597 15C220.291 15 220.011 15 219.757 15C219.424 15 219.084 15.0067 218.737 15.02C218.391 15.0467 218.091 15.0667 217.837 15.08C217.597 15.1067 217.477 15.12 217.477 15.12L217.637 14C218.024 13.9467 218.291 13.84 218.437 13.68C218.597 13.5067 218.677 13.2333 218.677 12.86V8.44C218.677 7.98667 218.604 7.67333 218.457 7.5C218.324 7.32667 218.071 7.24 217.697 7.24H217.457L217.377 7.14L217.477 6.2C218.037 6.12 218.577 6.03333 219.097 5.94C219.631 5.83333 220.064 5.74667 220.397 5.68C220.731 5.61333 220.897 5.58 220.897 5.58L221.057 5.76C221.057 5.76 221.024 5.9 220.957 6.18C220.904 6.46 220.864 6.77333 220.837 7.12L220.917 7.2C221.064 7.08 221.257 6.92667 221.497 6.74C221.737 6.55333 221.991 6.37333 222.257 6.2C222.524 6.02667 222.777 5.88 223.017 5.76C223.257 5.64 223.451 5.58 223.597 5.58C224.517 5.58 225.231 5.81333 225.737 6.28C226.257 6.73333 226.517 7.36667 226.517 8.18C226.517 8.36667 226.497 8.66667 226.457 9.08C226.431 9.48 226.397 9.93333 226.357 10.44C226.317 10.9333 226.277 11.4 226.237 11.84C226.211 12.28 226.197 12.6333 226.197 12.9C226.197 13.2467 226.244 13.5 226.337 13.66C226.431 13.82 226.597 13.9 226.837 13.9C226.957 13.9 227.091 13.8933 227.237 13.88C227.397 13.8667 227.477 13.86 227.477 13.86L227.517 13.94L227.337 15.06C227.337 15.06 227.264 15.0533 227.117 15.04C226.984 15.04 226.811 15.0333 226.597 15.02C226.384 15.02 226.157 15.0133 225.917 15C225.691 15 225.477 15 225.277 15C225.077 15 224.851 15.0067 224.597 15.02C224.357 15.0467 224.117 15.0667 223.877 15.08C223.651 15.1067 223.464 15.1267 223.317 15.14C223.171 15.1667 223.097 15.18 223.097 15.18L223.197 14.06ZM230.69 15.22C230.236 15.22 229.89 15.0867 229.65 14.82C229.423 14.5533 229.31 14.2267 229.31 13.84C229.31 13.3867 229.443 13.02 229.71 12.74C229.99 12.46 230.356 12.32 230.81 12.32C231.263 12.32 231.603 12.4533 231.83 12.72C232.07 12.9733 232.19 13.3 232.19 13.7C232.19 14.14 232.056 14.5067 231.79 14.8C231.523 15.08 231.156 15.22 230.69 15.22ZM237.967 15.24C237.074 15.24 236.3 15.0533 235.647 14.68C235.007 14.3067 234.507 13.78 234.147 13.1C233.8 12.42 233.627 11.6133 233.627 10.68C233.627 9.69333 233.834 8.82 234.247 8.06C234.66 7.3 235.227 6.7 235.947 6.26C236.667 5.80667 237.494 5.58 238.427 5.58C238.907 5.58 239.327 5.61333 239.687 5.68C240.06 5.74667 240.354 5.81333 240.567 5.88C240.794 5.94667 240.907 5.98 240.907 5.98L240.967 6.16C240.967 6.16 240.934 6.29333 240.867 6.56C240.814 6.82667 240.754 7.19333 240.687 7.66C240.62 8.11333 240.574 8.61333 240.547 9.16L239.387 9.22V8.58C239.387 8.1 239.267 7.73333 239.027 7.48C238.787 7.21333 238.454 7.08 238.027 7.08C237.347 7.08 236.827 7.32667 236.467 7.82C236.12 8.31333 235.947 9.02 235.947 9.94C235.947 11.06 236.147 11.9267 236.547 12.54C236.96 13.14 237.547 13.44 238.307 13.44C238.667 13.44 239.014 13.3867 239.347 13.28C239.68 13.1733 239.947 13.0733 240.147 12.98C240.36 12.8733 240.467 12.82 240.467 12.82L240.607 12.88L240.907 13.8C240.907 13.8 240.807 13.8733 240.607 14.02C240.42 14.1533 240.174 14.32 239.867 14.52C239.56 14.7067 239.234 14.8733 238.887 15.02C238.554 15.1667 238.247 15.24 237.967 15.24ZM249.006 15.24C248.432 15.24 247.979 15.1067 247.646 14.84C247.326 14.5733 247.132 14.1867 247.066 13.68L246.946 13.62C246.666 13.9133 246.386 14.1733 246.106 14.4C245.826 14.6267 245.566 14.8133 245.326 14.96C245.086 15.0933 244.886 15.16 244.726 15.16C244.219 15.16 243.759 15.04 243.346 14.8C242.946 14.56 242.626 14.2333 242.386 13.82C242.159 13.3933 242.046 12.9133 242.046 12.38C242.046 11.98 242.146 11.6267 242.346 11.32C242.559 11.0133 242.839 10.82 243.186 10.74L247.026 9.8V9.2C247.026 8.6 246.872 8.13333 246.566 7.8C246.272 7.46667 245.852 7.3 245.306 7.3C244.932 7.3 244.532 7.39333 244.106 7.58C243.692 7.75333 243.306 7.98 242.946 8.26L242.806 8.18L242.466 7.08C242.852 6.86667 243.279 6.64667 243.746 6.42C244.212 6.18 244.652 5.98 245.066 5.82C245.492 5.66 245.812 5.58 246.026 5.58C246.759 5.58 247.359 5.7 247.826 5.94C248.292 6.16667 248.639 6.48 248.866 6.88C249.092 7.28 249.206 7.74667 249.206 8.28C249.206 8.44 249.186 8.70667 249.146 9.08C249.106 9.45333 249.059 9.86 249.006 10.3C248.952 10.74 248.906 11.16 248.866 11.56C248.839 11.96 248.826 12.28 248.826 12.52C248.826 12.7867 248.892 12.9933 249.026 13.14C249.159 13.2867 249.339 13.36 249.566 13.36C249.752 13.36 249.939 13.32 250.126 13.24C250.326 13.1467 250.479 13.06 250.586 12.98L250.886 13.38C250.752 13.5933 250.586 13.8333 250.386 14.1C250.186 14.3667 249.966 14.6067 249.726 14.82C249.499 15.0333 249.259 15.1733 249.006 15.24ZM245.366 13.4C245.579 13.4 245.832 13.34 246.126 13.22C246.419 13.0867 246.679 12.92 246.906 12.72L246.986 10.78L244.686 11.44C244.339 11.5333 244.166 11.7733 244.166 12.16C244.166 12.5067 244.272 12.8 244.486 13.04C244.712 13.28 245.006 13.4 245.366 13.4ZM255.097 15.24C254.163 15.24 253.483 15.0467 253.057 14.66C252.63 14.2733 252.417 13.6467 252.417 12.78V8.2C252.417 7.8 252.343 7.52667 252.197 7.38C252.05 7.23333 251.757 7.15333 251.317 7.14L251.177 7L251.277 6.14C251.677 5.95333 252.063 5.74 252.437 5.5C252.823 5.26 253.157 5.04 253.437 4.84C253.73 4.62667 253.963 4.45333 254.137 4.32C254.31 4.17333 254.397 4.1 254.397 4.1L254.917 4.34C254.917 4.34 254.89 4.48667 254.837 4.78C254.797 5.06 254.757 5.46667 254.717 6L257.237 5.94L257.317 6.04L257.117 7.3L254.597 7.24C254.57 7.82667 254.543 8.5 254.517 9.26C254.49 10.0067 254.477 10.8467 254.477 11.78C254.477 12.38 254.577 12.8133 254.777 13.08C254.99 13.3333 255.343 13.46 255.837 13.46C256.13 13.46 256.41 13.4133 256.677 13.32C256.943 13.2133 257.077 13.16 257.077 13.16L257.317 13.76C257.317 13.76 257.23 13.8333 257.057 13.98C256.883 14.1267 256.67 14.3 256.417 14.5C256.163 14.7 255.917 14.8733 255.677 15.02C255.437 15.1667 255.243 15.24 255.097 15.24Z" fill="black"/>
</svg>
