<svg xmlns="http://www.w3.org/2000/svg" id="Capa_1" x="0" y="0" enable-background="new 0 0 1080 1080" version="1.1" viewBox="0 0 1080 1080" xml:space="preserve"><style>.st0{fill:#009245;}
	.st1{fill:#020203;}</style><path d="M458.8 708.1c.5.1 1 .1 1.5.1-.5 0-1 0-1.5-.1zm0-336.7c.5-.1 1-.1 1.5-.1-.5-.1-1 0-1.5.1zm1.5-.2c.5 0 1 0 1.5.1-.4 0-1-.1-1.5-.1zm11.9 216.4c.2-.4.3-.8.4-1.2-.1.4-.2.8-.4 1.2zm-.6 1.1c.2-.4.4-.7.6-1.1-.1.4-.3.8-.6 1.1zm-1 1.4zm53.3 91c-.1.1-.1.2-.2.3 0-.1.1-.2.2-.3.1-.2.3-.4.4-.5-.2.2-.3.3-.4.5zm.1-273.3c.3-.4.5-.8.7-1.2-.2.4-.4.8-.7 1.2zm-14.3-9.1c-.1.2-.2.3-.3.5.1-.2.2-.3.3-.5.1-.1.2-.3.3-.4-.2.1-.3.2-.3.4zm109.1 309.4c.5.1 1 .1 1.5.1-.5 0-1 0-1.5-.1zm1.5-336.9c.5 0 1 0 1.5.1-.4 0-1-.1-1.5-.1zm-1.5.2c.5-.1 1-.1 1.5-.1-.5-.1-1 0-1.5.1zm65.1 309.7c-.1.1-.1.2-.2.3 0-.1.1-.2.2-.3.1-.2.3-.4.4-.5-.2.2-.3.3-.4.5zm0-160c-.1.1-.1.2-.2.3 0-.1.1-.2.2-.3.1-.2.3-.4.4-.5-.2.2-.3.3-.4.5zm.1-113.3c.3-.4.5-.8.7-1.2-.2.4-.4.8-.7 1.2zm-14.3-9.1c-.1.2-.2.3-.3.5.1-.2.2-.3.3-.5.1-.1.2-.3.3-.4-.2.1-.3.2-.3.4zm14.3 9.1c.3-.4.5-.8.7-1.2-.2.4-.4.8-.7 1.2zm-14.3-9.1c-.1.2-.2.3-.3.5.1-.2.2-.3.3-.5.1-.1.2-.3.3-.4-.2.1-.3.2-.3.4zm14.2 122.4c-.1.1-.1.2-.2.3 0-.1.1-.2.2-.3.1-.2.3-.4.4-.5-.2.2-.3.3-.4.5zm0 160c-.1.1-.1.2-.2.3 0-.1.1-.2.2-.3.1-.2.3-.4.4-.5-.2.2-.3.3-.4.5zm-63.6-309.9c.5 0 1 0 1.5.1-.4 0-1-.1-1.5-.1zm-1.5.2c.5-.1 1-.1 1.5-.1-.5-.1-1 0-1.5.1zm0 336.7c.5.1 1 .1 1.5.1-.5 0-1 0-1.5-.1zM524 407.8c.3-.4.5-.8.7-1.2-.2.4-.4.8-.7 1.2zm-14.3-9.1c-.1.2-.2.3-.3.5.1-.2.2-.3.3-.5.1-.1.2-.3.3-.4-.2.1-.3.2-.3.4zm14.2 282.4c-.1.1-.1.2-.2.3 0-.1.1-.2.2-.3.1-.2.3-.4.4-.5-.2.2-.3.3-.4.5zm-51.7-93.5c.2-.4.3-.8.4-1.2-.1.4-.2.8-.4 1.2zm-.6 1.1c.2-.4.4-.7.6-1.1-.1.4-.3.8-.6 1.1zm-1 1.4zm-11.8-218.7c.5-.1 1-.1 1.5-.1-.5-.1-1 0-1.5.1zm1.5-.2c.5 0 1 0 1.5.1-.4 0-1-.1-1.5-.1zm-1.5 336.9c.5.1 1 .1 1.5.1-.5 0-1 0-1.5-.1zm0 0c.5.1 1 .1 1.5.1-.5 0-1 0-1.5-.1zm0-336.7c.5-.1 1-.1 1.5-.1-.5-.1-1 0-1.5.1zm1.5-.2c.5 0 1 0 1.5.1-.4 0-1-.1-1.5-.1zm11.9 216.4c.2-.4.3-.8.4-1.2-.1.4-.2.8-.4 1.2zm-.6 1.1c.2-.4.4-.7.6-1.1-.1.4-.3.8-.6 1.1zm-1 1.4zm53.3 91c-.1.1-.1.2-.2.3 0-.1.1-.2.2-.3.1-.2.3-.4.4-.5-.2.2-.3.3-.4.5zm.1-273.3c.3-.4.5-.8.7-1.2-.2.4-.4.8-.7 1.2zm-14.3-9.1c-.1.2-.2.3-.3.5.1-.2.2-.3.3-.5.1-.1.2-.3.3-.4-.2.1-.3.2-.3.4zm109.1 309.4c.5.1 1 .1 1.5.1-.5 0-1 0-1.5-.1zm1.5-336.9c.5 0 1 0 1.5.1-.4 0-1-.1-1.5-.1zm-1.5.2c.5-.1 1-.1 1.5-.1-.5-.1-1 0-1.5.1zm65.1 309.7c-.1.1-.1.2-.2.3 0-.1.1-.2.2-.3.1-.2.3-.4.4-.5-.2.2-.3.3-.4.5zm0-160c-.1.1-.1.2-.2.3 0-.1.1-.2.2-.3.1-.2.3-.4.4-.5-.2.2-.3.3-.4.5zm.1-113.3c.3-.4.5-.8.7-1.2-.2.4-.4.8-.7 1.2zm-14.3-9.1c-.1.2-.2.3-.3.5.1-.2.2-.3.3-.5.1-.1.2-.3.3-.4-.2.1-.3.2-.3.4zm14.3 9.1c.3-.4.5-.8.7-1.2-.2.4-.4.8-.7 1.2zm-14.3-9.1c-.1.2-.2.3-.3.5.1-.2.2-.3.3-.5.1-.1.2-.3.3-.4-.2.1-.3.2-.3.4zm14.2 122.4c-.1.1-.1.2-.2.3 0-.1.1-.2.2-.3.1-.2.3-.4.4-.5-.2.2-.3.3-.4.5zm0 160c-.1.1-.1.2-.2.3 0-.1.1-.2.2-.3.1-.2.3-.4.4-.5-.2.2-.3.3-.4.5zm-63.6-309.9c.5 0 1 0 1.5.1-.4 0-1-.1-1.5-.1zm-1.5.2c.5-.1 1-.1 1.5-.1-.5-.1-1 0-1.5.1zm0 336.7c.5.1 1 .1 1.5.1-.5 0-1 0-1.5-.1zM524 407.8c.3-.4.5-.8.7-1.2-.2.4-.4.8-.7 1.2zm-14.3-9.1c-.1.2-.2.3-.3.5.1-.2.2-.3.3-.5.1-.1.2-.3.3-.4-.2.1-.3.2-.3.4zm14.2 282.4c-.1.1-.1.2-.2.3 0-.1.1-.2.2-.3.1-.2.3-.4.4-.5-.2.2-.3.3-.4.5zm-51.7-93.5c.2-.4.3-.8.4-1.2-.1.4-.2.8-.4 1.2zm-.6 1.1c.2-.4.4-.7.6-1.1-.1.4-.3.8-.6 1.1zm-1 1.4zm-11.8-218.7c.5-.1 1-.1 1.5-.1-.5-.1-1 0-1.5.1zm1.5-.2c.5 0 1 0 1.5.1-.4 0-1-.1-1.5-.1zm-1.5 336.9c.5.1 1 .1 1.5.1-.5 0-1 0-1.5-.1zM684 407.8c.3-.4.5-.8.7-1.2-.2.4-.4.8-.7 1.2zm-14.3-9.1c-.1.2-.2.3-.3.5.1-.2.2-.3.3-.5.1-.1.2-.3.3-.4-.2.1-.3.2-.3.4zm14.2 122.4c-.1.1-.1.2-.2.3 0-.1.1-.2.2-.3.1-.2.3-.4.4-.5-.2.2-.3.3-.4.5zm0 160c-.1.1-.1.2-.2.3 0-.1.1-.2.2-.3.1-.2.3-.4.4-.5-.2.2-.3.3-.4.5zm-63.6-309.9c.5 0 1 0 1.5.1-.4 0-1-.1-1.5-.1zm-1.5.2c.5-.1 1-.1 1.5-.1-.5-.1-1 0-1.5.1zm0 336.7c.5.1 1 .1 1.5.1-.5 0-1 0-1.5-.1zM524 407.8c.3-.4.5-.8.7-1.2-.2.4-.4.8-.7 1.2zm-14.3-9.1c-.1.2-.2.3-.3.5.1-.2.2-.3.3-.5.1-.1.2-.3.3-.4-.2.1-.3.2-.3.4zm14.2 282.4c-.1.1-.1.2-.2.3 0-.1.1-.2.2-.3.1-.2.3-.4.4-.5-.2.2-.3.3-.4.5zm-51.7-93.5c.2-.4.3-.8.4-1.2-.1.4-.2.8-.4 1.2zm-.6 1.1c.2-.4.4-.7.6-1.1-.1.4-.3.8-.6 1.1zm-1 1.4zm-11.8-218.7c.5-.1 1-.1 1.5-.1-.5-.1-1 0-1.5.1zm1.5-.2c.5 0 1 0 1.5.1-.4 0-1-.1-1.5-.1zm-1.5 336.9c.5.1 1 .1 1.5.1-.5 0-1 0-1.5-.1zm0 0c.5.1 1 .1 1.5.1-.5 0-1 0-1.5-.1zm0-336.7c.5-.1 1-.1 1.5-.1-.5-.1-1 0-1.5.1zm1.5-.2c.5 0 1 0 1.5.1-.4 0-1-.1-1.5-.1zm11.9 216.4c.2-.4.3-.8.4-1.2-.1.4-.2.8-.4 1.2zm-.6 1.1c.2-.4.4-.7.6-1.1-.1.4-.3.8-.6 1.1zm-1 1.4zm53.3 91c-.1.1-.1.2-.2.3 0-.1.1-.2.2-.3.1-.2.3-.4.4-.5-.2.2-.3.3-.4.5zm.1-273.3c.3-.4.5-.8.7-1.2-.2.4-.4.8-.7 1.2zm-14.3-9.1c-.1.2-.2.3-.3.5.1-.2.2-.3.3-.5.1-.1.2-.3.3-.4-.2.1-.3.2-.3.4zm109.1 309.4c.5.1 1 .1 1.5.1-.5 0-1 0-1.5-.1zm1.5-336.9c.5 0 1 0 1.5.1-.4 0-1-.1-1.5-.1zm-1.5.2c.5-.1 1-.1 1.5-.1-.5-.1-1 0-1.5.1zm65.1 309.7c-.1.1-.1.2-.2.3 0-.1.1-.2.2-.3.1-.2.3-.4.4-.5-.2.2-.3.3-.4.5zm0-160c-.1.1-.1.2-.2.3 0-.1.1-.2.2-.3.1-.2.3-.4.4-.5-.2.2-.3.3-.4.5zm.1-113.3c.3-.4.5-.8.7-1.2-.2.4-.4.8-.7 1.2zm-14.3-9.1c-.1.2-.2.3-.3.5.1-.2.2-.3.3-.5.1-.1.2-.3.3-.4-.2.1-.3.2-.3.4zm14.3 9.1c.3-.4.5-.8.7-1.2-.2.4-.4.8-.7 1.2zm-14.3-9.1c-.1.2-.2.3-.3.5.1-.2.2-.3.3-.5.1-.1.2-.3.3-.4-.2.1-.3.2-.3.4zm14.2 122.4c-.1.1-.1.2-.2.3 0-.1.1-.2.2-.3.1-.2.3-.4.4-.5-.2.2-.3.3-.4.5zm0 160c-.1.1-.1.2-.2.3 0-.1.1-.2.2-.3.1-.2.3-.4.4-.5-.2.2-.3.3-.4.5zm-63.6-309.9c.5 0 1 0 1.5.1-.4 0-1-.1-1.5-.1zm-1.5.2c.5-.1 1-.1 1.5-.1-.5-.1-1 0-1.5.1zm0 336.7c.5.1 1 .1 1.5.1-.5 0-1 0-1.5-.1zM524 407.8c.3-.4.5-.8.7-1.2-.2.4-.4.8-.7 1.2zm-14.3-9.1c-.1.2-.2.3-.3.5.1-.2.2-.3.3-.5.1-.1.2-.3.3-.4-.2.1-.3.2-.3.4zm14.2 282.4c-.1.1-.1.2-.2.3 0-.1.1-.2.2-.3.1-.2.3-.4.4-.5-.2.2-.3.3-.4.5zm-51.7-93.5c.2-.4.3-.8.4-1.2-.1.4-.2.8-.4 1.2zm-.6 1.1c.2-.4.4-.7.6-1.1-.1.4-.3.8-.6 1.1zm-1 1.4zm-11.8-218.7c.5-.1 1-.1 1.5-.1-.5-.1-1 0-1.5.1zm1.5-.2c.5 0 1 0 1.5.1-.4 0-1-.1-1.5-.1zm-1.5 336.9c.5.1 1 .1 1.5.1-.5 0-1 0-1.5-.1z" class="st0"/><path d="M523.9 398.3c-.3-.4-.6-.8-1-1.2-.4-.4-.8-.7-1.2-1-3-2.1-7.2-2-10.1.3-.3.2-.5.4-.8.7l-.7.7c-.1.1-.2.3-.3.4-.1.1-.2.3-.3.4-.1.2-.2.3-.3.5-.2.3-.3.7-.5 1.1 0 .1-.1.3-.1.4-.8 2.4-.4 5.1 1.1 7.3.1.2.3.4.5.6.2.2.3.4.5.6.4.4.8.7 1.2 1 1.5 1 3.1 1.5 4.8 1.5 1.5 0 3.1-.4 4.5-1.3.6-.3 1.1-.8 1.5-1.2l.4-.4c.1-.1.2-.3.3-.4.1-.2.3-.4.4-.6.3-.4.5-.8.7-1.2 1.3-2.6 1.1-5.8-.6-8.2zm-.4 8.4c-.2.4-.4.7-.7 1.1-.2.2-.4.5-.6.7-.4.4-.9.8-1.4 1.1-2.5 1.6-5.8 1.5-8.2-.2-.4-.2-.7-.5-1-.8-.3-.3-.6-.7-.8-1a7.55 7.55 0 0 1-.5-7.8c.1-.1.1-.2.1-.2 0-.1.1-.2.1-.2.3-.5.7-1 1.1-1.4.2-.2.5-.4.7-.6 1.3-1 3-1.6 4.6-1.6 1.5 0 3 .5 4.3 1.3.3.2.7.5 1 .8.3.3.6.7.8 1 .3.5.6 1 .8 1.5.1.4.3.7.3 1.1.5 1.7.2 3.6-.6 5.2zM711.8 460.6v.4c-.7 5.6-5.2 9.9-10.9 10.1h-.4l-.1.4c-1.9 13.1-7.1 25.6-15 36.2l-.3.3.3.3c3.9 4.2 4.1 10.4.6 14.9l-.3.3 2.5 2.5.3-.4c17-17.5 26.5-40.5 26.9-64.8v-.5h-3.6zm-23.7 64.2-1.2-1.2c3.5-4.7 3.2-11.1-.6-15.5 7.8-10.6 12.9-23 14.9-35.9 5.8-.4 10.5-4.8 11.4-10.5h1.7c-.4 23.6-9.7 46-26.2 63.1z" class="st0"/><path d="M458.8 708.1c.5.1 1 .1 1.5.1-.5 0-1 0-1.5-.1zm10.8-118.4c.7-.7 1.3-1.5 1.7-2.3-.5.8-1 1.6-1.7 2.3zm53.2-182c.3-.3.5-.7.7-1.1-.2.5-.4.8-.7 1.1zm-13.1-9c-.1.2-.2.3-.3.5.1-.2.2-.3.3-.5.1-.1.2-.3.3-.4-.2.1-.3.2-.3.4zm14.2 282.4c-.1.1-.1.2-.2.3 0-.1.1-.2.2-.3.1-.2.3-.4.4-.5-.2.2-.3.3-.4.5zm22.9-233.2c.5.8.8 1.8 1 2.8v-.1c-.2-.9-.5-1.9-1-2.7zm-13.9 180.8c.1 1.1.5 2 1 2.8-.5-.8-.9-1.8-1-2.8zm85.9 79.4c.5.1 1 .1 1.5.1-.5 0-1 0-1.5-.1zm65.1-27c-.1.1-.1.2-.2.3 0-.1.1-.2.2-.3.1-.2.3-.4.4-.5-.2.2-.3.3-.4.5zm-1.1-273.4c.3-.3.5-.7.7-1.1-.2.5-.4.8-.7 1.1zm-13.1-9c-.1.2-.2.3-.3.5.1-.2.2-.3.3-.5.1-.1.2-.3.3-.4-.2.1-.3.2-.3.4zm14.2 282.4c-.1.1-.1.2-.2.3 0-.1.1-.2.2-.3.1-.2.3-.4.4-.5-.2.2-.3.3-.4.5zm-65.1 27c.5.1 1 .1 1.5.1-.5 0-1 0-1.5-.1zm-85.9-79.4c.1 1.1.5 2 1 2.8-.5-.8-.9-1.8-1-2.8zm13.9-180.8c.5.8.8 1.8 1 2.8v-.1c-.2-.9-.5-1.9-1-2.7zm-24-40.2c.3-.3.5-.7.7-1.1-.2.5-.4.8-.7 1.1zm-13.1-9c-.1.2-.2.3-.3.5.1-.2.2-.3.3-.5.1-.1.2-.3.3-.4-.2.1-.3.2-.3.4zm14.2 282.4c-.1.1-.1.2-.2.3 0-.1.1-.2.2-.3.1-.2.3-.4.4-.5-.2.2-.3.3-.4.5zm-54.3-91.4c.7-.7 1.3-1.5 1.7-2.3-.5.8-1 1.6-1.7 2.3zm-10.8 118.4c.5.1 1 .1 1.5.1-.5 0-1 0-1.5-.1zm0 0c.5.1 1 .1 1.5.1-.5 0-1 0-1.5-.1zm10.8-118.4c.7-.7 1.3-1.5 1.7-2.3-.5.8-1 1.6-1.7 2.3zm54.3 91.4c-.1.1-.1.2-.2.3 0-.1.1-.2.2-.3.1-.2.3-.4.4-.5-.2.2-.3.3-.4.5zm-1.1-273.4c.3-.3.5-.7.7-1.1-.2.5-.4.8-.7 1.1zm-13.1-9c-.1.2-.2.3-.3.5.1-.2.2-.3.3-.5.1-.1.2-.3.3-.4-.2.1-.3.2-.3.4zm37.1 49.2c.5.8.8 1.8 1 2.8v-.1c-.2-.9-.5-1.9-1-2.7zm-13.9 180.8c.1 1.1.5 2 1 2.8-.5-.8-.9-1.8-1-2.8zm85.9 79.4c.5.1 1 .1 1.5.1-.5 0-1 0-1.5-.1zm65.1-27c-.1.1-.1.2-.2.3 0-.1.1-.2.2-.3.1-.2.3-.4.4-.5-.2.2-.3.3-.4.5zm-1.1-273.4c.3-.3.5-.7.7-1.1-.2.5-.4.8-.7 1.1zm-13.1-9c-.1.2-.2.3-.3.5.1-.2.2-.3.3-.5.1-.1.2-.3.3-.4-.2.1-.3.2-.3.4zm13.1 9c.3-.3.5-.7.7-1.1-.2.5-.4.8-.7 1.1zm-13.1-9c-.1.2-.2.3-.3.5.1-.2.2-.3.3-.5.1-.1.2-.3.3-.4-.2.1-.3.2-.3.4zm14.2 282.4c-.1.1-.1.2-.2.3 0-.1.1-.2.2-.3.1-.2.3-.4.4-.5-.2.2-.3.3-.4.5zm-65.1 27c.5.1 1 .1 1.5.1-.5 0-1 0-1.5-.1zm-85.9-79.4c.1 1.1.5 2 1 2.8-.5-.8-.9-1.8-1-2.8zm13.9-180.8c.5.8.8 1.8 1 2.8v-.1c-.2-.9-.5-1.9-1-2.7zm-24-40.2c.3-.3.5-.7.7-1.1-.2.5-.4.8-.7 1.1zm-13.1-9c-.1.2-.2.3-.3.5.1-.2.2-.3.3-.5.1-.1.2-.3.3-.4-.2.1-.3.2-.3.4zm14.2 282.4c-.1.1-.1.2-.2.3 0-.1.1-.2.2-.3.1-.2.3-.4.4-.5-.2.2-.3.3-.4.5zm-54.3-91.4c.7-.7 1.3-1.5 1.7-2.3-.5.8-1 1.6-1.7 2.3zm-10.8 118.4c.5.1 1 .1 1.5.1-.5 0-1 0-1.5-.1zm0 0c.5.1 1 .1 1.5.1-.5 0-1 0-1.5-.1zm10.8-118.4c.7-.7 1.3-1.5 1.7-2.3-.5.8-1 1.6-1.7 2.3zm54.3 91.4c-.1.1-.1.2-.2.3 0-.1.1-.2.2-.3.1-.2.3-.4.4-.5-.2.2-.3.3-.4.5zm-1.1-273.4c.3-.3.5-.7.7-1.1-.2.5-.4.8-.7 1.1zm-13.1-9c-.1.2-.2.3-.3.5.1-.2.2-.3.3-.5.1-.1.2-.3.3-.4-.2.1-.3.2-.3.4zm37.1 49.2c.5.8.8 1.8 1 2.8v-.1c-.2-.9-.5-1.9-1-2.7zm-13.9 180.8c.1 1.1.5 2 1 2.8-.5-.8-.9-1.8-1-2.8zm85.9 79.4c.5.1 1 .1 1.5.1-.5 0-1 0-1.5-.1zm65.1-27c-.1.1-.1.2-.2.3 0-.1.1-.2.2-.3.1-.2.3-.4.4-.5-.2.2-.3.3-.4.5zm-1.1-273.4c.3-.3.5-.7.7-1.1-.2.5-.4.8-.7 1.1zm-13.1-9c-.1.2-.2.3-.3.5.1-.2.2-.3.3-.5.1-.1.2-.3.3-.4-.2.1-.3.2-.3.4zm13.1 9c.3-.3.5-.7.7-1.1-.2.5-.4.8-.7 1.1zm-13.1-9c-.1.2-.2.3-.3.5.1-.2.2-.3.3-.5.1-.1.2-.3.3-.4-.2.1-.3.2-.3.4zm14.2 282.4c-.1.1-.1.2-.2.3 0-.1.1-.2.2-.3.1-.2.3-.4.4-.5-.2.2-.3.3-.4.5zm-65.1 27c.5.1 1 .1 1.5.1-.5 0-1 0-1.5-.1zm-85.9-79.4c.1 1.1.5 2 1 2.8-.5-.8-.9-1.8-1-2.8zm13.9-180.8c.5.8.8 1.8 1 2.8v-.1c-.2-.9-.5-1.9-1-2.7zm-24-40.2c.3-.3.5-.7.7-1.1-.2.5-.4.8-.7 1.1zm-13.1-9c-.1.2-.2.3-.3.5.1-.2.2-.3.3-.5.1-.1.2-.3.3-.4-.2.1-.3.2-.3.4zm14.2 282.4c-.1.1-.1.2-.2.3 0-.1.1-.2.2-.3.1-.2.3-.4.4-.5-.2.2-.3.3-.4.5zm-54.3-91.4c.7-.7 1.3-1.5 1.7-2.3-.5.8-1 1.6-1.7 2.3zm-10.8 118.4c.5.1 1 .1 1.5.1-.5 0-1 0-1.5-.1zm224-300.4c.3-.3.5-.7.7-1.1-.2.5-.4.8-.7 1.1zm-13.1-9c-.1.2-.2.3-.3.5.1-.2.2-.3.3-.5.1-.1.2-.3.3-.4-.2.1-.3.2-.3.4zm14.2 282.4c-.1.1-.1.2-.2.3 0-.1.1-.2.2-.3.1-.2.3-.4.4-.5-.2.2-.3.3-.4.5zm-65.1 27c.5.1 1 .1 1.5.1-.5 0-1 0-1.5-.1zm-85.9-79.4c.1 1.1.5 2 1 2.8-.5-.8-.9-1.8-1-2.8zm13.9-180.8c.5.8.8 1.8 1 2.8v-.1c-.2-.9-.5-1.9-1-2.7zm-24-40.2c.3-.3.5-.7.7-1.1-.2.5-.4.8-.7 1.1zm-13.1-9c-.1.2-.2.3-.3.5.1-.2.2-.3.3-.5.1-.1.2-.3.3-.4-.2.1-.3.2-.3.4zm14.2 282.4c-.1.1-.1.2-.2.3 0-.1.1-.2.2-.3.1-.2.3-.4.4-.5-.2.2-.3.3-.4.5zm-54.3-91.4c.7-.7 1.3-1.5 1.7-2.3-.5.8-1 1.6-1.7 2.3zm-10.8 118.4c.5.1 1 .1 1.5.1-.5 0-1 0-1.5-.1zm0 0c.5.1 1 .1 1.5.1-.5 0-1 0-1.5-.1zm10.8-118.4c.7-.7 1.3-1.5 1.7-2.3-.5.8-1 1.6-1.7 2.3zm54.3 91.4c-.1.1-.1.2-.2.3 0-.1.1-.2.2-.3.1-.2.3-.4.4-.5-.2.2-.3.3-.4.5zm-1.1-273.4c.3-.3.5-.7.7-1.1-.2.5-.4.8-.7 1.1zm-13.1-9c-.1.2-.2.3-.3.5.1-.2.2-.3.3-.5.1-.1.2-.3.3-.4-.2.1-.3.2-.3.4zm37.1 49.2c.5.8.8 1.8 1 2.8v-.1c-.2-.9-.5-1.9-1-2.7zm-13.9 180.8c.1 1.1.5 2 1 2.8-.5-.8-.9-1.8-1-2.8zm85.9 79.4c.5.1 1 .1 1.5.1-.5 0-1 0-1.5-.1zm65.1-27c-.1.1-.1.2-.2.3 0-.1.1-.2.2-.3.1-.2.3-.4.4-.5-.2.2-.3.3-.4.5zm-1.1-273.4c.3-.3.5-.7.7-1.1-.2.5-.4.8-.7 1.1zm-13.1-9c-.1.2-.2.3-.3.5.1-.2.2-.3.3-.5.1-.1.2-.3.3-.4-.2.1-.3.2-.3.4zm13.1 9c.3-.3.5-.7.7-1.1-.2.5-.4.8-.7 1.1zm-13.1-9c-.1.2-.2.3-.3.5.1-.2.2-.3.3-.5.1-.1.2-.3.3-.4-.2.1-.3.2-.3.4zm14.2 282.4c-.1.1-.1.2-.2.3 0-.1.1-.2.2-.3.1-.2.3-.4.4-.5-.2.2-.3.3-.4.5zm-65.1 27c.5.1 1 .1 1.5.1-.5 0-1 0-1.5-.1zm-85.9-79.4c.1 1.1.5 2 1 2.8-.5-.8-.9-1.8-1-2.8zm13.9-180.8c.5.8.8 1.8 1 2.8v-.1c-.2-.9-.5-1.9-1-2.7zm-24-40.2c.3-.3.5-.7.7-1.1-.2.5-.4.8-.7 1.1zm-13.1-9c-.1.2-.2.3-.3.5.1-.2.2-.3.3-.5.1-.1.2-.3.3-.4-.2.1-.3.2-.3.4zm14.2 282.4c-.1.1-.1.2-.2.3 0-.1.1-.2.2-.3.1-.2.3-.4.4-.5-.2.2-.3.3-.4.5zm-54.3-91.4c.7-.7 1.3-1.5 1.7-2.3-.5.8-1 1.6-1.7 2.3zm-10.8 118.4c.5.1 1 .1 1.5.1-.5 0-1 0-1.5-.1zm0 0c.5.1 1 .1 1.5.1-.5 0-1 0-1.5-.1zm10.8-118.4c.7-.7 1.3-1.5 1.7-2.3-.5.8-1 1.6-1.7 2.3zm54.3 91.4c-.1.1-.1.2-.2.3 0-.1.1-.2.2-.3.1-.2.3-.4.4-.5-.2.2-.3.3-.4.5zm-1.1-273.4c.3-.3.5-.7.7-1.1-.2.5-.4.8-.7 1.1zm-13.1-9c-.1.2-.2.3-.3.5.1-.2.2-.3.3-.5.1-.1.2-.3.3-.4-.2.1-.3.2-.3.4zm37.1 49.2c.5.8.8 1.8 1 2.8v-.1c-.2-.9-.5-1.9-1-2.7zm-13.9 180.8c.1 1.1.5 2 1 2.8-.5-.8-.9-1.8-1-2.8zm85.9 79.4c.5.1 1 .1 1.5.1-.5 0-1 0-1.5-.1zm65.1-27c-.1.1-.1.2-.2.3 0-.1.1-.2.2-.3.1-.2.3-.4.4-.5-.2.2-.3.3-.4.5zm-1.1-273.4c.3-.3.5-.7.7-1.1-.2.5-.4.8-.7 1.1zm-13.1-9c-.1.2-.2.3-.3.5.1-.2.2-.3.3-.5.1-.1.2-.3.3-.4-.2.1-.3.2-.3.4zm13.1 9c.3-.3.5-.7.7-1.1-.2.5-.4.8-.7 1.1zm-13.1-9c-.1.2-.2.3-.3.5.1-.2.2-.3.3-.5.1-.1.2-.3.3-.4-.2.1-.3.2-.3.4zm14.2 282.4c-.1.1-.1.2-.2.3 0-.1.1-.2.2-.3.1-.2.3-.4.4-.5-.2.2-.3.3-.4.5zm-65.1 27c.5.1 1 .1 1.5.1-.5 0-1 0-1.5-.1zm-85.9-79.4c.1 1.1.5 2 1 2.8-.5-.8-.9-1.8-1-2.8zm13.9-180.8c.5.8.8 1.8 1 2.8v-.1c-.2-.9-.5-1.9-1-2.7zm-24-40.2c.3-.3.5-.7.7-1.1-.2.5-.4.8-.7 1.1zm-13.1-9c-.1.2-.2.3-.3.5.1-.2.2-.3.3-.5.1-.1.2-.3.3-.4-.2.1-.3.2-.3.4zm14.2 282.4c-.1.1-.1.2-.2.3 0-.1.1-.2.2-.3.1-.2.3-.4.4-.5-.2.2-.3.3-.4.5zm-54.3-91.4c.7-.7 1.3-1.5 1.7-2.3-.5.8-1 1.6-1.7 2.3zm-10.8 118.4c.5.1 1 .1 1.5.1-.5 0-1 0-1.5-.1zm0 0c.5.1 1 .1 1.5.1-.5 0-1 0-1.5-.1zm10.8-118.4c.7-.7 1.3-1.5 1.7-2.3-.5.8-1 1.6-1.7 2.3zm53.2-182c.3-.3.5-.7.7-1.1-.2.5-.4.8-.7 1.1zm-13.1-9c-.1.2-.2.3-.3.5.1-.2.2-.3.3-.5.1-.1.2-.3.3-.4-.2.1-.3.2-.3.4zm14.2 282.4c-.1.1-.1.2-.2.3 0-.1.1-.2.2-.3.1-.2.3-.4.4-.5-.2.2-.3.3-.4.5zm22.9-233.2c.5.8.8 1.8 1 2.8v-.1c-.2-.9-.5-1.9-1-2.7zm-13.9 180.8c.1 1.1.5 2 1 2.8-.5-.8-.9-1.8-1-2.8zm85.9 79.4c.5.1 1 .1 1.5.1-.5 0-1 0-1.5-.1zm64-300.4c.3-.3.5-.7.7-1.1-.2.5-.4.8-.7 1.1zm-13.1-9c-.1.2-.2.3-.3.5.1-.2.2-.3.3-.5.1-.1.2-.3.3-.4-.2.1-.3.2-.3.4zm14.2 282.4c-.1.1-.1.2-.2.3 0-.1.1-.2.2-.3.1-.2.3-.4.4-.5-.2.2-.3.3-.4.5zm-65.1 27c.5.1 1 .1 1.5.1-.5 0-1 0-1.5-.1zm-160 0c.5.1 1 .1 1.5.1-.5 0-1 0-1.5-.1zm225.1-27c-.1.1-.1.2-.2.3 0-.1.1-.2.2-.3.1-.2.3-.4.4-.5-.2.2-.3.3-.4.5zm-160 0c-.1.1-.1.2-.2.3 0-.1.1-.2.2-.3.1-.2.3-.4.4-.5-.2.2-.3.3-.4.5zm9-52.4c.1 1.1.5 2 1 2.8-.5-.8-.9-1.8-1-2.8zm-63.3-39c.7-.7 1.3-1.5 1.7-2.3-.5.8-1 1.6-1.7 2.3zm77.2-141.8c.5.8.8 1.8 1 2.8v-.1c-.2-.9-.5-1.9-1-2.7zm136-40.2c.3-.3.5-.7.7-1.1-.2.5-.4.8-.7 1.1zm-13.1-9c-.1.2-.2.3-.3.5.1-.2.2-.3.3-.5.1-.1.2-.3.3-.4-.2.1-.3.2-.3.4zm-146.9 9c.3-.3.5-.7.7-1.1-.2.5-.4.8-.7 1.1zm-13.1-9c-.1.2-.2.3-.3.5.1-.2.2-.3.3-.5.1-.1.2-.3.3-.4-.2.1-.3.2-.3.4z" class="st1"/><path d="M537 440.2c-.3-1-.5-2.1-.9-3.1-.1-.5-.3-1-.4-1.4-.2-.5-.3-.9-.5-1.4-.9-2.7-2-5.3-3.1-7.7l-.9-1.8c-.3-.6-.6-1.1-.9-1.7-1.9-3.6-4-7.1-6.4-10.3l-.3-.4-.4.3c-4.2 2.8-9.6 2.6-13.5-.5l-.3-.3-2.6 2.6.3.4c5.9 6.2 10.5 13.4 13.6 21.4.2.4.3.9.5 1.3.1.3.2.5.3.8l-1 .2c-.4.1-.8.2-1.2.2-10.7 2.2-20.9 6.1-30.4 11.6l-.5.3 1.9 3 .4-.2c5.2-2.5 11.4-.7 14.5 4.1l.2.4.4-.2c5.3-2.2 10.9-4 16.6-5.1.3-.1.5-.1.8-.2.2-.1.4-.1.6-.1.3-.1.5-.1.8-.2.2 0 .4-.1.6-.1.2 0 .4-.1.6-.1h.3c.7-.1 1.5-.2 2.2-.3l.4-.1v-.4c.2-4.7 3.4-8.8 7.8-10.3l.4-.1.1-.6zm-9.1 10.5-1.8.3h-.3c-.2 0-.4.1-.6.1-.2 0-.4.1-.6.1-.3 0-.6.1-.8.2-.2 0-.5.1-.6.1-.3 0-.5.1-.8.2-5.6 1.1-11.1 2.8-16.4 5-2.4-3.4-6.3-5.3-10.2-5.3-1.7 0-3.3.3-4.9 1l-.9-1.4c9.2-5.3 19.2-9 29.6-11.2.4-.1.8-.2 1.2-.2l2.2-.4-.2-.5c-.2-.5-.3-.9-.5-1.4-.2-.5-.3-.9-.5-1.3-3.1-7.9-7.6-15.1-13.5-21.3l1.3-1.3c4.1 3 9.6 3.2 13.9.6 2.3 3.1 4.3 6.4 6.1 9.8.3.5.6 1.1.8 1.6l.9 1.8c1.1 2.4 2.2 5 3 7.6.2.5.3.9.5 1.4.2.4.3.9.4 1.4.3.9.5 1.8.7 2.6-4.5 1.5-7.6 5.7-8 10.5z" class="st0"/><path d="M669.7 398.7c-.1.2-.2.3-.3.5.1-.2.2-.3.3-.5.1-.1.2-.3.3-.4-.2.1-.3.2-.3.4zm13.1 9c.3-.3.5-.7.7-1.1-.2.5-.4.8-.7 1.1z" class="st1"/><path d="M667.8 410.3c-3.1-3.9-3.3-9.3-.5-13.5l.3-.4-.4-.3c-10.3-7.6-22.4-12.7-35-14.5l-.5-.1-.1.5c-1 4.9-5 8.6-9.9 9.2l-.4.1v3.6h.5c16.2.3 31.7 6.7 43.5 18l.4.3 2.6-2.6-.5-.3zm-2.3 1.5c-11.8-11.1-27.2-17.5-43.3-17.9v-1.8c5-.8 9.1-4.5 10.3-9.5 12.1 1.9 23.8 6.7 33.8 14-2.7 4.3-2.5 9.8.6 13.9l-1.4 1.3zM698.1 471c-4.9-1-8.6-4.9-9.2-9.9v-.4h-3.6v.5c-.3 16.2-6.7 31.7-18 43.5l-.3.4 2.6 2.6.3-.3c3.9-3.1 9.3-3.3 13.5-.5l.4.3.3-.4c7.6-10.3 12.7-22.4 14.5-35l.1-.5-.6-.3zm-14.7 34.6c-4.3-2.7-9.8-2.4-13.9.6l-1.3-1.3c11.1-11.8 17.5-27.2 18-43.3h1.8c.8 5 4.5 9.1 9.5 10.3-2 12.1-6.8 23.8-14.1 33.7z" class="st0"/><path d="M676.7 539.7c26-18.4 41.5-48.2 41.5-80 0-54-43.9-97.9-97.9-97.9-31.8 0-61.6 15.5-80 41.5-18.4-26-48.2-41.5-80-41.5-54 0-97.9 43.9-97.9 97.9 0 31.8 15.5 61.6 41.5 80-26 18.4-41.5 48.2-41.5 80 0 54 43.9 97.9 97.9 97.9 31.8 0 61.6-15.5 80-41.5 18.4 26 48.2 41.5 80 41.5 54 0 97.9-43.9 97.9-97.9 0-31.8-15.5-61.6-41.5-80zm-56.4 176.9c-31.7 0-61.4-15.6-79.6-41.7l-.4-.6-.4.6c-18.2 26.1-47.9 41.7-79.6 41.7-53.4 0-96.9-43.5-96.9-96.9 0-31.7 15.6-61.4 41.7-79.6l.6-.4-.6-.4c-26.1-18.2-41.7-47.9-41.7-79.6 0-53.4 43.5-96.9 96.9-96.9 31.7 0 61.4 15.6 79.6 41.7l.4.6.4-.6c18.2-26.1 47.9-41.7 79.6-41.7 53.4 0 96.9 43.5 96.9 96.9 0 31.7-15.6 61.4-41.7 79.6l-.6.4.6.4c26.1 18.2 41.7 47.9 41.7 79.6 0 53.5-43.4 96.9-96.9 96.9z" class="st0"/><path d="M697.4 471.9c-1.9 12.1-6.7 23.8-14 33.7-4.3-2.7-9.8-2.4-13.9.6l-1.3-1.3c11.1-11.8 17.5-27.2 18-43.3h1.8c.7 5.1 4.5 9.1 9.4 10.3zM714.4 461.6c-.5 23.7-9.8 46.1-26.2 63.2l-1.2-1.2c3.5-4.7 3.2-11.1-.6-15.5 7.8-10.6 12.9-23 14.9-35.9 5.8-.4 10.5-4.8 11.4-10.5h1.7zM666.8 410.5l-1.3 1.3c-11.8-11.1-27.2-17.5-43.3-17.9v-1.8c5-.8 9.1-4.5 10.3-9.5 12.1 1.9 23.8 6.7 33.8 14-2.7 4.3-2.5 9.8.5 13.9zM535.9 440c-4.4 1.7-7.6 5.9-8 10.6l-1.8.3h-.3c-.2 0-.4.1-.6.1-.2 0-.4.1-.6.1-.3 0-.6.1-.8.2-.2 0-.5.1-.6.1-.3 0-.5.1-.8.2-5.6 1.1-11.1 2.8-16.4 5-2.4-3.4-6.3-5.3-10.2-5.3-1.7 0-3.3.3-4.9 1l-.9-1.4c9.2-5.3 19.2-9 29.6-11.2.4-.1.8-.2 1.2-.2l2.2-.4-.2-.5c-.2-.5-.3-.9-.5-1.4-.2-.5-.3-.9-.5-1.3-3.1-7.9-7.6-15.1-13.5-21.3l1.3-1.3c4.1 3 9.6 3.2 13.9.6 2.3 3.1 4.3 6.4 6.1 9.8.3.5.6 1.1.8 1.6l.9 1.8c1.1 2.4 2.2 5 3 7.6.2.5.3.9.5 1.4.2.4.3.9.4 1.4.2.8.5 1.7.7 2.5zM507.8 410.3c-3.1-3.9-3.3-9.3-.5-13.5l.3-.4-.4-.3c-10.3-7.6-22.4-12.7-35-14.5l-.5-.1-.1.5c-1 4.9-5 8.6-9.9 9.2l-.4.1v3.6h.5c16.2.3 31.7 6.7 43.5 18l.4.3 2.6-2.6-.5-.3zm-2.3 1.5c-11.8-11.1-27.2-17.5-43.3-17.9v-1.8c5-.8 9.1-4.5 10.3-9.5 12.1 1.9 23.8 6.7 33.8 14-2.7 4.3-2.5 9.8.6 13.9l-1.4 1.3z" class="st0"/><path d="m506.8 410.5-1.3 1.3c-11.8-11.1-27.2-17.5-43.3-17.9v-1.8c5-.8 9.1-4.5 10.3-9.5 12.1 1.9 23.8 6.7 33.8 14-2.7 4.3-2.5 9.8.5 13.9z" class="st0"/><path d="M526.5 391.5c-17.5-17-40.5-26.5-64.8-26.9h-.5v3.6l.4.1c5.6.6 9.9 5.2 10.1 10.9v.4l.4.1c13 1.9 25.6 7.1 36.2 15l.3.3.3-.3c4.2-3.9 10.4-4.1 14.9-.6l.4.3 2.5-2.5-.2-.4zm-2.2 1.6c-4.7-3.5-11.1-3.2-15.5.6-10.6-7.8-23-13-36-14.9-.4-5.8-4.8-10.5-10.5-11.4v-1.7c23.7.5 46.1 9.8 63.2 26.2l-1.2 1.2z" class="st0"/><path d="m525.4 391.9-1.2 1.2c-4.7-3.5-11.1-3.2-15.5.6-10.6-7.8-23-13-36-14.9-.4-5.8-4.8-10.5-10.5-11.4v-1.7c23.7.4 46.1 9.7 63.2 26.2zM459 391.1c-5-.6-9-4.3-9.9-9.2l-.1-.5-.5.1a78.99 78.99 0 0 0-35 14.5l-.4.3.3.4c2.8 4.2 2.6 9.6-.5 13.5l-.3.4 2.6 2.6.4-.3c11.8-11.3 27.2-17.7 43.5-18h.5v-3.6l-.6-.2zm-.6 2.7c-16.1.5-31.5 6.8-43.3 17.9l-1.3-1.3c3-4.1 3.2-9.6.6-13.9 10-7.3 21.6-12.1 33.8-14 1.2 5 5.2 8.7 10.3 9.5v1.8z" class="st0"/><path d="M458.4 392.1v1.8c-16.1.5-31.5 6.8-43.3 17.9l-1.3-1.3c3-4.1 3.2-9.6.6-13.9 10-7.3 21.6-12.1 33.8-14 1.1 5 5.2 8.7 10.2 9.5z" class="st0"/><path d="M458.9 364.7c-24.3.3-47.3 9.9-64.8 26.8l-.4.4 2.5 2.5.3-.3c4.5-3.5 10.7-3.3 14.9.6l.3.3.3-.3c10.6-7.9 23.2-13.1 36.2-15l.4-.1v-.4c.2-5.7 4.5-10.3 10.1-10.9l.4-.1v-3.6l-.2.1zm-.5 2.7c-5.8.9-10.1 5.6-10.5 11.4-12.9 2-25.3 7.1-36 14.9-2.4-2-5.3-3.1-8.2-3.1-2.6 0-5.2.8-7.4 2.4l-1.2-1.2c17.2-16.4 39.6-25.8 63.2-26.2v1.8z" class="st0"/><path d="M458.4 365.7v1.7c-5.8.9-10.1 5.6-10.5 11.4-12.9 2-25.3 7.1-36 14.9-2.4-2-5.3-3.1-8.2-3.1-2.6 0-5.2.8-7.4 2.4l-1.2-1.2c17.2-16.4 39.6-25.7 63.3-26.1zM411.2 411.9l-.3.3c-3.9 3.1-9.4 3.3-13.5.5l-.4-.3-.3.4c-7.6 10.3-12.7 22.4-14.5 35l-.1.5.5.1c4.9 1 8.6 4.9 9.2 9.9v.4h3.6v-.5c.3-16.2 6.7-31.7 18-43.5l.3-.4-2.5-2.4zm-16.8 45.9h-1.8c-.8-5-4.5-9.1-9.5-10.3 1.9-12.1 6.7-23.8 14-33.8 4.3 2.7 9.8 2.4 13.9-.6l1.3 1.3a66.577 66.577 0 0 0-17.9 43.4z" class="st0"/><path d="M412.4 414.5c-11.1 11.8-17.5 27.2-17.9 43.3h-1.8c-.8-5-4.5-9.1-9.5-10.3 1.9-12.1 6.7-23.8 14-33.8 4.3 2.7 9.8 2.4 13.9-.6l1.3 1.4z" class="st0"/><path d="M395.3 410.9c-3.9-4.2-4.1-10.5-.6-14.9l.3-.3-2.5-2.5-.3.4c-17 17.5-26.5 40.5-26.9 64.8v.5h3.6v-.4c.6-5.6 5.2-9.9 10.9-10.1h.4l.1-.4c1.9-13.1 7.1-25.6 15-36.2l.3-.3-.3-.6zm-15.9 36.4c-5.8.4-10.5 4.8-11.4 10.5h-1.7c.5-23.7 9.8-46.1 26.2-63.2l1.2 1.2c-3.5 4.7-3.2 11.1.6 15.5-7.8 10.6-13 23-14.9 36z" class="st0"/><path d="M394.3 411.3c-7.8 10.6-13 23-14.9 35.9-5.8.4-10.5 4.8-11.4 10.5h-1.7c.5-23.7 9.8-46.1 26.2-63.2l1.2 1.2c-3.5 4.8-3.3 11.2.6 15.6zM413.4 504.6c-11.3-11.8-17.7-27.2-18-43.5v-.5h-3.6v.4c-.6 5-4.3 9-9.2 9.9l-.5.1.1.5c1.9 12.6 6.9 24.7 14.5 35l.3.4.4-.3c4.1-2.8 9.6-2.6 13.5.5l.3.3 2.6-2.6-.4-.2zm-2.3 1.6c-2.2-1.6-4.8-2.4-7.4-2.4-2.3 0-4.5.6-6.5 1.8-7.3-9.9-12.1-21.6-14-33.7 5-1.2 8.7-5.2 9.5-10.3h1.8c.5 16.1 6.8 31.5 17.9 43.3l-1.3 1.3z" class="st0"/><path d="m412.4 504.9-1.3 1.3c-2.2-1.6-4.8-2.4-7.4-2.4-2.3 0-4.5.6-6.5 1.8-7.3-9.9-12.1-21.6-14-33.7 5-1.2 8.7-5.2 9.5-10.3h1.8c.4 16.2 6.7 31.5 17.9 43.3z" class="st0"/><path d="m395.6 508.2-.3-.3c-7.9-10.7-13.1-23.2-15-36.2l-.1-.4h-.4c-5.7-.2-10.3-4.5-10.9-10.1v-.4h-3.6v.5c.4 24.3 9.9 47.3 26.9 64.8l.4.4 2.5-2.5-.3-.3c-3.5-4.5-3.3-10.7.6-14.9l.2-.6zm-1.9 15.5-1.2 1.2c-16.5-17.2-25.8-39.6-26.2-63.2h1.7c.9 5.8 5.6 10.1 11.4 10.5 2 12.9 7.1 25.3 14.9 35.9-3.9 4.5-4.1 10.9-.6 15.6z" class="st0"/><path d="m393.7 523.7-1.2 1.2c-16.5-17.2-25.8-39.6-26.2-63.2h1.7c.9 5.8 5.6 10.1 11.4 10.5 2 12.9 7.1 25.3 14.9 35.9-3.9 4.5-4.1 10.9-.6 15.6zM395.3 570.9c-3.9-4.2-4.1-10.5-.6-14.9l.3-.3-2.5-2.5-.3.4c-17 17.5-26.5 40.5-26.9 64.8v.5h3.6v-.4c.6-5.6 5.2-9.9 10.9-10.1h.4l.1-.4c1.9-13.1 7.1-25.6 15-36.2l.3-.3-.3-.6zm-15.9 36.4c-5.8.4-10.5 4.8-11.4 10.5h-1.7c.5-23.7 9.8-46.1 26.2-63.2l1.2 1.2c-3.5 4.7-3.2 11.1.6 15.5-7.8 10.6-13 23-14.9 36z" class="st0"/><path d="M394.3 571.3c-7.8 10.6-13 23-14.9 35.9-5.8.4-10.5 4.8-11.4 10.5h-1.7c.5-23.7 9.8-46.1 26.2-63.2l1.2 1.2c-3.5 4.8-3.3 11.2.6 15.6z" class="st0"/><path d="m411.2 571.9-.3.3c-3.9 3.1-9.4 3.3-13.5.5l-.4-.3-.3.4c-7.6 10.3-12.7 22.4-14.5 35l-.1.5.5.1c4.9 1 8.6 4.9 9.2 9.9v.4h3.6v-.5c.3-16.2 6.7-31.7 18-43.5l.3-.4-2.5-2.4zm-16.8 45.9h-1.8c-.8-5-4.5-9.1-9.5-10.3 1.9-12.1 6.7-23.8 14-33.8 4.3 2.7 9.8 2.4 13.9-.6l1.3 1.3a66.577 66.577 0 0 0-17.9 43.4z" class="st0"/><path d="M412.4 574.5c-11.1 11.8-17.5 27.2-17.9 43.3h-1.8c-.8-5-4.5-9.1-9.5-10.3 1.9-12.1 6.7-23.8 14-33.8 4.3 2.7 9.8 2.4 13.9-.6l1.3 1.4zM413.4 664.6c-11.3-11.8-17.7-27.2-18-43.5v-.5h-3.6v.4c-.6 5-4.3 9-9.2 9.9l-.5.1.1.5c1.9 12.6 6.9 24.7 14.5 35l.3.4.4-.3c4.1-2.8 9.6-2.6 13.5.5l.3.3 2.6-2.6-.4-.2zm-2.3 1.6c-2.2-1.6-4.8-2.4-7.4-2.4-2.3 0-4.5.6-6.5 1.8-7.3-9.9-12.1-21.6-14-33.7 5-1.2 8.7-5.2 9.5-10.3h1.8c.5 16.1 6.8 31.5 17.9 43.3l-1.3 1.3z" class="st0"/><path d="m412.4 664.9-1.3 1.3c-2.2-1.6-4.8-2.4-7.4-2.4-2.3 0-4.5.6-6.5 1.8-7.3-9.9-12.1-21.6-14-33.7 5-1.2 8.7-5.2 9.5-10.3h1.8c.4 16.2 6.7 31.5 17.9 43.3z" class="st0"/><path d="m395.6 668.2-.3-.3c-7.9-10.7-13.1-23.2-15-36.2l-.1-.4h-.4c-5.7-.2-10.3-4.5-10.9-10.1v-.4h-3.6v.5c.4 24.3 9.9 47.3 26.9 64.8l.4.4 2.5-2.5-.3-.3c-3.5-4.5-3.3-10.7.6-14.9l.2-.6zm-1.9 15.5-1.2 1.2c-16.5-17.2-25.8-39.6-26.2-63.2h1.7c.9 5.8 5.6 10.1 11.4 10.5 2 12.9 7.1 25.3 14.9 35.9-3.9 4.5-4.1 10.9-.6 15.6z" class="st0"/><path d="m393.7 683.7-1.2 1.2c-16.5-17.2-25.8-39.6-26.2-63.2h1.7c.9 5.8 5.6 10.1 11.4 10.5 2 12.9 7.1 25.3 14.9 35.9-3.9 4.5-4.1 10.9-.6 15.6zM458.9 684.6c-16.2-.3-31.7-6.7-43.5-18l-.4-.3-2.6 2.6.3.3c3.1 3.9 3.3 9.3.5 13.5l-.3.4.4.3a78.99 78.99 0 0 0 35 14.5l.5.1.1-.5c1-4.9 5-8.6 9.9-9.2l.4-.1v-3.6h-.3zm-.5 2.8c-5 .8-9.1 4.5-10.3 9.5-12.1-1.9-23.8-6.7-33.8-14 2.7-4.3 2.5-9.8-.6-13.9l1.3-1.3c11.8 11.1 27.2 17.5 43.3 18v1.7z" class="st0"/><path d="M458.4 685.6v1.8c-5 .8-9.1 4.5-10.3 9.5-12.1-1.9-23.8-6.7-33.8-14 2.7-4.3 2.5-9.8-.6-13.9l1.3-1.3c11.9 11.1 27.3 17.4 43.4 17.9z" class="st0"/><path d="M459 711.1c-5.6-.7-9.9-5.2-10.1-10.9v-.4l-.4-.1c-13-1.9-25.6-7.1-36.2-15l-.3-.3-.3.3c-4.2 3.9-10.5 4.1-14.9.6l-.3-.3-2.5 2.5.4.4c17.5 17 40.5 26.5 64.8 26.9h.5v-3.6l-.7-.1zm-.6 2.7c-23.7-.5-46.1-9.8-63.2-26.2l1.2-1.2c4.7 3.5 11.1 3.2 15.5-.6 10.6 7.8 23 12.9 36 14.9.4 5.8 4.8 10.5 10.5 11.4v1.7z" class="st0"/><path d="M458.4 712.1v1.7c-23.7-.5-46.1-9.8-63.2-26.2l1.2-1.2c4.7 3.5 11.1 3.2 15.5-.6 10.6 7.8 23 12.9 36 14.9.4 5.8 4.7 10.5 10.5 11.4zM508.1 668.8l-2.6-2.6-.4.3c-11.8 11.3-27.2 17.7-43.5 18h-.5v3.6l.4.1c5 .6 9 4.3 9.9 9.2l.1.5.5-.1c12.6-1.9 24.7-6.9 35-14.5l.4-.3-.3-.4c-2.8-4.2-2.6-9.6.5-13.5l.5-.3zm-1.9 14c-10 7.3-21.6 12.1-33.8 14-1.2-5-5.2-8.7-10.3-9.5v-1.8c16.1-.5 31.5-6.8 43.3-18l1.3 1.3c-2.9 4.2-3.1 9.7-.5 14z" class="st0"/><path d="M506.2 682.8c-10 7.3-21.6 12.1-33.8 14-1.2-5-5.2-8.7-10.3-9.5v-1.8c16.1-.5 31.5-6.8 43.3-18l1.3 1.3c-2.9 4.2-3.1 9.7-.5 14z" class="st0"/><path d="m524.3 685-.4.3c-4.4 3.5-10.7 3.3-14.9-.6l-.3-.3-.3.3c-10.7 7.9-23.2 13.1-36.2 15l-.4.1v.4c-.2 5.7-4.5 10.3-10.1 10.9l-.4.1v3.6h.5c24.3-.3 47.3-9.9 64.8-26.9l.4-.3-2.7-2.6zm-62.1 28.8v-1.7c5.8-.9 10.1-5.6 10.5-11.4 12.9-2 25.3-7.1 36-14.9 4.4 3.8 10.8 4.1 15.5.6l1.2 1.2c-17.1 16.4-39.5 25.7-63.2 26.2z" class="st0"/><path d="M525.4 687.5c-17.1 16.5-39.5 25.8-63.2 26.2V712c5.8-.9 10.1-5.6 10.5-11.4 12.9-2 25.3-7.1 36-14.9 4.4 3.8 10.8 4.1 15.5.6l1.2 1.2zM619 711.1c-5.6-.7-9.9-5.2-10.1-10.9v-.4l-.4-.1c-13-1.9-25.6-7.1-36.2-15l-.3-.3-.3.3c-4.2 3.9-10.5 4.1-14.9.6l-.3-.3-2.5 2.5.4.4c17.5 17 40.5 26.5 64.8 26.9h.5v-3.6l-.7-.1zm-.6 2.7c-23.7-.5-46.1-9.8-63.2-26.2l1.2-1.2c4.7 3.5 11.1 3.2 15.5-.6 10.6 7.8 23 12.9 36 14.9.4 5.8 4.8 10.5 10.5 11.4v1.7z" class="st0"/><path d="M618.4 712.1v1.7c-23.7-.5-46.1-9.8-63.2-26.2l1.2-1.2c4.7 3.5 11.1 3.2 15.5-.6 10.6 7.8 23 12.9 36 14.9.4 5.8 4.7 10.5 10.5 11.4z" class="st0"/><path d="M618.9 684.6c-16.2-.3-31.7-6.7-43.5-18l-.4-.3-2.6 2.6.3.3c3.1 3.9 3.3 9.3.5 13.5l-.3.4.4.3a78.99 78.99 0 0 0 35 14.5l.5.1.1-.5c1-4.9 5-8.6 9.9-9.2l.4-.1v-3.6h-.3zm-.5 2.8c-5 .8-9.1 4.5-10.3 9.5-12.1-1.9-23.8-6.7-33.8-14 2.7-4.3 2.5-9.8-.6-13.9l1.3-1.3c11.8 11.1 27.2 17.5 43.3 18v1.7z" class="st0"/><path d="M618.4 685.6v1.8c-5 .8-9.1 4.5-10.3 9.5-12.1-1.9-23.8-6.7-33.8-14 2.7-4.3 2.5-9.8-.6-13.9l1.3-1.3c11.9 11.1 27.3 17.4 43.4 17.9zM684.3 685l-.4.3c-4.4 3.5-10.7 3.3-14.9-.6l-.3-.3-.3.3c-10.7 7.9-23.2 13.1-36.2 15l-.4.1v.4c-.2 5.7-4.5 10.3-10.1 10.9l-.4.1v3.6h.5c24.3-.3 47.3-9.9 64.8-26.9l.4-.3-2.7-2.6zm-62.1 28.8v-1.7c5.8-.9 10.1-5.6 10.5-11.4 12.9-2 25.3-7.1 36-14.9 4.4 3.8 10.8 4.1 15.5.6l1.2 1.2c-17.1 16.4-39.5 25.7-63.2 26.2z" class="st0"/><path d="M685.4 687.5c-17.1 16.5-39.5 25.8-63.2 26.2V712c5.8-.9 10.1-5.6 10.5-11.4 12.9-2 25.3-7.1 36-14.9 4.4 3.8 10.8 4.1 15.5.6l1.2 1.2z" class="st0"/><path d="m668.1 668.8-2.6-2.6-.4.3c-11.8 11.3-27.2 17.7-43.5 18h-.5v3.6l.4.1c5 .6 9 4.3 9.9 9.2l.1.5.5-.1c12.6-1.9 24.7-6.9 35-14.5l.4-.3-.3-.4c-2.8-4.2-2.6-9.6.5-13.5l.5-.3zm-1.9 14c-10 7.3-21.6 12.1-33.8 14-1.2-5-5.2-8.7-10.3-9.5v-1.8c16.1-.5 31.5-6.8 43.3-18l1.3 1.3c-2.9 4.2-3.1 9.7-.5 14z" class="st0"/><path d="M666.2 682.8c-10 7.3-21.6 12.1-33.8 14-1.2-5-5.2-8.7-10.3-9.5v-1.8c16.1-.5 31.5-6.8 43.3-18l1.3 1.3c-2.9 4.2-3.1 9.7-.5 14zM698.1 631c-4.9-1-8.6-4.9-9.2-9.9v-.4h-3.6v.5c-.3 16.2-6.7 31.7-18 43.5l-.3.4 2.6 2.6.3-.3c3.9-3.1 9.3-3.3 13.5-.5l.4.3.3-.4c7.6-10.3 12.7-22.4 14.5-35l.1-.5-.6-.3zm-14.7 34.6c-4.3-2.7-9.8-2.4-13.9.6l-1.3-1.3c11.1-11.8 17.5-27.2 18-43.3h1.8c.8 5 4.5 9.1 9.5 10.3-2 12.1-6.8 23.8-14.1 33.7z" class="st0"/><path d="M697.4 631.9c-1.9 12.1-6.7 23.8-14 33.7-4.3-2.7-9.8-2.4-13.9.6l-1.3-1.3c11.1-11.8 17.5-27.2 18-43.3h1.8c.7 5.1 4.5 9.1 9.4 10.3z" class="st0"/><path d="M711.8 620.6v.4c-.7 5.6-5.2 9.9-10.9 10.1h-.4l-.1.4c-1.9 13.1-7.1 25.6-15 36.2l-.3.3.3.3c3.9 4.2 4.1 10.4.6 14.9l-.3.3 2.5 2.5.3-.4c17-17.5 26.5-40.5 26.9-64.8v-.5h-3.6zm-23.7 64.2-1.2-1.2c3.5-4.7 3.2-11.1-.6-15.5 7.8-10.6 12.9-23 14.9-35.9 5.8-.4 10.5-4.8 11.4-10.5h1.7c-.4 23.6-9.7 46-26.2 63.1z" class="st0"/><path d="M714.4 621.6c-.5 23.7-9.8 46.1-26.2 63.2l-1.2-1.2c3.5-4.7 3.2-11.1-.6-15.5 7.8-10.6 12.9-23 14.9-35.9 5.8-.4 10.5-4.8 11.4-10.5h1.7zM698.5 607.9a78.99 78.99 0 0 0-14.5-35l-.3-.4-.4.3c-4.2 2.8-9.6 2.6-13.5-.5l-.3-.3-2.6 2.6.3.4c11.3 11.8 17.7 27.2 18 43.5v.5h3.6v-.4c.6-5 4.3-9 9.2-9.9l.5-.1v-.7zm-10.5 9.9h-1.8c-.5-16.1-6.8-31.5-18-43.3l1.3-1.3c4.1 3 9.6 3.2 13.9.6 7.3 10 12.1 21.6 14 33.8-4.9 1.1-8.7 5.2-9.4 10.2z" class="st0"/><path d="M697.4 607.5c-5 1.2-8.7 5.2-9.5 10.3h-1.8c-.5-16.1-6.8-31.5-18-43.3l1.3-1.3c4.1 3 9.6 3.2 13.9.6 7.4 10 12.2 21.6 14.1 33.7z" class="st0"/><path d="M715.4 618.3c-.3-24.3-9.9-47.3-26.9-64.8l-.3-.4-2.5 2.5.3.3c3.5 4.4 3.3 10.7-.6 14.9l-.3.3.3.3c7.9 10.6 13.1 23.2 15 36.2l.1.4h.4c5.7.2 10.3 4.5 10.9 10.1v.4h3.6v-.2zm-2.7-.5c-.9-5.8-5.6-10.1-11.4-10.5-2-12.9-7.1-25.3-14.9-35.9 3.8-4.4 4.1-10.8.6-15.5l1.2-1.2c16.5 17.1 25.8 39.5 26.2 63.2h-1.7z" class="st0"/><path d="M714.4 617.8h-1.7c-.9-5.8-5.6-10.1-11.4-10.5-2-12.9-7.1-25.3-14.9-35.9 3.8-4.4 4.1-10.8.6-15.5l1.2-1.2c16.4 17 25.7 39.4 26.2 63.1zM626.6 527.9c-.1-.9-.3-1.8-.4-2.6 0-.1 0-.3-.1-.4-.1-.4-.1-.7-.2-1.1l-.3-1.5c0-.1 0-.2-.1-.3-1.1-5.4-2.8-10.7-4.9-15.7l-.2-.4-.5.2c-4.6 1.7-9.7.2-12.8-3.6l-.3-.3-3.1 2 .2.4c3 5.5 5.4 11.3 6.9 17.4.1.3.1.5.2.8l.2.7c.1.3.1.6.2.9 0 .2.1.3.1.6.1.3.1.6.2.8.3 1.6.6 3.1.8 4.6.2 1.8.4 3.5.5 5.2 0 .9.1 1.7.1 2.6v.8h3.2l.5.1v-.6c.3-2.1 1.1-4 2.4-5.7.1-.2.3-.3.4-.5.7-.8 1.5-1.5 2.3-2 .8-.5 1.5-.9 2.4-1.2h.1c.5-.2 1.1-.3 1.7-.5l.5-.1v-.6zm-2.4 0c-1 .3-1.9.8-2.8 1.3-.9.6-1.8 1.3-2.5 2.2l-.5.5c-1.3 1.7-2.2 3.7-2.5 5.8h-1.8c0-.8 0-1.6-.1-2.5-.1-1.7-.3-3.5-.5-5.3-.2-1.5-.4-3-.8-4.7 0-.3-.1-.6-.2-.8 0-.2-.1-.4-.1-.6-.1-.3-.1-.6-.2-.9l-.2-.7c-.1-.3-.1-.6-.2-.8-1.5-6-3.8-11.8-6.7-17.2l1.6-1c3.2 3.8 8.4 5.2 13.2 3.7 2 4.9 3.6 10 4.6 15.1 0 .1 0 .2.1.3l.3 1.4c.1.4.1.7.2 1.1 0 .1 0 .2.1.3.1.7.2 1.4.3 2.2-.4.3-.9.5-1.3.6z" class="st0"/><path d="M625.5 527.5c-.4.1-.9.2-1.3.4h-.1c-.9.3-1.8.8-2.7 1.3-.9.6-1.8 1.3-2.5 2.2l-.5.5c-1.3 1.7-2.2 3.7-2.5 5.8h-1.8c0-.8 0-1.6-.1-2.5-.1-1.7-.3-3.5-.5-5.3-.2-1.5-.4-3-.8-4.7 0-.3-.1-.6-.2-.8 0-.2-.1-.4-.1-.6-.1-.3-.1-.6-.2-.9l-.2-.7c-.1-.3-.1-.6-.2-.8-1.5-6-3.8-11.8-6.7-17.2l1.6-1c3.2 3.8 8.4 5.2 13.2 3.7 2 4.9 3.6 10 4.6 15.1 0 .1 0 .2.1.3l.3 1.4c.1.4.1.7.2 1.1 0 .1 0 .2.1.3.1 1 .2 1.7.3 2.4zM626.2 551c-.6-.1-1.2-.3-1.7-.5h-.1c-.8-.3-1.6-.7-2.4-1.2-.8-.6-1.6-1.2-2.3-2-.1-.2-.3-.3-.4-.5-1.3-1.7-2.1-3.6-2.4-5.7v-.5h-3.7v.8c0 .9-.1 1.8-.1 2.6-.1 1.7-.3 3.4-.5 5.2-.2 1.4-.4 3-.8 4.6-.1.3-.1.5-.2.9 0 .2-.1.4-.1.5-.1.3-.1.6-.2.9l-.2.7c-.1.3-.1.5-.2.8-1.5 6-3.8 11.9-6.9 17.4l-.2.4 3.1 2 .3-.3c3.1-3.8 8.2-5.2 12.8-3.5l.4.2.2-.4c2.1-5.1 3.8-10.4 4.9-15.8 0-.1 0-.2.1-.3l.3-1.4c.1-.4.1-.7.2-1 0-.2.1-.3.1-.4.2-.9.3-1.7.4-2.7v-.5l-.4-.3zm-1 3.1v.3c-.1.3-.1.7-.2 1.1l-.3 1.4c0 .1-.1.2-.1.3-1.1 5.2-2.7 10.3-4.7 15.2-4.7-1.5-9.9-.1-13.1 3.6l-1.6-1c3-5.4 5.2-11.2 6.8-17.2.1-.3.1-.6.2-.8l.2-.7v-.1c.1-.3.1-.6.2-.9 0-.2.1-.4.1-.5.1-.3.1-.6.2-.9.3-1.7.6-3.2.8-4.7.2-1.8.4-3.6.5-5.3 0-.8.1-1.6.1-2.5h1.8c.3 2.1 1.2 4.1 2.5 5.8.1.2.3.4.5.5.8.9 1.6 1.6 2.5 2.2.8.5 1.7 1 2.7 1.3h.1c.4.2.9.3 1.3.4-.3 1-.4 1.8-.5 2.5z" class="st0"/><path d="M625.5 551.9c-.1.7-.2 1.5-.3 2.2v.3c-.1.3-.1.7-.2 1.1l-.3 1.4c0 .1-.1.2-.1.3-1.1 5.2-2.7 10.3-4.7 15.2-4.7-1.5-9.9-.1-13.1 3.6l-1.6-1c3-5.4 5.2-11.2 6.8-17.2.1-.3.1-.6.2-.8l.2-.7v-.1c.1-.3.1-.6.2-.9 0-.2.1-.4.1-.5.1-.3.1-.6.2-.9.3-1.7.6-3.2.8-4.7.2-1.8.4-3.6.5-5.3 0-.8.1-1.6.1-2.5h1.8c.3 2.1 1.2 4.1 2.5 5.8.1.2.3.4.5.5.8.9 1.6 1.6 2.5 2.2.8.5 1.7 1 2.7 1.3h.1c.2.5.7.6 1.1.7zM608.6 593c-3.9-3.4-5-9-2.8-13.6l.2-.4-3-2-.3.4c-6.2 10.2-14.8 18.8-25.1 24.9l-.4.3 2 3 .4-.2c4.7-2.5 10.5-1.4 14 2.6l.3.4.4-.3c5.4-4.2 10.2-9.1 14.4-14.4l.3-.4-.4-.3zm-14.7 14c-2.4-2.6-5.7-3.9-9-3.9-1.8 0-3.7.4-5.4 1.3l-.9-1.4c10-6.1 18.6-14.6 24.7-24.6l1.4.9c-2.1 4.8-1 10.5 2.8 14.1-4 5-8.5 9.6-13.6 13.6z" class="st0"/><path d="M607.6 593.4c-4 5-8.6 9.6-13.6 13.6-2.4-2.6-5.7-3.9-9-3.9-1.8 0-3.7.4-5.4 1.3l-.9-1.4c10-6.1 18.6-14.6 24.7-24.6l1.4.9c-2.2 4.8-1.1 10.5 2.8 14.1zM625.3 591.3l-.3.3c-3.4 4.2-9.4 5.4-14.2 2.9l-.4-.2-.3.3c-4.4 5.6-9.4 10.6-15 15l-.3.3.2.4c2.6 4.9 1.3 11-3.1 14.4l-.4.3 2 3 .4-.3c13.8-8.5 25.7-20.2 34.2-34l.3-.4-3.1-2zm-31.5 35.3-.9-1.4c4.4-3.7 5.7-9.8 3.2-15 5.4-4.3 10.3-9.2 14.6-14.6 5 2.4 11.1 1.2 14.8-3l1.5.9c-8.3 13.4-19.8 24.8-33.2 33.1z" class="st0"/><path d="M627 593.6c-8.3 13.4-19.8 24.8-33.2 33l-.9-1.4c4.4-3.7 5.7-9.8 3.2-15 5.4-4.3 10.3-9.2 14.6-14.6 5 2.4 11.1 1.2 14.8-3l1.5 1zM575.6 603.5l-.4.2c-5.3 2.9-11 5.2-16.9 6.7-.3.1-.5.1-.8.2l-.6.2c-.3.1-.6.1-.9.2-.2 0-.4.1-.6.1-.3.1-.5.1-.8.2-1.6.3-3.1.6-4.6.8-1.8.2-3.5.4-5.2.5-.9.1-1.7.1-2.6.1h-.8v3.7h.5c2.1.3 4 1.1 5.7 2.4.2.1.3.3.5.4.8.7 1.5 1.5 2 2.3.5.8.9 1.5 1.2 2.4v.1c.2.5.3 1.1.5 1.7l.1.5.5-.1c.9-.1 1.8-.3 2.6-.4.1 0 .3 0 .4-.1.4-.1.7-.1 1.1-.2l1.5-.3c.1 0 .2 0 .3-.1 5.4-1.1 10.7-2.8 15.7-4.9l.4-.2-.2-.5c-1.6-4.4-.3-9.4 3.3-12.5l.3-.3-2.2-3.1zm-2.7 15.9c-4.9 2-10 3.6-15.1 4.6-.1 0-.2.1-.3.1l-1.4.3c-.3.1-.7.1-1.1.2-.1 0-.2 0-.3.1-.7.1-1.4.2-2.2.3-.1-.4-.2-.9-.4-1.3v-.1c-.3-.9-.8-1.9-1.3-2.7-.6-.9-1.3-1.8-2.2-2.5-.2-.2-.4-.3-.5-.5-1.7-1.4-3.8-2.2-5.8-2.5v-1.8c.8 0 1.6-.1 2.5-.1 1.7-.1 3.5-.3 5.3-.5 1.5-.2 3-.4 4.7-.8.3 0 .6-.1.8-.2.2 0 .4-.1.6-.1.3-.1.6-.1.9-.2l.7-.2c.3-.1.6-.1.8-.2 5.8-1.5 11.5-3.7 16.8-6.5l1.1 1.6c-3.7 3.4-5 8.4-3.6 13z" class="st0"/><path d="M572.9 619.4c-4.9 2-10 3.6-15.1 4.6-.1 0-.2.1-.3.1l-1.4.3c-.3.1-.7.1-1.1.2-.1 0-.2 0-.3.1-.7.1-1.4.2-2.2.3-.1-.4-.2-.9-.4-1.3v-.1c-.3-.9-.8-1.9-1.3-2.7-.6-.9-1.3-1.8-2.2-2.5-.2-.2-.4-.3-.5-.5-1.7-1.4-3.8-2.2-5.8-2.5v-1.8c.8 0 1.6-.1 2.5-.1 1.7-.1 3.5-.3 5.3-.5 1.5-.2 3-.4 4.7-.8.3 0 .6-.1.8-.2.2 0 .4-.1.6-.1.3-.1.6-.1.9-.2l.7-.2c.3-.1.6-.1.8-.2 5.8-1.5 11.5-3.7 16.8-6.5l1.1 1.6c-3.7 3.4-5 8.4-3.6 13zM538.6 612.6c-.9 0-1.8-.1-2.6-.1-1.7-.1-3.4-.3-5.2-.5-1.5-.2-3-.4-4.6-.8-.3-.1-.6-.1-.9-.2-.2 0-.3-.1-.5-.1-.3-.1-.6-.1-.9-.2l-.6-.2c-.3-.1-.6-.1-.8-.2-5.9-1.5-11.7-3.8-17-6.7l-.4-.2-2.1 3.1.3.3c3.6 3.1 4.9 8.1 3.3 12.6l-.2.5.4.2c5.1 2.1 10.4 3.8 15.8 4.9.1 0 .2 0 .3.1l1.4.3c.4.1.7.1 1 .2.2 0 .3.1.4.1.9.2 1.7.3 2.7.4l.5.1.1-.5c.1-.6.3-1.2.5-1.7v-.1c.3-.8.7-1.6 1.2-2.4.5-.8 1.2-1.6 2-2.3.1-.1.3-.3.5-.4 1.7-1.3 3.6-2.1 5.7-2.4h.5v-3.7h-.8zm-.2 2.8c-2.1.3-4.1 1.2-5.8 2.5-.2.1-.4.3-.5.5-.9.8-1.6 1.6-2.2 2.5-.6.8-1 1.7-1.3 2.7v.1c-.2.4-.3.9-.4 1.3-.7-.1-1.5-.2-2.2-.3-.1 0-.2 0-.3-.1-.4-.1-.7-.1-1.1-.2l-1.4-.3c-.1 0-.2-.1-.3-.1-5.2-1.1-10.3-2.6-15.2-4.7 1.5-4.6.1-9.7-3.4-12.9l1.1-1.6c5.3 2.9 11 5.1 16.9 6.6.3.1.6.1.8.2l.6.2h.1c.3.1.6.1.9.2.2 0 .4.1.5.1.3.1.6.1.9.2 1.7.3 3.2.6 4.7.8 1.8.2 3.6.4 5.3.5.8 0 1.6.1 2.5.1v1.7z" class="st0"/><path d="M538.4 613.6v1.8c-2.1.3-4.1 1.2-5.8 2.5-.2.1-.4.3-.5.5-.9.8-1.6 1.6-2.2 2.5-.6.8-1 1.7-1.3 2.7v.1c-.2.4-.3.9-.4 1.3-.7-.1-1.5-.2-2.2-.3-.1 0-.2 0-.3-.1-.4-.1-.7-.1-1.1-.2l-1.4-.3c-.1 0-.2-.1-.3-.1-5.2-1.1-10.3-2.6-15.2-4.7 1.5-4.6.1-9.7-3.4-12.9l1.1-1.6c5.3 2.9 11 5.1 16.9 6.6.3.1.6.1.8.2l.6.2h.1c.3.1.6.1.9.2.2 0 .4.1.5.1.3.1.6.1.9.2 1.7.3 3.2.6 4.7.8 1.8.2 3.6.4 5.3.5.7-.1 1.5 0 2.3 0zM502.9 602.3c-10.6-6.4-19.5-15.4-25.8-26.1l-.3-.5-3 2.2.3.4c0 .1.1.1.1.2 2.8 4.8 1.8 10.8-2.3 14.5l-.4.3.3.4c4.2 5.3 9.1 10.2 14.4 14.4l.4.3.3-.4c3.5-4 9.2-5 13.9-2.6l.4.2 2-3-.3-.3zm-1.9 2c-4.9-2.3-10.7-1.2-14.4 2.7-5-4-9.6-8.6-13.6-13.6 4.2-3.9 5.1-10.2 2.3-15.2l1.3-1c6.2 10.5 15 19.4 25.4 25.7l-1 1.4z" class="st0"/><path d="m501.9 602.9-.9 1.4c-4.9-2.3-10.7-1.2-14.4 2.7-5-4-9.6-8.6-13.6-13.6 4.2-3.9 5.1-10.2 2.3-15.2l1.3-1c6.2 10.5 14.9 19.3 25.3 25.7zM488.2 624.3c-4-3.4-5.1-9.3-2.7-14.1l.2-.4-.3-.3c-5.6-4.4-10.6-9.4-15-15l-.3-.3-.4.2c-4.7 2.5-10.4 1.4-13.9-2.5l-.3-.3-3 2.2.3.4c8.4 13.4 19.8 24.8 33.2 33.2l.4.3 2-3-.2-.4zm-2 1.9c-13-8.1-24.1-19.3-32.3-32.2l1.5-1.1c3.7 3.9 9.6 5 14.5 2.6 4.3 5.4 9.2 10.3 14.6 14.6-2.4 4.9-1.3 10.9 2.7 14.6l-1 1.5z" class="st0"/><path d="m487.2 624.7-1 1.5c-13-8.1-24.1-19.3-32.3-32.2l1.5-1.1c3.7 3.9 9.6 5 14.5 2.6 4.3 5.4 9.2 10.3 14.6 14.6-2.4 4.9-1.3 10.9 2.7 14.6zM475.8 573.7c-2.7-5.1-4.8-10.5-6.2-16-.1-.3-.1-.5-.2-.8l-.2-.6c-.1-.3-.1-.6-.2-.9 0-.2-.1-.3-.1-.6-.1-.3-.1-.6-.2-.8-.3-1.6-.6-3.1-.8-4.6-.2-1.8-.4-3.5-.5-5.2 0-.9-.1-1.7-.1-2.6v-.8h-3.2l-.5-.1v.6c-.3 2.1-1.1 4-2.4 5.7-.1.1-.3.3-.4.5-.7.8-1.5 1.5-2.3 2-.8.5-1.5.9-2.4 1.2h-.1c-.5.2-1.1.3-1.7.5l-.5.1.1.5c.1.9.3 1.8.4 2.6 0 .2 0 .3.1.4.1.4.1.7.2 1.1l.3 1.5c0 .1 0 .2.1.3 1.1 5.4 2.8 10.7 4.9 15.7l.2.4.4-.2c4.2-1.5 8.9-.4 12 2.7l.3.3 3.2-2.4-.2-.5zm-2.9 1.4c-2.3-2.2-5.4-3.3-8.5-3.3-1.3 0-2.5.2-3.7.6-2-4.9-3.6-10-4.6-15.1 0-.1 0-.2-.1-.3l-.3-1.4c-.1-.4-.1-.7-.2-1.1 0-.1 0-.2-.1-.3-.1-.7-.2-1.4-.3-2.2.4-.1.9-.2 1.3-.4h.1c.9-.3 1.8-.8 2.7-1.3.9-.6 1.8-1.3 2.5-2.2.2-.2.3-.3.4-.5 1.4-1.7 2.2-3.7 2.5-5.8h1.8c0 .8 0 1.6.1 2.5.1 1.7.3 3.5.5 5.3.2 1.5.4 3 .8 4.7 0 .3.1.6.2.8 0 .2.1.4.1.6.1.3.1.6.2.9l.2.7c.1.3.1.6.2.8 1.4 5.5 3.4 10.8 6 15.9l-1.8 1.1z" class="st0"/><path d="m474.7 573.7-1.8 1.3c-2.3-2.2-5.4-3.3-8.5-3.3-1.3 0-2.5.2-3.7.6-2-4.9-3.6-10-4.6-15.1 0-.1 0-.2-.1-.3l-.3-1.4c-.1-.4-.1-.7-.2-1.1 0-.1 0-.2-.1-.3-.1-.7-.2-1.4-.3-2.2.4-.1.9-.2 1.3-.4h.1c.9-.3 1.8-.8 2.7-1.3.9-.6 1.8-1.3 2.5-2.2.2-.2.3-.3.4-.5 1.4-1.7 2.2-3.7 2.5-5.8h1.8c0 .8 0 1.6.1 2.5.1 1.7.3 3.5.5 5.3.2 1.5.4 3 .8 4.7 0 .3.1.6.2.8 0 .2.1.4.1.6.1.3.1.6.2.9l.2.7c.1.3.1.6.2.8 1.3 5.4 3.4 10.7 6 15.7zM473.6 502l-.3.3c-3.1 3.8-8.2 5.2-12.8 3.5l-.5-.2-.2.4c-2.1 5.1-3.8 10.4-4.9 15.8 0 .1 0 .2-.1.3l-.3 1.4c-.1.4-.1.7-.2 1 0 .1-.1.3-.1.4-.2.9-.3 1.7-.4 2.7l-.1.5.5.1c.6.1 1.2.3 1.7.5h.1c.8.3 1.6.7 2.4 1.2.8.5 1.6 1.2 2.3 2 .1.1.3.3.4.5 1.3 1.6 2.1 3.6 2.4 5.7v.5h3.7v-.6c0-.9.1-1.8.1-2.6.1-1.7.3-3.4.5-5.2.2-1.5.4-3 .8-4.6 0-.3.1-.6.2-.9 0-.2.1-.3.1-.5.1-.3.1-.6.2-.9l.2-.7c.1-.3.1-.5.2-.8 1.5-6 3.9-11.9 6.9-17.4l.2-.4-3-2zm-4.9 19.5c-.1.3-.2.6-.2.8l-.1.6v.1c-.1.3-.1.6-.2.9 0 .2-.1.4-.1.5-.1.3-.1.6-.2.9-.3 1.7-.6 3.2-.8 4.7-.2 1.8-.4 3.6-.5 5.3 0 .8-.1 1.6-.1 2.4h-1.8c-.3-2.1-1.2-4.1-2.5-5.8-.1-.2-.3-.4-.5-.5-.8-.8-1.6-1.6-2.5-2.2-.8-.6-1.7-1-2.7-1.3h-.1c-.4-.2-.9-.3-1.3-.4.1-.7.2-1.4.3-2.2v-.3c.1-.3.1-.7.2-1.1l.3-1.4c0-.1.1-.2.1-.3 1.1-5.2 2.7-10.3 4.7-15.2 4.7 1.5 9.9.1 13.2-3.6l1.6 1c-3.1 5.4-5.3 11.2-6.8 17.1z" class="st0"/><path d="M475.4 504.4c-3 5.4-5.2 11.2-6.8 17.2-.1.3-.2.6-.2.8l-.1.6v.1c-.1.3-.1.6-.2.9 0 .2-.1.4-.1.5-.1.3-.1.6-.2.9-.3 1.7-.6 3.2-.8 4.7-.2 1.8-.4 3.6-.5 5.3 0 .8-.1 1.6-.1 2.4h-1.8c-.3-2.1-1.2-4.1-2.5-5.8-.1-.2-.3-.4-.5-.5-.8-.8-1.6-1.6-2.5-2.2-.8-.6-1.7-1-2.7-1.3h-.1c-.4-.2-.9-.3-1.3-.4.1-.7.2-1.4.3-2.2v-.3c.1-.3.1-.7.2-1.1l.3-1.4c0-.1.1-.2.1-.3 1.1-5.2 2.7-10.3 4.7-15.2 4.7 1.5 9.9.1 13.2-3.6l1.6.9zM486.9 451.6l-.4.3c-13.8 8.4-25.5 20.2-34 33.9l-.3.4 3 1.9.3-.3c3.4-4.2 9.4-5.4 14.2-2.9l.4.2.3-.3c4.4-5.6 9.4-10.6 15-15l.3-.3-.2-.4c-2.5-4.8-1.3-10.8 2.9-14.3l.3-.3-1.8-2.9zm-2.4 17.7c-5.4 4.3-10.3 9.2-14.6 14.6-5-2.5-11.1-1.2-14.8 3l-1.5-.9c8.3-13.3 19.7-24.7 33-32.9l.9 1.5c-4.2 3.5-5.4 9.6-3 14.7z" class="st0"/><path d="M484.5 469.3c-5.4 4.3-10.3 9.2-14.6 14.6-5-2.5-11.1-1.2-14.8 3l-1.5-.9c8.3-13.3 19.7-24.7 33-32.9l.9 1.5c-4.2 3.5-5.4 9.6-3 14.7zM501.1 474l-.4.2c-4.6 2.2-10.2 1.1-13.6-2.8l-.3-.4-.4.3c-5.3 4.2-10.2 9.1-14.4 14.4l-.3.4.4.3c3.9 3.4 5 9 2.8 13.6l-.2.4 3 1.9.3-.4a72.96 72.96 0 0 1 24.7-24.7l.4-.3-2-2.9zm-23.8 27-1.4-.9c2.1-4.8 1-10.5-2.8-14.1 4-5 8.6-9.6 13.6-13.6 3.6 3.8 9.3 5 14 2.9l.9 1.4c-9.8 6.1-18.2 14.5-24.3 24.3z" class="st0"/><path d="M501.7 476.7c-9.9 6.1-18.3 14.5-24.3 24.3l-1.4-.9c2.1-4.8 1-10.5-2.8-14.1 4-5 8.6-9.6 13.6-13.6 3.6 3.8 9.3 5 14 2.9l.9 1.4zM539.4 463.1h-.5c-2.1-.3-4-1.1-5.7-2.4-.2-.1-.3-.3-.5-.4-.8-.7-1.5-1.5-2-2.3-.5-.8-.9-1.6-1.2-2.4v-.1c-.2-.5-.4-1.1-.5-1.7l-.1-.5h-.5c-.9.1-1.8.3-2.6.4-.2 0-.3 0-.4.1-.4.1-.7.1-1.1.2l-1.5.3c-.1 0-.2 0-.3.1-5.4 1.1-10.7 2.8-15.7 4.9l-.4.2.2.4c1.6 4.6.2 9.7-3.6 12.8l-.3.3 2 3.1.4-.2c5.5-3 11.3-5.4 17.4-6.9.3-.1.5-.1.8-.2l.6-.2c.3-.1.6-.1.9-.2.2 0 .3-.1.6-.1.3-.1.5-.1.8-.2 1.6-.3 3.1-.6 4.6-.8 1.8-.2 3.5-.4 5.2-.5.9-.1 1.7-.1 2.6-.1h.8v-3.6zm-1 2.7c-.8 0-1.6.1-2.5.1-1.7.1-3.5.3-5.3.5-1.5.2-3 .4-4.7.8-.3.1-.6.1-.8.2-.2 0-.4.1-.6.1-.3.1-.6.1-.9.2l-.7.2c-.3.1-.6.1-.8.2-6 1.5-11.7 3.8-17.2 6.7l-1-1.6c3.8-3.2 5.2-8.4 3.7-13.2 4.9-2 10-3.6 15.1-4.6.1 0 .2-.1.3-.1l1.4-.3c.4-.1.7-.1 1.1-.2h.3l2.1-.3c.1.4.2.9.4 1.3v.1c.3 1 .8 1.8 1.3 2.7.6.9 1.3 1.8 2.2 2.5.2.2.3.3.5.4 1.7 1.4 3.8 2.2 5.8 2.5v1.8z" class="st0"/><path d="M538.4 464.1v1.8c-.8 0-1.6.1-2.5.1-1.7.1-3.5.3-5.3.5-1.5.2-3 .4-4.7.8-.3.1-.6.1-.8.2-.2 0-.4.1-.6.1-.3.1-.6.1-.9.2l-.7.2c-.3.1-.6.1-.8.2-6 1.5-11.7 3.8-17.2 6.7l-1-1.6c3.8-3.2 5.2-8.4 3.7-13.2 4.9-2 10-3.6 15.1-4.6.1 0 .2-.1.3-.1l1.4-.3c.4-.1.7-.1 1.1-.2h.3l2.1-.3c.1.4.2.9.4 1.3v.1c.3 1 .8 1.8 1.3 2.7.6.9 1.3 1.8 2.2 2.5.2.2.3.3.5.4 2 1.3 4 2.2 6.1 2.5zM628.2 485.9c-8.5-13.8-20.2-25.5-34-34l-.4-.3-1.9 3 .3.3c4.2 3.4 5.4 9.4 2.9 14.2l-.2.4.3.3c5.6 4.4 10.6 9.4 15 15l.3.3.4-.2c4.9-2.6 10.9-1.3 14.3 2.9l.3.3 3.1-1.9-.4-.3zm-2.6 1.1c-2.4-2.8-5.9-4.3-9.4-4.3-1.8 0-3.7.4-5.4 1.3-4.3-5.4-9.2-10.3-14.6-14.6 2.4-5 1.2-11.1-3-14.8l.9-1.5c13.3 8.3 24.7 19.7 32.9 33l-1.4.9z" class="st0"/><path d="m627.1 486-1.5.9c-2.4-2.8-5.9-4.3-9.4-4.3-1.8 0-3.7.4-5.4 1.3-4.3-5.4-9.2-10.3-14.6-14.6 2.4-5 1.2-11.1-3-14.8l.9-1.5c13.4 8.3 24.7 19.7 33 33zM608.7 485.8c-4.2-5.4-9.1-10.2-14.4-14.4l-.4-.3-.3.4c-3.4 3.9-9 5-13.6 2.8l-.4-.2-2 3 .4.3a72.96 72.96 0 0 1 24.7 24.7l.3.4 3-1.9-.2-.4c-2.2-4.6-1.1-10.2 2.8-13.6l.4-.3-.3-.5zm-4 14.3-1.4.9c-6.1-9.9-14.5-18.3-24.3-24.3l.9-1.4c4.8 2.1 10.5 1 14.1-2.8 5 4 9.6 8.6 13.6 13.6-3.8 3.6-4.9 9.2-2.9 14z" class="st0"/><path d="m604.7 500.1-1.4.9c-6.1-9.9-14.5-18.3-24.3-24.3l.9-1.4c4.8 2.1 10.5 1 14.1-2.8 5 4 9.6 8.6 13.6 13.6-3.8 3.6-4.9 9.2-2.9 14zM577.6 472.8c-3.8-3.1-5.2-8.2-3.5-12.8l.2-.4-.4-.2c-5.1-2.1-10.4-3.8-15.8-4.9-.1 0-.2 0-.3-.1l-1.4-.3c-.4-.1-.7-.1-1-.2-.1 0-.3-.1-.4-.1-.9-.2-1.7-.3-2.7-.4h-.5l-.1.5c-.1.6-.3 1.1-.5 1.7v.1c-.3.8-.7 1.6-1.2 2.4-.5.8-1.2 1.6-2 2.3-.2.1-.3.3-.5.4-1.6 1.3-3.6 2.1-5.7 2.4h-.5v3.7h.8c.9 0 1.8.1 2.6.1 1.7.1 3.4.3 5.2.5 1.5.2 3 .4 4.6.8.3 0 .5.1.9.2.2 0 .4.1.5.1.3.1.6.1.9.2l.6.2c.3.1.6.1.8.2 6 1.5 11.9 3.8 17.4 6.9l.4.2 2-3.1-.4-.4zm-1.9 2c-5.4-3-11.2-5.2-17.2-6.8-.3-.1-.6-.2-.9-.2l-.6-.2h-.1c-.3-.1-.6-.1-.9-.2-.2 0-.4-.1-.5-.1-.3-.1-.6-.1-.9-.2-1.7-.3-3.2-.6-4.7-.8-1.8-.2-3.6-.4-5.3-.5-.8-.1-1.6-.1-2.4-.1v-1.8c2.1-.3 4.1-1.2 5.8-2.5.2-.1.4-.3.5-.4.8-.8 1.6-1.6 2.2-2.5.5-.8 1-1.8 1.3-2.7v-.1c.2-.4.3-.9.4-1.3.7.1 1.5.2 2.2.3h.3c.3.1.7.1 1.1.2l1.4.3c.1 0 .2.1.3.1 5.2 1.1 10.3 2.7 15.2 4.7-1.5 4.7-.1 9.9 3.6 13.1l-.8 1.7z" class="st0"/><path d="m576.7 473.2-1 1.6c-5.4-3-11.2-5.2-17.2-6.8-.3-.1-.6-.2-.9-.2l-.6-.2h-.1c-.3-.1-.6-.1-.9-.2-.2 0-.4-.1-.5-.1-.3-.1-.6-.1-.9-.2-1.7-.3-3.2-.6-4.7-.8-1.8-.2-3.6-.4-5.3-.5-.8-.1-1.6-.1-2.4-.1v-1.8c2.1-.3 4.1-1.2 5.8-2.5.2-.1.4-.3.5-.4.8-.8 1.6-1.6 2.2-2.5.5-.8 1-1.8 1.3-2.7v-.1c.2-.4.3-.9.4-1.3.7.1 1.5.2 2.2.3h.3c.3.1.7.1 1.1.2l1.4.3c.1 0 .2.1.3.1 5.2 1.1 10.3 2.7 15.2 4.7-1.4 4.8.1 10 3.8 13.2zM571 398.7c-.3-.6-.8-1.1-1.2-1.6-.3-.3-.5-.5-.8-.7-2.9-2.3-7-2.4-10.1-.3-.4.3-.8.6-1.2 1l-.3.3-.3.3c-.2.2-.3.4-.4.6-2.1 3-2 7.2.3 10 .2.3.4.5.7.8.5.5 1 .9 1.5 1.2 1.4.9 2.9 1.3 4.5 1.3 1.7 0 3.4-.5 4.8-1.5.4-.3.8-.6 1.2-1 .2-.2.4-.4.5-.6.2-.2.3-.4.4-.6 2.1-2.7 2.2-6.3.4-9.2zm-1.1 8.7c-.2.4-.5.7-.9 1-.3.3-.7.6-1 .9-2.4 1.7-5.7 1.8-8.2.2-.5-.3-.9-.6-1.4-1.1-.2-.2-.4-.5-.6-.7-2-2.6-2.1-6.2-.2-8.9.2-.4.5-.7.8-1 .3-.3.7-.6 1-.8 1.3-.9 2.8-1.3 4.3-1.3 1.6 0 3.3.5 4.6 1.6.2.2.5.4.7.6.4.4.8.9 1.1 1.4 1.6 2.4 1.5 5.7-.2 8.1zM673.6 541l-1.3-.8c-.2-.2-.5-.3-.7-.5.2-.1.5-.3.7-.4l1.3-.8c4.6-3.1 8.9-6.7 12.9-10.5l.4-.3-2.5-2.5-.4.3c-4.4 3.5-10.7 3.3-14.9-.6l-.3-.3-.3.3c-2.8 2.1-5.7 3.9-8.7 5.6-.5.3-1 .6-1.5.8-.5.3-1.1.6-1.6.8-3.5 1.8-7.3 3.3-11.1 4.6-.5.2-.9.3-1.4.4-.5.1-.9.3-1.4.4-.4.1-.8.2-1.1.3h-.1c-.5.1-.9.3-1.4.3l-.4.1v2.8l.4.1c.5.1.9.2 1.4.4h.1c.4.1.8.2 1.1.3.5.1.9.3 1.4.4.5.1.9.3 1.4.5 3.8 1.2 7.5 2.8 11.1 4.6.6.3 1.1.5 1.7.8.5.3 1 .6 1.5.8 3 1.7 5.9 3.6 8.7 5.6l.3.3.3-.3c4.2-3.9 10.5-4.1 14.9-.6l.4.3 2.5-2.5-.4-.4c-4.1-3.6-8.4-7.2-13-10.3zm10.7 12.1c-4.7-3.5-11.1-3.2-15.5.6-2.7-2-5.5-3.8-8.4-5.4-.5-.3-1-.6-1.5-.8-.6-.3-1.1-.6-1.7-.9-3.6-1.8-7.4-3.4-11.2-4.6-.5-.2-1-.3-1.4-.5-.5-.2-1-.3-1.4-.4l-1.2-.3c-.3-.1-.7-.2-1-.3v-1.4c.3-.1.7-.2 1.1-.3l1.2-.3c.5-.1 1-.3 1.4-.4.5-.1 1-.3 1.4-.5 3.9-1.3 7.6-2.8 11.2-4.6.6-.3 1.1-.6 1.7-.9.5-.3 1-.6 1.5-.8 2.9-1.6 5.7-3.5 8.5-5.4 4.4 3.8 10.8 4.1 15.5.6l1.2 1.2c-3.8 3.7-8 7.1-12.4 10.1l-1.3.8c-.4.3-.9.6-1.3.8l-.7.4.7.4c.5.3.9.6 1.3.9l1.3.8c4.4 3 8.6 6.4 12.4 10.1l-1.4 1.1z" class="st0"/><path d="M673.1 541.8c4.4 3 8.6 6.4 12.4 10.1l-1.2 1.2c-4.7-3.5-11.1-3.2-15.5.6-2.7-2-5.5-3.8-8.4-5.4-.5-.3-1-.6-1.5-.8-.6-.3-1.1-.6-1.7-.9-3.6-1.8-7.4-3.4-11.2-4.6-.5-.2-1-.3-1.4-.5-.5-.2-1-.3-1.4-.4l-1.2-.3c-.3-.1-.7-.2-1-.3v-1.4c.3-.1.7-.2 1.1-.3l1.2-.3c.5-.1 1-.3 1.4-.4.5-.1 1-.3 1.4-.5 3.9-1.3 7.6-2.8 11.2-4.6.6-.3 1.1-.6 1.7-.9.5-.3 1-.6 1.5-.8 2.9-1.6 5.7-3.5 8.5-5.4 4.4 3.8 10.8 4.1 15.5.6l1.2 1.2c-3.8 3.7-8 7.1-12.4 10.1l-1.3.8c-.4.3-.9.6-1.3.8l-.7.4.7.4c.5.3.9.6 1.3.9l1.1.7zM667.8 570.3c-3.1-3.9-3.3-9.3-.5-13.5l.3-.4-.4-.3c-3.2-2.4-6.7-4.6-10.3-6.4-.6-.3-1.1-.6-1.7-.8l-1.8-.9c-2.4-1.1-5-2.2-7.7-3.1-.4-.2-.9-.3-1.3-.4h-.1c-.5-.2-.9-.3-1.4-.4-1.1-.3-2.1-.6-3.1-.9l-.4-.1-.1.4c-1.5 4.4-5.6 7.6-10.3 7.8h-.4l-.1.4c-.1.8-.2 1.5-.3 2.2v.3c0 .2-.1.4-.1.6 0 .2-.1.4-.1.6 0 .3-.1.5-.2.8 0 .2-.1.4-.1.6 0 .2-.1.5-.2.8-1.1 5.7-2.9 11.3-5.1 16.7l-.2.4.4.2c4.8 3.2 6.5 9.4 4 14.6l-.2.4 3 1.9.3-.5c5.5-9.5 9.5-19.8 11.7-30.6.1-.4.2-.9.3-1.3l.2-1c.3.1.5.2.8.3.5.2.9.3 1.3.5 7.9 3.1 15.1 7.7 21.4 13.6l.4.3 2.6-2.6-.6-.2zm-2.3 1.5c-6.3-5.9-13.4-10.4-21.3-13.5-.5-.2-.9-.4-1.3-.5-.5-.2-.9-.3-1.4-.5l-.5-.2-.4 2.1c-.1.4-.2.9-.3 1.3-2.2 10.5-6 20.5-11.3 29.8l-1.4-.9c2.4-5.4.6-11.8-4.2-15.2 2.2-5.3 3.9-10.9 5.1-16.5.1-.3.1-.5.1-.8 0-.2.1-.4.1-.6.1-.3.1-.6.2-.8 0-.2.1-.4.1-.6 0-.2.1-.4.1-.6v-.3l.3-1.8c4.8-.4 8.9-3.6 10.6-8 .9.2 1.8.5 2.7.7.5.1.9.3 1.4.4h.1c.4.1.9.3 1.3.4 2.6.9 5.2 1.9 7.6 3.1.6.3 1.2.5 1.8.8.6.3 1.1.5 1.7.8 3.4 1.8 6.7 3.8 9.8 6.1-2.7 4.3-2.5 9.8.6 13.9l-1.5 1.4z" class="st0"/><path d="m666.8 570.5-1.3 1.3c-6.3-5.9-13.4-10.4-21.3-13.5-.5-.2-.9-.4-1.3-.5-.5-.2-.9-.3-1.4-.5l-.5-.2-.4 2.1c-.1.4-.2.9-.3 1.3-2.2 10.5-6 20.5-11.3 29.8l-1.4-.9c2.4-5.4.6-11.8-4.2-15.2 2.2-5.3 3.9-10.9 5.1-16.5.1-.3.1-.5.1-.8 0-.2.1-.4.1-.6.1-.3.1-.6.2-.8 0-.2.1-.4.1-.6 0-.2.1-.4.1-.6v-.3l.3-1.8c4.8-.4 8.9-3.6 10.6-8 .9.2 1.8.5 2.7.7.5.1.9.3 1.4.4h.1c.4.1.9.3 1.3.4 2.6.9 5.2 1.9 7.6 3.1.6.3 1.2.5 1.8.8.6.3 1.1.5 1.7.8 3.4 1.8 6.7 3.8 9.8 6.1-2.8 4.4-2.6 9.9.4 14z" class="st0"/><path d="m643.6 561.1-.5-.2-.1.6c-8.6 40.6-40.3 72.3-80.9 80.9l-.6.1.2.6c9.6 24.2 32.6 39.8 58.6 39.8 34.8 0 63.1-28.3 63.1-63.1 0-26.1-15.6-49.1-39.8-58.7zm-23.3 120.7c-25.4 0-47.8-15.1-57.5-38.6 40.5-8.8 72.2-40.5 80.9-80.9 23.5 9.6 38.6 32.1 38.6 57.5.1 34.1-27.8 62-62 62z" class="st0"/><path d="M561.3 640.7c10.6-2.2 20.8-6.1 30.2-11.5l.5-.3-1.9-3-.4.2c-5.1 2.3-11.3.6-14.4-4.1l-.2-.3-.4.2c-5.3 2.2-10.9 4-16.6 5.1-.3.1-.5.1-.8.1-.2.1-.4.1-.6.1-.3.1-.5.1-.8.1-.2 0-.4.1-.6.1-.2 0-.4.1-.5.1l-.3.1c-.7.1-1.5.2-2.2.3l-.4.1v.4c-.2 4.7-3.4 8.8-7.8 10.3l-.4.1.1.4c.3 1 .5 2.1.9 3.1.1.5.3 1 .5 1.5.1.4.3.9.4 1.3.9 2.7 1.9 5.3 3.1 7.7l.9 1.8c.3.6.6 1.1.9 1.7 1.9 3.6 4 7 6.4 10.3l.3.4.4-.3c4.1-2.8 9.6-2.6 13.5.5l.3.3 2.6-2.6-.3-.4c-5.9-6.2-10.5-13.4-13.6-21.4-.2-.4-.3-.9-.5-1.3-.1-.3-.2-.5-.3-.8l1-.2c.1 0 .5-.1 1-.1zm-3.6-.4.2.5c.2.5.3.9.5 1.4.2.4.3.9.5 1.4 3.1 7.9 7.6 15.1 13.5 21.3l-1.3 1.3c-2.2-1.6-4.8-2.4-7.4-2.4-2.3 0-4.5.6-6.5 1.9-2.3-3.1-4.3-6.4-6.1-9.8-.3-.5-.6-1.1-.8-1.7l-.9-1.8c-1.1-2.4-2.2-5-3.1-7.6-.1-.4-.3-.9-.4-1.4-.2-.5-.3-.9-.4-1.4-.3-.9-.5-1.8-.7-2.6 4.5-1.7 7.6-5.9 8-10.6l1.8-.3.3-.1c.2 0 .4-.1.6-.1.2 0 .4-.1.6-.1.3 0 .6-.1.8-.1.2 0 .5-.1.6-.1.3 0 .5-.1.8-.1 5.6-1.1 11.1-2.8 16.4-5 3.3 4.7 9.6 6.6 15 4.3l.9 1.4c-9.2 5.2-19.1 9-29.5 11.1-.4.1-.9.2-1.3.3l-2.1.3z" class="st0"/><path d="M558.9 643.6c3.1 7.9 7.6 15.1 13.5 21.3l-1.3 1.3c-2.2-1.6-4.8-2.4-7.4-2.4-2.3 0-4.5.6-6.5 1.9-2.3-3.1-4.3-6.4-6.1-9.8-.3-.5-.6-1.1-.8-1.7l-.9-1.8c-1.1-2.4-2.2-5-3.1-7.6-.1-.4-.3-.9-.4-1.4-.2-.5-.3-.9-.4-1.4-.3-.9-.5-1.8-.7-2.6 4.5-1.7 7.6-5.9 8-10.6l1.8-.3.3-.1c.2 0 .4-.1.6-.1.2 0 .4-.1.6-.1.3 0 .6-.1.8-.1.2 0 .5-.1.6-.1.3 0 .5-.1.8-.1 5.6-1.1 11.1-2.8 16.4-5 3.3 4.7 9.6 6.6 15 4.3l.9 1.4c-9.2 5.2-19.1 9-29.5 11.1-.4.1-.9.2-1.3.3l-2.1.4.2.5c.2.5.3.9.5 1.4.1.4.3.8.5 1.3zM555.6 668.2l-.3-.3c-2.1-2.8-4-5.7-5.6-8.7-.3-.5-.6-1-.8-1.5-.3-.5-.6-1.1-.8-1.7-1.8-3.5-3.3-7.3-4.6-11.1-.2-.5-.3-.9-.4-1.4-.2-.5-.3-.9-.4-1.4l-.3-1.2c-.1-.5-.3-.9-.4-1.4l-.1-.4h-.4c-.7.1-1.4.1-2 0h-.4l-.1.4c-.1.5-.2.9-.3 1.4l-.3 1.2c-.1.5-.3.9-.4 1.4-.1.5-.3.9-.5 1.4-1.2 3.8-2.8 7.5-4.6 11.1-.3.6-.5 1.1-.8 1.7-.3.5-.5 1-.8 1.5-1.7 3-3.6 5.9-5.6 8.7l-.3.3.3.3c3.9 4.2 4.1 10.4.6 14.9l-.3.3 2.5 2.5.3-.4c3.8-4 7.4-8.3 10.5-12.9l.8-1.3c.2-.2.3-.4.5-.7.2.2.3.5.5.7l.8 1.3c3.1 4.6 6.7 8.9 10.5 12.9l.4.4 2.5-2.5-.3-.3c-3.5-4.5-3.3-10.7.6-14.9v-.3zm-1.9 15.5-1.2 1.2c-3.7-3.8-7.1-8-10.1-12.4l-.8-1.3c-.3-.4-.6-.9-.9-1.3l-.4-.7-.4.7c-.3.4-.6.9-.9 1.3l-.8 1.3c-3 4.4-6.4 8.6-10.1 12.4l-1.2-1.2c3.5-4.7 3.2-11.1-.6-15.5 2-2.7 3.8-5.5 5.4-8.4.3-.5.6-1 .8-1.6.3-.6.6-1.1.9-1.7 1.8-3.6 3.4-7.4 4.6-11.2.2-.5.3-1 .5-1.4.1-.5.3-1 .4-1.4l.3-1.2c.1-.3.2-.7.3-1h1.4c.1.3.2.7.3 1l.3 1.2c.1.5.3 1 .4 1.4.1.5.3 1 .5 1.4 1.3 3.9 2.8 7.6 4.6 11.2.3.6.6 1.1.9 1.7.3.5.5 1 .8 1.6 1.6 2.9 3.5 5.7 5.5 8.4-3.8 4.4-4 10.8-.5 15.5z" class="st0"/><path d="m553.7 683.7-1.2 1.2c-3.7-3.8-7.1-8-10.1-12.4l-.8-1.3c-.3-.4-.6-.9-.9-1.3l-.4-.7-.4.7c-.3.4-.6.9-.9 1.3l-.8 1.3c-3 4.4-6.4 8.6-10.1 12.4l-1.2-1.2c3.5-4.7 3.2-11.1-.6-15.5 2-2.7 3.8-5.5 5.4-8.4.3-.5.6-1 .8-1.6.3-.6.6-1.1.9-1.7 1.8-3.6 3.4-7.4 4.6-11.2.2-.5.3-1 .5-1.4.1-.5.3-1 .4-1.4l.3-1.2c.1-.3.2-.7.3-1h1.4c.1.3.2.7.3 1l.3 1.2c.1.5.3 1 .4 1.4.1.5.3 1 .5 1.4 1.3 3.9 2.8 7.6 4.6 11.2.3.6.6 1.1.9 1.7.3.5.5 1 .8 1.6 1.6 2.9 3.5 5.7 5.5 8.4-3.8 4.4-4 10.8-.5 15.5zM518.6 642.4c-40.6-8.6-72.3-40.3-80.9-80.9l-.1-.6-.6.2c-24.1 9.6-39.8 32.7-39.8 58.6 0 34.8 28.3 63.1 63.1 63.1 26 0 49-15.6 58.6-39.8l.2-.6h-.5zm-58.3 39.4c-34.2 0-62.1-27.9-62.1-62.1 0-25.4 15.1-47.8 38.6-57.5 8.8 40.5 40.5 72.2 80.9 80.9-9.5 23.6-32 38.7-57.4 38.7z" class="st0"/><path d="M536.6 638.6c-4.4-1.5-7.6-5.6-7.8-10.3v-.4l-.4-.1c-.8-.1-1.5-.2-2.2-.3l-.3-.1c-.2 0-.4-.1-.6-.1-.2 0-.4-.1-.6-.1-.3 0-.5-.1-.8-.1-.2 0-.4-.1-.6-.1-.2 0-.5-.1-.8-.1-5.7-1.2-11.3-2.9-16.6-5.2l-.4-.2-.2.3c-3.2 4.9-9.6 6.6-14.9 3.9l-.4-.2-2 2.9.5.3c9.6 5.6 20 9.6 30.9 11.9.4.1.9.2 1.3.3l.9.2c-.1.3-.2.5-.3.8-.2.5-.3.9-.5 1.3-3.1 7.9-7.7 15.1-13.6 21.4l-.3.4 2.6 2.6.3-.3c3.9-3.1 9.3-3.3 13.5-.5l.4.3.3-.4c2.4-3.2 4.6-6.7 6.4-10.3.3-.6.6-1.1.9-1.7l.9-1.8c1.1-2.4 2.2-5 3.1-7.7.2-.5.3-.9.5-1.4.1-.5.3-.9.4-1.4.3-1.1.6-2.1.9-3.1l.1-.4-.6-.3zm-1.5 3.5c-.1.5-.3.9-.4 1.4-.1.5-.3.9-.4 1.4-.9 2.6-1.9 5.2-3.1 7.6-.3.6-.5 1.2-.8 1.8-.3.6-.5 1.1-.8 1.7-1.8 3.4-3.8 6.7-6.1 9.8-4.3-2.7-9.8-2.4-13.9.6l-1.3-1.3c5.9-6.3 10.4-13.4 13.5-21.3.2-.5.4-.9.5-1.4.2-.5.3-.9.5-1.4l.2-.5-2.1-.4c-.4-.1-.9-.2-1.3-.3-10.6-2.2-20.7-6.1-30.1-11.5l.9-1.3c5.5 2.6 12 .9 15.5-4.1 5.3 2.2 10.9 3.9 16.4 5.1.3.1.5.1.8.1.2.1.5.1.7.1.3.1.6.1.8.1.2 0 .4.1.6.1.2 0 .4.1.6.1l.3.1 1.8.3c.4 4.8 3.6 8.9 8 10.6-.2.8-.5 1.7-.8 2.6z" class="st0"/><path d="M535.9 639.4c-.2.9-.5 1.8-.7 2.7-.1.5-.3.9-.4 1.4-.1.5-.3.9-.4 1.4-.9 2.6-1.9 5.2-3.1 7.6-.3.6-.5 1.2-.8 1.8-.3.6-.5 1.1-.8 1.7-1.8 3.4-3.8 6.7-6.1 9.8-4.3-2.7-9.8-2.4-13.9.6l-1.3-1.3c5.9-6.3 10.4-13.4 13.5-21.3.2-.5.4-.9.5-1.4.2-.5.3-.9.5-1.4l.2-.5-2.1-.4c-.4-.1-.9-.2-1.3-.3-10.6-2.2-20.7-6.1-30.1-11.5l.9-1.3c5.5 2.6 12 .9 15.5-4.1 5.3 2.2 10.9 3.9 16.4 5.1.3.1.5.1.8.1.2.1.5.1.7.1.3.1.6.1.8.1.2 0 .4.1.6.1.2 0 .4.1.6.1l.3.1 1.8.3c.3 4.6 3.4 8.8 7.9 10.5zM458.3 574c-2.2-5.3-4-10.9-5.1-16.6-.1-.3-.1-.5-.1-.8 0-.2-.1-.4-.1-.6-.1-.3-.1-.5-.2-.8 0-.2-.1-.4-.1-.6 0-.2-.1-.4-.1-.5v-.3c-.1-.7-.2-1.5-.3-2.2l-.1-.4h-.4c-4.7-.2-8.8-3.4-10.3-7.8l-.1-.4-.5.1c-1 .3-2.1.6-3.1.9-.5.1-1 .3-1.4.4h-.1c-.4.1-.9.3-1.3.4-2.7.9-5.3 1.9-7.7 3.1l-1.8.9c-.6.3-1.1.6-1.7.9-3.6 1.9-7 4-10.3 6.4l-.4.3.3.4c2.8 4.2 2.6 9.6-.5 13.5l-.3.4 2.6 2.6.4-.3c6.2-6 13.4-10.5 21.4-13.6.4-.2.9-.3 1.3-.5.3-.1.5-.2.8-.3l.2 1.1c.1.4.2.8.2 1.2 2.3 11 6.3 21.4 12 31l.3.5 2.9-2.1-.2-.4c-2.8-5.2-1.1-11.8 3.8-15l.3-.2-.3-.7zm-5.1 15.8-1.3 1c-5.5-9.4-9.4-19.6-11.6-30.3-.1-.4-.2-.8-.2-1.2l-.4-2.2-.5.2c-.5.2-.9.3-1.4.5-.5.2-.9.3-1.4.5-7.9 3.1-15.1 7.6-21.3 13.5l-1.3-1.3c3-4.1 3.2-9.6.6-13.9 3.1-2.3 6.4-4.3 9.8-6.1.5-.3 1.1-.6 1.6-.8l1.8-.9c2.4-1.1 5-2.2 7.6-3.1.4-.2.9-.3 1.3-.4h.1c.5-.2.9-.3 1.4-.4.9-.3 1.8-.5 2.6-.7 1.7 4.5 5.9 7.6 10.6 8l.3 1.8v.3c0 .2.1.4.1.6 0 .2.1.4.1.6 0 .3.1.6.1.8 0 .2.1.4.1.6 0 .3.1.5.2.8 1.1 5.6 2.8 11.1 5 16.4-4.9 3.5-6.6 10.2-3.9 15.7z" class="st0"/><path d="m453.2 589.8-1.3 1c-5.5-9.4-9.4-19.6-11.6-30.3-.1-.4-.2-.8-.2-1.2l-.4-2.2-.5.2c-.5.2-.9.3-1.4.5-.5.2-.9.3-1.4.5-7.9 3.1-15.1 7.6-21.3 13.5l-1.3-1.3c3-4.1 3.2-9.6.6-13.9 3.1-2.3 6.4-4.3 9.8-6.1.5-.3 1.1-.6 1.6-.8l1.8-.9c2.4-1.1 5-2.2 7.6-3.1.4-.2.9-.3 1.3-.4h.1c.5-.2.9-.3 1.4-.4.9-.3 1.8-.5 2.6-.7 1.7 4.5 5.9 7.6 10.6 8l.3 1.8v.3c0 .2.1.4.1.6 0 .2.1.4.1.6 0 .3.1.6.1.8 0 .2.1.4.1.6 0 .3.1.5.2.8 1.1 5.6 2.8 11.1 5 16.4-4.9 3.5-6.6 10.2-3.9 15.7zM440.8 539.7v-1.4l-.4-.1c-.5-.1-.9-.2-1.4-.3h-.1c-.4-.1-.7-.2-1.1-.3-.5-.1-.9-.3-1.4-.4-.5-.1-.9-.3-1.4-.5-3.8-1.2-7.5-2.8-11.1-4.6-.6-.3-1.1-.6-1.7-.8-.5-.3-1-.5-1.5-.8-3-1.7-5.9-3.6-8.7-5.6l-.3-.3-.3.3c-4.2 3.9-10.5 4.1-14.9.6l-.3-.3-2.5 2.5.4.3c4 3.8 8.3 7.4 12.9 10.5l1.3.8c.2.2.5.3.7.5-.2.2-.5.3-.7.5l-1.3.7c-4.6 3.1-8.9 6.7-12.9 10.5l-.4.4 2.5 2.5.3-.3c4.5-3.5 10.7-3.3 14.9.6l.3.3.3-.3c2.8-2 5.7-3.9 8.7-5.6.5-.3 1-.6 1.5-.8.5-.3 1.1-.6 1.7-.8 3.5-1.8 7.3-3.3 11.1-4.6.5-.2.9-.3 1.4-.5.5-.2.9-.3 1.4-.4.4-.1.7-.2 1.1-.3h.1c.5-.1.9-.3 1.4-.4l.4-.1v-1.5zm-1 .7c-.3.1-.7.2-1 .3h-.1c-.4.1-.8.2-1.1.3-.5.1-1 .3-1.4.4-.5.1-1 .3-1.4.5-3.8 1.3-7.6 2.8-11.2 4.6-.6.3-1.1.6-1.7.9-.5.3-1 .6-1.5.8-2.9 1.6-5.7 3.5-8.5 5.5-2.4-2-5.3-3.1-8.2-3.1-2.6 0-5.2.8-7.4 2.4l-1.2-1.2c3.8-3.7 8-7 12.4-10l1.3-.8c.4-.3.9-.6 1.3-.8l.7-.4-.7-.4c-.5-.3-.9-.6-1.3-.9l-1.3-.8c-4.4-3-8.6-6.4-12.4-10.1l1.2-1.2c4.7 3.5 11.1 3.2 15.5-.6 2.7 2 5.5 3.8 8.4 5.4l1.5.9c.6.3 1.1.6 1.7.9 3.6 1.8 7.4 3.4 11.2 4.6.5.2 1 .3 1.4.5.5.2 1 .3 1.4.4.4.1.8.2 1.1.3h.1c.3.1.7.2 1 .3v.7c0 .3.2.4.2.6z" class="st0"/><path d="M439.8 539.7v.7c-.3.1-.7.2-1 .3h-.1c-.4.1-.8.2-1.1.3-.5.1-1 .3-1.4.4-.5.1-1 .3-1.4.5-3.8 1.3-7.6 2.8-11.2 4.6-.6.3-1.1.6-1.7.9-.5.3-1 .6-1.5.8-2.9 1.6-5.7 3.5-8.5 5.5-2.4-2-5.3-3.1-8.2-3.1-2.6 0-5.2.8-7.4 2.4l-1.2-1.2c3.8-3.7 8-7 12.4-10l1.3-.8c.4-.3.9-.6 1.3-.8l.7-.4-.7-.4c-.5-.3-.9-.6-1.3-.9l-1.3-.8c-4.4-3-8.6-6.4-12.4-10.1l1.2-1.2c4.7 3.5 11.1 3.2 15.5-.6 2.7 2 5.5 3.8 8.4 5.4l1.5.9c.6.3 1.1.6 1.7.9 3.6 1.8 7.4 3.4 11.2 4.6.5.2 1 .3 1.4.5.5.2 1 .3 1.4.4.4.1.8.2 1.1.3h.1c.3.1.7.2 1 .3.2.2.2.4.2.6zM458.1 504.7c-4.8-3.2-6.5-9.4-4-14.6l.2-.4-3-1.9-.3.4c-5.5 9.5-9.4 19.8-11.7 30.6-.1.4-.2.8-.2 1.2l-.2 1.1c-.3-.1-.5-.2-.8-.3-.4-.2-.9-.3-1.3-.5-7.9-3.1-15.1-7.7-21.4-13.6l-.4-.3-2.6 2.6.3.3c3.1 3.9 3.3 9.3.5 13.5l-.3.4.4.3c3.2 2.4 6.7 4.6 10.3 6.4.6.3 1.1.6 1.7.9l1.8.9c2.4 1.2 5 2.2 7.7 3.1.4.1.9.3 1.3.4h.1c.5.1 1 .3 1.4.4 1.1.3 2.1.6 3.1.9l.5.1.1-.4c1.5-4.4 5.6-7.6 10.3-7.8h.4l.1-.4c.1-.8.2-1.5.3-2.2v-.3c0-.2.1-.4.1-.6 0-.2.1-.4.1-.6 0-.3.1-.5.2-.8 0-.2.1-.4.1-.6 0-.2.1-.5.1-.8 1.2-5.7 2.9-11.3 5.2-16.7l.2-.4-.3-.3zm-5.9 17c-.1.3-.1.5-.2.8 0 .2-.1.5-.1.6-.1.3-.1.6-.1.8 0 .2-.1.4-.1.6 0 .2-.1.4-.1.6v.3l-.3 1.8c-4.8.4-8.9 3.6-10.6 8-.9-.2-1.8-.5-2.6-.7-.5-.1-.9-.3-1.4-.4h-.1c-.4-.1-.9-.3-1.3-.4-2.6-.9-5.2-1.9-7.6-3.1l-1.8-.9c-.5-.3-1.1-.5-1.6-.8-3.4-1.8-6.7-3.8-9.8-6.1 2.7-4.3 2.5-9.8-.6-13.9l1.3-1.3c6.3 5.9 13.4 10.4 21.3 13.5.5.2.9.4 1.3.5.5.2.9.3 1.4.5l.5.2.4-2.2c.1-.4.2-.8.2-1.2 2.2-10.5 6-20.5 11.3-29.8l1.4.9c-2.4 5.4-.6 11.8 4.2 15.2-2.2 5.4-3.9 10.9-5 16.5z" class="st0"/><path d="M457.3 505.3c-2.2 5.3-3.9 10.8-5 16.4-.1.3-.1.5-.2.8 0 .2-.1.5-.1.6-.1.3-.1.6-.1.8 0 .2-.1.4-.1.6 0 .2-.1.4-.1.6v.3l-.3 1.8c-4.8.4-8.9 3.6-10.6 8-.9-.2-1.8-.5-2.6-.7-.5-.1-.9-.3-1.4-.4h-.1c-.4-.1-.9-.3-1.3-.4-2.6-.9-5.2-1.9-7.6-3.1l-1.8-.9c-.5-.3-1.1-.5-1.6-.8-3.4-1.8-6.7-3.8-9.8-6.1 2.7-4.3 2.5-9.8-.6-13.9l1.3-1.3c6.3 5.9 13.4 10.4 21.3 13.5.5.2.9.4 1.3.5.5.2.9.3 1.4.5l.5.2.4-2.2c.1-.4.2-.8.2-1.2 2.2-10.5 6-20.5 11.3-29.8l1.4.9c-2.5 5.5-.7 11.9 4.2 15.3z" class="st0"/><path d="M518.9 436.4c-9.6-24.1-32.6-39.8-58.6-39.8-34.8 0-63.1 28.3-63.1 63.1 0 26 15.6 49 39.8 58.6l.6.2.1-.6c8.6-40.6 40.3-72.3 80.9-80.9l.6-.1-.3-.5zm-82.1 80.8c-23.5-9.6-38.6-32.1-38.6-57.5 0-34.2 27.8-62.1 62.1-62.1 25.4 0 47.9 15.1 57.5 38.6-40.5 8.8-72.2 40.5-81 81zM611.4 538.8v-1.1c0-1.6-.1-3.3-.3-5-.2-2.3-.6-4.7-1.1-7-.1-.5-.2-1-.3-1.4v-.2c-.1-.4-.2-.8-.3-1.3 0-.1 0-.2-.1-.3-.1-.5-.3-1-.4-1.5-6.6-24.2-25.7-43.3-49.9-49.9-.5-.1-1-.3-1.5-.4-.1 0-.2-.1-.4-.1l-1.2-.3c-.1 0-.2 0-.2-.1-.5-.1-.9-.2-1.4-.3-2.3-.5-4.7-.8-7-1-1.7-.2-3.4-.3-5.1-.3h-3.9c-1.6 0-3.3.1-5 .3-2.4.2-4.7.6-7 1-.5.1-1 .2-1.4.3h-.2c-.4.1-.8.2-1.3.3-.1 0-.2 0-.3.1-.5.1-1 .3-1.6.4-24.2 6.6-43.3 25.7-49.9 49.9-.1.5-.3 1-.4 1.5 0 .1-.1.2-.1.4l-.3 1.2c0 .1 0 .2-.1.2-.1.5-.2.9-.3 1.4-.5 2.3-.8 4.7-1 7-.2 1.7-.3 3.4-.3 5v4c0 1.6.2 3.3.3 5 .2 2.3.6 4.7 1 7 .1.5.2 1 .3 1.4v.2c.1.4.2.8.3 1.3 0 .1 0 .2.1.3.1.5.3 1 .4 1.5 6.6 24.2 25.7 43.3 49.9 49.9.5.1 1 .3 1.5.4.1 0 .2.1.4.1l1.2.3c.1 0 .2.1.2.1.5.1.9.2 1.4.3 2.3.5 4.7.8 7 1 1.7.2 3.4.3 5 .3h4c1.6 0 3.3-.1 5-.3 2.4-.2 4.7-.6 7-1 .5-.1 1-.2 1.4-.3h.2c.4-.1.8-.2 1.3-.3.1 0 .2-.1.3-.1.5-.1 1-.3 1.5-.4 24.2-6.6 43.3-25.7 49.9-49.9.1-.5.3-1 .4-1.5 0-.1.1-.2.1-.4l.3-1.2c0-.1 0-.2.1-.2.1-.5.2-.9.3-1.4.5-2.3.8-4.7 1.1-7 .2-1.7.3-3.4.3-5v-2c0-.3.1-.6.1-.9zm-1 1.8v1.1c0 1.6-.1 3.3-.3 4.9-.2 2.3-.6 4.7-1 7-.1.5-.2.9-.3 1.4v.1c-.1.4-.2.8-.3 1.3 0 0 0 .1-.1.2-.1.5-.2 1-.4 1.5-6.5 23.8-25.3 42.7-49.2 49.2-.5.1-1 .3-1.6.4 0 0-.1 0-.2.1l-1.2.3h-.2c-.5.1-.9.2-1.4.3-2.3.5-4.6.8-6.9 1-1.7.2-3.3.3-4.9.3H538.5c-1.6 0-3.3-.1-4.9-.3-2.3-.2-4.7-.6-7-1-.5-.1-.9-.2-1.4-.3h-.2c-.4-.1-.8-.2-1.3-.3 0 0-.1 0-.2-.1-.5-.1-1-.2-1.5-.4-23.8-6.5-42.7-25.4-49.2-49.2-.1-.5-.3-1-.4-1.6 0 0 0-.1-.1-.2l-.3-1.2v-.2c-.1-.5-.2-.9-.3-1.4-.5-2.3-.8-4.6-1-6.9-.2-1.7-.3-3.3-.3-4.9V537.8c0-1.6.2-3.3.3-4.9.2-2.3.6-4.7 1-7 .1-.5.2-.9.3-1.4v-.2l.3-1.2s0-.1.1-.3c.1-.5.2-1 .4-1.5 6.5-23.8 25.4-42.7 49.2-49.2.5-.1 1-.3 1.6-.4 0 0 .1 0 .2-.1l1.2-.3h.2c.5-.1.9-.2 1.4-.3 2.3-.5 4.6-.8 6.9-1 1.7-.2 3.3-.3 5-.3H542.4c1.6 0 3.3.1 4.9.3 2.3.2 4.7.6 6.9 1 .5.1.9.2 1.4.3h.2c.4.1.8.2 1.3.3.1 0 .1 0 .2.1.5.1 1 .2 1.5.4 23.8 6.5 42.7 25.3 49.2 49.2.1.5.3 1 .4 1.6v.2c.1.4.2.8.3 1.3v.1c.1.5.2.9.3 1.4.5 2.3.8 4.6 1 6.9.2 1.7.3 3.3.3 4.9V539.6c.1.4.1.7.1 1zM591.8 450.5c-9.5-5.5-19.8-9.4-30.6-11.7-.4-.1-.8-.2-1.2-.2l-1-.2c.1-.3.2-.5.3-.8.2-.4.3-.9.5-1.3 3.1-7.9 7.7-15.1 13.6-21.4l.3-.4-2.6-2.6-.3.3c-3.9 3.1-9.4 3.3-13.5.5l-.4-.3-.3.4c-2.4 3.2-4.6 6.7-6.4 10.3-.3.6-.6 1.1-.9 1.7l-.9 1.8c-1.1 2.4-2.2 5-3.1 7.7-.2.4-.3.9-.5 1.4-.2.5-.3.9-.4 1.4-.3 1.1-.6 2.1-.9 3.1l-.1.5.4.1c4.4 1.5 7.6 5.6 7.8 10.3v.4l.4.1c.8.1 1.5.2 2.2.3h.3c.2 0 .4.1.6.1.2 0 .4.1.6.1.3 0 .5.1.8.2.2 0 .4.1.6.1.2 0 .5.1.8.2 5.7 1.1 11.3 2.9 16.6 5.1l.4.2.2-.3c3.1-4.8 9.4-6.5 14.6-4l.4.2 1.9-3-.2-.3zm-1.8 1.9c-5.4-2.4-11.8-.6-15.2 4.2-5.3-2.2-10.9-3.9-16.5-5-.3-.1-.5-.1-.8-.2-.2 0-.5-.1-.6-.1-.3-.1-.6-.1-.8-.2-.2 0-.4-.1-.6-.1-.2 0-.4-.1-.6-.1h-.3l-1.8-.3c-.4-4.8-3.6-8.9-8-10.6.2-.9.5-1.8.7-2.7.1-.5.3-.9.4-1.4.2-.4.3-.9.4-1.3.9-2.6 1.9-5.2 3.1-7.6l.9-1.8c.3-.6.5-1.1.8-1.6 1.8-3.4 3.8-6.7 6.1-9.8 4.3 2.7 9.8 2.4 13.9-.6l1.3 1.3c-5.9 6.2-10.4 13.4-13.5 21.3-.2.5-.4.9-.5 1.3-.2.5-.3.9-.5 1.4l-.1.6 2.1.4c.4.1.8.2 1.2.2 10.5 2.2 20.5 6 29.8 11.3l-.9 1.4z" class="st0"/><path d="m590.9 451.1-.9 1.4c-5.4-2.4-11.8-.6-15.2 4.2-5.3-2.2-10.9-3.9-16.5-5-.3-.1-.5-.1-.8-.2-.2 0-.5-.1-.6-.1-.3-.1-.6-.1-.8-.2-.2 0-.4-.1-.6-.1-.2 0-.4-.1-.6-.1h-.3l-1.8-.3c-.4-4.8-3.6-8.9-8-10.6.2-.9.5-1.8.7-2.7.1-.5.3-.9.4-1.4.2-.4.3-.9.4-1.3.9-2.6 1.9-5.2 3.1-7.6l.9-1.8c.3-.6.5-1.1.8-1.6 1.8-3.4 3.8-6.7 6.1-9.8 4.3 2.7 9.8 2.4 13.9-.6l1.3 1.3c-5.9 6.2-10.4 13.4-13.5 21.3-.2.5-.4.9-.5 1.3-.2.5-.3.9-.5 1.4l-.1.6 2.1.4c.4.1.8.2 1.2.2 10.4 2.1 20.5 5.9 29.8 11.3zM555.3 410.9c-3.9-4.2-4.1-10.5-.6-14.9l.3-.3-2.5-2.5-.3.4c-3.9 4-7.4 8.3-10.5 12.9l-.8 1.3c-.2.2-.3.5-.5.7-.1-.2-.3-.5-.5-.7l-.8-1.3c-3.1-4.6-6.7-8.9-10.5-12.9l-.3-.4-2.5 2.5.3.3c3.5 4.4 3.3 10.7-.6 14.9l-.3.3.3.3c2.1 2.8 4 5.7 5.6 8.7.3.5.6 1 .8 1.5.3.5.6 1.1.8 1.7 1.8 3.5 3.3 7.3 4.6 11.1.2.5.3.9.5 1.4.2.5.3.9.4 1.4l.3 1.2c.1.4.3.9.3 1.4l.1.4h.4c.7-.1 1.4-.1 2 0h.4l.1-.4c.1-.5.2-.9.4-1.4l.3-1.2c.1-.5.3-.9.4-1.4.1-.5.3-.9.5-1.4 1.2-3.8 2.8-7.5 4.6-11.1.3-.6.5-1.1.8-1.7.3-.5.6-1 .8-1.5 1.7-3 3.5-5.9 5.6-8.7l.3-.3-.2-.3zm-6.5 8.8c-.3.5-.6 1-.8 1.6-.3.6-.6 1.1-.9 1.7-1.8 3.6-3.4 7.4-4.6 11.2-.2.5-.3 1-.5 1.4-.2.5-.3.9-.4 1.4l-.3 1.2c-.1.3-.2.7-.3 1h-1.3c-.1-.3-.2-.6-.3-1l-.3-1.2c-.1-.5-.3-1-.4-1.4-.1-.5-.3-1-.5-1.4-1.3-3.8-2.8-7.6-4.6-11.2-.3-.6-.6-1.1-.9-1.7-.3-.5-.5-1-.8-1.6-1.6-2.9-3.5-5.7-5.4-8.4 3.8-4.4 4.1-10.8.6-15.5l1.2-1.2c3.7 3.8 7.1 8 10 12.4l.8 1.3c.3.4.6.9.8 1.3l.4.7.4-.7c.3-.5.6-.9.9-1.3l.8-1.3c3-4.4 6.4-8.5 10-12.4l1.2 1.2c-3.5 4.7-3.2 11.1.6 15.5-1.9 2.7-3.7 5.6-5.4 8.4z" class="st0"/><path d="M554.3 411.3c-2 2.7-3.8 5.6-5.4 8.4-.3.5-.6 1-.8 1.6-.3.6-.6 1.1-.9 1.7-1.8 3.6-3.4 7.4-4.6 11.2-.2.5-.3 1-.5 1.4-.2.5-.3.9-.4 1.4l-.3 1.2c-.1.3-.2.7-.3 1h-1.3c-.1-.3-.2-.6-.3-1l-.3-1.2c-.1-.5-.3-1-.4-1.4-.1-.5-.3-1-.5-1.4-1.3-3.8-2.8-7.6-4.6-11.2-.3-.6-.6-1.1-.9-1.7-.3-.5-.5-1-.8-1.6-1.6-2.9-3.5-5.7-5.4-8.4 3.8-4.4 4.1-10.8.6-15.5l1.2-1.2c3.7 3.8 7.1 8 10 12.4l.8 1.3c.3.4.6.9.8 1.3l.4.7.4-.7c.3-.5.6-.9.9-1.3l.8-1.3c3-4.4 6.4-8.5 10-12.4l1.2 1.2c-3.5 4.7-3.3 11.1.6 15.5zM618.9 364.7c-24.3.3-47.3 9.9-64.8 26.8l-.4.4 2.5 2.5.3-.3c4.5-3.5 10.7-3.3 14.9.6l.3.3.3-.3c10.6-7.9 23.2-13.1 36.2-15l.4-.1v-.4c.2-5.7 4.5-10.3 10.1-10.9l.4-.1v-3.6l-.2.1zm-.5 2.7c-5.8.9-10.1 5.6-10.5 11.4-12.9 2-25.3 7.1-36 14.9-2.4-2-5.3-3.1-8.2-3.1-2.6 0-5.2.8-7.4 2.4l-1.2-1.2c17.2-16.4 39.6-25.8 63.2-26.2v1.8z" class="st0"/><path d="M618.4 365.7v1.7c-5.8.9-10.1 5.6-10.5 11.4-12.9 2-25.3 7.1-36 14.9-2.4-2-5.3-3.1-8.2-3.1-2.6 0-5.2.8-7.4 2.4l-1.2-1.2c17.2-16.4 39.6-25.7 63.3-26.1zM686.5 391.5c-17.5-17-40.5-26.5-64.8-26.9h-.5v3.6l.4.1c5.6.6 9.9 5.2 10.1 10.9v.4l.4.1c13 1.9 25.6 7.1 36.2 15l.3.3.3-.3c4.2-3.9 10.5-4.1 14.9-.6l.4.3 2.5-2.5-.2-.4zm-2.2 1.6c-4.7-3.5-11.1-3.2-15.5.6-10.6-7.8-23-13-36-14.9-.4-5.8-4.8-10.5-10.5-11.4v-1.7c23.7.5 46.1 9.8 63.2 26.2l-1.2 1.2z" class="st0"/><path d="m685.4 391.9-1.2 1.2c-4.7-3.5-11.1-3.2-15.5.6-10.6-7.8-23-13-36-14.9-.4-5.8-4.8-10.5-10.5-11.4v-1.7c23.7.4 46.1 9.7 63.2 26.2zM619 391.1c-5-.6-9-4.3-9.9-9.2l-.1-.5-.5.1a78.99 78.99 0 0 0-35 14.5l-.4.3.3.4c2.8 4.2 2.6 9.6-.5 13.5l-.3.4 2.6 2.6.4-.3c11.8-11.3 27.2-17.7 43.5-18h.5v-3.6l-.6-.2zm-.6 2.7c-16.1.5-31.5 6.8-43.3 17.9l-1.3-1.3c3-4.1 3.2-9.6.6-13.9 10-7.3 21.6-12.1 33.8-14 1.2 5 5.2 8.7 10.3 9.5v1.8z" class="st0"/><path d="M618.4 392.1v1.8c-16.1.5-31.5 6.8-43.3 17.9l-1.3-1.3c3-4.1 3.2-9.6.6-13.9 10-7.3 21.6-12.1 33.8-14 1.1 5 5.2 8.7 10.2 9.5zM715.4 458.3c-.3-24.3-9.9-47.3-26.9-64.8l-.3-.4-2.5 2.5.3.3c3.5 4.4 3.3 10.7-.6 14.9l-.3.3.3.3c7.9 10.6 13.1 23.2 15 36.2l.1.4h.4c5.7.2 10.3 4.5 10.9 10.1v.4h3.6v-.2zm-2.7-.5c-.9-5.8-5.6-10.1-11.4-10.5-2-12.9-7.1-25.3-14.9-35.9 3.8-4.4 4.1-10.8.6-15.5l1.2-1.2c16.5 17.1 25.8 39.5 26.2 63.2h-1.7z" class="st0"/><path d="M714.4 457.8h-1.7c-.9-5.8-5.6-10.1-11.4-10.5-2-12.9-7.1-25.3-14.9-35.9 3.8-4.4 4.1-10.8.6-15.5l1.2-1.2c16.4 17 25.7 39.4 26.2 63.1zM668.1 508.8l-2.6-2.6-.4.3c-6.2 5.9-13.4 10.5-21.4 13.6-.4.2-.9.3-1.3.5-.3.1-.5.2-.8.3l-.2-1c-.1-.4-.2-.9-.3-1.3-2.2-10.7-6.1-20.9-11.6-30.4l-.3-.5-3 1.9.2.4c2.5 5.2.7 11.4-4.1 14.5l-.3.2.2.4c2.2 5.3 4 10.9 5.1 16.6.1.3.1.5.2.8 0 .2.1.4.1.6.1.3.1.5.1.8 0 .2.1.4.1.6 0 .2.1.4.1.6v.3c.1.7.2 1.5.3 2.2l.1.4h.4c4.7.2 8.8 3.4 10.3 7.8l.1.4.4-.1c1-.3 2.1-.6 3.1-.9.5-.1 1-.3 1.4-.4h.1c.4-.1.9-.3 1.3-.4 2.7-.9 5.3-1.9 7.7-3.1l1.8-.9c.6-.3 1.1-.6 1.7-.9 3.6-1.9 7-4 10.3-6.4l.4-.3-.3-.4c-2.8-4.2-2.6-9.6.5-13.5l.6-.1zm-1.9 14c-3.1 2.3-6.4 4.3-9.8 6.1-.5.3-1.1.6-1.7.8l-1.8.9c-2.4 1.1-5 2.1-7.6 3-.4.1-.9.3-1.3.4h-.1c-.5.1-.9.3-1.4.4-.9.3-1.8.5-2.6.7-1.7-4.4-5.9-7.6-10.6-8l-.3-1.8v-.3c0-.2-.1-.4-.1-.6 0-.2-.1-.4-.1-.6 0-.3-.1-.6-.1-.8 0-.2-.1-.5-.1-.6 0-.3-.1-.5-.1-.8-1.1-5.6-2.8-11.1-5-16.4 4.8-3.4 6.6-9.8 4.3-15.2l1.4-.9c5.3 9.3 9 19.3 11.2 29.6.1.4.2.9.3 1.3l.4 2.1.5-.2c.5-.2.9-.3 1.4-.5.5-.2.9-.3 1.3-.5 7.9-3.1 15.1-7.6 21.3-13.5l1.3 1.3c-3.1 4.3-3.3 9.8-.7 14.1z" class="st0"/><path d="M666.2 522.8c-3.1 2.3-6.4 4.3-9.8 6.1-.5.3-1.1.6-1.7.8l-1.8.9c-2.4 1.1-5 2.1-7.6 3-.4.1-.9.3-1.3.4h-.1c-.5.1-.9.3-1.4.4-.9.3-1.8.5-2.6.7-1.7-4.4-5.9-7.6-10.6-8l-.3-1.8v-.3c0-.2-.1-.4-.1-.6 0-.2-.1-.4-.1-.6 0-.3-.1-.6-.1-.8 0-.2-.1-.5-.1-.6 0-.3-.1-.5-.1-.8-1.1-5.6-2.8-11.1-5-16.4 4.8-3.4 6.6-9.8 4.3-15.2l1.4-.9c5.3 9.3 9 19.3 11.2 29.6.1.4.2.9.3 1.3l.4 2.1.5-.2c.5-.2.9-.3 1.4-.5.5-.2.9-.3 1.3-.5 7.9-3.1 15.1-7.6 21.3-13.5l1.3 1.3c-3.1 4.3-3.3 9.8-.7 14.1z" class="st0"/><path d="M620.3 396.6c-26 0-49 15.6-58.6 39.8l-.2.6.6.1c40.6 8.6 72.3 40.3 80.9 80.9l.1.6.5-.2c24.2-9.6 39.8-32.6 39.8-58.6 0-34.9-28.3-63.2-63.1-63.2zm23.5 120.6c-8.8-40.5-40.5-72.2-80.9-81 9.6-23.5 32.1-38.6 57.5-38.6 34.2 0 62.1 27.9 62.1 62.1-.1 25.4-15.2 47.9-38.7 57.5z" class="st0"/><path d="M698.5 447.9a78.99 78.99 0 0 0-14.5-35l-.3-.4-.4.3c-4.2 2.8-9.6 2.6-13.5-.5l-.3-.3-2.6 2.6.3.4c11.3 11.8 17.7 27.2 18 43.5v.5h3.6v-.4c.6-5 4.3-9 9.2-9.9l.5-.1v-.7zm-10.5 9.9h-1.8c-.5-16.1-6.8-31.5-18-43.3l1.3-1.3c4.1 3 9.6 3.2 13.9.6 7.3 10 12.1 21.6 14 33.8-4.9 1.1-8.7 5.2-9.4 10.2z" class="st0"/><path d="M697.4 447.5c-5 1.2-8.7 5.2-9.5 10.3h-1.8c-.5-16.1-6.8-31.5-18-43.3l1.3-1.3c4.1 3 9.6 3.2 13.9.6 7.4 10 12.2 21.6 14.1 33.7z" class="st0"/><g><path d="M523.6 671.1c-.2-.3-.4-.5-.7-.8-.5-.5-1-.9-1.5-1.2-2.9-1.8-6.5-1.7-9.3.2-.4.3-.8.6-1.2 1l-.3.3-.3.3c-.2.2-.3.4-.4.6-1.9 2.8-2 6.4-.3 9.3.3.6.7 1.1 1.2 1.6.3.3.5.5.8.7 1.5 1.2 3.4 1.8 5.2 1.8 1.7 0 3.4-.5 4.8-1.5.4-.3.8-.6 1.2-1 .3-.3.5-.6.8-.9.1-.1.1-.2.2-.3.1-.2.3-.4.4-.5 1.8-3.1 1.5-6.9-.6-9.6zm-.6 9.5c-.2.4-.5.7-.8 1-.3.3-.7.6-1 .8-2.7 1.9-6.3 1.8-8.9-.2-.2-.2-.4-.4-.7-.6-.4-.4-.8-.9-1.1-1.4-1.6-2.5-1.5-5.8.2-8.2.2-.3.5-.7.8-1 .3-.3.7-.6 1-.8 1.3-.9 2.8-1.3 4.3-1.3 1.4 0 2.7.4 4 1.1.5.3 1 .7 1.4 1.1.2.2.4.5.6.7 2 2.4 2.1 6.1.2 8.8z" class="st0"/></g><g><path d="M468.6 697.8c-.8-3.3-3.4-5.9-6.8-6.4-1-.2-2.1-.2-3 0-3.3.6-6 3.1-6.8 6.4-.1.6-.2 1.3-.2 1.9 0 .4 0 .8.1 1.1.5 3.6 3.3 6.6 6.9 7.3.5.1 1 .1 1.5.1s1 0 1.5-.1c3.6-.6 6.5-3.6 6.9-7.3.1-.3.1-.7.1-1.1 0-.7-.1-1.3-.2-1.9zm-.9 2.9c-.4 3.2-2.9 5.8-6.1 6.4-.8.2-1.8.2-2.6 0-3.2-.6-5.7-3.2-6.1-6.4 0-.3-.1-.6-.1-1 0-.6.1-1.1.2-1.7.7-2.9 3-5.1 6-5.7.4-.1.8-.1 1.3-.1s.9 0 1.3.1c3 .5 5.3 2.8 6 5.7.1.5.2 1.1.2 1.7 0 .4 0 .7-.1 1z" class="st0"/></g><g><path d="M410.7 671.4c-.3-.4-.6-.8-1-1.2-.4-.4-.8-.7-1.2-1-2.8-1.9-6.4-2-9.3-.3-.6.3-1.1.7-1.5 1.2-.3.3-.5.5-.7.8-2.3 2.9-2.4 7.1-.3 10.1.3.4.6.8 1 1.2.4.4.8.7 1.2 1 1.5 1 3.2 1.5 4.8 1.5 1.9 0 3.7-.6 5.2-1.8.3-.2.5-.4.8-.7.5-.5.9-1 1.2-1.6 1.9-2.7 1.8-6.4-.2-9.2zm-.6 8.8c-.3.5-.7 1-1.1 1.4-.2.2-.5.4-.7.6-2.6 2-6.2 2.1-8.9.2-.3-.2-.7-.5-1-.8-.3-.3-.6-.7-.8-1-1.9-2.7-1.8-6.3.2-8.9.2-.2.4-.5.6-.7.4-.4.9-.8 1.4-1.1 1.2-.8 2.6-1.1 3.9-1.1 1.5 0 3 .4 4.3 1.3.3.2.7.5 1 .8.3.3.6.7.9 1 1.7 2.6 1.8 5.8.2 8.3z" class="st0"/></g><g><path d="M388.7 618.2c-.6-3.3-3.1-6-6.4-6.8-1-.2-2.1-.3-3-.2-3.6.5-6.6 3.3-7.3 6.9-.1.5-.1 1-.1 1.5s0 1 .1 1.5c.6 3.6 3.6 6.5 7.3 6.9.3.1.7.1 1.1.1.7 0 1.3-.1 1.9-.2 3.3-.8 5.8-3.4 6.4-6.8.1-.5.1-1 .1-1.5 0-.4 0-.9-.1-1.4zm-1 2.8c-.5 3-2.8 5.3-5.7 6-.9.2-1.8.3-2.7.1-3.2-.4-5.8-2.9-6.4-6.1-.1-.4-.1-.8-.1-1.3s0-.9.1-1.3c.6-3.2 3.2-5.7 6.4-6.1.3 0 .6-.1 1-.1.6 0 1.2.1 1.7.2 2.9.7 5.2 3 5.7 6 .1.4.1.8.1 1.3s0 .9-.1 1.3z" class="st0"/></g><g><path d="M411 558.7c-.3-.6-.8-1.1-1.2-1.6-.3-.3-.5-.5-.8-.7-2.9-2.3-7-2.4-10.1-.3-.4.3-.8.6-1.2 1l-.3.3-.3.3c-.2.2-.3.4-.4.6-2.1 3-2 7.2.3 10 .2.3.4.5.7.8.5.5 1 .9 1.5 1.2 1.4.9 2.9 1.3 4.5 1.3 1.7 0 3.4-.5 4.8-1.5.4-.3.8-.6 1.2-1 .2-.2.4-.4.5-.6.2-.2.3-.4.4-.6 2.1-2.7 2.2-6.3.4-9.2zm-1.1 8.7c-.2.4-.5.7-.9 1-.3.3-.7.6-1 .9-2.4 1.7-5.7 1.8-8.2.2-.5-.3-.9-.6-1.4-1.1-.2-.2-.4-.5-.6-.7-2-2.6-2.1-6.2-.2-8.9.2-.4.5-.7.8-1 .3-.3.7-.6 1-.8 1.3-.9 2.8-1.3 4.3-1.3 1.6 0 3.3.5 4.6 1.6.2.2.5.4.7.6.4.4.8.9 1.1 1.4 1.6 2.4 1.5 5.7-.2 8.1z" class="st0"/></g><g><path d="M410.7 511.4c-.3-.4-.6-.8-1-1.2-.4-.4-.8-.7-1.2-1-2.8-1.9-6.4-2-9.3-.3-.6.3-1.1.7-1.5 1.2-.3.3-.5.5-.7.8-2.3 2.9-2.4 7.1-.3 10.1.3.4.6.8 1 1.2.4.4.8.7 1.2 1 1.5 1 3.2 1.5 4.8 1.5 1.9 0 3.7-.6 5.2-1.8.3-.2.5-.4.8-.7.5-.5.9-1 1.2-1.5 1.9-2.8 1.8-6.5-.2-9.3zm-.6 8.8c-.3.5-.7 1-1.1 1.4-.2.2-.5.4-.7.6-2.6 2-6.2 2.1-8.9.2-.3-.2-.7-.5-1-.8-.3-.3-.6-.7-.8-1-1.9-2.7-1.8-6.3.2-8.9.2-.2.4-.5.6-.7.4-.4.9-.8 1.4-1.1 1.2-.8 2.6-1.1 3.9-1.1 1.5 0 3 .5 4.3 1.3.3.2.7.5 1 .8.3.3.6.7.9 1 1.7 2.6 1.8 5.8.2 8.3z" class="st0"/></g><g><path d="M388.7 458.2c-.6-3.3-3.1-6-6.4-6.8-1-.2-2.1-.3-3-.2-3.6.5-6.6 3.3-7.3 6.9-.1.5-.1 1-.1 1.5s0 1 .1 1.5c.6 3.6 3.6 6.5 7.3 6.9.3.1.7.1 1.1.1.7 0 1.3-.1 1.9-.2 3.3-.8 5.8-3.4 6.4-6.8.1-.5.1-1 .1-1.5s0-.9-.1-1.4zm-1 2.8c-.5 3-2.8 5.3-5.7 6-.9.2-1.8.3-2.7.1-3.2-.4-5.8-2.9-6.4-6.1-.1-.4-.1-.8-.1-1.3s0-.9.1-1.3c.6-3.2 3.2-5.7 6.4-6.1.3 0 .6-.1 1-.1.6 0 1.2.1 1.7.2 2.9.7 5.2 3 5.7 6 .1.4.1.8.1 1.3s0 .9-.1 1.3z" class="st0"/></g><g><path d="M411 398.7c-.3-.6-.8-1.1-1.2-1.6-.3-.3-.5-.5-.8-.7-2.9-2.3-7-2.4-10.1-.3-.4.3-.8.6-1.2 1l-.3.3-.3.3c-.2.2-.3.4-.4.6-2.1 3-2 7.2.3 10 .2.3.4.5.7.8.5.5 1 .9 1.5 1.2 1.4.9 2.9 1.3 4.5 1.3 1.7 0 3.4-.5 4.8-1.5.4-.3.8-.6 1.2-1 .2-.2.4-.4.5-.6.2-.2.3-.4.4-.6 2.1-2.7 2.2-6.3.4-9.2zm-1.1 8.7c-.2.4-.5.7-.9 1-.3.3-.7.6-1 .9-2.4 1.7-5.7 1.8-8.2.2-.5-.3-.9-.6-1.4-1.1-.2-.2-.4-.5-.6-.7-2-2.6-2.1-6.2-.2-8.9.2-.4.5-.7.8-1 .3-.3.7-.6 1-.8 1.3-.9 2.8-1.3 4.3-1.3 1.6 0 3.3.5 4.6 1.6.2.2.5.4.7.6.4.4.8.9 1.1 1.4 1.6 2.4 1.5 5.7-.2 8.1z" class="st0"/></g><g><path d="M460.3 371.2c.5 0 1 0 1.5.1-.4 0-1-.1-1.5-.1zm-1.5.2c.5-.1 1-.1 1.5-.1-.5-.1-1 0-1.5.1z" class="st0"/><path d="M468.7 378.6c-.5-3.6-3.3-6.6-6.9-7.3-.5-.1-1-.1-1.5-.1s-1 0-1.5.1c-3.6.6-6.4 3.6-6.9 7.3-.1.3-.1.7-.1 1.1 0 .7.1 1.3.2 1.9.8 3.3 3.4 5.9 6.8 6.4.5.1 1 .1 1.5.1s1 0 1.5-.1c3.4-.6 6-3.1 6.8-6.4.1-.6.2-1.3.2-1.9 0-.4 0-.7-.1-1.1zm-1.1 2.8c-.7 2.9-3 5.1-6 5.7-.8.2-1.8.2-2.6 0-3-.5-5.3-2.8-6-5.7-.1-.5-.2-1.1-.2-1.7 0-.3 0-.7.1-1 .4-3.2 2.9-5.8 6.1-6.4.4-.1.8-.1 1.3-.1s.9 0 1.3.1c3.2.6 5.7 3.2 6.1 6.4 0 .3.1.6.1 1 0 .6-.1 1.2-.2 1.7z" class="st0"/></g><g><path d="M524 407.8c.3-.4.5-.8.7-1.2-.2.4-.4.8-.7 1.2zm-13.5-8.6c0 .1-.1.2-.1.2s.1-.1.1-.2z" class="st0"/></g><g><path d="M620.3 371.2c.5 0 1 0 1.5.1-.4 0-1-.1-1.5-.1zm-1.5.2c.5-.1 1-.1 1.5-.1-.5-.1-1 0-1.5.1z" class="st0"/><path d="M628.7 378.6c-.5-3.6-3.3-6.6-6.9-7.3-.5-.1-1-.1-1.5-.1s-1 0-1.5.1c-3.6.6-6.4 3.6-6.9 7.3-.1.3-.1.7-.1 1.1 0 .7.1 1.3.2 1.9.8 3.3 3.4 5.9 6.8 6.4.5.1 1 .1 1.5.1s1 0 1.5-.1c3.4-.6 6-3.1 6.8-6.4.1-.6.2-1.3.2-1.9 0-.4 0-.7-.1-1.1zm-1.1 2.8c-.7 2.9-3 5.1-6 5.7-.8.2-1.8.2-2.6 0-3-.5-5.3-2.8-6-5.7-.1-.5-.2-1.1-.2-1.7 0-.3 0-.7.1-1 .4-3.2 2.9-5.8 6.1-6.4.4-.1.8-.1 1.3-.1s.9 0 1.3.1c3.2.6 5.7 3.2 6.1 6.4 0 .3.1.6.1 1 0 .6-.1 1.2-.2 1.7z" class="st0"/></g><g><path d="M682.8 407.7c.3-.3.5-.7.7-1.1-.2.5-.4.8-.7 1.1zM670.5 399.2c0 .1-.1.2-.1.2s.1-.1.1-.2zm13.5 8.6c.3-.4.5-.8.7-1.2-.2.4-.4.8-.7 1.2z" class="st0"/><path d="M683.9 398.3c-.3-.4-.6-.8-1-1.2-.4-.4-.8-.7-1.2-1-3-2.1-7.2-2-10.1.3-.3.2-.5.4-.8.7l-.7.7c-.1.1-.2.3-.3.4-.1.1-.2.3-.3.4-.1.2-.2.3-.3.5-.2.3-.3.7-.5 1.1 0 .1-.1.3-.1.4-.8 2.4-.4 5.1 1.1 7.3.1.2.3.4.5.6.2.2.3.4.5.6.4.4.8.7 1.2 1 1.5 1 3.1 1.5 4.8 1.5 1.5 0 3.1-.4 4.5-1.3.6-.3 1.1-.8 1.5-1.2l.4-.4c.1-.1.2-.3.3-.4.1-.2.3-.4.4-.6.3-.4.5-.8.7-1.2 1.3-2.6 1.1-5.8-.6-8.2zm-.4 8.4c-.2.4-.4.7-.7 1.1-.2.2-.4.5-.6.7-.4.4-.9.8-1.4 1.1-2.5 1.6-5.8 1.5-8.2-.2-.4-.2-.7-.5-1-.8-.3-.3-.6-.7-.8-1a7.55 7.55 0 0 1-.5-7.8c.1-.1.1-.2.1-.2 0-.1.1-.2.1-.2.3-.5.7-1 1.1-1.4.2-.2.5-.4.7-.6 1.3-1 3-1.6 4.6-1.6 1.5 0 3 .5 4.3 1.3.3.2.7.5 1 .8.3.3.6.7.8 1 .3.5.6 1 .8 1.5.1.4.3.7.3 1.1.5 1.7.2 3.6-.6 5.2z" class="st0"/></g><g><path d="M708.7 458.2c-.6-3.6-3.6-6.5-7.3-6.9-.9-.1-2.1-.1-3 .1-3.3.8-5.8 3.4-6.4 6.8-.1.5-.1 1-.1 1.5s0 1 .1 1.5c.6 3.3 3.1 6 6.4 6.8.6.1 1.3.2 1.9.2.4 0 .8 0 1.1-.1 3.6-.5 6.6-3.3 7.3-6.9.1-.5.1-1 .1-1.5s0-1-.1-1.5zm-1 2.8c-.6 3.2-3.2 5.7-6.4 6.1-.8.1-1.8.1-2.7-.1-2.9-.7-5.1-3-5.7-6-.1-.4-.1-.8-.1-1.3s0-.9.1-1.3c.5-3 2.8-5.3 5.7-6 .5-.1 1.1-.2 1.7-.2.4 0 .7 0 1 .1 3.2.4 5.8 2.9 6.4 6.1.1.4.1.8.1 1.3s0 .9-.1 1.3z" class="st0"/></g><g><path d="M683.9 521.1c-.1.1-.1.2-.2.3 0-.1.1-.2.2-.3.1-.2.3-.4.4-.5-.2.2-.3.3-.4.5zM683.6 511.1c-.2-.3-.4-.5-.7-.8-.5-.5-1-.9-1.5-1.2-2.9-1.8-6.5-1.7-9.3.2-.4.3-.8.6-1.2 1l-.3.3-.3.3c-.2.2-.3.4-.4.6-1.9 2.8-2 6.4-.3 9.3.3.6.7 1.1 1.2 1.5.3.3.5.5.8.7 1.5 1.2 3.4 1.8 5.2 1.8 1.7 0 3.4-.5 4.8-1.5.4-.3.8-.6 1.2-1 .3-.3.5-.6.8-.9.1-.1.1-.2.2-.3.1-.2.3-.4.4-.5 1.8-3 1.5-6.8-.6-9.5zm-.6 9.5c-.2.4-.5.7-.8 1-.3.3-.7.6-1 .8-2.7 1.9-6.3 1.8-8.9-.2-.2-.2-.5-.4-.7-.6-.4-.4-.8-.9-1.1-1.4-1.6-2.5-1.5-5.8.2-8.2.2-.3.5-.7.8-1 .3-.3.7-.6 1-.9 1.3-.9 2.8-1.3 4.3-1.3 1.4 0 2.7.4 4 1.1.5.3 1 .6 1.4 1.1.2.2.4.5.6.7 2 2.5 2.1 6.2.2 8.9z" class="st0"/></g><g><path d="M683.9 558.3c-.3-.4-.6-.8-1-1.2-.4-.4-.8-.7-1.2-1-3-2.1-7.2-2-10.1.3-.3.2-.5.4-.8.7-.5.5-.9 1-1.2 1.6-1.8 2.9-1.7 6.5.2 9.3.1.2.3.4.5.6.2.2.3.4.5.6.4.4.8.7 1.2 1 1.5 1 3.1 1.5 4.8 1.5 1.5 0 3.1-.4 4.5-1.3.6-.3 1.1-.8 1.5-1.2.3-.3.5-.5.7-.8 2.4-2.9 2.5-7.1.4-10.1zm-1.1 9.4c-.2.2-.4.5-.6.7-.4.4-.9.8-1.4 1.1-2.5 1.6-5.8 1.5-8.2-.2-.4-.2-.7-.5-1-.8-.3-.3-.6-.7-.8-1-1.7-2.4-1.8-5.7-.2-8.2.3-.5.7-1 1.1-1.4.2-.2.5-.4.7-.6 1.3-1 3-1.6 4.6-1.6 1.5 0 3 .5 4.3 1.3.3.2.7.5 1 .8.3.3.6.7.8 1 1.8 2.7 1.7 6.4-.3 8.9z" class="st0"/></g><g><path d="M708.7 618.2c-.6-3.6-3.6-6.4-7.3-6.9-.9-.1-2-.1-3 .1-3.3.8-5.8 3.4-6.4 6.8-.1.5-.1 1-.1 1.5s0 1 .1 1.5c.6 3.4 3.1 6 6.4 6.8.6.1 1.3.2 1.9.2.4 0 .8 0 1.1-.1 3.6-.5 6.6-3.3 7.3-6.9.1-.5.1-1 .1-1.5s0-1-.1-1.5zm-1 2.8c-.6 3.2-3.2 5.7-6.4 6.1-.8.1-1.8.1-2.7-.1-2.9-.7-5.1-3-5.7-6-.1-.4-.1-.8-.1-1.3s0-.9.1-1.3c.5-3 2.8-5.3 5.7-6 .5-.1 1.1-.2 1.7-.2.4 0 .7 0 1 .1 3.2.4 5.8 2.9 6.4 6.1.1.4.1.8.1 1.3s0 .9-.1 1.3z" class="st0"/></g><g><path d="M683.6 671.1c-.2-.3-.4-.5-.7-.8-.5-.5-1-.9-1.5-1.2-2.9-1.8-6.5-1.7-9.3.2-.4.3-.8.6-1.2 1l-.3.3-.3.3c-.2.2-.3.4-.4.6-1.9 2.8-2 6.4-.3 9.3.3.6.7 1.1 1.2 1.6.3.3.5.5.8.7 1.5 1.2 3.4 1.8 5.2 1.8 1.7 0 3.4-.5 4.8-1.5.4-.3.8-.6 1.2-1 .3-.3.5-.6.8-.9.1-.1.1-.2.2-.3.1-.2.3-.4.4-.5 1.8-3.1 1.5-6.9-.6-9.6zm-.6 9.5c-.2.4-.5.7-.8 1-.3.3-.7.6-1 .8-2.7 1.9-6.3 1.8-8.9-.2-.2-.2-.5-.4-.7-.6-.4-.4-.8-.9-1.1-1.4-1.6-2.5-1.5-5.8.2-8.2.2-.3.5-.7.8-1 .3-.3.7-.6 1-.8 1.3-.9 2.8-1.3 4.3-1.3 1.4 0 2.7.4 4 1.1.5.3 1 .7 1.4 1.1.2.2.4.5.6.7 2 2.4 2.1 6.1.2 8.8z" class="st0"/></g><g><path d="M628.6 697.8c-.8-3.3-3.4-5.9-6.8-6.4-1-.2-2.1-.2-3 0-3.3.6-6 3.1-6.8 6.4-.1.6-.2 1.3-.2 1.9 0 .4 0 .8.1 1.1.5 3.6 3.3 6.6 6.9 7.3.5.1 1 .1 1.5.1s1 0 1.5-.1c3.6-.6 6.5-3.6 6.9-7.3.1-.3.1-.7.1-1.1 0-.7-.1-1.3-.2-1.9zm-.9 2.9c-.4 3.2-2.9 5.8-6.1 6.4-.8.2-1.8.2-2.6 0-3.2-.6-5.7-3.2-6.1-6.4 0-.3-.1-.6-.1-1 0-.6.1-1.1.2-1.7.7-2.9 3-5.1 6-5.7.4-.1.8-.1 1.3-.1s.9 0 1.3.1c3 .5 5.3 2.8 6 5.7.1.5.2 1.1.2 1.7 0 .4 0 .7-.1 1z" class="st0"/></g><g><path d="M570.7 671.4c-.3-.4-.6-.8-1-1.2-.4-.4-.8-.7-1.2-1-2.8-1.9-6.4-2-9.3-.3-.6.3-1.1.7-1.5 1.2-.3.3-.5.5-.7.8-2.3 2.9-2.4 7.1-.3 10.1.3.4.6.8 1 1.2.4.4.8.7 1.2 1 1.5 1 3.2 1.5 4.8 1.5 1.9 0 3.7-.6 5.2-1.8.3-.2.5-.4.8-.7.5-.5.9-1 1.2-1.6 1.9-2.7 1.8-6.4-.2-9.2zm-.6 8.8c-.3.5-.7 1-1.1 1.4-.2.2-.5.4-.7.6-2.6 2-6.2 2.1-8.9.2-.3-.2-.7-.5-1-.8-.3-.3-.6-.7-.8-1-1.9-2.7-1.8-6.3.2-8.9.2-.2.4-.5.6-.7.4-.4.9-.8 1.4-1.1 1.2-.8 2.6-1.1 3.9-1.1 1.5 0 3 .4 4.3 1.3.3.2.7.5 1 .8.3.3.6.7.9 1 1.7 2.6 1.8 5.8.2 8.3z" class="st0"/></g><g><path d="M548.6 625.8c-.2-.8-.5-1.6-.9-2.4-.6-1.1-1.5-2-2.5-2.7-1-.7-2.1-1.2-3.3-1.4-.2 0-.4-.1-.7-.1h-1.7c-.2 0-.4.1-.6.1-1.2.2-2.3.7-3.3 1.4s-1.9 1.6-2.5 2.7c-.4.7-.8 1.5-.9 2.4-.1.6-.2 1.3-.2 1.9 0 .4 0 .7.1 1v.1c.4 2.9 2.3 5.4 5 6.6l.3.2c.6.2 1.1.4 1.6.5.4.1.9.1 1.4.1h.3c.5 0 .9-.1 1.3-.1.5-.1 1.1-.2 1.6-.5l.3-.1c2.7-1.2 4.6-3.7 5-6.7 0-.3.1-.7.1-1.1-.2-.6-.3-1.3-.4-1.9zm-.9 2.9c-.4 2.7-2.1 5-4.7 6l-.2.1c-.4.2-.8.3-1.3.3-.4.1-.8.1-1.2.1h-.3c-.4 0-.8 0-1.2-.1-.4-.1-.7-.2-1.1-.3l-.3-.1c-1.3-.5-2.3-1.3-3.1-2.3-.2-.3-.4-.5-.5-.8-.5-.8-.8-1.8-1-2.7v-.1c0-.3-.1-.6-.1-.9 0-.6.1-1.1.2-1.7.2-.7.4-1.4.8-2.1.6-1 1.3-1.8 2.2-2.4.9-.6 1.9-1 2.9-1.2.2 0 .4-.1.5-.1H540.9c.2 0 .4 0 .6.1 1 .2 2 .6 2.9 1.2.9.6 1.7 1.4 2.2 2.4.4.7.7 1.4.8 2.1.1.6.2 1.1.2 1.7.2.1.2.4.1.8z" class="st0"/></g><g><path d="m470.3 488.9-1.5-1.2c-.3-.2-.7-.3-1-.5-3.3-1.4-7.1-.6-9.6 2-.4.4-.8.9-1.1 1.5-.2.4-.4.7-.5 1.1-1.5 3.5-.4 7.6 2.6 10l.9.6c.6.3 1.2.6 1.7.8.8.3 1.7.4 2.6.4 2.3 0 4.6-1 6.3-2.7.4-.4.8-.9 1.1-1.5.2-.4.4-.7.5-1.1 1.4-3.2.6-7-2-9.4zm1.1 9.1c-.1.3-.3.6-.5.9-.3.5-.6.9-1 1.3-2 2.1-5 2.9-7.8 2-.5-.2-1-.4-1.5-.7-.3-.2-.6-.4-.8-.6-2.6-2.1-3.6-5.7-2.3-8.8.1-.3.3-.6.5-.9.3-.5.6-.9 1-1.3 1.4-1.6 3.5-2.4 5.5-2.4 1 0 2 .2 2.9.6.3.1.6.3.9.4.5.3 1 .6 1.4 1 1.5 1.4 2.3 3.4 2.3 5.5 0 1.1-.2 2-.6 3z" class="st0"/></g><g><path d="M460.8 539.1v-.2c0-.2-.1-.4-.1-.6-.2-1.2-.7-2.3-1.4-3.3s-1.6-1.9-2.7-2.5c-.7-.4-1.5-.8-2.4-.9-1-.2-2.1-.3-2.9-.2h-.1c-2.9.4-5.4 2.3-6.6 5l-.1.3c-.2.5-.4 1.1-.5 1.6-.1.4-.1.9-.1 1.4v.3c0 .5.1.9.1 1.3.1.5.2 1.1.5 1.6l.1.3c1.2 2.7 3.7 4.6 6.7 5 .4 0 .7.1 1.1.1.6 0 1.3-.1 1.9-.2.8-.2 1.6-.5 2.4-.9 1.1-.6 2-1.5 2.7-2.5.7-1 1.2-2.1 1.4-3.3 0-.2.1-.4.1-.7V539.8c0-.2-.1-.5-.1-.7zm-1 1.2v.2c0 .2 0 .4-.1.6-.2 1-.6 2-1.2 2.9-.6.9-1.4 1.7-2.4 2.2-.6.4-1.3.7-2.1.8-.9.2-1.6.3-2.7.1-2.7-.3-5-2.1-6-4.7l-.1-.2c-.2-.4-.3-.8-.3-1.3-.1-.4-.1-.7-.1-1.2v-.3c0-.4 0-.8.1-1.2.1-.4.2-.7.3-1.1l.1-.3c1-2.5 3.3-4.3 5.9-4.7h.1c.9-.1 1.8-.1 2.6.1.7.2 1.4.4 2.1.8 1 .6 1.8 1.3 2.4 2.2.6.9 1 1.9 1.2 2.9 0 .2.1.4.1.5v.8c0 .2.1.7.1.9z" class="st0"/></g><g><path d="M472.2 587.6c.2-.4.3-.8.4-1.2-.1.4-.2.8-.4 1.2zm-.6 1.1c.2-.4.4-.7.6-1.1-.1.4-.3.8-.6 1.1zm-1 1.4zM472.8 582.7c0-.2-.1-.4-.1-.5-.1-.5-.3-1.1-.6-1.6-.1-.2-.2-.3-.3-.5l-.1-.1c-.5-.8-1.1-1.5-1.8-2.2-2.2-1.9-5.3-2.5-8.1-1.6-.6.2-1.2.4-1.8.8l-.9.6c-3.1 2.4-4.1 6.6-2.5 10.1.1.3.3.6.5.9.3.6.8 1.1 1.2 1.6 1.6 1.7 3.8 2.6 6.1 2.6 1.1 0 2.2-.2 3.3-.7.3-.1.7-.3 1-.5.6-.3 1.1-.7 1.5-1.2l.3-.3c.3-.3.6-.7.8-1 .1-.1.2-.2.2-.4.2-.4.4-.7.6-1.1.2-.4.3-.8.4-1.2.1-.3.1-.6.2-.9v-1c.2-.6.2-1.2.1-1.8zm-.9 1.3c0 .6 0 1.2-.1 1.8-.1.6-.3 1.1-.5 1.6-.4.8-.9 1.6-1.7 2.3-.4.4-.8.7-1.4 1-.3.2-.6.3-.9.4-2.8 1.2-6.2.5-8.3-1.7-.4-.4-.8-.9-1.1-1.4-.2-.3-.3-.5-.4-.8-1.4-3.2-.5-6.8 2.2-8.9.3-.2.5-.4.8-.6.5-.3 1-.5 1.5-.7.7-.2 1.5-.4 2.3-.4 1.8 0 3.5.6 4.9 1.8.6.5 1.2 1.2 1.6 1.9l.4-.3-.3.4c.2.3.3.6.4.9.1.2.2.4.2.7v.1c.1.2.1.4.1.5 0 .1 0 .2.1.3 0 .2.1.4.1.6.1.2.1.3.1.5z" class="st0"/></g><g><path d="M501.6 609.5c-.5-.5-1-.9-1.6-1.2-.3-.2-.6-.3-.9-.4-3.3-1.4-7.1-.7-9.6 1.9l-1.2 1.5c-.2.3-.3.7-.5 1-1.4 3.2-.6 7 1.9 9.4.5.5 1 .9 1.6 1.3.3.2.6.3.9.5 1.1.5 2.3.7 3.5.7 2.5 0 5-1.2 6.7-3.3l.6-.9c.3-.6.6-1.2.8-1.7 1-3.2.1-6.6-2.2-8.8zm1.2 8.3c-.2.5-.4 1-.7 1.5-.2.3-.4.6-.5.8-2.1 2.7-5.8 3.6-9 2.2-.3-.1-.5-.2-.8-.4-.5-.3-1-.7-1.4-1.1-2.2-2.1-2.9-5.5-1.7-8.3.1-.3.3-.6.4-.9.3-.5.6-.9 1-1.4 1.4-1.5 3.4-2.3 5.4-2.3 1 0 2.1.2 3 .6.3.1.5.2.8.4.5.3 1 .7 1.4 1.1 1.5 1.4 2.3 3.4 2.3 5.4.2.9.1 1.7-.2 2.4z" class="st0"/></g><g><path d="M587.8 608.7c.5.2.9.5 1.3.7-.4-.3-.8-.5-1.3-.7z" class="st0"/><path d="M592.7 612.3c-.1-.3-.3-.7-.5-1-.3-.6-.7-1.1-1.2-1.5-2.5-2.7-6.4-3.4-9.7-1.9-.3.1-.5.2-.7.4-.6.4-1.2.8-1.8 1.4-2.2 2.3-3 5.5-2 8.5.2.6.4 1.2.8 1.7l.6.9c1.6 2.1 4.1 3.3 6.7 3.3 1 0 2-.2 3-.5.4-.2.9-.4 1.4-.6l1.2-.9c2.7-2.5 3.6-6.4 2.2-9.8zm-3 9c-.3.3-.7.6-1.1.8l-1.2.6c-3.1 1.2-6.5.2-8.5-2.4-.2-.3-.4-.5-.6-.8-.3-.5-.5-1-.7-1.5-.9-2.7-.2-5.5 1.8-7.5.5-.5 1-.9 1.5-1.2l.6-.3c1-.5 2.1-.7 3.2-.7 1 0 2 .2 2.9.6.5.2.9.4 1.3.7.4.3.8.6 1.2 1 .4.4.7.9 1 1.4.2.3.3.6.4.8.4.9.6 1.9.6 2.9.2 2-.7 4.1-2.4 5.6z" class="st0"/></g><g><path d="m621.4 577.6-.9-.6c-.6-.3-1.2-.6-1.7-.8-3.1-1-6.6-.1-8.8 2.3-.4.4-.8.9-1.1 1.5-.2.4-.4.7-.5 1.1-1.3 3.2-.5 7 2 9.4l1.5 1.2c.3.2.6.3 1 .5 1.1.5 2.2.7 3.3.7 2.3 0 4.6-1 6.2-2.7.4-.4.8-.9 1.1-1.5.2-.4.4-.7.5-1.1 1.5-3.5.4-7.6-2.6-10zm1.7 9.6c-.1.3-.3.6-.5.9-.3.5-.6.9-1 1.3-2.1 2.3-5.5 3-8.4 1.8-.3-.1-.6-.3-.9-.4-.5-.3-1-.6-1.4-1-2.2-2.1-2.9-5.4-1.8-8.3.1-.3.3-.6.5-.9.3-.5.6-.9 1-1.3 1.4-1.6 3.5-2.4 5.5-2.4.8 0 1.5.1 2.3.3.5.2 1 .4 1.5.7.3.2.6.4.8.6 1.8 1.4 2.9 3.7 2.9 5.9.1.9-.1 1.9-.5 2.8z" class="st0"/></g><g><path d="M636.7 538.2c-.1-.5-.2-1.1-.5-1.6l-.1-.3c-1.2-2.7-3.7-4.6-6.7-5-1-.1-2-.1-2.9.2-.8.2-1.6.5-2.4.9-1.1.6-2 1.5-2.7 2.5-.7 1-1.2 2.1-1.4 3.3 0 .2-.1.4-.1.7v1.7c0 .2.1.4.1.6.2 1.2.7 2.3 1.4 3.3s1.6 1.9 2.7 2.5c.7.4 1.5.8 2.4.9.6.1 1.3.2 1.9.2.4 0 .7 0 1-.1h.1c2.9-.4 5.4-2.3 6.6-5l.2-.3c.2-.6.4-1.1.5-1.6.1-.4.1-.9.1-1.4v-.3c-.1-.3-.1-.8-.2-1.2zm-.9 1.7c0 .4 0 .8-.1 1.2-.1.4-.2.7-.3 1.1l-.1.3c-1 2.5-3.3 4.3-5.9 4.7h-.1c-.9.1-1.8.1-2.6-.1-.7-.2-1.4-.4-2.1-.8-1-.6-1.8-1.3-2.4-2.2-.6-.9-1-1.9-1.2-2.9 0-.2-.1-.4-.1-.5V539.1c0-.2 0-.4.1-.6.2-1 .6-2 1.2-2.9.6-.9 1.5-1.7 2.4-2.2.7-.4 1.4-.7 2.1-.8.5-.1 1.1-.2 1.7-.2.3 0 .6 0 1 .1 2.7.4 5 2.1 6 4.7l.1.2c.2.4.3.8.3 1.3.1.4.1.7.1 1.2z" class="st0"/></g><g><path d="M624.1 492c-.2-.4-.3-.8-.5-1.1-.3-.5-.7-1-1.1-1.4-2.4-2.7-6.3-3.5-9.6-2.1-.3.2-.6.3-1 .5-.6.3-1.1.7-1.5 1.2-2.5 2.4-3.3 6.1-2 9.3.1.4.3.7.6 1.1.3.5.7 1 1.1 1.4 1.6 1.8 3.9 2.8 6.3 2.8.9 0 1.7-.1 2.6-.4.6-.2 1.2-.4 1.8-.8l.9-.6c2.7-2.3 3.8-6.4 2.4-9.9zm-3.3 9.1c-.3.2-.5.4-.8.6-.5.3-1 .5-1.5.7-2.8.9-5.8.1-7.8-2.1-.3-.4-.7-.8-.9-1.3-.2-.4-.4-.7-.5-1-1.1-2.8-.4-6.2 1.8-8.3.4-.4.9-.7 1.4-1 .3-.2.6-.3.8-.4 1-.4 1.9-.6 2.9-.6 2.1 0 4.1.8 5.5 2.4.3.4.7.8.9 1.3.2.3.3.6.5 1 .4.9.5 1.9.5 2.8.1 2.2-.9 4.4-2.8 5.9z" class="st0"/></g><g><path d="M590.7 457.6c-.4-.4-.9-.8-1.5-1.1-.4-.2-.7-.4-1.1-.5-.3-.1-.5-.2-.8-.3-.3-.1-.5-.2-.8-.2-3.1-.6-6.3.5-8.3 3.1l-.6.9c-.3.6-.6 1.2-.8 1.7-1 3.1-.1 6.6 2.3 8.8.4.4.9.8 1.5 1.1.4.2.7.4 1.1.5 1 .4 2.1.6 3.2.6 2.3 0 4.5-.9 6.2-2.6l1.2-1.5c.2-.3.3-.7.5-1 1.4-3.2.5-7-2.1-9.5zm1.1 9.2c-.1.3-.3.6-.4.9-.3.5-.6.9-1 1.4-2.1 2.2-5.4 3-8.3 1.8-.3-.1-.6-.3-.9-.5-.5-.3-.9-.6-1.3-1-2.1-2-2.9-5-2-7.8.1-.5.4-1 .7-1.5.2-.3.4-.6.5-.8 1.5-1.9 3.7-2.9 5.9-2.9 1 0 1.9.2 2.8.6.3.1.6.3 1 .5.5.3.9.6 1.3 1 2.3 2 3 5.4 1.7 8.3z" class="st0"/></g><g><path d="M548.8 450.7v-.1c-.4-2.9-2.3-5.4-5-6.6l-.3-.1c-.6-.2-1.1-.4-1.6-.5-.4-.1-.9-.1-1.4-.1h-.3c-.5 0-.9.1-1.3.1-.5.1-1.1.2-1.6.5l-.3.1c-2.7 1.2-4.6 3.7-5 6.7 0 .3-.1.7-.1 1.1 0 .6.1 1.3.2 1.9.2.8.5 1.6.9 2.4.6 1.1 1.5 2 2.5 2.7 1 .7 2.1 1.2 3.3 1.4.2 0 .4.1.6.1h1.7c.2 0 .4-.1.6-.1 1.2-.2 2.3-.7 3.3-1.4s1.9-1.6 2.5-2.7c.4-.7.8-1.5.9-2.4.1-.6.2-1.3.2-1.9.2-.4.2-.8.2-1.1zm-1.2 2.7c-.2.7-.4 1.4-.8 2.1-.6 1-1.3 1.8-2.2 2.4-.9.6-1.9 1-2.9 1.2-.2 0-.4.1-.5.1H539.6c-.2 0-.4 0-.6-.1-1.1-.2-2-.6-2.9-1.2-.9-.6-1.7-1.4-2.2-2.4-.4-.7-.7-1.3-.8-2.1-.1-.5-.2-1.1-.2-1.7 0-.3 0-.6.1-1 .4-2.7 2.1-5 4.7-6l.2-.1c.4-.2.8-.3 1.3-.3.4-.1.8-.1 1.2-.1h.3c.4 0 .8 0 1.2.1.4.1.7.2 1.1.3l.3.1c1.3.5 2.3 1.3 3.1 2.3.2.3.4.5.5.8.5.8.8 1.8 1 2.7v.2c0 .3.1.6.1.9-.2.7-.2 1.2-.4 1.8z" class="st0"/></g><g><path d="M503.9 461.3c-.2-.6-.4-1.2-.8-1.7l-.6-.9c-2.3-3-6.4-4.1-9.9-2.6-.4.1-.7.3-1.1.6-.5.3-1 .7-1.4 1.1-2.7 2.4-3.5 6.3-2.1 9.6.2.3.3.7.5 1 .3.6.7 1.1 1.2 1.5 1.6 1.7 3.9 2.7 6.2 2.7 1.1 0 2.1-.2 3.2-.6.4-.1.7-.3 1.1-.6.5-.3 1-.7 1.4-1.1l.3-.3.3-.3.3-.3c.2-.2.4-.5.5-.7.1-.1.2-.3.2-.4.1-.3.3-.5.4-.8.1-.3.2-.5.3-.8.5-1.9.5-3.7 0-5.4zm-3.1 8c-.4.3-.8.7-1.3.9-.4.2-.7.4-1 .5-2.8 1.2-6.2.4-8.3-1.8-.4-.4-.7-.8-1-1.4-.2-.3-.3-.6-.4-.9-1.2-2.9-.5-6.3 1.9-8.5.4-.4.8-.7 1.3-.9.4-.2.7-.4 1-.5.9-.4 1.9-.5 2.8-.5 2.3 0 4.5 1 5.9 2.9.2.3.4.5.6.8.3.5.5 1 .7 1.5.2.8.3 1.5.3 2.3 0 2.2-.9 4.2-2.5 5.6z" class="st0"/></g></svg>